<?xml version="1.0" standalone="no"?>
<!DOCTYPE svg PUBLIC "-//W3C//DTD SVG 1.1//EN" "http://www.w3.org/Graphics/SVG/1.1/DTD/svg11.dtd" >
<svg xmlns="http://www.w3.org/2000/svg" xmlns:xlink="http://www.w3.org/1999/xlink" version="1.1">
<metadata>
Created by FontForge 20201107 at Sun Jun 28 23:58:37 2026
 By www-data
(c) 2017 Connary Fagen
</metadata>
<defs>
<font id="IntegralCF-DemiBold" horiz-adv-x="1578" >
  <font-face 
    font-family="Integral CF Demi Bold"
    font-weight="600"
    font-stretch="normal"
    units-per-em="2048"
    panose-1="0 0 7 0 0 0 0 0 0 0"
    ascent="1638"
    descent="-410"
    x-height="1434"
    cap-height="1434"
    bbox="-459 -775 2697 1876"
    underline-thickness="85"
    underline-position="-170"
    unicode-range="U+0020-25CA"
  />
<missing-glyph horiz-adv-x="896" 
d="M736 1536v-1792h-569v1792h569zM597 1417h-297v-60h118v-67h-119v-58h298v58h-119v67h119v60zM478 1184h-179v-186h298v62h-119v124zM418 1125v-65h-60v65h60zM597 951h-298v-60h119v-67h-119v-58h179v125h119v60zM597 843h-59v-119h-239v-60h298v179zM597 625h-179v-101
h60v41h60v-84h-180v144h-59v-203h298v203zM597 314h-298v-203h298v203zM538 254v-83h-180v83h180zM597 70h-298v-60h126l-126 -83v-60h298v60h-182l124 83h58v60z" />
    <glyph glyph-name=".notdef" horiz-adv-x="896" 
d="M736 1536v-1792h-569v1792h569zM597 1417h-297v-60h118v-67h-119v-58h298v58h-119v67h119v60zM478 1184h-179v-186h298v62h-119v124zM418 1125v-65h-60v65h60zM597 951h-298v-60h119v-67h-119v-58h179v125h119v60zM597 843h-59v-119h-239v-60h298v179zM597 625h-179v-101
h60v41h60v-84h-180v144h-59v-203h298v203zM597 314h-298v-203h298v203zM538 254v-83h-180v83h180zM597 70h-298v-60h126l-126 -83v-60h298v60h-182l124 83h58v60z" />
    <glyph glyph-name=".null" horiz-adv-x="0" 
 />
    <glyph glyph-name="nonmarkingreturn" horiz-adv-x="682" 
 />
    <glyph glyph-name="space" unicode=" " horiz-adv-x="440" 
 />
    <glyph glyph-name="exclam" unicode="!" horiz-adv-x="559" 
d="M142 527l-84 907h444l-84 -907h-276zM280 -27q-89 0 -154 63.5t-65 151.5q0 87 65 151t154 64q88 0 152.5 -64t64.5 -151q0 -88 -64 -151.5t-153 -63.5z" />
    <glyph glyph-name="quotedbl" unicode="&#x22;" horiz-adv-x="1005" 
d="M116 811l-31 623h374l-29 -623h-314zM577 811l-31 623h374l-29 -623h-314z" />
    <glyph glyph-name="numbersign" unicode="#" horiz-adv-x="1425" 
d="M1369 845h-183v-236h183v-312h-183v-297h-357v297h-233v-297h-359v297h-181v312h181v236h-181v293h181v296h359v-296h233v296h357v-296h183v-293zM829 609v236h-233v-236h233z" />
    <glyph glyph-name="dollar" unicode="$" horiz-adv-x="1322" 
d="M1287 459q0 -177 -148.5 -276.5t-409.5 -110.5v-104h-144v104q-258 12 -405 118t-149 315h377q4 -123 177 -141v238q-196 36 -284 69q-241 90 -248 294v13q0 170 143 270.5t389 111.5v113h144v-114q85 -5 158 -21.5t140 -49t113.5 -80.5t74 -120t26.5 -163h-369
q-5 69 -39.5 102.5t-103.5 44.5v-237q50 -6 79.5 -10t81.5 -13t85.5 -18.5t79 -25.5t75 -34.5t62.5 -46.5t51.5 -60t31 -75t12.5 -93zM442 973q0 -75 143 -113v215q-64 -7 -103.5 -32t-39.5 -70zM729 364q162 15 162 102q0 38 -38 63.5t-124 45.5v-211z" />
    <glyph glyph-name="percent" unicode="%" horiz-adv-x="1942" 
d="M599 -51l-184 126l928 1417l184 -125zM457 707q-96 0 -170 29.5t-119 81.5t-68 118.5t-23 145.5q0 77 23 143t68 118t119 81.5t170 29.5q187 0 284 -105.5t97 -266.5q0 -79 -23 -145.5t-68.5 -118.5t-119.5 -81.5t-170 -29.5zM457 975q53 0 79.5 31t26.5 76
q0 46 -26.5 76t-79.5 30t-80 -30t-27 -76q0 -45 27 -76t80 -31zM1485 -20q-96 0 -170.5 29.5t-119.5 81.5t-68 118t-23 144t23 144.5t68 118.5t119.5 81.5t170.5 29.5q187 0 283 -105.5t96 -268.5q0 -78 -22.5 -144.5t-67.5 -118t-119 -81t-170 -29.5zM1485 246
q53 0 79.5 31t26.5 76q0 46 -26.5 77t-79.5 31t-80.5 -31t-27.5 -77q0 -45 27.5 -76t80.5 -31z" />
    <glyph glyph-name="ampersand" unicode="&#x26;" horiz-adv-x="1728" 
d="M1683 210l-178 -248l-176 130q-221 -140 -554 -140t-530 127.5t-197 345.5q0 130 76 235.5t234 162.5q-116 125 -116 257q0 77 38.5 146.5t111 124.5t187.5 87.5t256 32.5q140 0 252 -30.5t196 -93.5t129 -167t44 -243h-374q1 119 -66 168t-181 49q-96 0 -148 -30.5
t-52 -85.5q0 -45 43 -86t191 -150l373 -271q50 106 47 225h377q-3 -257 -120 -447zM817 285q110 0 202 36l-444 326q-99 -58 -99 -155q0 -71 49.5 -119t124 -68t167.5 -20z" />
    <glyph glyph-name="quotesingle" unicode="'" horiz-adv-x="544" 
d="M116 811l-31 623h374l-29 -623h-314z" />
    <glyph glyph-name="parenleft" unicode="(" horiz-adv-x="938" 
d="M876 -247q-128 0 -236.5 22t-188 58.5t-143.5 92t-106.5 113.5t-73.5 132.5t-47.5 139t-26.5 144t-12.5 136.5t-2.5 126q0 90 4.5 163.5t23.5 177.5t52 184t96 165.5t149 141.5t217.5 92.5t294.5 36.5v-352q-80 0 -144 -16t-110 -43.5t-79.5 -71.5t-54 -92.5t-32.5 -114
t-16.5 -128.5t-4.5 -143q0 -81 4.5 -145t16.5 -129.5t32.5 -114.5t54 -92.5t79.5 -71.5t110 -44t144 -16v-351z" />
    <glyph glyph-name="parenright" unicode=")" horiz-adv-x="938" 
d="M63 -247v351q80 0 144 16t110 44t79.5 71.5t53.5 92.5t32 115t16.5 129.5t4.5 144.5q0 80 -4.5 143t-16.5 128.5t-32 114t-53.5 92.5t-79.5 71.5t-110 43.5t-144 16v352q128 0 236.5 -22t188 -58.5t143.5 -92.5t106 -113.5t73 -132t48 -139t26.5 -143.5t12 -135.5
t2.5 -124.5q0 -69 -2.5 -126t-12 -136.5t-26.5 -144t-48 -139t-73 -132t-106 -113.5t-143.5 -92.5t-188 -58.5t-236.5 -22z" />
    <glyph glyph-name="asterisk" unicode="*" horiz-adv-x="1105" 
d="M1021 1091l-258 -125l258 -125l-127 -220l-235 161l20 -285h-252l20 285l-235 -161l-127 220l258 125l-258 125l127 218l235 -160l-20 285h252l-20 -285l235 160z" />
    <glyph glyph-name="plus" unicode="+" horiz-adv-x="1324" 
d="M1239 887v-339h-398v-398h-358v398h-398v339h398v400h358v-400h398z" />
    <glyph glyph-name="comma" unicode="," horiz-adv-x="626" 
d="M210 -403q28 187 24 403h-178v358h516v-80q0 -249 -30 -426.5t-68 -254.5h-264z" />
    <glyph glyph-name="hyphen" unicode="-" horiz-adv-x="1126" 
d="M68 532v359h990v-359h-990z" />
    <glyph glyph-name="period" unicode="." horiz-adv-x="559" 
d="M280 -27q-89 0 -154 63.5t-65 151.5q0 87 65 151t154 64q88 0 152.5 -64t64.5 -151q0 -88 -64 -151.5t-153 -63.5z" />
    <glyph glyph-name="slash" unicode="/" horiz-adv-x="1184" 
d="M17 0l662 1434h488l-662 -1434h-488z" />
    <glyph glyph-name="zero" unicode="0" horiz-adv-x="1503" 
d="M751 -38q-340 0 -526 193.5t-186 561.5t186 561t526 193q341 0 527 -193t186 -561t-186 -561.5t-527 -193.5zM751 324q142 0 217 98.5t75 294.5t-75 294t-217 98q-140 0 -215 -98t-75 -294t75 -294.5t215 -98.5z" />
    <glyph glyph-name="one" unicode="1" horiz-adv-x="1261" 
d="M887 328h301v-328h-1115v328h386v693q-70 -60 -158.5 -80.5t-196.5 -20.5v360q193 0 355 154h428v-1106z" />
    <glyph glyph-name="two" unicode="2" horiz-adv-x="1363" 
d="M1316 1015q0 -81 -23 -146.5t-62.5 -110.5t-91.5 -81t-111.5 -62t-119.5 -48.5t-119 -45.5t-108 -49t-87 -62.5t-55 -81.5h770v-328h-1261v200q0 99 29 182t78.5 140t113 104t134.5 79t141.5 59.5t134 51.5t113 48.5t78.5 57t29 71.5q0 137 -192 137q-44 0 -82 -7.5
t-72.5 -26t-54 -54t-18.5 -85.5h-419q0 251 158.5 382.5t468.5 131.5q302 0 465 -117.5t163 -338.5z" />
    <glyph glyph-name="three" unicode="3" horiz-adv-x="1414" 
d="M689 -38q-329 0 -486 121.5t-155 382.5h384q5 -91 67.5 -127.5t181.5 -36.5q125 0 194.5 36.5t69.5 106.5q0 26 -12 51.5t-40 52t-88 43t-143 16.5h-70v245h70q66 0 116.5 10.5t79 26t46 36.5t23 38.5t5.5 35.5q0 65 -62.5 99t-169.5 34q-239 0 -239 -169h-382
q-2 256 156.5 381.5t465.5 125.5q299 0 458.5 -107.5t159.5 -291.5q0 -209 -213 -307v-24q118 -34 190.5 -123.5t72.5 -223.5q0 -202 -182.5 -317t-497.5 -115z" />
    <glyph glyph-name="four" unicode="4" horiz-adv-x="1518" 
d="M1253 585h211v-326h-211v-259h-429v259h-759v326l684 849h504v-849zM444 585h380v473z" />
    <glyph glyph-name="five" unicode="5" horiz-adv-x="1384" 
d="M678 -38q-315 0 -471 124.5t-151 369.5h381q11 -80 75 -118.5t162 -38.5q127 0 194 57.5t67 146.5q0 91 -62.5 144.5t-181.5 53.5q-153 0 -239 -100h-382l155 833h990v-326h-672l-45 -236q41 32 120.5 55.5t195.5 23.5q108 0 201.5 -30t165.5 -87t113.5 -148t41.5 -205
q0 -244 -170 -381.5t-488 -137.5z" />
    <glyph glyph-name="six" unicode="6" horiz-adv-x="1380" 
d="M775 922q121 0 223 -27.5t180.5 -82.5t122.5 -145t44 -206q0 -230 -165.5 -364.5t-474.5 -134.5q-151 0 -267 38.5t-191 104.5t-123 163.5t-68 207.5t-20 244q0 164 36 293.5t98 214.5t150 140.5t186 79t213 23.5q281 0 440 -118.5t157 -348.5h-343q-14 75 -83.5 110.5
t-170.5 35.5q-288 0 -280 -302q110 74 336 74zM700 282q119 0 188 51.5t69 137.5t-67.5 136t-189.5 50q-121 0 -188 -48.5t-67 -137.5q0 -86 68 -137.5t187 -51.5z" />
    <glyph glyph-name="seven" unicode="7" horiz-adv-x="1312" 
d="M48 1434h1227v-347l-702 -1087h-452l705 1087h-778v347z" />
    <glyph glyph-name="eight" unicode="8" horiz-adv-x="1442" 
d="M720 -38q-146 0 -262 24.5t-192 66t-126 100t-71 123.5t-21 139q0 248 247 373v26q-67 42 -107 114t-40 157q0 174 144.5 280t427.5 106t429 -106.5t146 -279.5q0 -84 -40 -156.5t-108 -114.5v-26q247 -125 247 -373q0 -74 -21.5 -139t-71.5 -123.5t-126 -100t-192 -66
t-263 -24.5zM720 896q98 0 147 37t49 103q0 67 -50.5 104.5t-145.5 37.5q-94 0 -144 -37.5t-50 -104.5q0 -66 48 -103t146 -37zM720 287q131 0 194.5 49.5t63.5 131.5q0 81 -63.5 130t-194.5 49t-193.5 -48.5t-62.5 -130.5t62.5 -131.5t193.5 -49.5z" />
    <glyph glyph-name="nine" unicode="9" horiz-adv-x="1380" 
d="M676 1471q151 0 267 -38.5t191 -104.5t123 -163.5t68 -207.5t20 -244q0 -164 -36 -293.5t-98 -214.5t-150 -140.5t-186 -79t-213 -23.5q-280 0 -439.5 119t-157.5 349h343q14 -75 83.5 -111t170.5 -36q288 0 280 302q-109 -73 -336 -73q-121 0 -223 27.5t-180.5 82.5
t-122.5 145t-44 206q0 230 165.5 364t474.5 134zM681 777q121 0 187.5 48.5t66.5 137.5q0 86 -67.5 137.5t-186.5 51.5t-188.5 -51.5t-69.5 -137.5t68 -136t190 -50z" />
    <glyph glyph-name="colon" unicode=":" horiz-adv-x="559" 
d="M280 862q-89 0 -154 63.5t-65 151.5q0 87 65 151t154 64q88 0 152.5 -64t64.5 -151q0 -88 -64 -151.5t-153 -63.5zM280 126q-89 0 -154 63.5t-65 151.5q0 87 65 151t154 64q88 0 152.5 -64t64.5 -151q0 -88 -64 -151.5t-153 -63.5z" />
    <glyph glyph-name="semicolon" unicode=";" horiz-adv-x="640" 
d="M328 862q-89 0 -154 63.5t-65 151.5q0 87 65 151t154 64q88 0 152 -64t64 -151q0 -88 -63.5 -151.5t-152.5 -63.5zM217 -237q28 187 24 403h-178v358h516v-80q0 -249 -30 -426.5t-68 -254.5h-264z" />
    <glyph glyph-name="less" unicode="&#x3c;" horiz-adv-x="1175" 
d="M1091 138l-1006 333v486l1006 338v-368l-681 -191v-43l681 -191v-364z" />
    <glyph glyph-name="equal" unicode="=" horiz-adv-x="1204" 
d="M85 763v358h1035v-358h-1035zM85 314v358h1035v-358h-1035z" />
    <glyph glyph-name="greater" unicode="&#x3e;" horiz-adv-x="1204" 
d="M114 138v364l681 191v43l-681 191v368l1006 -338v-486z" />
    <glyph glyph-name="question" unicode="?" horiz-adv-x="1336" 
d="M464 515q-10 81 7 142t53.5 96t82.5 60t94 42.5t88.5 35t66 45t25.5 66.5q0 59 -59 93.5t-155 34.5q-48 0 -88.5 -9t-78.5 -30.5t-60 -64t-22 -101.5h-387q-11 274 154.5 410t478.5 136q196 0 337 -43t223 -139t82 -239q0 -79 -23.5 -137t-61.5 -92t-84 -59.5t-92 -46.5
t-84 -45t-62 -62.5t-25 -92.5h-410zM667 -27q-89 0 -153.5 63.5t-64.5 151.5q0 87 64.5 151t153.5 64q88 0 152.5 -64t64.5 -151q0 -88 -64 -151.5t-153 -63.5z" />
    <glyph glyph-name="at" unicode="@" horiz-adv-x="1662" 
d="M1539 355q-73 -178 -262.5 -290.5t-445.5 -112.5q-175 0 -323 57t-251 157.5t-160.5 242.5t-57.5 308t57.5 307.5t160.5 242t251 157.5t323 57q174 0 323.5 -57.5t252 -157.5t160.5 -237t58 -292q0 -126 -68.5 -190t-192.5 -64q-110 0 -157 49.5t-40 136.5l41 425h-143
l-31 -77h-22q-25 28 -50 47t-77.5 36.5t-118.5 17.5q-155 0 -261.5 -109.5t-106.5 -296.5q0 -188 107.5 -299t269.5 -111q91 0 158.5 36.5t104.5 100.5h20q33 -63 100.5 -100t159.5 -37q68 0 126.5 17t91.5 39zM787 939q84 0 134 -62t50 -169q0 -104 -50 -165.5t-134 -61.5
q-86 0 -138.5 61t-52.5 166q0 106 52.5 168.5t138.5 62.5z" />
    <glyph glyph-name="A" unicode="A" horiz-adv-x="1699" 
d="M1244 0l-72 207h-645l-71 -207h-442l536 1434h600l538 -1434h-444zM638 526h424l-175 505h-75z" />
    <glyph glyph-name="B" unicode="B" horiz-adv-x="1546" 
d="M1270 744q228 -108 228 -340q0 -90 -33 -161.5t-102.5 -127t-187.5 -85.5t-279 -30h-831v1434h848q123 0 219.5 -21t157 -56t99.5 -84.5t54.5 -102t15.5 -112.5q0 -76 -26 -133t-64.5 -91t-98.5 -64v-26zM870 1104h-377v-249h377q90 0 134 33.5t44 89.5t-44 91t-134 35z
M884 329q89 0 135 42.5t46 102.5t-45.5 98.5t-135.5 38.5h-391v-282h391z" />
    <glyph glyph-name="C" unicode="C" horiz-adv-x="1616" 
d="M838 -48q-358 0 -578.5 211.5t-220.5 553.5q0 226 99.5 399.5t281.5 269t418 95.5q106 0 201.5 -18.5t188 -63.5t163 -113.5t120.5 -175t66 -241.5h-410q-34 122 -119 182t-210 60q-160 0 -267 -109.5t-107 -284.5q0 -174 107 -284t267 -110q125 0 210 60.5t119 184.5
h410q-16 -136 -65.5 -243.5t-119.5 -176t-162.5 -114t-188.5 -64t-203 -18.5z" />
    <glyph glyph-name="D" unicode="D" horiz-adv-x="1592" 
d="M765 1434q168 0 301 -35.5t222 -98.5t147.5 -153.5t84.5 -196.5t26 -233q0 -126 -26 -232t-84.5 -197t-147.5 -154t-222 -98.5t-301 -35.5h-700v1434h700zM763 360q167 0 260 89t93 268q0 180 -92.5 268t-260.5 88h-268v-713h268z" />
    <glyph glyph-name="E" unicode="E" horiz-adv-x="1392" 
d="M65 0v1434h1263v-345h-835v-227h804v-289h-804v-227h835v-346h-1263z" />
    <glyph glyph-name="F" unicode="F" horiz-adv-x="1389" 
d="M65 0v1434h1259v-359h-831v-242h792v-312h-792v-521h-428z" />
    <glyph glyph-name="G" unicode="G" horiz-adv-x="1662" 
d="M1589 780v-780h-239l-5 198q-77 -112 -213.5 -179t-319.5 -67q-163 0 -305.5 56t-245.5 155t-162.5 242.5t-59.5 311.5q0 226 100 399.5t284 269t425 95.5q102 0 197 -19t184 -61t159.5 -103t120.5 -151t68 -200h-425q-30 71 -108 117.5t-187 46.5q-173 0 -283 -109
t-110 -285q0 -175 109 -284.5t274 -109.5q32 0 65.5 4.5t76 19t77 37t64.5 62.5t44 93h-348v241h763z" />
    <glyph glyph-name="H" unicode="H" horiz-adv-x="1594" 
d="M1101 1434h428v-1434h-428v538h-608v-538h-428v1434h428v-538h608v538z" />
    <glyph glyph-name="I" unicode="I" horiz-adv-x="556" 
d="M65 0v1434h428v-1434h-428z" />
    <glyph glyph-name="J" unicode="J" horiz-adv-x="1389" 
d="M674 -48q-114 0 -206.5 17.5t-173 60t-134.5 109.5t-84 170.5t-28 238.5h426q-1 -66 16.5 -113t48.5 -72t66.5 -35.5t78.5 -10.5q212 0 212 272v845h428v-823q0 -182 -43.5 -310.5t-130 -204.5t-203 -110t-273.5 -34z" />
    <glyph glyph-name="K" unicode="K" 
d="M1584 0h-441l-411 538h-27l-213 -226v-312h-427v1434h427v-608h29l561 608h480l-589 -639z" />
    <glyph glyph-name="L" unicode="L" horiz-adv-x="1338" 
d="M65 0v1434h428v-1076h785v-358h-1213z" />
    <glyph glyph-name="M" unicode="M" horiz-adv-x="1792" 
d="M65 0v1434h541l275 -881h30l275 881h543v-1434h-410v712h-34l-227 -712h-322l-227 712h-36v-712h-408z" />
    <glyph glyph-name="N" unicode="N" horiz-adv-x="1617" 
d="M65 0v1434h493l539 -838h40v838h418v-1434h-483l-551 838h-38v-838h-418z" />
    <glyph glyph-name="O" unicode="O" horiz-adv-x="1686" 
d="M843 -48q-240 0 -423 96t-282 269.5t-99 399.5t99.5 399.5t282 269t422.5 95.5t422.5 -95.5t282 -269t99.5 -399.5t-99 -399.5t-282 -269.5t-423 -96zM843 323q162 0 270.5 107t108.5 287t-108.5 287t-270.5 107t-270.5 -107t-108.5 -287t108.5 -287t270.5 -107z" />
    <glyph glyph-name="P" unicode="P" horiz-adv-x="1515" 
d="M65 0v1434h792q295 0 453.5 -137.5t158.5 -410.5q0 -274 -158 -411t-453 -137h-365v-338h-428zM493 695h330q101 0 158 48.5t57 142.5q0 93 -57.5 142t-157.5 49h-330v-382z" />
    <glyph glyph-name="Q" unicode="Q" horiz-adv-x="1686" 
d="M1647 732q0 -278 -198 -481l189 -191q-95 -124 -239 -244l-225 208q-170 -72 -331 -72q-240 0 -423 96t-282 269.5t-99 399.5t99.5 399.5t282 269t422.5 95.5q179 0 329.5 -55.5t254.5 -154t162 -237.5t58 -302zM464 717q0 -180 108.5 -287t270.5 -107t270.5 107
t108.5 287t-108.5 287t-270.5 107t-270.5 -107t-108.5 -287z" />
    <glyph glyph-name="R" unicode="R" horiz-adv-x="1553" 
d="M1516 0h-422l-208 389h-393v-389h-428v1434h797q299 0 455 -134t156 -402q0 -141 -59 -247.5t-161 -172.5zM493 1077v-365h342q102 0 155.5 46.5t53.5 135.5t-53.5 136t-155.5 47h-342z" />
    <glyph glyph-name="S" unicode="S" horiz-adv-x="1481" 
d="M730 -48q-362 2 -534 125.5t-165 390.5h385q11 -177 314 -180q141 -1 216 37.5t75 102.5q0 51 -44 84.5t-151 50.5l-181 29q-209 35 -297 66q-201 70 -257 225q-24 66 -24 150q0 213 171 330.5t496 117.5q124 0 223.5 -15.5t185.5 -52t143 -94.5t88.5 -146t30.5 -204
h-383q-31 176 -298 176q-123 0 -184.5 -35.5t-61.5 -97.5q0 -102 162 -128l152 -27q25 -4 78 -13q78 -12 118.5 -19t111.5 -24.5t111 -36.5t91.5 -52t78 -73t46 -98.5t19.5 -129.5q0 -227 -180 -343.5t-536 -115.5z" />
    <glyph glyph-name="T" unicode="T" horiz-adv-x="1585" 
d="M1529 1434v-359h-522v-1075h-428v1075h-523v359h1473z" />
    <glyph glyph-name="U" unicode="U" 
d="M790 -48q-361 0 -543 163.5t-182 500.5v818h432v-808q0 -151 72.5 -232.5t220.5 -81.5q149 0 222 82t73 232v808h431v-816q0 -338 -182.5 -502t-543.5 -164z" />
    <glyph glyph-name="V" unicode="V" horiz-adv-x="1699" 
d="M550 0l-536 1434h442l370 -1031h48l370 1031h444l-538 -1434h-600z" />
    <glyph glyph-name="W" unicode="W" horiz-adv-x="2174" 
d="M329 0l-293 1434h435l178 -977h37l229 977h345l228 -977h38l177 977h435l-293 -1434h-579l-160 761h-38l-160 -761h-579z" />
    <glyph glyph-name="X" unicode="X" horiz-adv-x="1553" 
d="M5 0l502 715v22l-490 697h463l276 -413h41l276 413h463l-488 -697v-22l500 -715h-468l-283 432h-41l-283 -432h-468z" />
    <glyph glyph-name="Y" unicode="Y" horiz-adv-x="1614" 
d="M1609 1434l-588 -985v-449h-429v451l-587 983h451l332 -574h38l331 574h452z" />
    <glyph glyph-name="Z" unicode="Z" horiz-adv-x="1401" 
d="M39 0v346l770 697v32h-751v359h1306v-347l-780 -696v-33h769v-358h-1314z" />
    <glyph glyph-name="bracketleft" unicode="[" horiz-adv-x="928" 
d="M65 -230v1894h799v-358h-371v-1178h371v-358h-799z" />
    <glyph glyph-name="backslash" unicode="\" horiz-adv-x="1184" 
d="M1167 0h-488l-662 1434h488z" />
    <glyph glyph-name="bracketright" unicode="]" horiz-adv-x="928" 
d="M864 -230h-799v358h370v1178h-370v358h799v-1894z" />
    <glyph glyph-name="asciicircum" unicode="^" horiz-adv-x="1302" 
d="M72 486l332 1006h487l338 -1006h-369l-191 681h-43l-191 -681h-363z" />
    <glyph glyph-name="underscore" unicode="_" horiz-adv-x="1225" 
d="M85 -358v358h1055v-358h-1055z" />
    <glyph glyph-name="grave" unicode="`" horiz-adv-x="503" 
d="M503 1161h-380l-123 291h381z" />
    <glyph glyph-name="a" unicode="a" horiz-adv-x="1699" 
d="M1244 0l-72 207h-645l-71 -207h-442l536 1434h600l538 -1434h-444zM638 526h424l-175 505h-75z" />
    <glyph glyph-name="b" unicode="b" horiz-adv-x="1546" 
d="M1270 744q228 -108 228 -340q0 -90 -33 -161.5t-102.5 -127t-187.5 -85.5t-279 -30h-831v1434h848q123 0 219.5 -21t157 -56t99.5 -84.5t54.5 -102t15.5 -112.5q0 -76 -26 -133t-64.5 -91t-98.5 -64v-26zM870 1104h-377v-249h377q90 0 134 33.5t44 89.5t-44 91t-134 35z
M884 329q89 0 135 42.5t46 102.5t-45.5 98.5t-135.5 38.5h-391v-282h391z" />
    <glyph glyph-name="c" unicode="c" horiz-adv-x="1616" 
d="M838 -48q-358 0 -578.5 211.5t-220.5 553.5q0 226 99.5 399.5t281.5 269t418 95.5q106 0 201.5 -18.5t188 -63.5t163 -113.5t120.5 -175t66 -241.5h-410q-34 122 -119 182t-210 60q-160 0 -267 -109.5t-107 -284.5q0 -174 107 -284t267 -110q125 0 210 60.5t119 184.5
h410q-16 -136 -65.5 -243.5t-119.5 -176t-162.5 -114t-188.5 -64t-203 -18.5z" />
    <glyph glyph-name="d" unicode="d" horiz-adv-x="1592" 
d="M765 1434q168 0 301 -35.5t222 -98.5t147.5 -153.5t84.5 -196.5t26 -233q0 -126 -26 -232t-84.5 -197t-147.5 -154t-222 -98.5t-301 -35.5h-700v1434h700zM763 360q167 0 260 89t93 268q0 180 -92.5 268t-260.5 88h-268v-713h268z" />
    <glyph glyph-name="e" unicode="e" horiz-adv-x="1392" 
d="M65 0v1434h1263v-345h-835v-227h804v-289h-804v-227h835v-346h-1263z" />
    <glyph glyph-name="f" unicode="f" horiz-adv-x="1389" 
d="M65 0v1434h1259v-359h-831v-242h792v-312h-792v-521h-428z" />
    <glyph glyph-name="g" unicode="g" horiz-adv-x="1662" 
d="M1589 780v-780h-239l-5 198q-77 -112 -213.5 -179t-319.5 -67q-163 0 -305.5 56t-245.5 155t-162.5 242.5t-59.5 311.5q0 226 100 399.5t284 269t425 95.5q102 0 197 -19t184 -61t159.5 -103t120.5 -151t68 -200h-425q-30 71 -108 117.5t-187 46.5q-173 0 -283 -109
t-110 -285q0 -175 109 -284.5t274 -109.5q32 0 65.5 4.5t76 19t77 37t64.5 62.5t44 93h-348v241h763z" />
    <glyph glyph-name="h" unicode="h" horiz-adv-x="1594" 
d="M1101 1434h428v-1434h-428v538h-608v-538h-428v1434h428v-538h608v538z" />
    <glyph glyph-name="i" unicode="i" horiz-adv-x="556" 
d="M65 0v1434h428v-1434h-428z" />
    <glyph glyph-name="j" unicode="j" horiz-adv-x="1389" 
d="M674 -48q-114 0 -206.5 17.5t-173 60t-134.5 109.5t-84 170.5t-28 238.5h426q-1 -66 16.5 -113t48.5 -72t66.5 -35.5t78.5 -10.5q212 0 212 272v845h428v-823q0 -182 -43.5 -310.5t-130 -204.5t-203 -110t-273.5 -34z" />
    <glyph glyph-name="k" unicode="k" 
d="M1584 0h-441l-411 538h-27l-213 -226v-312h-427v1434h427v-608h29l561 608h480l-589 -639z" />
    <glyph glyph-name="l" unicode="l" horiz-adv-x="1338" 
d="M65 0v1434h428v-1076h785v-358h-1213z" />
    <glyph glyph-name="m" unicode="m" horiz-adv-x="1792" 
d="M65 0v1434h541l275 -881h30l275 881h543v-1434h-410v712h-34l-227 -712h-322l-227 712h-36v-712h-408z" />
    <glyph glyph-name="n" unicode="n" horiz-adv-x="1617" 
d="M65 0v1434h493l539 -838h40v838h418v-1434h-483l-551 838h-38v-838h-418z" />
    <glyph glyph-name="o" unicode="o" horiz-adv-x="1686" 
d="M843 -48q-240 0 -423 96t-282 269.5t-99 399.5t99.5 399.5t282 269t422.5 95.5t422.5 -95.5t282 -269t99.5 -399.5t-99 -399.5t-282 -269.5t-423 -96zM843 323q162 0 270.5 107t108.5 287t-108.5 287t-270.5 107t-270.5 -107t-108.5 -287t108.5 -287t270.5 -107z" />
    <glyph glyph-name="p" unicode="p" horiz-adv-x="1515" 
d="M65 0v1434h792q295 0 453.5 -137.5t158.5 -410.5q0 -274 -158 -411t-453 -137h-365v-338h-428zM493 695h330q101 0 158 48.5t57 142.5q0 93 -57.5 142t-157.5 49h-330v-382z" />
    <glyph glyph-name="q" unicode="q" horiz-adv-x="1686" 
d="M1647 732q0 -278 -198 -481l189 -191q-95 -124 -239 -244l-225 208q-170 -72 -331 -72q-240 0 -423 96t-282 269.5t-99 399.5t99.5 399.5t282 269t422.5 95.5q179 0 329.5 -55.5t254.5 -154t162 -237.5t58 -302zM464 717q0 -180 108.5 -287t270.5 -107t270.5 107
t108.5 287t-108.5 287t-270.5 107t-270.5 -107t-108.5 -287z" />
    <glyph glyph-name="r" unicode="r" horiz-adv-x="1553" 
d="M1516 0h-422l-208 389h-393v-389h-428v1434h797q299 0 455 -134t156 -402q0 -141 -59 -247.5t-161 -172.5zM493 1077v-365h342q102 0 155.5 46.5t53.5 135.5t-53.5 136t-155.5 47h-342z" />
    <glyph glyph-name="s" unicode="s" horiz-adv-x="1481" 
d="M730 -48q-362 2 -534 125.5t-165 390.5h385q11 -177 314 -180q141 -1 216 37.5t75 102.5q0 51 -44 84.5t-151 50.5l-181 29q-209 35 -297 66q-201 70 -257 225q-24 66 -24 150q0 213 171 330.5t496 117.5q124 0 223.5 -15.5t185.5 -52t143 -94.5t88.5 -146t30.5 -204
h-383q-31 176 -298 176q-123 0 -184.5 -35.5t-61.5 -97.5q0 -102 162 -128l152 -27q25 -4 78 -13q78 -12 118.5 -19t111.5 -24.5t111 -36.5t91.5 -52t78 -73t46 -98.5t19.5 -129.5q0 -227 -180 -343.5t-536 -115.5z" />
    <glyph glyph-name="t" unicode="t" horiz-adv-x="1585" 
d="M1529 1434v-359h-522v-1075h-428v1075h-523v359h1473z" />
    <glyph glyph-name="u" unicode="u" 
d="M790 -48q-361 0 -543 163.5t-182 500.5v818h432v-808q0 -151 72.5 -232.5t220.5 -81.5q149 0 222 82t73 232v808h431v-816q0 -338 -182.5 -502t-543.5 -164z" />
    <glyph glyph-name="v" unicode="v" horiz-adv-x="1699" 
d="M550 0l-536 1434h442l370 -1031h48l370 1031h444l-538 -1434h-600z" />
    <glyph glyph-name="w" unicode="w" horiz-adv-x="2174" 
d="M329 0l-293 1434h435l178 -977h37l229 977h345l228 -977h38l177 977h435l-293 -1434h-579l-160 761h-38l-160 -761h-579z" />
    <glyph glyph-name="x" unicode="x" horiz-adv-x="1553" 
d="M5 0l502 715v22l-490 697h463l276 -413h41l276 413h463l-488 -697v-22l500 -715h-468l-283 432h-41l-283 -432h-468z" />
    <glyph glyph-name="y" unicode="y" horiz-adv-x="1614" 
d="M1609 1434l-588 -985v-449h-429v451l-587 983h451l332 -574h38l331 574h452z" />
    <glyph glyph-name="z" unicode="z" horiz-adv-x="1401" 
d="M39 0v346l770 697v32h-751v359h1306v-347l-780 -696v-33h769v-358h-1314z" />
    <glyph glyph-name="braceleft" unicode="{" horiz-adv-x="1167" 
d="M526 -230q-42 0 -78.5 8.5t-76 32t-63 74.5t-23.5 125v446l-208 242v39l208 241v445q0 60 16.5 105.5t41 70.5t59 40.5t63.5 20t61 4.5h565v-358h-304q-72 0 -72 -60v-273l-193 -236v-39l193 -235v-275q0 -60 72 -60h304v-358h-565z" />
    <glyph glyph-name="bar" unicode="|" horiz-adv-x="556" 
d="M65 -171v1775h428v-1775h-428z" />
    <glyph glyph-name="braceright" unicode="}" horiz-adv-x="1167" 
d="M642 -230h-565v358h304q71 0 71 60v275l193 235v39l-193 236v273q0 60 -71 60h-304v358h565q32 0 61 -4.5t63 -20t58.5 -40.5t41 -70.5t16.5 -105.5v-445l209 -241v-39l-209 -242v-446q0 -60 -16.5 -105t-40.5 -70t-58.5 -40.5t-63 -20t-61.5 -4.5z" />
    <glyph glyph-name="asciitilde" unicode="~" horiz-adv-x="1189" 
d="M783 532q-58 1 -118.5 22t-102 45.5t-94.5 44.5t-98 20q-56 0 -89.5 -27.5t-38.5 -75.5h-153q-12 89 10 159t69 111.5t108 63t130 21.5q57 0 117 -20t101.5 -44.5t94 -45t97.5 -21.5q120 5 131 102h156q12 -89 -10.5 -158.5t-71 -111t-109 -63t-129.5 -22.5z" />
    <glyph glyph-name="exclamdown" unicode="&#xa1;" horiz-adv-x="855" 
d="M282 1092q89 0 152.5 -63.5t63.5 -151.5q0 -87 -64 -151t-152 -64q-89 0 -154 64t-65 151q0 88 65 151.5t154 63.5zM143 538h277l83 -907h-443z" />
    <glyph glyph-name="cent" unicode="&#xa2;" horiz-adv-x="1476" 
d="M765 358q237 0 300 224h372q-14 -124 -59 -221t-109 -160t-148 -104t-171.5 -58t-184.5 -17q-135 0 -251 36l-28 -58h-155l51 111q-162 87 -252.5 244t-90.5 362q0 311 200.5 502.5t525.5 191.5q108 0 208 -22l20 45h156l-41 -91q286 -132 329 -488h-372
q-29 106 -108 164l-298 -645q54 -16 106 -16zM425 717q0 -172 111 -272l290 625q-33 5 -61 5q-144 0 -242 -100t-98 -258z" />
    <glyph glyph-name="sterling" unicode="&#xa3;" horiz-adv-x="1358" 
d="M691 1120q-95 0 -150.5 -44.5t-55.5 -119.5q0 -38 11.5 -70t36 -74t32.5 -59h519v-185h-493q-16 -152 -139 -228v-12h864v-328h-1277v328q85 40 147 108.5t70 131.5h-217v185h149q-36 55 -52.5 83t-36 87t-19.5 118q0 195 168.5 312.5t451.5 117.5q302 0 473 -134.5
t145 -379.5h-408q-7 60 -42 98t-79 51.5t-98 13.5z" />
    <glyph glyph-name="currency" unicode="&#xa4;" horiz-adv-x="1377" 
d="M1157 975q0 -99 -39 -183l89 -87l-195 -193l-73 73q-115 -70 -250 -70q-136 0 -249 72l-75 -75l-194 193l88 89q-37 86 -37 181q0 99 43 191l-94 94l194 192l84 -83q111 65 240 65q128 0 239 -65l84 83l195 -192l-93 -93q43 -92 43 -192zM689 770q62 0 107.5 24
t67.5 59.5t31.5 66.5t9.5 55q0 18 -5 41.5t-20 53.5t-38 54.5t-63 41.5t-90 17t-90 -17t-62.5 -41.5t-37.5 -54.5t-20.5 -53.5t-5.5 -41.5q0 -19 5.5 -42t20.5 -52.5t37.5 -53.5t62.5 -40.5t90 -16.5z" />
    <glyph glyph-name="yen" unicode="&#xa5;" horiz-adv-x="1614" 
d="M1609 1434l-495 -828h357v-178h-450v-71h450v-180h-450v-177h-429v177h-444v180h444v71h-444v178h350l-493 828h451l332 -574h38l331 574h452z" />
    <glyph glyph-name="brokenbar" unicode="&#xa6;" horiz-adv-x="556" 
d="M65 788v816h428v-816h-428zM65 -171v816h428v-816h-428z" />
    <glyph glyph-name="section" unicode="&#xa7;" horiz-adv-x="1484" 
d="M1307 324q142 -100 142 -297q0 -462 -715 -459q-363 2 -536.5 126t-166.5 393h389q11 -183 314 -183q142 -1 216 37t74 103q0 108 -198 140l-176 29q-208 34 -294 62q-212 69 -267 222q-21 58 -21 131q0 202 183 297q-183 102 -183 328q0 211 172 330t496 119
q156 0 275 -26t211.5 -84t140 -160t45.5 -246h-382q-31 179 -299 179q-123 0 -184.5 -36t-61.5 -98q0 -103 164 -134l147 -25q30 -5 86 -14.5t91 -15t88.5 -17t88.5 -22.5t80 -30t74 -39.5t60 -51t48.5 -66.5t29 -83t11.5 -102q0 -201 -142 -307zM649 495l107 -21
q67 -9 121 2t84.5 36.5t46.5 56t16 62.5q0 53 -47 96.5t-151 60.5l-130 21q-76 10 -145.5 -33.5t-69.5 -128.5q0 -46 40 -91.5t128 -60.5z" />
    <glyph glyph-name="dieresis" unicode="&#xa8;" horiz-adv-x="826" 
d="M162 1169q-68 0 -115 44t-47 111q0 66 47 110t115 44t115 -44t47 -110q0 -67 -47 -111t-115 -44zM664 1169q-66 0 -114 44.5t-48 110.5t48 110t114 44q68 0 115 -44t47 -110q0 -67 -47 -111t-115 -44z" />
    <glyph glyph-name="copyright" unicode="&#xa9;" horiz-adv-x="1076" 
d="M538 551q-205 0 -335 129t-130 329q0 202 130 332t335 130q206 0 336 -130t130 -332q0 -200 -130 -329t-336 -129zM543 741q92 0 163 47t89 146l-128 -2q-40 -85 -131 -85q-64 0 -106.5 42.5t-42.5 119.5t42.5 119.5t106.5 42.5q89 0 131 -82h128q-12 66 -52.5 111
t-91 63.5t-108.5 18.5q-122 0 -200 -75.5t-78 -197.5q0 -120 77.5 -194t200.5 -74z" />
    <glyph glyph-name="ordfeminine" unicode="&#xaa;" horiz-adv-x="936" 
d="M664 1434h200v-739h-200l-36 66q-90 -66 -195 -66q-147 0 -253.5 109t-106.5 264q0 156 106.5 266t253.5 110q110 0 202 -72zM454 947q54 0 89.5 35t35.5 86q0 52 -36 89.5t-89 37.5q-54 0 -90 -37.5t-36 -89.5q0 -51 36 -86t90 -35z" />
    <glyph glyph-name="guillemotleft" unicode="&#xab;" horiz-adv-x="1558" 
d="M877 213h-444l-331 504l331 503h444l-331 -503zM1456 213h-444l-331 504l331 503h444l-331 -503z" />
    <glyph glyph-name="logicalnot" unicode="&#xac;" horiz-adv-x="1223" 
d="M778 483v172h-783v297h1143v-469h-360z" />
    <glyph glyph-name="uni00AD" unicode="&#xad;" horiz-adv-x="1126" 
d="M68 532v359h990v-359h-990z" />
    <glyph glyph-name="registered" unicode="&#xae;" horiz-adv-x="1076" 
d="M538 551q-205 0 -335 129t-130 329q0 202 130 332t335 130q206 0 336 -130t130 -332q0 -200 -130 -329t-336 -129zM316 737h128v164h136l94 -164h138l-114 190q99 49 99 160q0 87 -59.5 135.5t-169.5 48.5h-252v-534zM444 1007v157h128q90 0 90 -77q0 -38 -24 -59
t-66 -21h-128z" />
    <glyph glyph-name="macron" unicode="&#xaf;" horiz-adv-x="750" 
d="M0 1167v314h751v-314h-751z" />
    <glyph glyph-name="degree" unicode="&#xb0;" horiz-adv-x="906" 
d="M452 676q-166 0 -275.5 108.5t-109.5 275.5q0 166 110 275t275 109q167 0 277.5 -109t110.5 -275q0 -167 -110.5 -275.5t-277.5 -108.5zM452 949q58 0 86.5 34.5t28.5 76.5t-28.5 76.5t-86.5 34.5q-57 0 -84.5 -34.5t-27.5 -76.5t27.5 -76.5t84.5 -34.5z" />
    <glyph glyph-name="plusminus" unicode="&#xb1;" horiz-adv-x="1203" 
d="M840 1198h397v-340h-397v-397h-359v397h-397v340h397v399h359v-399zM84 0v357h1034v-357h-1034z" />
    <glyph glyph-name="acute" unicode="&#xb4;" horiz-adv-x="503" 
d="M0 1161l123 291h380l-122 -291h-381z" />
    <glyph glyph-name="uni00B5" unicode="&#xb5;" horiz-adv-x="1377" 
d="M886 1161h428v-1161h-420l-8 155h-43q-57 -88 -152.5 -133.5t-197.5 -47.5v-230h-428v1417h428v-658q0 -55 18 -93.5t48.5 -57t60.5 -26t64 -7.5q92 0 147 52t55 112v678z" />
    <glyph glyph-name="paragraph" unicode="&#xb6;" horiz-adv-x="2097" 
d="M980 0v350h-280q-318 0 -489.5 135.5t-171.5 405.5q0 272 171 407.5t491 135.5h707v-1434h-428zM1604 0v1434h429v-1434h-429z" />
    <glyph glyph-name="periodcentered" unicode="&#xb7;" horiz-adv-x="708" 
d="M355 502q-89 0 -153.5 63.5t-64.5 151.5q0 87 64.5 151t153.5 64q88 0 152.5 -64t64.5 -151q0 -88 -64 -151.5t-153 -63.5z" />
    <glyph glyph-name="cedilla" unicode="&#xb8;" horiz-adv-x="424" 
d="M230 -61q79 -6 137 -55t58 -138q0 -65 -35 -112.5t-93.5 -70.5t-135.5 -28.5t-161 13.5v169q68 -15 110 -12t60.5 13t18.5 23q0 15 -18.5 27t-60.5 16t-110 -13v110l150 119h157z" />
    <glyph glyph-name="ordmasculine" unicode="&#xba;" horiz-adv-x="887" 
d="M444 698q-154 0 -262.5 108t-108.5 262q0 157 108.5 266.5t262.5 109.5t262 -109.5t108 -266.5q0 -154 -108 -262t-262 -108zM444 947q53 0 88 34t35 87q0 55 -35 91t-88 36t-88 -36t-35 -91q0 -53 35 -87t88 -34z" />
    <glyph glyph-name="guillemotright" unicode="&#xbb;" horiz-adv-x="1558" 
d="M102 213l331 504l-331 503h444l331 -503l-331 -504h-444zM681 213l331 504l-331 503h444l331 -503l-331 -504h-444z" />
    <glyph glyph-name="questiondown" unicode="&#xbf;" horiz-adv-x="1367" 
d="M700 1092q89 0 153.5 -63.5t64.5 -151.5q0 -87 -64.5 -151t-153.5 -64q-88 0 -152.5 64t-64.5 151q0 88 64 151.5t153 63.5zM903 550q10 -81 -7 -142t-53.5 -96t-82.5 -60t-94 -42.5t-88.5 -35t-66 -45t-25.5 -66.5q0 -59 59 -93.5t155 -34.5q48 0 88.5 9t78.5 30.5
t60 64t22 101.5h387q11 -274 -154.5 -410t-478.5 -136q-196 0 -337 43t-223 139t-82 239q0 79 23.5 137t61.5 92t84 59.5t92 46.5t84 45t62 62.5t25 92.5h410z" />
    <glyph glyph-name="Agrave" unicode="&#xc0;" horiz-adv-x="1699" 
d="M1044 1519h-380l-123 292h381zM1244 0l-72 207h-645l-71 -207h-442l536 1434h600l538 -1434h-444zM638 526h424l-175 505h-75z" />
    <glyph glyph-name="Aacute" unicode="&#xc1;" horiz-adv-x="1699" 
d="M1161 1811l-123 -292h-381l123 292h381zM1244 0l-72 207h-645l-71 -207h-442l536 1434h600l538 -1434h-444zM638 526h424l-175 505h-75z" />
    <glyph glyph-name="Acircumflex" unicode="&#xc2;" horiz-adv-x="1699" 
d="M804 1611l-82 -92h-360l229 292h518l229 -292h-360l-82 92h-92zM1244 0l-72 207h-645l-71 -207h-442l536 1434h600l538 -1434h-444zM638 526h424l-175 505h-75z" />
    <glyph glyph-name="Atilde" unicode="&#xc3;" horiz-adv-x="1699" 
d="M567 1538h-123q-10 72 8 128t55.5 89t86 49.5t104.5 16.5q58 0 117.5 -26t113 -52t98.5 -26t72.5 21.5t32.5 60.5h122q10 -72 -8 -128t-55.5 -89t-86 -49.5t-104.5 -16.5q-59 0 -118.5 26t-112.5 52t-98 26q-46 0 -73 -22t-31 -60zM1244 0l-72 207h-645l-71 -207h-442
l536 1434h600l538 -1434h-444zM638 526h424l-175 505h-75z" />
    <glyph glyph-name="Adieresis" unicode="&#xc4;" horiz-adv-x="1699" 
d="M597 1527q-68 0 -115 44.5t-47 111.5q0 66 47 109.5t115 43.5t115 -43.5t47 -109.5q0 -67 -47 -111.5t-115 -44.5zM1099 1527q-66 0 -114 45t-48 111t47.5 109.5t114.5 43.5q68 0 115 -43.5t47 -109.5q0 -67 -47 -111.5t-115 -44.5zM1244 0l-72 207h-645l-71 -207h-442
l536 1434h600l538 -1434h-444zM638 526h424l-175 505h-75z" />
    <glyph glyph-name="Aring" unicode="&#xc5;" horiz-adv-x="1699" 
d="M1244 0l-72 207h-645l-71 -207h-442l536 1434h194q-60 29 -95 84t-35 122q0 98 68.5 167t167.5 69t165.5 -69t66.5 -167q0 -67 -34.5 -122t-93.5 -84h196l538 -1434h-444zM850 1698q-24 0 -39.5 -15t-15.5 -39q0 -25 15 -39t40 -14t40.5 14t14.5 39q-5 54 -55 54z
M638 526h424l-175 505h-75z" />
    <glyph glyph-name="AE" unicode="&#xc6;" horiz-adv-x="2350" 
d="M2285 1089h-834v-227h804v-289h-804v-227h834v-346h-1263v210h-479l-98 -210h-431l660 1434h1611v-345zM689 526h333v549h-78z" />
    <glyph glyph-name="Ccedilla" unicode="&#xc7;" horiz-adv-x="1616" 
d="M838 323q125 0 210 60.5t119 184.5h410q-15 -129 -60 -232t-109 -171t-148.5 -115t-174 -69t-189.5 -27l-19 -15q79 -6 137 -55t58 -138q0 -65 -35 -112.5t-93.5 -70.5t-135.5 -28.5t-161 13.5v169q68 -15 110 -12t60.5 13t18.5 23q0 15 -18.5 27t-60.5 16t-110 -13v110
l95 76q-319 29 -511 235.5t-192 524.5q0 226 99.5 399.5t281.5 269t418 95.5q106 0 201.5 -18.5t188 -63.5t163 -113.5t120.5 -175t66 -241.5h-410q-34 122 -119 182t-210 60q-160 0 -267 -109.5t-107 -284.5q0 -174 107 -284t267 -110z" />
    <glyph glyph-name="Egrave" unicode="&#xc8;" horiz-adv-x="1392" 
d="M879 1519h-381l-123 292h381zM65 0v1434h1263v-345h-835v-227h804v-289h-804v-227h835v-346h-1263z" />
    <glyph glyph-name="Eacute" unicode="&#xc9;" horiz-adv-x="1392" 
d="M492 1519l122 292h381l-123 -292h-380zM65 0v1434h1263v-345h-835v-227h804v-289h-804v-227h835v-346h-1263z" />
    <glyph glyph-name="Ecircumflex" unicode="&#xca;" horiz-adv-x="1392" 
d="M196 1519l229 292h519l228 -292h-360l-82 92h-92l-82 -92h-360zM65 0v1434h1263v-345h-835v-227h804v-289h-804v-227h835v-346h-1263z" />
    <glyph glyph-name="Edieresis" unicode="&#xcb;" horiz-adv-x="1392" 
d="M432 1527q-68 0 -115 44.5t-47 111.5q0 66 47 109.5t115 43.5t115 -43.5t47 -109.5q0 -67 -47 -111.5t-115 -44.5zM934 1527q-66 0 -114.5 45t-48.5 111q0 65 48 109t115 44q68 0 115 -43.5t47 -109.5q0 -67 -47 -111.5t-115 -44.5zM65 0v1434h1263v-345h-835v-227h804
v-289h-804v-227h835v-346h-1263z" />
    <glyph glyph-name="Igrave" unicode="&#xcc;" horiz-adv-x="556" 
d="M473 1519h-381l-123 292h381zM65 0v1434h428v-1434h-428z" />
    <glyph glyph-name="Iacute" unicode="&#xcd;" horiz-adv-x="556" 
d="M85 1519l123 292h381l-123 -292h-381zM65 0v1434h428v-1434h-428z" />
    <glyph glyph-name="Icircumflex" unicode="&#xce;" horiz-adv-x="556" 
d="M-210 1519l229 292h519l228 -292h-360l-82 92h-92l-82 -92h-360zM65 0v1434h428v-1434h-428z" />
    <glyph glyph-name="Idieresis" unicode="&#xcf;" horiz-adv-x="556" 
d="M26 1527q-68 0 -115.5 44.5t-47.5 111.5q0 66 47.5 109.5t115.5 43.5t115 -43.5t47 -109.5q0 -67 -47 -111.5t-115 -44.5zM527 1527q-66 0 -114 45t-48 111t47.5 109.5t114.5 43.5q68 0 115 -43.5t47 -109.5q0 -67 -47 -111.5t-115 -44.5zM65 0v1434h428v-1434h-428z" />
    <glyph glyph-name="Eth" unicode="&#xd0;" horiz-adv-x="1689" 
d="M862 1434q168 0 301 -35.5t222.5 -98.5t148 -153.5t84.5 -196.5t26 -233q0 -126 -26 -232t-84.5 -197t-148 -154t-222.5 -98.5t-301 -35.5h-700v558h-153v312h153v564h700zM860 360q167 0 260 89t93 268q0 180 -92.5 268t-260.5 88h-268v-203h239v-312h-239v-198h268z
" />
    <glyph glyph-name="Ntilde" unicode="&#xd1;" horiz-adv-x="1617" 
d="M959 1516q-59 0 -118.5 26t-112.5 52t-98 26q-46 0 -73 -22t-31 -60h-123q-10 72 8 128t55.5 89t86 49.5t104.5 16.5q58 0 117.5 -26t113 -52t98.5 -26t72.5 21.5t32.5 60.5h122q10 -72 -8 -128t-55.5 -89t-86 -49.5t-104.5 -16.5zM65 0v1434h493l539 -838h40v838h418
v-1434h-483l-551 838h-38v-838h-418z" />
    <glyph glyph-name="Ograve" unicode="&#xd2;" horiz-adv-x="1686" 
d="M1038 1526h-381l-123 292h381zM843 -48q-240 0 -423 96t-282 269.5t-99 399.5t99.5 399.5t282 269t422.5 95.5t422.5 -95.5t282 -269t99.5 -399.5t-99 -399.5t-282 -269.5t-423 -96zM843 323q162 0 270.5 107t108.5 287t-108.5 287t-270.5 107t-270.5 -107t-108.5 -287
t108.5 -287t270.5 -107z" />
    <glyph glyph-name="Oacute" unicode="&#xd3;" horiz-adv-x="1686" 
d="M650 1526l123 292h381l-123 -292h-381zM843 -48q-240 0 -423 96t-282 269.5t-99 399.5t99.5 399.5t282 269t422.5 95.5t422.5 -95.5t282 -269t99.5 -399.5t-99 -399.5t-282 -269.5t-423 -96zM843 323q162 0 270.5 107t108.5 287t-108.5 287t-270.5 107t-270.5 -107
t-108.5 -287t108.5 -287t270.5 -107z" />
    <glyph glyph-name="Ocircumflex" unicode="&#xd4;" horiz-adv-x="1686" 
d="M355 1526l229 292h519l228 -292h-360l-82 92h-92l-82 -92h-360zM843 -48q-240 0 -423 96t-282 269.5t-99 399.5t99.5 399.5t282 269t422.5 95.5t422.5 -95.5t282 -269t99.5 -399.5t-99 -399.5t-282 -269.5t-423 -96zM843 323q162 0 270.5 107t108.5 287t-108.5 287
t-270.5 107t-270.5 -107t-108.5 -287t108.5 -287t270.5 -107z" />
    <glyph glyph-name="Otilde" unicode="&#xd5;" horiz-adv-x="1686" 
d="M993 1522q-59 0 -118.5 26t-112.5 52t-98 26q-46 0 -73 -21.5t-31 -59.5h-123q-10 72 8 128t55.5 89t86 49.5t104.5 16.5q58 0 117.5 -26t113.5 -52t99 -26t72 21.5t32 60.5h123q10 -72 -8 -128t-56 -89.5t-86.5 -50t-104.5 -16.5zM843 -48q-240 0 -423 96t-282 269.5
t-99 399.5t99.5 399.5t282 269t422.5 95.5t422.5 -95.5t282 -269t99.5 -399.5t-99 -399.5t-282 -269.5t-423 -96zM843 323q162 0 270.5 107t108.5 287t-108.5 287t-270.5 107t-270.5 -107t-108.5 -287t108.5 -287t270.5 -107z" />
    <glyph glyph-name="Odieresis" unicode="&#xd6;" horiz-adv-x="1686" 
d="M591 1534q-68 0 -115.5 44.5t-47.5 111.5q0 66 47.5 109.5t115.5 43.5t115 -43.5t47 -109.5q0 -67 -47 -111.5t-115 -44.5zM1092 1534q-66 0 -114 45t-48 111t47.5 109.5t114.5 43.5q68 0 115 -43.5t47 -109.5q0 -67 -47 -111.5t-115 -44.5zM843 -48q-240 0 -423 96
t-282 269.5t-99 399.5t99.5 399.5t282 269t422.5 95.5t422.5 -95.5t282 -269t99.5 -399.5t-99 -399.5t-282 -269.5t-423 -96zM843 323q162 0 270.5 107t108.5 287t-108.5 287t-270.5 107t-270.5 -107t-108.5 -287t108.5 -287t270.5 -107z" />
    <glyph glyph-name="multiply" unicode="&#xd7;" horiz-adv-x="1227" 
d="M1142 951l-284 -284l282 -281l-241 -239l-279 281l-282 -281l-254 252l281 282l-281 282l240 238l282 -279l281 281z" />
    <glyph glyph-name="Oslash" unicode="&#xd8;" horiz-adv-x="1686" 
d="M1273 1381q177 -95 275.5 -268t98.5 -396q0 -226 -99 -399.5t-282 -269.5t-423 -96q-111 0 -218 22l-29 -61h-265l68 147q-172 97 -266 267t-94 390q0 226 99.5 399.5t282 269t422.5 95.5q106 0 203 -18l27 59h265zM464 717q0 -174 106 -285l312 677q-12 2 -39 2
q-162 0 -270.5 -107t-108.5 -287zM843 323q162 0 270.5 107t108.5 287q0 186 -118 297l-317 -688q29 -3 56 -3z" />
    <glyph glyph-name="Ugrave" unicode="&#xd9;" 
d="M985 1519h-381l-123 292h381zM790 -48q-361 0 -543 163.5t-182 500.5v818h432v-808q0 -151 72.5 -232.5t220.5 -81.5q149 0 222 82t73 232v808h431v-816q0 -338 -182.5 -502t-543.5 -164z" />
    <glyph glyph-name="Uacute" unicode="&#xda;" 
d="M597 1519l123 292h381l-123 -292h-381zM790 -48q-361 0 -543 163.5t-182 500.5v818h432v-808q0 -151 72.5 -232.5t220.5 -81.5q149 0 222 82t73 232v808h431v-816q0 -338 -182.5 -502t-543.5 -164z" />
    <glyph glyph-name="Ucircumflex" unicode="&#xdb;" 
d="M302 1519l229 292h519l228 -292h-360l-82 92h-92l-82 -92h-360zM790 -48q-361 0 -543 163.5t-182 500.5v818h432v-808q0 -151 72.5 -232.5t220.5 -81.5q149 0 222 82t73 232v808h431v-816q0 -338 -182.5 -502t-543.5 -164z" />
    <glyph glyph-name="Udieresis" unicode="&#xdc;" 
d="M538 1527q-68 0 -115.5 44.5t-47.5 111.5q0 66 47.5 109.5t115.5 43.5t115 -43.5t47 -109.5q0 -67 -47 -111.5t-115 -44.5zM1039 1527q-66 0 -114 45t-48 111t47.5 109.5t114.5 43.5q68 0 115 -43.5t47 -109.5q0 -67 -47 -111.5t-115 -44.5zM790 -48q-361 0 -543 163.5
t-182 500.5v818h432v-808q0 -151 72.5 -232.5t220.5 -81.5q149 0 222 82t73 232v808h431v-816q0 -338 -182.5 -502t-543.5 -164z" />
    <glyph glyph-name="Yacute" unicode="&#xdd;" horiz-adv-x="1614" 
d="M1118 1811l-123 -292h-381l123 292h381zM1609 1434l-588 -985v-449h-429v451l-587 983h451l332 -574h38l331 574h452z" />
    <glyph glyph-name="Thorn" unicode="&#xde;" horiz-adv-x="1481" 
d="M771 1260q320 0 491.5 -135.5t171.5 -407.5t-171.5 -407.5t-489.5 -135.5h-280v-174h-428v1434h428v-174h278zM782 531q103 0 162.5 46t59.5 140q0 93 -59.5 139.5t-161.5 46.5h-290v-372h289z" />
    <glyph glyph-name="germandbls" unicode="&#xdf;" horiz-adv-x="1498" 
d="M65 0v968q0 111 34.5 198.5t93.5 144t143.5 93t178.5 52t204 15.5q141 0 253 -24t182.5 -62.5t116.5 -92.5t65 -109.5t19 -117.5q0 -188 -169 -275v-29q126 -43 196 -130t70 -220q0 -88 -33.5 -160.5t-104 -130t-192.5 -89t-287 -31.5h-238v326h227q105 0 154 40.5
t49 107.5q0 63 -49.5 105t-153.5 42h-227v236h183q88 0 131 33t43 81q0 63 -51.5 100t-160.5 37q-52 0 -94.5 -8t-78.5 -25.5t-56 -50t-20 -77.5v-947h-428z" />
    <glyph glyph-name="agrave" unicode="&#xe0;" horiz-adv-x="1699" 
d="M1044 1519h-380l-123 292h381zM1244 0l-72 207h-645l-71 -207h-442l536 1434h600l538 -1434h-444zM638 526h424l-175 505h-75z" />
    <glyph glyph-name="aacute" unicode="&#xe1;" horiz-adv-x="1699" 
d="M1161 1811l-123 -292h-381l123 292h381zM1244 0l-72 207h-645l-71 -207h-442l536 1434h600l538 -1434h-444zM638 526h424l-175 505h-75z" />
    <glyph glyph-name="acircumflex" unicode="&#xe2;" horiz-adv-x="1699" 
d="M804 1611l-82 -92h-360l229 292h518l229 -292h-360l-82 92h-92zM1244 0l-72 207h-645l-71 -207h-442l536 1434h600l538 -1434h-444zM638 526h424l-175 505h-75z" />
    <glyph glyph-name="atilde" unicode="&#xe3;" horiz-adv-x="1699" 
d="M567 1538h-123q-10 72 8 128t55.5 89t86 49.5t104.5 16.5q58 0 117.5 -26t113 -52t98.5 -26t72.5 21.5t32.5 60.5h122q10 -72 -8 -128t-55.5 -89t-86 -49.5t-104.5 -16.5q-59 0 -118.5 26t-112.5 52t-98 26q-46 0 -73 -22t-31 -60zM1244 0l-72 207h-645l-71 -207h-442
l536 1434h600l538 -1434h-444zM638 526h424l-175 505h-75z" />
    <glyph glyph-name="adieresis" unicode="&#xe4;" horiz-adv-x="1699" 
d="M597 1527q-68 0 -115 44.5t-47 111.5q0 66 47 109.5t115 43.5t115 -43.5t47 -109.5q0 -67 -47 -111.5t-115 -44.5zM1099 1527q-66 0 -114 45t-48 111t47.5 109.5t114.5 43.5q68 0 115 -43.5t47 -109.5q0 -67 -47 -111.5t-115 -44.5zM1244 0l-72 207h-645l-71 -207h-442
l536 1434h600l538 -1434h-444zM638 526h424l-175 505h-75z" />
    <glyph glyph-name="aring" unicode="&#xe5;" horiz-adv-x="1699" 
d="M1244 0l-72 207h-645l-71 -207h-442l536 1434h194q-60 29 -95 84t-35 122q0 98 68.5 167t167.5 69t165.5 -69t66.5 -167q0 -67 -34.5 -122t-93.5 -84h196l538 -1434h-444zM850 1698q-24 0 -39.5 -15t-15.5 -39q0 -25 15 -39t40 -14t40.5 14t14.5 39q-5 54 -55 54z
M638 526h424l-175 505h-75z" />
    <glyph glyph-name="ae" unicode="&#xe6;" horiz-adv-x="2350" 
d="M2285 1089h-834v-227h804v-289h-804v-227h834v-346h-1263v210h-479l-98 -210h-431l660 1434h1611v-345zM689 526h333v549h-78z" />
    <glyph glyph-name="ccedilla" unicode="&#xe7;" horiz-adv-x="1616" 
d="M838 323q125 0 210 60.5t119 184.5h410q-15 -129 -60 -232t-109 -171t-148.5 -115t-174 -69t-189.5 -27l-19 -15q79 -6 137 -55t58 -138q0 -65 -35 -112.5t-93.5 -70.5t-135.5 -28.5t-161 13.5v169q68 -15 110 -12t60.5 13t18.5 23q0 15 -18.5 27t-60.5 16t-110 -13v110
l95 76q-319 29 -511 235.5t-192 524.5q0 226 99.5 399.5t281.5 269t418 95.5q106 0 201.5 -18.5t188 -63.5t163 -113.5t120.5 -175t66 -241.5h-410q-34 122 -119 182t-210 60q-160 0 -267 -109.5t-107 -284.5q0 -174 107 -284t267 -110z" />
    <glyph glyph-name="egrave" unicode="&#xe8;" horiz-adv-x="1392" 
d="M879 1519h-381l-123 292h381zM65 0v1434h1263v-345h-835v-227h804v-289h-804v-227h835v-346h-1263z" />
    <glyph glyph-name="eacute" unicode="&#xe9;" horiz-adv-x="1392" 
d="M492 1519l122 292h381l-123 -292h-380zM65 0v1434h1263v-345h-835v-227h804v-289h-804v-227h835v-346h-1263z" />
    <glyph glyph-name="ecircumflex" unicode="&#xea;" horiz-adv-x="1392" 
d="M196 1519l229 292h519l228 -292h-360l-82 92h-92l-82 -92h-360zM65 0v1434h1263v-345h-835v-227h804v-289h-804v-227h835v-346h-1263z" />
    <glyph glyph-name="edieresis" unicode="&#xeb;" horiz-adv-x="1392" 
d="M432 1527q-68 0 -115 44.5t-47 111.5q0 66 47 109.5t115 43.5t115 -43.5t47 -109.5q0 -67 -47 -111.5t-115 -44.5zM934 1527q-66 0 -114.5 45t-48.5 111q0 65 48 109t115 44q68 0 115 -43.5t47 -109.5q0 -67 -47 -111.5t-115 -44.5zM65 0v1434h1263v-345h-835v-227h804
v-289h-804v-227h835v-346h-1263z" />
    <glyph glyph-name="igrave" unicode="&#xec;" horiz-adv-x="556" 
d="M473 1519h-381l-123 292h381zM65 0v1434h428v-1434h-428z" />
    <glyph glyph-name="iacute" unicode="&#xed;" horiz-adv-x="556" 
d="M85 1519l123 292h381l-123 -292h-381zM65 0v1434h428v-1434h-428z" />
    <glyph glyph-name="icircumflex" unicode="&#xee;" horiz-adv-x="556" 
d="M-210 1519l229 292h519l228 -292h-360l-82 92h-92l-82 -92h-360zM65 0v1434h428v-1434h-428z" />
    <glyph glyph-name="idieresis" unicode="&#xef;" horiz-adv-x="556" 
d="M26 1527q-68 0 -115.5 44.5t-47.5 111.5q0 66 47.5 109.5t115.5 43.5t115 -43.5t47 -109.5q0 -67 -47 -111.5t-115 -44.5zM527 1527q-66 0 -114 45t-48 111t47.5 109.5t114.5 43.5q68 0 115 -43.5t47 -109.5q0 -67 -47 -111.5t-115 -44.5zM65 0v1434h428v-1434h-428z" />
    <glyph glyph-name="eth" unicode="&#xf0;" horiz-adv-x="1689" 
d="M862 1434q168 0 301 -35.5t222.5 -98.5t148 -153.5t84.5 -196.5t26 -233q0 -126 -26 -232t-84.5 -197t-148 -154t-222.5 -98.5t-301 -35.5h-700v558h-153v312h153v564h700zM860 360q167 0 260 89t93 268q0 180 -92.5 268t-260.5 88h-268v-203h239v-312h-239v-198h268z
" />
    <glyph glyph-name="ntilde" unicode="&#xf1;" horiz-adv-x="1617" 
d="M959 1516q-59 0 -118.5 26t-112.5 52t-98 26q-46 0 -73 -22t-31 -60h-123q-10 72 8 128t55.5 89t86 49.5t104.5 16.5q58 0 117.5 -26t113 -52t98.5 -26t72.5 21.5t32.5 60.5h122q10 -72 -8 -128t-55.5 -89t-86 -49.5t-104.5 -16.5zM65 0v1434h493l539 -838h40v838h418
v-1434h-483l-551 838h-38v-838h-418z" />
    <glyph glyph-name="ograve" unicode="&#xf2;" horiz-adv-x="1686" 
d="M1038 1526h-381l-123 292h381zM843 -48q-240 0 -423 96t-282 269.5t-99 399.5t99.5 399.5t282 269t422.5 95.5t422.5 -95.5t282 -269t99.5 -399.5t-99 -399.5t-282 -269.5t-423 -96zM843 323q162 0 270.5 107t108.5 287t-108.5 287t-270.5 107t-270.5 -107t-108.5 -287
t108.5 -287t270.5 -107z" />
    <glyph glyph-name="oacute" unicode="&#xf3;" horiz-adv-x="1686" 
d="M650 1526l123 292h381l-123 -292h-381zM843 -48q-240 0 -423 96t-282 269.5t-99 399.5t99.5 399.5t282 269t422.5 95.5t422.5 -95.5t282 -269t99.5 -399.5t-99 -399.5t-282 -269.5t-423 -96zM843 323q162 0 270.5 107t108.5 287t-108.5 287t-270.5 107t-270.5 -107
t-108.5 -287t108.5 -287t270.5 -107z" />
    <glyph glyph-name="ocircumflex" unicode="&#xf4;" horiz-adv-x="1686" 
d="M355 1526l229 292h519l228 -292h-360l-82 92h-92l-82 -92h-360zM843 -48q-240 0 -423 96t-282 269.5t-99 399.5t99.5 399.5t282 269t422.5 95.5t422.5 -95.5t282 -269t99.5 -399.5t-99 -399.5t-282 -269.5t-423 -96zM843 323q162 0 270.5 107t108.5 287t-108.5 287
t-270.5 107t-270.5 -107t-108.5 -287t108.5 -287t270.5 -107z" />
    <glyph glyph-name="otilde" unicode="&#xf5;" horiz-adv-x="1686" 
d="M993 1522q-59 0 -118.5 26t-112.5 52t-98 26q-46 0 -73 -21.5t-31 -59.5h-123q-10 72 8 128t55.5 89t86 49.5t104.5 16.5q58 0 117.5 -26t113.5 -52t99 -26t72 21.5t32 60.5h123q10 -72 -8 -128t-56 -89.5t-86.5 -50t-104.5 -16.5zM843 -48q-240 0 -423 96t-282 269.5
t-99 399.5t99.5 399.5t282 269t422.5 95.5t422.5 -95.5t282 -269t99.5 -399.5t-99 -399.5t-282 -269.5t-423 -96zM843 323q162 0 270.5 107t108.5 287t-108.5 287t-270.5 107t-270.5 -107t-108.5 -287t108.5 -287t270.5 -107z" />
    <glyph glyph-name="odieresis" unicode="&#xf6;" horiz-adv-x="1686" 
d="M591 1534q-68 0 -115.5 44.5t-47.5 111.5q0 66 47.5 109.5t115.5 43.5t115 -43.5t47 -109.5q0 -67 -47 -111.5t-115 -44.5zM1092 1534q-66 0 -114 45t-48 111t47.5 109.5t114.5 43.5q68 0 115 -43.5t47 -109.5q0 -67 -47 -111.5t-115 -44.5zM843 -48q-240 0 -423 96
t-282 269.5t-99 399.5t99.5 399.5t282 269t422.5 95.5t422.5 -95.5t282 -269t99.5 -399.5t-99 -399.5t-282 -269.5t-423 -96zM843 323q162 0 270.5 107t108.5 287t-108.5 287t-270.5 107t-270.5 -107t-108.5 -287t108.5 -287t270.5 -107z" />
    <glyph glyph-name="divide" unicode="&#xf7;" horiz-adv-x="1204" 
d="M599 983q-78 0 -134.5 55.5t-56.5 132.5q0 76 56.5 132t134.5 56q76 0 132.5 -56t56.5 -132t-56 -132t-133 -56zM85 568v299h1035v-299h-1035zM599 70q-78 0 -134.5 55.5t-56.5 132.5q0 76 56.5 131.5t134.5 55.5q77 0 133 -55.5t56 -131.5t-56 -132t-133 -56z" />
    <glyph glyph-name="oslash" unicode="&#xf8;" horiz-adv-x="1686" 
d="M1273 1381q177 -95 275.5 -268t98.5 -396q0 -226 -99 -399.5t-282 -269.5t-423 -96q-111 0 -218 22l-29 -61h-265l68 147q-172 97 -266 267t-94 390q0 226 99.5 399.5t282 269t422.5 95.5q106 0 203 -18l27 59h265zM464 717q0 -174 106 -285l312 677q-12 2 -39 2
q-162 0 -270.5 -107t-108.5 -287zM843 323q162 0 270.5 107t108.5 287q0 186 -118 297l-317 -688q29 -3 56 -3z" />
    <glyph glyph-name="ugrave" unicode="&#xf9;" 
d="M985 1519h-381l-123 292h381zM790 -48q-361 0 -543 163.5t-182 500.5v818h432v-808q0 -151 72.5 -232.5t220.5 -81.5q149 0 222 82t73 232v808h431v-816q0 -338 -182.5 -502t-543.5 -164z" />
    <glyph glyph-name="uacute" unicode="&#xfa;" 
d="M597 1519l123 292h381l-123 -292h-381zM790 -48q-361 0 -543 163.5t-182 500.5v818h432v-808q0 -151 72.5 -232.5t220.5 -81.5q149 0 222 82t73 232v808h431v-816q0 -338 -182.5 -502t-543.5 -164z" />
    <glyph glyph-name="ucircumflex" unicode="&#xfb;" 
d="M302 1519l229 292h519l228 -292h-360l-82 92h-92l-82 -92h-360zM790 -48q-361 0 -543 163.5t-182 500.5v818h432v-808q0 -151 72.5 -232.5t220.5 -81.5q149 0 222 82t73 232v808h431v-816q0 -338 -182.5 -502t-543.5 -164z" />
    <glyph glyph-name="udieresis" unicode="&#xfc;" 
d="M538 1527q-68 0 -115.5 44.5t-47.5 111.5q0 66 47.5 109.5t115.5 43.5t115 -43.5t47 -109.5q0 -67 -47 -111.5t-115 -44.5zM1039 1527q-66 0 -114 45t-48 111t47.5 109.5t114.5 43.5q68 0 115 -43.5t47 -109.5q0 -67 -47 -111.5t-115 -44.5zM790 -48q-361 0 -543 163.5
t-182 500.5v818h432v-808q0 -151 72.5 -232.5t220.5 -81.5q149 0 222 82t73 232v808h431v-816q0 -338 -182.5 -502t-543.5 -164z" />
    <glyph glyph-name="yacute" unicode="&#xfd;" horiz-adv-x="1614" 
d="M1118 1811l-123 -292h-381l123 292h381zM1609 1434l-588 -985v-449h-429v451l-587 983h451l332 -574h38l331 574h452z" />
    <glyph glyph-name="thorn" unicode="&#xfe;" horiz-adv-x="1481" 
d="M771 1260q320 0 491.5 -135.5t171.5 -407.5t-171.5 -407.5t-489.5 -135.5h-280v-174h-428v1434h428v-174h278zM782 531q103 0 162.5 46t59.5 140q0 93 -59.5 139.5t-161.5 46.5h-290v-372h289z" />
    <glyph glyph-name="ydieresis" unicode="&#xff;" horiz-adv-x="1614" 
d="M555 1527q-68 0 -115 44.5t-47 111.5q0 66 47 109.5t115 43.5t115 -43.5t47 -109.5q0 -67 -47 -111.5t-115 -44.5zM1056 1527q-66 0 -114 45t-48 111t47.5 109.5t114.5 43.5q68 0 115.5 -43.5t47.5 -109.5q0 -67 -47.5 -111.5t-115.5 -44.5zM1609 1434l-588 -985v-449
h-429v451l-587 983h451l332 -574h38l331 574h452z" />
    <glyph glyph-name="Amacron" unicode="&#x100;" horiz-adv-x="1699" 
d="M1225 1840v-314h-751v314h751zM1244 0l-72 207h-645l-71 -207h-442l536 1434h600l538 -1434h-444zM638 526h424l-175 505h-75z" />
    <glyph glyph-name="amacron" unicode="&#x101;" horiz-adv-x="1699" 
d="M1225 1840v-314h-751v314h751zM1244 0l-72 207h-645l-71 -207h-442l536 1434h600l538 -1434h-444zM638 526h424l-175 505h-75z" />
    <glyph glyph-name="Abreve" unicode="&#x102;" horiz-adv-x="1699" 
d="M850 1519q-212 0 -298 66t-84 226h261q-1 -54 31 -83.5t90 -29.5q57 0 88.5 29.5t30.5 83.5h262q2 -160 -84 -226t-297 -66zM1244 0l-72 207h-645l-71 -207h-442l536 1434h600l538 -1434h-444zM638 526h424l-175 505h-75z" />
    <glyph glyph-name="abreve" unicode="&#x103;" horiz-adv-x="1699" 
d="M850 1519q-212 0 -298 66t-84 226h261q-1 -54 31 -83.5t90 -29.5q57 0 88.5 29.5t30.5 83.5h262q2 -160 -84 -226t-297 -66zM1244 0l-72 207h-645l-71 -207h-442l536 1434h600l538 -1434h-444zM638 526h424l-175 505h-75z" />
    <glyph glyph-name="Aogonek" unicode="&#x104;" horiz-adv-x="1699" 
d="M1244 0q-77 0 -109 -29t-32 -67q0 -83 98 -81v-236q-50 0 -99 6.5t-102.5 24t-93.5 45.5t-66 75t-26 107q0 64 28 113t68.5 76.5t97.5 45.5t101.5 24t95.5 9l-33 94h-645l-71 -207h-442l536 1434h600l538 -1434h-444zM638 526h424l-175 505h-75z" />
    <glyph glyph-name="aogonek" unicode="&#x105;" horiz-adv-x="1699" 
d="M1244 0q-77 0 -109 -29t-32 -67q0 -83 98 -81v-236q-50 0 -99 6.5t-102.5 24t-93.5 45.5t-66 75t-26 107q0 64 28 113t68.5 76.5t97.5 45.5t101.5 24t95.5 9l-33 94h-645l-71 -207h-442l536 1434h600l538 -1434h-444zM638 526h424l-175 505h-75z" />
    <glyph glyph-name="Cacute" unicode="&#x106;" horiz-adv-x="1616" 
d="M647 1519l123 292h380l-123 -292h-380zM838 -48q-358 0 -578.5 211.5t-220.5 553.5q0 226 99.5 399.5t281.5 269t418 95.5q106 0 201.5 -18.5t188 -63.5t163 -113.5t120.5 -175t66 -241.5h-410q-34 122 -119 182t-210 60q-160 0 -267 -109.5t-107 -284.5q0 -174 107 -284
t267 -110q125 0 210 60.5t119 184.5h410q-16 -136 -65.5 -243.5t-119.5 -176t-162.5 -114t-188.5 -64t-203 -18.5z" />
    <glyph glyph-name="cacute" unicode="&#x107;" horiz-adv-x="1616" 
d="M647 1519l123 292h380l-123 -292h-380zM838 -48q-358 0 -578.5 211.5t-220.5 553.5q0 226 99.5 399.5t281.5 269t418 95.5q106 0 201.5 -18.5t188 -63.5t163 -113.5t120.5 -175t66 -241.5h-410q-34 122 -119 182t-210 60q-160 0 -267 -109.5t-107 -284.5q0 -174 107 -284
t267 -110q125 0 210 60.5t119 184.5h410q-16 -136 -65.5 -243.5t-119.5 -176t-162.5 -114t-188.5 -64t-203 -18.5z" />
    <glyph glyph-name="Cdotaccent" unicode="&#x10a;" horiz-adv-x="1616" 
d="M840 1527q-68 0 -115 44.5t-47 111.5q0 66 47 109.5t115 43.5t115 -43.5t47 -109.5q0 -67 -47 -111.5t-115 -44.5zM838 -48q-358 0 -578.5 211.5t-220.5 553.5q0 226 99.5 399.5t281.5 269t418 95.5q106 0 201.5 -18.5t188 -63.5t163 -113.5t120.5 -175t66 -241.5h-410
q-34 122 -119 182t-210 60q-160 0 -267 -109.5t-107 -284.5q0 -174 107 -284t267 -110q125 0 210 60.5t119 184.5h410q-16 -136 -65.5 -243.5t-119.5 -176t-162.5 -114t-188.5 -64t-203 -18.5z" />
    <glyph glyph-name="cdotaccent" unicode="&#x10b;" horiz-adv-x="1616" 
d="M840 1527q-68 0 -115 44.5t-47 111.5q0 66 47 109.5t115 43.5t115 -43.5t47 -109.5q0 -67 -47 -111.5t-115 -44.5zM838 -48q-358 0 -578.5 211.5t-220.5 553.5q0 226 99.5 399.5t281.5 269t418 95.5q106 0 201.5 -18.5t188 -63.5t163 -113.5t120.5 -175t66 -241.5h-410
q-34 122 -119 182t-210 60q-160 0 -267 -109.5t-107 -284.5q0 -174 107 -284t267 -110q125 0 210 60.5t119 184.5h410q-16 -136 -65.5 -243.5t-119.5 -176t-162.5 -114t-188.5 -64t-203 -18.5z" />
    <glyph glyph-name="Ccaron" unicode="&#x10c;" horiz-adv-x="1616" 
d="M838 323q125 0 210 60.5t119 184.5h410q-16 -136 -65.5 -243.5t-119.5 -176t-162.5 -114t-188.5 -64t-203 -18.5q-358 0 -578.5 211.5t-220.5 553.5q0 311 184.5 516.5t493.5 241.5h-133l-229 291h360l82 -92h92l82 92h360l-228 -291h-142q116 -13 215 -52.5
t184.5 -109.5t142.5 -183t74 -261h-410q-34 122 -119 182t-210 60q-160 0 -267 -109.5t-107 -284.5q0 -174 107 -284t267 -110z" />
    <glyph glyph-name="ccaron" unicode="&#x10d;" horiz-adv-x="1616" 
d="M838 323q125 0 210 60.5t119 184.5h410q-16 -136 -65.5 -243.5t-119.5 -176t-162.5 -114t-188.5 -64t-203 -18.5q-358 0 -578.5 211.5t-220.5 553.5q0 311 184.5 516.5t493.5 241.5h-133l-229 291h360l82 -92h92l82 92h360l-228 -291h-142q116 -13 215 -52.5
t184.5 -109.5t142.5 -183t74 -261h-410q-34 122 -119 182t-210 60q-160 0 -267 -109.5t-107 -284.5q0 -174 107 -284t267 -110z" />
    <glyph glyph-name="Dcaron" unicode="&#x10e;" horiz-adv-x="1592" 
d="M1039 1475h-518l-229 291h360l82 -92h92l82 92h360zM765 1434q168 0 301 -35.5t222 -98.5t147.5 -153.5t84.5 -196.5t26 -233q0 -126 -26 -232t-84.5 -197t-147.5 -154t-222 -98.5t-301 -35.5h-700v1434h700zM763 360q167 0 260 89t93 268q0 180 -92.5 268t-260.5 88
h-268v-713h268z" />
    <glyph glyph-name="dcaron" unicode="&#x10f;" horiz-adv-x="1592" 
d="M1039 1475h-518l-229 291h360l82 -92h92l82 92h360zM765 1434q168 0 301 -35.5t222 -98.5t147.5 -153.5t84.5 -196.5t26 -233q0 -126 -26 -232t-84.5 -197t-147.5 -154t-222 -98.5t-301 -35.5h-700v1434h700zM763 360q167 0 260 89t93 268q0 180 -92.5 268t-260.5 88
h-268v-713h268z" />
    <glyph glyph-name="Dcroat" unicode="&#x110;" horiz-adv-x="1689" 
d="M862 1434q168 0 301 -35.5t222.5 -98.5t148 -153.5t84.5 -196.5t26 -233q0 -126 -26 -232t-84.5 -197t-148 -154t-222.5 -98.5t-301 -35.5h-700v558h-153v312h153v564h700zM860 360q167 0 260 89t93 268q0 180 -92.5 268t-260.5 88h-268v-203h239v-312h-239v-198h268z
" />
    <glyph glyph-name="dcroat" unicode="&#x111;" horiz-adv-x="1689" 
d="M862 1434q168 0 301 -35.5t222.5 -98.5t148 -153.5t84.5 -196.5t26 -233q0 -126 -26 -232t-84.5 -197t-148 -154t-222.5 -98.5t-301 -35.5h-700v558h-153v312h153v564h700zM860 360q167 0 260 89t93 268q0 180 -92.5 268t-260.5 88h-268v-203h239v-312h-239v-198h268z
" />
    <glyph glyph-name="Emacron" unicode="&#x112;" horiz-adv-x="1392" 
d="M309 1526v314h751v-314h-751zM65 0v1434h1263v-345h-835v-227h804v-289h-804v-227h835v-346h-1263z" />
    <glyph glyph-name="emacron" unicode="&#x113;" horiz-adv-x="1392" 
d="M309 1526v314h751v-314h-751zM65 0v1434h1263v-345h-835v-227h804v-289h-804v-227h835v-346h-1263z" />
    <glyph glyph-name="Edotaccent" unicode="&#x116;" horiz-adv-x="1392" 
d="M684 1527q-68 0 -115 44.5t-47 111.5q0 66 47 109.5t115 43.5t115.5 -43.5t47.5 -109.5q0 -67 -47.5 -111.5t-115.5 -44.5zM65 0v1434h1263v-345h-835v-227h804v-289h-804v-227h835v-346h-1263z" />
    <glyph glyph-name="edotaccent" unicode="&#x117;" horiz-adv-x="1392" 
d="M684 1527q-68 0 -115 44.5t-47 111.5q0 66 47 109.5t115 43.5t115.5 -43.5t47.5 -109.5q0 -67 -47.5 -111.5t-115.5 -44.5zM65 0v1434h1263v-345h-835v-227h804v-289h-804v-227h835v-346h-1263z" />
    <glyph glyph-name="Eogonek" unicode="&#x118;" horiz-adv-x="1392" 
d="M1328 1089h-835v-227h804v-289h-804v-227h835v-346q-77 0 -109.5 -29t-32.5 -67q0 -83 99 -81v-236q-50 0 -99 6.5t-102.5 24t-93.5 45.5t-66 75t-26 107q0 94 58 155h-891v1434h1263v-345z" />
    <glyph glyph-name="eogonek" unicode="&#x119;" horiz-adv-x="1392" 
d="M1328 1089h-835v-227h804v-289h-804v-227h835v-346q-77 0 -109.5 -29t-32.5 -67q0 -83 99 -81v-236q-50 0 -99 6.5t-102.5 24t-93.5 45.5t-66 75t-26 107q0 94 58 155h-891v1434h1263v-345z" />
    <glyph glyph-name="Ecaron" unicode="&#x11a;" horiz-adv-x="1392" 
d="M200 1766h360l82 -92h92l82 92h360l-229 -291h-519zM65 0v1434h1263v-345h-835v-227h804v-289h-804v-227h835v-346h-1263z" />
    <glyph glyph-name="ecaron" unicode="&#x11b;" horiz-adv-x="1392" 
d="M200 1766h360l82 -92h92l82 92h360l-229 -291h-519zM65 0v1434h1263v-345h-835v-227h804v-289h-804v-227h835v-346h-1263z" />
    <glyph glyph-name="Gbreve" unicode="&#x11e;" horiz-adv-x="1662" 
d="M838 1519q-212 0 -298 66t-84 226h261q-1 -54 31 -83.5t90 -29.5q57 0 88.5 29.5t30.5 83.5h262q2 -160 -84 -226t-297 -66zM1589 780v-780h-239l-5 198q-77 -112 -213.5 -179t-319.5 -67q-163 0 -305.5 56t-245.5 155t-162.5 242.5t-59.5 311.5q0 226 100 399.5t284 269
t425 95.5q102 0 197 -19t184 -61t159.5 -103t120.5 -151t68 -200h-425q-30 71 -108 117.5t-187 46.5q-173 0 -283 -109t-110 -285q0 -175 109 -284.5t274 -109.5q32 0 65.5 4.5t76 19t77 37t64.5 62.5t44 93h-348v241h763z" />
    <glyph glyph-name="gbreve" unicode="&#x11f;" horiz-adv-x="1662" 
d="M838 1519q-212 0 -298 66t-84 226h261q-1 -54 31 -83.5t90 -29.5q57 0 88.5 29.5t30.5 83.5h262q2 -160 -84 -226t-297 -66zM1589 780v-780h-239l-5 198q-77 -112 -213.5 -179t-319.5 -67q-163 0 -305.5 56t-245.5 155t-162.5 242.5t-59.5 311.5q0 226 100 399.5t284 269
t425 95.5q102 0 197 -19t184 -61t159.5 -103t120.5 -151t68 -200h-425q-30 71 -108 117.5t-187 46.5q-173 0 -283 -109t-110 -285q0 -175 109 -284.5t274 -109.5q32 0 65.5 4.5t76 19t77 37t64.5 62.5t44 93h-348v241h763z" />
    <glyph glyph-name="Gdotaccent" unicode="&#x120;" horiz-adv-x="1662" 
d="M838 1527q-68 0 -115 44.5t-47 111.5q0 66 47 109.5t115 43.5t115 -43.5t47 -109.5q0 -67 -47 -111.5t-115 -44.5zM1589 780v-780h-239l-5 198q-77 -112 -213.5 -179t-319.5 -67q-163 0 -305.5 56t-245.5 155t-162.5 242.5t-59.5 311.5q0 226 100 399.5t284 269t425 95.5
q102 0 197 -19t184 -61t159.5 -103t120.5 -151t68 -200h-425q-30 71 -108 117.5t-187 46.5q-173 0 -283 -109t-110 -285q0 -175 109 -284.5t274 -109.5q32 0 65.5 4.5t76 19t77 37t64.5 62.5t44 93h-348v241h763z" />
    <glyph glyph-name="gdotaccent" unicode="&#x121;" horiz-adv-x="1662" 
d="M838 1527q-68 0 -115 44.5t-47 111.5q0 66 47 109.5t115 43.5t115 -43.5t47 -109.5q0 -67 -47 -111.5t-115 -44.5zM1589 780v-780h-239l-5 198q-77 -112 -213.5 -179t-319.5 -67q-163 0 -305.5 56t-245.5 155t-162.5 242.5t-59.5 311.5q0 226 100 399.5t284 269t425 95.5
q102 0 197 -19t184 -61t159.5 -103t120.5 -151t68 -200h-425q-30 71 -108 117.5t-187 46.5q-173 0 -283 -109t-110 -285q0 -175 109 -284.5t274 -109.5q32 0 65.5 4.5t76 19t77 37t64.5 62.5t44 93h-348v241h763z" />
    <glyph glyph-name="Gcommaaccent" unicode="&#x122;" horiz-adv-x="1662" 
d="M1589 780v-780h-239l-5 198q-77 -112 -213.5 -179t-319.5 -67q-163 0 -305.5 56t-245.5 155t-162.5 242.5t-59.5 311.5q0 226 100 399.5t284 269t425 95.5q102 0 197 -19t184 -61t159.5 -103t120.5 -151t68 -200h-425q-30 71 -108 117.5t-187 46.5q-173 0 -283 -109
t-110 -285q0 -175 109 -284.5t274 -109.5q32 0 65.5 4.5t76 19t77 37t64.5 62.5t44 93h-348v241h763zM616 -423v312h449v-70q0 -217 -26 -372.5t-58 -221.5h-232q22 144 22 352h-155z" />
    <glyph glyph-name="gcommaaccent" unicode="&#x123;" horiz-adv-x="1662" 
d="M1589 780v-780h-239l-5 198q-77 -112 -213.5 -179t-319.5 -67q-163 0 -305.5 56t-245.5 155t-162.5 242.5t-59.5 311.5q0 226 100 399.5t284 269t425 95.5q102 0 197 -19t184 -61t159.5 -103t120.5 -151t68 -200h-425q-30 71 -108 117.5t-187 46.5q-173 0 -283 -109
t-110 -285q0 -175 109 -284.5t274 -109.5q32 0 65.5 4.5t76 19t77 37t64.5 62.5t44 93h-348v241h763zM616 -423v312h449v-70q0 -217 -26 -372.5t-58 -221.5h-232q22 144 22 352h-155z" />
    <glyph glyph-name="Hbar" unicode="&#x126;" horiz-adv-x="1594" 
d="M1101 1434h428v-1434h-428v538h-608v-538h-428v1434h428v-147h608v147zM493 896h608v94h-608v-94z" />
    <glyph glyph-name="hbar" unicode="&#x127;" horiz-adv-x="1594" 
d="M1101 1434h428v-1434h-428v538h-608v-538h-428v1434h428v-147h608v147zM493 896h608v94h-608v-94z" />
    <glyph glyph-name="Imacron" unicode="&#x12a;" horiz-adv-x="556" 
d="M-97 1526v314h751v-314h-751zM65 0v1434h428v-1434h-428z" />
    <glyph glyph-name="imacron" unicode="&#x12b;" horiz-adv-x="556" 
d="M-97 1526v314h751v-314h-751zM65 0v1434h428v-1434h-428z" />
    <glyph glyph-name="Iogonek" unicode="&#x12e;" horiz-adv-x="556" 
d="M65 1434h428v-1434q-77 0 -109 -29t-32 -67q0 -83 99 -81v-236q-50 0 -99 6.5t-103 24.5t-94 45.5t-66 74.5t-26 107q0 94 58 155h-56v1434z" />
    <glyph glyph-name="iogonek" unicode="&#x12f;" horiz-adv-x="556" 
d="M65 1434h428v-1434q-77 0 -109 -29t-32 -67q0 -83 99 -81v-236q-50 0 -99 6.5t-103 24.5t-94 45.5t-66 74.5t-26 107q0 94 58 155h-56v1434z" />
    <glyph glyph-name="Idotaccent" unicode="&#x130;" horiz-adv-x="556" 
d="M278 1527q-68 0 -115 44.5t-47 111.5q0 66 47 109.5t115 43.5t115 -43.5t47 -109.5q0 -67 -47 -111.5t-115 -44.5zM65 0v1434h428v-1434h-428z" />
    <glyph glyph-name="dotlessi" unicode="&#x131;" horiz-adv-x="556" 
d="M65 0v1434h428v-1434h-428z" />
    <glyph glyph-name="IJ" unicode="&#x132;" horiz-adv-x="1935" 
d="M65 0v1434h428v-1434h-428zM1220 -48q-114 0 -206.5 17.5t-173 60t-134.5 109.5t-84 170.5t-28 238.5h427q-1 -66 16.5 -113t48.5 -72t66.5 -35.5t78.5 -10.5q211 0 211 272v845h429v-823q0 -182 -44 -310.5t-130.5 -204.5t-203 -110t-273.5 -34z" />
    <glyph glyph-name="Kcommaaccent" unicode="&#x136;" 
d="M973 795l611 -795h-441l-411 538h-27l-213 -226v-312h-427v1434h427v-608h29l561 608h480zM580 -423v312h449v-70q0 -217 -26 -372.5t-58 -221.5h-232q23 150 23 352h-156z" />
    <glyph glyph-name="kcommaaccent" unicode="&#x137;" 
d="M973 795l611 -795h-441l-411 538h-27l-213 -226v-312h-427v1434h427v-608h29l561 608h480zM580 -423v312h449v-70q0 -217 -26 -372.5t-58 -221.5h-232q23 150 23 352h-156z" />
    <glyph glyph-name="Lacute" unicode="&#x139;" horiz-adv-x="1338" 
d="M65 1502l123 292h380l-123 -292h-380zM65 0v1434h428v-1076h785v-358h-1213z" />
    <glyph glyph-name="lacute" unicode="&#x13a;" horiz-adv-x="1338" 
d="M65 1502l123 292h380l-123 -292h-380zM65 0v1434h428v-1076h785v-358h-1213z" />
    <glyph glyph-name="Lcommaaccent" unicode="&#x13b;" horiz-adv-x="1338" 
d="M65 0v1434h428v-1076h785v-358h-1213zM580 -775q22 144 22 352h-155v312h449v-70q0 -217 -26 -372.5t-58 -221.5h-232z" />
    <glyph glyph-name="lcommaaccent" unicode="&#x13c;" horiz-adv-x="1338" 
d="M65 0v1434h428v-1076h785v-358h-1213zM580 -775q22 144 22 352h-155v312h449v-70q0 -217 -26 -372.5t-58 -221.5h-232z" />
    <glyph glyph-name="Lcaron" unicode="&#x13d;" horiz-adv-x="1338" 
d="M65 0v1434h428v-1076h785v-358h-1213zM807 672q28 187 24 403h-177v359h515v-81q0 -249 -30 -426.5t-67 -254.5h-265z" />
    <glyph glyph-name="lcaron" unicode="&#x13e;" horiz-adv-x="1338" 
d="M65 0v1434h428v-1076h785v-358h-1213zM807 672q28 187 24 403h-177v359h515v-81q0 -249 -30 -426.5t-67 -254.5h-265z" />
    <glyph glyph-name="Ldot" unicode="&#x13f;" horiz-adv-x="1338" 
d="M65 0v1434h428v-1076h785v-358h-1213zM908 686q-89 0 -154 63.5t-65 151.5q0 87 65 151t154 64q88 0 152.5 -64t64.5 -151q0 -88 -64 -151.5t-153 -63.5z" />
    <glyph glyph-name="Lslash" unicode="&#x141;" horiz-adv-x="1394" 
d="M550 358h785v-358h-1214v379l-121 -94v312l121 94v743h429v-412l245 191v-314l-245 -189v-352z" />
    <glyph glyph-name="lslash" unicode="&#x142;" horiz-adv-x="1394" 
d="M550 358h785v-358h-1214v379l-121 -94v312l121 94v743h429v-412l245 191v-314l-245 -189v-352z" />
    <glyph glyph-name="Nacute" unicode="&#x143;" horiz-adv-x="1617" 
d="M616 1519l123 292h381l-123 -292h-381zM65 0v1434h493l539 -838h40v838h418v-1434h-483l-551 838h-38v-838h-418z" />
    <glyph glyph-name="nacute" unicode="&#x144;" horiz-adv-x="1617" 
d="M616 1519l123 292h381l-123 -292h-381zM65 0v1434h493l539 -838h40v838h418v-1434h-483l-551 838h-38v-838h-418z" />
    <glyph glyph-name="Ncommaaccent" unicode="&#x145;" horiz-adv-x="1617" 
d="M65 0v1434h493l539 -838h40v838h418v-1434h-483l-551 838h-38v-838h-418zM720 -775q22 144 22 352h-155v312h449v-70q0 -217 -26 -372.5t-58 -221.5h-232z" />
    <glyph glyph-name="ncommaaccent" unicode="&#x146;" horiz-adv-x="1617" 
d="M65 0v1434h493l539 -838h40v838h418v-1434h-483l-551 838h-38v-838h-418zM720 -775q22 144 22 352h-155v312h449v-70q0 -217 -26 -372.5t-58 -221.5h-232z" />
    <glyph glyph-name="Ncaron" unicode="&#x147;" horiz-adv-x="1617" 
d="M324 1766h360l82 -92h92l82 92h360l-228 -291h-519zM65 0v1434h493l539 -838h40v838h418v-1434h-483l-551 838h-38v-838h-418z" />
    <glyph glyph-name="ncaron" unicode="&#x148;" horiz-adv-x="1617" 
d="M324 1766h360l82 -92h92l82 92h360l-228 -291h-519zM65 0v1434h493l539 -838h40v838h418v-1434h-483l-551 838h-38v-838h-418z" />
    <glyph glyph-name="Eng" unicode="&#x14a;" horiz-adv-x="1617" 
d="M1137 1434h418v-1434q-1 -131 -45 -228.5t-127 -158.5t-198.5 -90.5t-264.5 -29.5l5 360q32 0 57.5 2.5t56 11t51 23.5t34 42.5t13.5 64.5v3h-65l-551 838h-38v-838h-418v1434h493l539 -838h40v838z" />
    <glyph glyph-name="eng" unicode="&#x14b;" horiz-adv-x="1617" 
d="M1137 1434h418v-1434q-1 -131 -45 -228.5t-127 -158.5t-198.5 -90.5t-264.5 -29.5l5 360q32 0 57.5 2.5t56 11t51 23.5t34 42.5t13.5 64.5v3h-65l-551 838h-38v-838h-418v1434h493l539 -838h40v838z" />
    <glyph glyph-name="Omacron" unicode="&#x14c;" horiz-adv-x="1686" 
d="M468 1533v314h751v-314h-751zM843 -48q-240 0 -423 96t-282 269.5t-99 399.5t99.5 399.5t282 269t422.5 95.5t422.5 -95.5t282 -269t99.5 -399.5t-99 -399.5t-282 -269.5t-423 -96zM843 323q162 0 270.5 107t108.5 287t-108.5 287t-270.5 107t-270.5 -107t-108.5 -287
t108.5 -287t270.5 -107z" />
    <glyph glyph-name="omacron" unicode="&#x14d;" horiz-adv-x="1686" 
d="M468 1533v314h751v-314h-751zM843 -48q-240 0 -423 96t-282 269.5t-99 399.5t99.5 399.5t282 269t422.5 95.5t422.5 -95.5t282 -269t99.5 -399.5t-99 -399.5t-282 -269.5t-423 -96zM843 323q162 0 270.5 107t108.5 287t-108.5 287t-270.5 107t-270.5 -107t-108.5 -287
t108.5 -287t270.5 -107z" />
    <glyph glyph-name="Ohungarumlaut" unicode="&#x150;" horiz-adv-x="1686" 
d="M377 1536l123 292h381l-123 -292h-381zM843 1536l123 292h381l-123 -292h-381zM843 -48q-240 0 -423 96t-282 269.5t-99 399.5t99.5 399.5t282 269t422.5 95.5t422.5 -95.5t282 -269t99.5 -399.5t-99 -399.5t-282 -269.5t-423 -96zM843 323q162 0 270.5 107t108.5 287
t-108.5 287t-270.5 107t-270.5 -107t-108.5 -287t108.5 -287t270.5 -107z" />
    <glyph glyph-name="ohungarumlaut" unicode="&#x151;" horiz-adv-x="1686" 
d="M377 1536l123 292h381l-123 -292h-381zM843 1536l123 292h381l-123 -292h-381zM843 -48q-240 0 -423 96t-282 269.5t-99 399.5t99.5 399.5t282 269t422.5 95.5t422.5 -95.5t282 -269t99.5 -399.5t-99 -399.5t-282 -269.5t-423 -96zM843 323q162 0 270.5 107t108.5 287
t-108.5 287t-270.5 107t-270.5 -107t-108.5 -287t108.5 -287t270.5 -107z" />
    <glyph glyph-name="OE" unicode="&#x152;" horiz-adv-x="2548" 
d="M2485 1089h-835v-227h804v-289h-804v-227h835v-346h-1263v27q-167 -75 -379 -75q-240 0 -423 96t-282 269.5t-99 399.5t99.5 399.5t282 269t422.5 95.5q212 0 379 -75v28h1263v-345zM843 323q162 0 270.5 107t108.5 287t-108.5 287t-270.5 107t-270.5 -107t-108.5 -287
t108.5 -287t270.5 -107z" />
    <glyph glyph-name="oe" unicode="&#x153;" horiz-adv-x="2548" 
d="M2485 1089h-835v-227h804v-289h-804v-227h835v-346h-1263v27q-167 -75 -379 -75q-240 0 -423 96t-282 269.5t-99 399.5t99.5 399.5t282 269t422.5 95.5q212 0 379 -75v28h1263v-345zM843 323q162 0 270.5 107t108.5 287t-108.5 287t-270.5 107t-270.5 -107t-108.5 -287
t108.5 -287t270.5 -107z" />
    <glyph glyph-name="Racute" unicode="&#x154;" horiz-adv-x="1553" 
d="M1072 1811l-123 -292h-381l123 292h381zM1516 0h-422l-208 389h-393v-389h-428v1434h797q299 0 455 -134t156 -402q0 -141 -59 -247.5t-161 -172.5zM493 1077v-365h342q102 0 155.5 46.5t53.5 135.5t-53.5 136t-155.5 47h-342z" />
    <glyph glyph-name="racute" unicode="&#x155;" horiz-adv-x="1553" 
d="M1072 1811l-123 -292h-381l123 292h381zM1516 0h-422l-208 389h-393v-389h-428v1434h797q299 0 455 -134t156 -402q0 -141 -59 -247.5t-161 -172.5zM493 1077v-365h342q102 0 155.5 46.5t53.5 135.5t-53.5 136t-155.5 47h-342z" />
    <glyph glyph-name="Rcommaaccent" unicode="&#x156;" horiz-adv-x="1553" 
d="M1253 478l263 -478h-422l-208 389h-393v-389h-428v1434h797q299 0 455 -134t156 -402q0 -141 -59 -247.5t-161 -172.5zM493 1077v-365h342q102 0 155.5 46.5t53.5 135.5t-53.5 136t-155.5 47h-342zM539 -423v312h449v-70q0 -218 -25.5 -373.5t-57.5 -220.5h-233
q23 150 23 352h-156z" />
    <glyph glyph-name="rcommaaccent" unicode="&#x157;" horiz-adv-x="1553" 
d="M1253 478l263 -478h-422l-208 389h-393v-389h-428v1434h797q299 0 455 -134t156 -402q0 -141 -59 -247.5t-161 -172.5zM493 1077v-365h342q102 0 155.5 46.5t53.5 135.5t-53.5 136t-155.5 47h-342zM539 -423v312h449v-70q0 -218 -25.5 -373.5t-57.5 -220.5h-233
q23 150 23 352h-156z" />
    <glyph glyph-name="Rcaron" unicode="&#x158;" horiz-adv-x="1553" 
d="M1024 1475h-519l-229 291h361l82 -92h92l82 92h360zM1516 0h-422l-208 389h-393v-389h-428v1434h797q299 0 455 -134t156 -402q0 -141 -59 -247.5t-161 -172.5zM493 1077v-365h342q102 0 155.5 46.5t53.5 135.5t-53.5 136t-155.5 47h-342z" />
    <glyph glyph-name="rcaron" unicode="&#x159;" horiz-adv-x="1553" 
d="M1024 1475h-519l-229 291h361l82 -92h92l82 92h360zM1516 0h-422l-208 389h-393v-389h-428v1434h797q299 0 455 -134t156 -402q0 -141 -59 -247.5t-161 -172.5zM493 1077v-365h342q102 0 155.5 46.5t53.5 135.5t-53.5 136t-155.5 47h-342z" />
    <glyph glyph-name="Sacute" unicode="&#x15a;" horiz-adv-x="1481" 
d="M550 1519l122 292h381l-123 -292h-380zM730 -48q-362 2 -534 125.5t-165 390.5h385q11 -177 314 -180q141 -1 216 37.5t75 102.5q0 51 -44 84.5t-151 50.5l-181 29q-209 35 -297 66q-201 70 -257 225q-24 66 -24 150q0 213 171 330.5t496 117.5q124 0 223.5 -15.5
t185.5 -52t143 -94.5t88.5 -146t30.5 -204h-383q-31 176 -298 176q-123 0 -184.5 -35.5t-61.5 -97.5q0 -102 162 -128l152 -27q25 -4 78 -13q78 -12 118.5 -19t111.5 -24.5t111 -36.5t91.5 -52t78 -73t46 -98.5t19.5 -129.5q0 -227 -180 -343.5t-536 -115.5z" />
    <glyph glyph-name="sacute" unicode="&#x15b;" horiz-adv-x="1481" 
d="M550 1519l122 292h381l-123 -292h-380zM730 -48q-362 2 -534 125.5t-165 390.5h385q11 -177 314 -180q141 -1 216 37.5t75 102.5q0 51 -44 84.5t-151 50.5l-181 29q-209 35 -297 66q-201 70 -257 225q-24 66 -24 150q0 213 171 330.5t496 117.5q124 0 223.5 -15.5
t185.5 -52t143 -94.5t88.5 -146t30.5 -204h-383q-31 176 -298 176q-123 0 -184.5 -35.5t-61.5 -97.5q0 -102 162 -128l152 -27q25 -4 78 -13q78 -12 118.5 -19t111.5 -24.5t111 -36.5t91.5 -52t78 -73t46 -98.5t19.5 -129.5q0 -227 -180 -343.5t-536 -115.5z" />
    <glyph glyph-name="Scedilla" unicode="&#x15e;" horiz-adv-x="1481" 
d="M1446 411q0 -216 -163 -332t-486 -125l-17 -15q79 -6 137 -55t58 -138q0 -65 -35 -112.5t-93.5 -70.5t-135.5 -28.5t-161 13.5v169q68 -15 110 -12t60.5 13t18.5 23q0 15 -18.5 27t-60.5 16t-110 -13v110l92 73q-316 15 -467 139t-144 375h385q11 -177 314 -180
q141 -1 216 37.5t75 102.5q0 51 -44 84.5t-151 50.5l-181 29q-209 35 -297 66q-201 70 -257 225q-24 66 -24 150q0 213 171 330.5t496 117.5q124 0 223.5 -15.5t185.5 -52t143 -94.5t88.5 -146t30.5 -204h-383q-31 176 -298 176q-123 0 -184.5 -35.5t-61.5 -97.5
q0 -102 162 -128l152 -27q25 -4 78 -13q78 -12 118.5 -19t111.5 -24.5t111 -36.5t91.5 -52t78 -73t46 -98.5t19.5 -129.5z" />
    <glyph glyph-name="scedilla" unicode="&#x15f;" horiz-adv-x="1481" 
d="M1446 411q0 -216 -163 -332t-486 -125l-17 -15q79 -6 137 -55t58 -138q0 -65 -35 -112.5t-93.5 -70.5t-135.5 -28.5t-161 13.5v169q68 -15 110 -12t60.5 13t18.5 23q0 15 -18.5 27t-60.5 16t-110 -13v110l92 73q-316 15 -467 139t-144 375h385q11 -177 314 -180
q141 -1 216 37.5t75 102.5q0 51 -44 84.5t-151 50.5l-181 29q-209 35 -297 66q-201 70 -257 225q-24 66 -24 150q0 213 171 330.5t496 117.5q124 0 223.5 -15.5t185.5 -52t143 -94.5t88.5 -146t30.5 -204h-383q-31 176 -298 176q-123 0 -184.5 -35.5t-61.5 -97.5
q0 -102 162 -128l152 -27q25 -4 78 -13q78 -12 118.5 -19t111.5 -24.5t111 -36.5t91.5 -52t78 -73t46 -98.5t19.5 -129.5z" />
    <glyph glyph-name="Scaron" unicode="&#x160;" horiz-adv-x="1481" 
d="M792 857q25 -4 78 -13q78 -12 118.5 -19t111.5 -24.5t111 -36.5t91.5 -52t78 -73t46 -98.5t19.5 -129.5q0 -227 -180 -343.5t-536 -115.5q-362 2 -534 125.5t-165 390.5h385q11 -177 314 -180q141 -1 216 37.5t75 102.5q0 51 -44 84.5t-151 50.5l-181 29q-209 35 -297 66
q-201 70 -257 225q-24 66 -24 150q0 187 133.5 302t388.5 140h-103l-228 291h360l82 -92h92l82 92h360l-229 -291h-118q122 -12 215 -45t163 -91.5t106 -151.5t34 -218h-383q-31 176 -298 176q-123 0 -184.5 -35.5t-61.5 -97.5q0 -102 162 -128z" />
    <glyph glyph-name="scaron" unicode="&#x161;" horiz-adv-x="1481" 
d="M792 857q25 -4 78 -13q78 -12 118.5 -19t111.5 -24.5t111 -36.5t91.5 -52t78 -73t46 -98.5t19.5 -129.5q0 -227 -180 -343.5t-536 -115.5q-362 2 -534 125.5t-165 390.5h385q11 -177 314 -180q141 -1 216 37.5t75 102.5q0 51 -44 84.5t-151 50.5l-181 29q-209 35 -297 66
q-201 70 -257 225q-24 66 -24 150q0 187 133.5 302t388.5 140h-103l-228 291h360l82 -92h92l82 92h360l-229 -291h-118q122 -12 215 -45t163 -91.5t106 -151.5t34 -218h-383q-31 176 -298 176q-123 0 -184.5 -35.5t-61.5 -97.5q0 -102 162 -128z" />
    <glyph glyph-name="uni0162" unicode="&#x162;" horiz-adv-x="1585" 
d="M1007 0h-99l-77 -61q79 -6 137 -55t58 -138q0 -65 -35 -112.5t-93.5 -70.5t-135.5 -28.5t-161 13.5v169q68 -15 110 -12t60.5 13t18.5 23q0 15 -18.5 27t-60.5 16t-110 -13v110l150 119h-172v1075h-523v359h1473v-359h-522v-1075z" />
    <glyph glyph-name="uni0163" unicode="&#x163;" horiz-adv-x="1585" 
d="M1007 0h-99l-77 -61q79 -6 137 -55t58 -138q0 -65 -35 -112.5t-93.5 -70.5t-135.5 -28.5t-161 13.5v169q68 -15 110 -12t60.5 13t18.5 23q0 15 -18.5 27t-60.5 16t-110 -13v110l150 119h-172v1075h-523v359h1473v-359h-522v-1075z" />
    <glyph glyph-name="Tcaron" unicode="&#x164;" horiz-adv-x="1585" 
d="M1056 1475h-518l-229 291h360l82 -92h92l82 92h360zM1529 1434v-359h-522v-1075h-428v1075h-523v359h1473z" />
    <glyph glyph-name="tcaron" unicode="&#x165;" horiz-adv-x="1585" 
d="M1056 1475h-518l-229 291h360l82 -92h92l82 92h360zM1529 1434v-359h-522v-1075h-428v1075h-523v359h1473z" />
    <glyph glyph-name="Tbar" unicode="&#x166;" horiz-adv-x="1585" 
d="M1529 1075h-522v-258h370v-314h-370v-503h-428v503h-367v314h367v258h-523v359h1473v-359z" />
    <glyph glyph-name="tbar" unicode="&#x167;" horiz-adv-x="1585" 
d="M1529 1075h-522v-258h370v-314h-370v-503h-428v503h-367v314h367v258h-523v359h1473v-359z" />
    <glyph glyph-name="Umacron" unicode="&#x16a;" 
d="M415 1526v314h751v-314h-751zM790 -48q-361 0 -543 163.5t-182 500.5v818h432v-808q0 -151 72.5 -232.5t220.5 -81.5q149 0 222 82t73 232v808h431v-816q0 -338 -182.5 -502t-543.5 -164z" />
    <glyph glyph-name="umacron" unicode="&#x16b;" 
d="M415 1526v314h751v-314h-751zM790 -48q-361 0 -543 163.5t-182 500.5v818h432v-808q0 -151 72.5 -232.5t220.5 -81.5q149 0 222 82t73 232v808h431v-816q0 -338 -182.5 -502t-543.5 -164z" />
    <glyph glyph-name="Ubreve" unicode="&#x16c;" 
d="M790 1519q-212 0 -298 66t-84 226h261q-1 -54 31 -83.5t90 -29.5q57 0 89 29.5t31 83.5h261q2 -160 -84 -226t-297 -66zM790 -48q-361 0 -543 163.5t-182 500.5v818h432v-808q0 -151 72.5 -232.5t220.5 -81.5q149 0 222 82t73 232v808h431v-816q0 -338 -182.5 -502
t-543.5 -164z" />
    <glyph glyph-name="ubreve" unicode="&#x16d;" 
d="M790 1519q-212 0 -298 66t-84 226h261q-1 -54 31 -83.5t90 -29.5q57 0 89 29.5t31 83.5h261q2 -160 -84 -226t-297 -66zM790 -48q-361 0 -543 163.5t-182 500.5v818h432v-808q0 -151 72.5 -232.5t220.5 -81.5q149 0 222 82t73 232v808h431v-816q0 -338 -182.5 -502
t-543.5 -164z" />
    <glyph glyph-name="Uring" unicode="&#x16e;" 
d="M790 1410q-99 0 -167 67.5t-68 162.5q0 98 68 167t167 69t165.5 -69t66.5 -167q0 -96 -66.5 -163t-165.5 -67zM790 1591q25 0 40.5 14t14.5 39q-5 54 -55 54q-24 0 -39 -15t-15 -39q0 -25 15 -39t39 -14zM790 -48q-361 0 -543 163.5t-182 500.5v818h432v-808
q0 -151 72.5 -232.5t220.5 -81.5q149 0 222 82t73 232v808h431v-816q0 -338 -182.5 -502t-543.5 -164z" />
    <glyph glyph-name="uring" unicode="&#x16f;" 
d="M790 1410q-99 0 -167 67.5t-68 162.5q0 98 68 167t167 69t165.5 -69t66.5 -167q0 -96 -66.5 -163t-165.5 -67zM790 1591q25 0 40.5 14t14.5 39q-5 54 -55 54q-24 0 -39 -15t-15 -39q0 -25 15 -39t39 -14zM790 -48q-361 0 -543 163.5t-182 500.5v818h432v-808
q0 -151 72.5 -232.5t220.5 -81.5q149 0 222 82t73 232v808h431v-816q0 -338 -182.5 -502t-543.5 -164z" />
    <glyph glyph-name="Uhungarumlaut" unicode="&#x170;" 
d="M324 1529l123 292h381l-123 -292h-381zM790 1529l123 292h381l-123 -292h-381zM790 -48q-361 0 -543 163.5t-182 500.5v818h432v-808q0 -151 72.5 -232.5t220.5 -81.5q149 0 222 82t73 232v808h431v-816q0 -338 -182.5 -502t-543.5 -164z" />
    <glyph glyph-name="uhungarumlaut" unicode="&#x171;" 
d="M324 1529l123 292h381l-123 -292h-381zM790 1529l123 292h381l-123 -292h-381zM790 -48q-361 0 -543 163.5t-182 500.5v818h432v-808q0 -151 72.5 -232.5t220.5 -81.5q149 0 222 82t73 232v808h431v-816q0 -338 -182.5 -502t-543.5 -164z" />
    <glyph glyph-name="Uogonek" unicode="&#x172;" 
d="M1085 1434h431v-816q0 -579 -545 -654v-2q-171 -16 -171 -75q0 -9 3.5 -18.5t13 -21t31 -18.5t51.5 -6v-236q-64 0 -125.5 11.5t-123.5 37.5t-100 78t-38 124q0 81 55 133q-502 91 -502 645v818h432v-808q0 -151 72.5 -232.5t220.5 -81.5q149 0 222 82t73 232v808z" />
    <glyph glyph-name="uogonek" unicode="&#x173;" 
d="M1085 1434h431v-816q0 -579 -545 -654v-2q-171 -16 -171 -75q0 -9 3.5 -18.5t13 -21t31 -18.5t51.5 -6v-236q-64 0 -125.5 11.5t-123.5 37.5t-100 78t-38 124q0 81 55 133q-502 91 -502 645v818h432v-808q0 -151 72.5 -232.5t220.5 -81.5q149 0 222 82t73 232v808z" />
    <glyph glyph-name="Wcircumflex" unicode="&#x174;" horiz-adv-x="2174" 
d="M601 1519l228 292h519l229 -292h-360l-82 92h-92l-82 -92h-360zM329 0l-293 1434h435l178 -977h37l229 977h345l228 -977h38l177 977h435l-293 -1434h-579l-160 761h-38l-160 -761h-579z" />
    <glyph glyph-name="wcircumflex" unicode="&#x175;" horiz-adv-x="2174" 
d="M601 1519l228 292h519l229 -292h-360l-82 92h-92l-82 -92h-360zM329 0l-293 1434h435l178 -977h37l229 977h345l228 -977h38l177 977h435l-293 -1434h-579l-160 761h-38l-160 -761h-579z" />
    <glyph glyph-name="Ycircumflex" unicode="&#x176;" horiz-adv-x="1614" 
d="M761 1611l-82 -92h-360l229 292h519l228 -292h-360l-82 92h-92zM1609 1434l-588 -985v-449h-429v451l-587 983h451l332 -574h38l331 574h452z" />
    <glyph glyph-name="ycircumflex" unicode="&#x177;" horiz-adv-x="1614" 
d="M761 1611l-82 -92h-360l229 292h519l228 -292h-360l-82 92h-92zM1609 1434l-588 -985v-449h-429v451l-587 983h451l332 -574h38l331 574h452z" />
    <glyph glyph-name="Ydieresis" unicode="&#x178;" horiz-adv-x="1614" 
d="M555 1527q-68 0 -115 44.5t-47 111.5q0 66 47 109.5t115 43.5t115 -43.5t47 -109.5q0 -67 -47 -111.5t-115 -44.5zM1056 1527q-66 0 -114 45t-48 111t47.5 109.5t114.5 43.5q68 0 115.5 -43.5t47.5 -109.5q0 -67 -47.5 -111.5t-115.5 -44.5zM1609 1434l-588 -985v-449
h-429v451l-587 983h451l332 -574h38l331 574h452z" />
    <glyph glyph-name="Zacute" unicode="&#x179;" horiz-adv-x="1401" 
d="M507 1519l123 292h380l-123 -292h-380zM39 0v346l770 697v32h-751v359h1306v-347l-780 -696v-33h769v-358h-1314z" />
    <glyph glyph-name="zacute" unicode="&#x17a;" horiz-adv-x="1401" 
d="M507 1519l123 292h380l-123 -292h-380zM39 0v346l770 697v32h-751v359h1306v-347l-780 -696v-33h769v-358h-1314z" />
    <glyph glyph-name="Zdotaccent" unicode="&#x17b;" horiz-adv-x="1401" 
d="M700 1527q-68 0 -115 44.5t-47 111.5q0 66 47 109.5t115 43.5t115 -43.5t47 -109.5q0 -67 -47 -111.5t-115 -44.5zM39 0v346l770 697v32h-751v359h1306v-347l-780 -696v-33h769v-358h-1314z" />
    <glyph glyph-name="zdotaccent" unicode="&#x17c;" horiz-adv-x="1401" 
d="M700 1527q-68 0 -115 44.5t-47 111.5q0 66 47 109.5t115 43.5t115 -43.5t47 -109.5q0 -67 -47 -111.5t-115 -44.5zM39 0v346l770 697v32h-751v359h1306v-347l-780 -696v-33h769v-358h-1314z" />
    <glyph glyph-name="Zcaron" unicode="&#x17d;" horiz-adv-x="1401" 
d="M215 1766h360l82 -92h92l82 92h360l-228 -291h-519zM39 0v346l770 697v32h-751v359h1306v-347l-780 -696v-33h769v-358h-1314z" />
    <glyph glyph-name="zcaron" unicode="&#x17e;" horiz-adv-x="1401" 
d="M215 1766h360l82 -92h92l82 92h360l-228 -291h-519zM39 0v346l770 697v32h-751v359h1306v-347l-780 -696v-33h769v-358h-1314z" />
    <glyph glyph-name="florin" unicode="&#x192;" horiz-adv-x="1307" 
d="M1026 1184q-78 0 -127 -38.5t-49 -123.5v-73h384v-329h-384v-210q0 -114 -37 -200t-102.5 -136.5t-148 -75t-180.5 -24.5q-86 0 -170 17.5t-139 49.5v311q105 -40 209 -40q78 0 126.5 38.5t48.5 123.5v146h-384v329h384v138q0 92 24.5 165.5t67 123.5t102.5 83t128 48
t146 15q87 0 171 -17t138 -49v-311q-96 39 -208 39z" />
    <glyph glyph-name="uni01CD" unicode="&#x1cd;" horiz-adv-x="1699" 
d="M1113 1475h-519l-229 291h360l82 -92h92l82 92h360zM1244 0l-72 207h-645l-71 -207h-442l536 1434h600l538 -1434h-444zM638 526h424l-175 505h-75z" />
    <glyph glyph-name="uni01CE" unicode="&#x1ce;" horiz-adv-x="1699" 
d="M1113 1475h-519l-229 291h360l82 -92h92l82 92h360zM1244 0l-72 207h-645l-71 -207h-442l536 1434h600l538 -1434h-444zM638 526h424l-175 505h-75z" />
    <glyph glyph-name="uni01CF" unicode="&#x1cf;" horiz-adv-x="556" 
d="M-207 1766h361l82 -92h92l82 92h360l-229 -291h-519zM65 0v1434h428v-1434h-428z" />
    <glyph glyph-name="uni01D0" unicode="&#x1d0;" horiz-adv-x="556" 
d="M-207 1766h361l82 -92h92l82 92h360l-229 -291h-519zM65 0v1434h428v-1434h-428z" />
    <glyph glyph-name="uni01D1" unicode="&#x1d1;" horiz-adv-x="1686" 
d="M358 1773h361l81 -92h93l82 92h360l-229 -292h-519zM843 -48q-240 0 -423 96t-282 269.5t-99 399.5t99.5 399.5t282 269t422.5 95.5t422.5 -95.5t282 -269t99.5 -399.5t-99 -399.5t-282 -269.5t-423 -96zM843 323q162 0 270.5 107t108.5 287t-108.5 287t-270.5 107
t-270.5 -107t-108.5 -287t108.5 -287t270.5 -107z" />
    <glyph glyph-name="uni01D2" unicode="&#x1d2;" horiz-adv-x="1686" 
d="M358 1773h361l81 -92h93l82 92h360l-229 -292h-519zM843 -48q-240 0 -423 96t-282 269.5t-99 399.5t99.5 399.5t282 269t422.5 95.5t422.5 -95.5t282 -269t99.5 -399.5t-99 -399.5t-282 -269.5t-423 -96zM843 323q162 0 270.5 107t108.5 287t-108.5 287t-270.5 107
t-270.5 -107t-108.5 -287t108.5 -287t270.5 -107z" />
    <glyph glyph-name="uni01D3" unicode="&#x1d3;" 
d="M305 1766h361l82 -92h92l82 92h360l-229 -291h-519zM790 -48q-361 0 -543 163.5t-182 500.5v818h432v-808q0 -151 72.5 -232.5t220.5 -81.5q149 0 222 82t73 232v808h431v-816q0 -338 -182.5 -502t-543.5 -164z" />
    <glyph glyph-name="uni01D4" unicode="&#x1d4;" 
d="M305 1766h361l82 -92h92l82 92h360l-229 -291h-519zM790 -48q-361 0 -543 163.5t-182 500.5v818h432v-808q0 -151 72.5 -232.5t220.5 -81.5q149 0 222 82t73 232v808h431v-816q0 -338 -182.5 -502t-543.5 -164z" />
    <glyph glyph-name="uni01EA" unicode="&#x1ea;" horiz-adv-x="1686" 
d="M1647 717q0 -302 -174.5 -505t-470.5 -248q-21 -24 -21 -56q0 -33 20.5 -58t78.5 -24v-236q-50 0 -99 6.5t-102.5 24t-93.5 45.5t-66 75t-26 107q0 57 26 111q-310 36 -495 241.5t-185 516.5q0 226 99.5 399.5t282 269t422.5 95.5t422.5 -95.5t282 -269t99.5 -399.5z
M464 717q0 -180 108.5 -287t270.5 -107t270.5 107t108.5 287t-108.5 287t-270.5 107t-270.5 -107t-108.5 -287z" />
    <glyph glyph-name="Scommaaccent" unicode="&#x218;" horiz-adv-x="1481" 
d="M730 -48q-362 2 -534 125.5t-165 390.5h385q11 -177 314 -180q141 -1 216 37.5t75 102.5q0 51 -44 84.5t-151 50.5l-181 29q-209 35 -297 66q-201 70 -257 225q-24 66 -24 150q0 213 171 330.5t496 117.5q124 0 223.5 -15.5t185.5 -52t143 -94.5t88.5 -146t30.5 -204
h-383q-31 176 -298 176q-123 0 -184.5 -35.5t-61.5 -97.5q0 -102 162 -128l152 -27q25 -4 78 -13q78 -12 118.5 -19t111.5 -24.5t111 -36.5t91.5 -52t78 -73t46 -98.5t19.5 -129.5q0 -227 -180 -343.5t-536 -115.5zM654 -775q22 144 22 352h-155v312h448v-70
q0 -218 -25.5 -373.5t-57.5 -220.5h-232z" />
    <glyph glyph-name="scommaaccent" unicode="&#x219;" horiz-adv-x="1481" 
d="M730 -48q-362 2 -534 125.5t-165 390.5h385q11 -177 314 -180q141 -1 216 37.5t75 102.5q0 51 -44 84.5t-151 50.5l-181 29q-209 35 -297 66q-201 70 -257 225q-24 66 -24 150q0 213 171 330.5t496 117.5q124 0 223.5 -15.5t185.5 -52t143 -94.5t88.5 -146t30.5 -204
h-383q-31 176 -298 176q-123 0 -184.5 -35.5t-61.5 -97.5q0 -102 162 -128l152 -27q25 -4 78 -13q78 -12 118.5 -19t111.5 -24.5t111 -36.5t91.5 -52t78 -73t46 -98.5t19.5 -129.5q0 -227 -180 -343.5t-536 -115.5zM654 -775q22 144 22 352h-155v312h448v-70
q0 -218 -25.5 -373.5t-57.5 -220.5h-232z" />
    <glyph glyph-name="uni021A" unicode="&#x21a;" horiz-adv-x="1585" 
d="M56 1434h1473v-359h-522v-1075h-428v1075h-523v359zM572 -423v312h449v-70q0 -217 -26 -372.5t-58 -221.5h-232q22 144 22 352h-155z" />
    <glyph glyph-name="uni021B" unicode="&#x21b;" horiz-adv-x="1585" 
d="M56 1434h1473v-359h-522v-1075h-428v1075h-523v359zM572 -423v312h449v-70q0 -217 -26 -372.5t-58 -221.5h-232q22 144 22 352h-155z" />
    <glyph glyph-name="circumflex" unicode="&#x2c6;" horiz-adv-x="976" 
d="M0 1161l229 291h519l228 -291h-360l-82 92h-92l-82 -92h-360z" />
    <glyph glyph-name="caron" unicode="&#x2c7;" horiz-adv-x="976" 
d="M0 1408h360l82 -92h92l82 92h360l-228 -292h-519z" />
    <glyph glyph-name="breve" unicode="&#x2d8;" horiz-adv-x="762" 
d="M382 1161q-212 0 -298 65.5t-84 225.5h261q-1 -54 31 -83t90 -29q57 0 89 29t31 83h261q2 -160 -84 -225.5t-297 -65.5z" />
    <glyph glyph-name="dotaccent" unicode="&#x2d9;" horiz-adv-x="324" 
d="M162 1169q-68 0 -115 44t-47 111q0 66 47 110t115 44t115 -44t47 -110q0 -67 -47 -111t-115 -44z" />
    <glyph glyph-name="ring" unicode="&#x2da;" horiz-adv-x="467" 
d="M236 1051q-99 0 -167.5 68t-68.5 163q0 98 68.5 166.5t167.5 68.5t165.5 -68.5t66.5 -166.5q0 -96 -66.5 -163.5t-165.5 -67.5zM236 1232q25 0 40 14t14 39q-5 55 -54 55q-24 0 -39.5 -15.5t-15.5 -39.5q0 -25 15 -39t40 -14z" />
    <glyph glyph-name="ogonek" unicode="&#x2db;" horiz-adv-x="430" 
d="M387 -413q-50 0 -99 6.5t-102.5 24t-93.5 45.5t-66 75t-26 107q0 59 22.5 105t62 74t83 47t96.5 27.5t90 11.5t76 3v-113q-77 0 -109.5 -29t-32.5 -67q0 -83 99 -81v-236z" />
    <glyph glyph-name="tilde" unicode="&#x2dc;" horiz-adv-x="817" 
d="M560 1157q-59 0 -118.5 26t-113 52t-98.5 26q-46 0 -73 -22t-31 -60h-123q-10 72 8 128t56 89.5t86.5 50t104.5 16.5q58 0 117.5 -26t113 -52t98.5 -26t72 21.5t32 59.5h123q10 -72 -8 -128t-55.5 -89t-86 -49.5t-104.5 -16.5z" />
    <glyph glyph-name="hungarumlaut" unicode="&#x2dd;" horiz-adv-x="930" 
d="M0 1161l123 291h380l-122 -291h-381zM466 1161l123 291h380l-122 -291h-381z" />
    <glyph glyph-name="uni0326" unicode="&#x326;" horiz-adv-x="0" 
d="M-326 -775q22 144 22 352h-155v312h449v-70q0 -217 -26 -372.5t-58 -221.5h-232z" />
    <glyph glyph-name="uni0394" unicode="&#x394;" horiz-adv-x="1699" 
d="M1150 1434l538 -1434h-1674l536 1434h600zM580 345h540l-246 686h-48z" />
    <glyph glyph-name="uni03A9" unicode="&#x3a9;" horiz-adv-x="1631" 
d="M39 0v331h202v51q-88 85 -138 203.5t-50 252.5t53.5 251t150 204t241.5 137.5t318 50.5t318 -50.5t242 -137.5t150.5 -204t53.5 -251t-50 -252.5t-139 -203.5v-51h203v-331h-655v474q41 17 76 41t68 61t52 90.5t19 118.5q0 133 -93 229.5t-245 96.5q-151 0 -243.5 -96.5
t-92.5 -229.5q0 -123 62 -198.5t153 -112.5v-474h-656z" />
    <glyph glyph-name="uni03BC" unicode="&#x3bc;" horiz-adv-x="1377" 
d="M886 1161h428v-1161h-420l-8 155h-43q-57 -88 -152.5 -133.5t-197.5 -47.5v-230h-428v1417h428v-658q0 -55 18 -93.5t48.5 -57t60.5 -26t64 -7.5q92 0 147 52t55 112v678z" />
    <glyph glyph-name="pi" unicode="&#x3c0;" horiz-adv-x="1652" 
d="M1495 346q22 0 52 6.5t40 5.5v-295q-65 -77 -254 -77q-80 0 -142 17.5t-112 57t-76.5 110.5t-26.5 170v512h-336v-853h-428v853h-147v308h1485v-308h-145v-428q0 -79 90 -79z" />
    <glyph glyph-name="Wgrave" unicode="&#x1e80;" horiz-adv-x="2174" 
d="M1283 1519h-380l-123 292h381zM329 0l-293 1434h435l178 -977h37l229 977h345l228 -977h38l177 977h435l-293 -1434h-579l-160 761h-38l-160 -761h-579z" />
    <glyph glyph-name="wgrave" unicode="&#x1e81;" horiz-adv-x="2174" 
d="M1283 1519h-380l-123 292h381zM329 0l-293 1434h435l178 -977h37l229 977h345l228 -977h38l177 977h435l-293 -1434h-579l-160 761h-38l-160 -761h-579z" />
    <glyph glyph-name="Wacute" unicode="&#x1e82;" horiz-adv-x="2174" 
d="M896 1519l123 292h380l-122 -292h-381zM329 0l-293 1434h435l178 -977h37l229 977h345l228 -977h38l177 977h435l-293 -1434h-579l-160 761h-38l-160 -761h-579z" />
    <glyph glyph-name="wacute" unicode="&#x1e83;" horiz-adv-x="2174" 
d="M896 1519l123 292h380l-122 -292h-381zM329 0l-293 1434h435l178 -977h37l229 977h345l228 -977h38l177 977h435l-293 -1434h-579l-160 761h-38l-160 -761h-579z" />
    <glyph glyph-name="Wdieresis" unicode="&#x1e84;" horiz-adv-x="2174" 
d="M836 1527q-68 0 -115 44.5t-47 111.5q0 66 47 109.5t115 43.5t115 -43.5t47 -109.5q0 -67 -47 -111.5t-115 -44.5zM1338 1527q-66 0 -114 45t-48 111t47.5 109.5t114.5 43.5q68 0 115 -43.5t47 -109.5q0 -67 -47 -111.5t-115 -44.5zM329 0l-293 1434h435l178 -977h37
l229 977h345l228 -977h38l177 977h435l-293 -1434h-579l-160 761h-38l-160 -761h-579z" />
    <glyph glyph-name="wdieresis" unicode="&#x1e85;" horiz-adv-x="2174" 
d="M836 1527q-68 0 -115 44.5t-47 111.5q0 66 47 109.5t115 43.5t115 -43.5t47 -109.5q0 -67 -47 -111.5t-115 -44.5zM1338 1527q-66 0 -114 45t-48 111t47.5 109.5t114.5 43.5q68 0 115 -43.5t47 -109.5q0 -67 -47 -111.5t-115 -44.5zM329 0l-293 1434h435l178 -977h37
l229 977h345l228 -977h38l177 977h435l-293 -1434h-579l-160 761h-38l-160 -761h-579z" />
    <glyph glyph-name="uni1E9E" unicode="&#x1e9e;" horiz-adv-x="1674" 
d="M1190 853q105 4 191.5 -33.5t141.5 -101.5t84.5 -144t29.5 -166q0 -211 -141 -328.5t-390 -117.5q-279 0 -402.5 111t-123.5 321h352q6 -68 56.5 -107.5t112.5 -39.5q73 0 121 43.5t48 117.5t-50 120.5t-119 46.5q-72 0 -121 -46h-352l328 546h-287q-171 0 -171 -188
v-887h-433v976q0 133 32 223t100 141.5t160 72.5t225 21h981z" />
    <glyph glyph-name="Ygrave" unicode="&#x1ef2;" horiz-adv-x="1614" 
d="M1002 1519h-381l-123 292h381zM1609 1434l-588 -985v-449h-429v451l-587 983h451l332 -574h38l331 574h452z" />
    <glyph glyph-name="ygrave" unicode="&#x1ef3;" horiz-adv-x="1614" 
d="M1002 1519h-381l-123 292h381zM1609 1434l-588 -985v-449h-429v451l-587 983h451l332 -574h38l331 574h452z" />
    <glyph glyph-name="endash" unicode="&#x2013;" horiz-adv-x="1536" 
d="M68 512v357h1400v-357h-1400z" />
    <glyph glyph-name="emdash" unicode="&#x2014;" horiz-adv-x="1672" 
d="M68 512v357h1536v-357h-1536z" />
    <glyph glyph-name="quoteleft" unicode="&#x2018;" horiz-adv-x="626" 
d="M416 1435q-27 -181 -23 -402h177v-359h-515v80q0 249 30 426.5t67 254.5h264z" />
    <glyph glyph-name="quoteright" unicode="&#x2019;" horiz-adv-x="626" 
d="M210 672q28 187 24 403h-178v359h516v-81q0 -249 -30 -426.5t-68 -254.5h-264z" />
    <glyph glyph-name="quotesinglbase" unicode="&#x201a;" horiz-adv-x="626" 
d="M210 -403q28 187 24 403h-178v358h516v-80q0 -249 -30 -426.5t-68 -254.5h-264z" />
    <glyph glyph-name="quotedblleft" unicode="&#x201c;" horiz-adv-x="1116" 
d="M382 1435q-24 -180 -20 -402h159v-359h-461v80q0 251 26.5 428.5t60.5 252.5h235zM922 1435q-25 -187 -21 -402h159v-359h-461v80q0 251 26.5 428.5t60.5 252.5h236z" />
    <glyph glyph-name="quotedblright" unicode="&#x201d;" horiz-adv-x="1116" 
d="M195 672q24 180 20 403h-159v359h461v-81q0 -251 -26.5 -428.5t-60.5 -252.5h-235zM734 672q24 180 20 403h-158v359h460v-81q0 -251 -26.5 -428.5t-60.5 -252.5h-235z" />
    <glyph glyph-name="quotedblbase" unicode="&#x201e;" horiz-adv-x="1116" 
d="M195 -454q24 180 20 403h-159v358h461v-80q0 -251 -26.5 -428.5t-60.5 -252.5h-235zM734 -454q24 180 20 403h-158v358h460v-80q0 -251 -26.5 -428.5t-60.5 -252.5h-235z" />
    <glyph glyph-name="dagger" unicode="&#x2020;" horiz-adv-x="1324" 
d="M1239 1191v-339h-398v-398h-358v398h-398v339h398v400h358v-400h398z" />
    <glyph glyph-name="daggerdbl" unicode="&#x2021;" horiz-adv-x="1324" 
d="M841 427h398v-340h-398v-398h-358v398h-398v340h398v425h-398v339h398v400h358v-400h398v-339h-398v-425z" />
    <glyph glyph-name="bullet" unicode="&#x2022;" horiz-adv-x="1015" 
d="M509 379q-139 0 -238.5 100t-99.5 238t99.5 238t238.5 100q138 0 237 -100t99 -238t-99 -238t-237 -100z" />
    <glyph glyph-name="ellipsis" unicode="&#x2026;" horiz-adv-x="1711" 
d="M280 -27q-89 0 -154 63.5t-65 151.5q0 87 65 151t154 64q88 0 152.5 -64t64.5 -151q0 -88 -64 -151.5t-153 -63.5zM857 -27q-89 0 -154 63.5t-65 151.5q0 87 65 151t154 64q88 0 152 -64t64 -151q0 -88 -63.5 -151.5t-152.5 -63.5zM1432 -27q-89 0 -154 63.5t-65 151.5
q0 87 65 151t154 64q88 0 152.5 -64t64.5 -151q0 -88 -64 -151.5t-153 -63.5z" />
    <glyph glyph-name="perthousand" unicode="&#x2030;" horiz-adv-x="2775" 
d="M599 -51l-184 126l928 1417l184 -125zM457 707q-96 0 -170 29.5t-119 81.5t-68 118.5t-23 145.5q0 77 23 143t68 118t119 81.5t170 29.5q187 0 284 -105.5t97 -266.5q0 -79 -23 -145.5t-68.5 -118.5t-119.5 -81.5t-170 -29.5zM457 975q53 0 79.5 31t26.5 76
q0 46 -26.5 76t-79.5 30t-80 -30t-27 -76q0 -45 27 -76t80 -31zM1485 -20q-96 0 -170.5 29.5t-119.5 81.5t-68 118t-23 144t23 144.5t68 118.5t119.5 81.5t170.5 29.5q187 0 283 -105.5t96 -268.5q0 -78 -22.5 -144.5t-67.5 -118t-119 -81t-170 -29.5zM2316 -20
q-96 0 -170 29.5t-119.5 81t-68.5 118t-23 144.5t23 144.5t68.5 118.5t119.5 81.5t170 29.5t170 -29.5t119.5 -81.5t68.5 -118.5t23 -144.5t-23 -144.5t-68.5 -118t-119.5 -81t-170 -29.5zM1485 246q53 0 79.5 31t26.5 76q0 46 -26.5 77t-79.5 31t-80.5 -31t-27.5 -77
q0 -45 27.5 -76t80.5 -31zM2316 246q53 0 80 31t27 76q0 46 -27 77t-80 31t-79.5 -31t-26.5 -77q0 -45 26.5 -76t79.5 -31z" />
    <glyph glyph-name="guilsinglleft" unicode="&#x2039;" horiz-adv-x="979" 
d="M877 213h-444l-331 504l331 503h444l-331 -503z" />
    <glyph glyph-name="guilsinglright" unicode="&#x203a;" horiz-adv-x="979" 
d="M102 213l331 504l-331 503h444l331 -503l-331 -504h-444z" />
    <glyph glyph-name="Euro" unicode="&#x20ac;" horiz-adv-x="1645" 
d="M903 323q119 0 200 60.5t112 184.5h391q-15 -136 -62 -243.5t-114 -176t-155 -114t-179 -64t-193 -18.5q-288 0 -486 154t-255 416h-123v149h104q-1 7 -1 46v22h-103v147h118q51 273 251 434t495 161q101 0 192 -18.5t179 -63.5t155 -113.5t114.5 -175t62.5 -241.5h-391
q-31 122 -112 182t-200 60q-111 0 -198 -60t-128 -165h297v-147h-328v-22q0 -31 2 -46h326v-149h-287q45 -94 128.5 -146.5t187.5 -52.5z" />
    <glyph glyph-name="uni2116" unicode="&#x2116;" horiz-adv-x="1995" 
d="M1572 678q-167 0 -276.5 111t-109.5 273q0 161 109.5 271.5t276.5 110.5q166 0 276 -110.5t110 -271.5t-110 -272.5t-276 -111.5zM65 0v1434h343l276 -690h38v690h377v-1434h-345l-276 689h-38v-689h-375zM1572 945q50 0 82 34t32 83q0 48 -32 81t-82 33t-83 -33t-33 -81
q0 -49 33 -83t83 -34zM1219 201v340h706v-340h-706z" />
    <glyph glyph-name="trademark" unicode="&#x2122;" horiz-adv-x="1452" 
d="M1123 1434h275v-644h-190v376h-22l-60 -376h-194l-60 376h-20v-376h-190v471h-181v-471h-206v471h-219v173h881l78 -444h29z" />
    <glyph glyph-name="partialdiff" unicode="&#x2202;" horiz-adv-x="1380" 
d="M662 1471q115 0 213 -23.5t186 -79t150 -140.5t98 -214.5t36 -293.5q0 -134 -20 -244t-68 -207.5t-123 -163.5t-191 -104.5t-267 -38.5q-309 0 -474.5 134.5t-165.5 364.5q0 116 44 206t122.5 145t180.5 82.5t223 27.5q226 0 336 -74q8 302 -280 302q-101 0 -170.5 -35.5
t-83.5 -110.5h-343q-2 230 157 348.5t440 118.5zM681 282q119 0 186.5 51.5t67.5 137.5q0 89 -66.5 137.5t-187.5 48.5q-122 0 -190 -50t-68 -136t69.5 -137.5t188.5 -51.5z" />
    <glyph glyph-name="product" unicode="&#x220f;" horiz-adv-x="1237" 
d="M65 1536h1107v-1792h-428v1434h-251v-1434h-428v1792z" />
    <glyph glyph-name="summation" unicode="&#x2211;" horiz-adv-x="1220" 
d="M65 -256v358l544 523l-544 553v358h1090v-358h-621l524 -529v-48l-524 -499h621v-358h-1090z" />
    <glyph glyph-name="minus" unicode="&#x2212;" horiz-adv-x="1204" 
d="M85 539v357h1035v-357h-1035z" />
    <glyph glyph-name="radical" unicode="&#x221a;" horiz-adv-x="1437" 
d="M498 -256l-198 720h-215v359h459l185 -673h24l254 1386h345l-348 -1792h-506z" />
    <glyph glyph-name="infinity" unicode="&#x221e;" horiz-adv-x="1457" 
d="M1056 1080q107 0 180 -50.5t104.5 -129.5t31.5 -181q0 -163 -79 -264.5t-237 -101.5q-57 0 -104.5 14.5t-87.5 44.5t-70 62.5t-65 80.5q-46 -64 -87 -104.5t-103 -69t-135 -28.5q-160 0 -239.5 101.5t-79.5 264.5q0 76 18.5 139.5t56 114t100 79t144.5 28.5
q107 0 181 -52t144 -152q73 101 146 152.5t181 51.5zM444 602q40 0 77.5 25t96.5 93q-62 65 -98.5 90t-75.5 25q-54 0 -78.5 -34.5t-24.5 -80.5q0 -50 24 -84t79 -34zM1014 602q54 0 78 34t24 84q0 46 -24 80.5t-78 34.5q-39 0 -74.5 -24.5t-96.5 -90.5q59 -69 95 -93.5
t76 -24.5z" />
    <glyph glyph-name="integral" unicode="&#x222b;" horiz-adv-x="1367" 
d="M411 -256q-87 0 -171 16.5t-138 48.5v312q98 -39 210 -39q77 0 125.5 38.5t48.5 123.5v843q0 92 24.5 165.5t67.5 123.5t103 83t128.5 48t146.5 15q86 0 170.5 -17t138.5 -49v-311q-97 39 -210 39q-77 0 -125.5 -38.5t-48.5 -123.5v-843q0 -92 -24.5 -165.5t-67.5 -123.5
t-103 -83t-128.5 -48t-146.5 -15z" />
    <glyph glyph-name="approxequal" unicode="&#x2248;" horiz-adv-x="1189" 
d="M783 736q-58 1 -118.5 21.5t-102 45t-94.5 44.5t-98 20q-56 0 -89.5 -27t-38.5 -75h-153q-12 89 10 159t69 111.5t108 63t130 21.5q57 0 117 -20t101.5 -44.5t94 -45.5t97.5 -22q58 2 92 29t39 74h156q12 -89 -10.5 -158.5t-71 -111t-109 -63t-129.5 -22.5zM783 311
q-58 1 -118.5 21.5t-102 45t-94.5 44.5t-98 20q-56 0 -89.5 -27t-38.5 -75h-153q-12 89 10 159t69 111.5t108 63t130 21.5q57 0 117 -20t101.5 -44.5t94 -45.5t97.5 -22q58 2 92 29t39 74h156q12 -89 -10.5 -158.5t-71 -111t-109 -63t-129.5 -22.5z" />
    <glyph glyph-name="notequal" unicode="&#x2260;" horiz-adv-x="1204" 
d="M1121 1415l-131 -294h130v-358h-289l-41 -91h330v-358h-489l-105 -235h-441l106 235h-106v358h265l41 91h-306v358h465l131 294h440z" />
    <glyph glyph-name="lessequal" unicode="&#x2264;" horiz-adv-x="1204" 
d="M1111 474l-1027 333v487l1027 338v-369l-696 -191v-43l696 -191v-364zM85 0v357h1035v-357h-1035z" />
    <glyph glyph-name="greaterequal" unicode="&#x2265;" horiz-adv-x="1254" 
d="M143 474v364l697 191v43l-697 191v369l1028 -338v-487zM1169 0h-1034v357h1034v-357z" />
    <glyph glyph-name="lozenge" unicode="&#x25ca;" horiz-adv-x="1297" 
d="M432 0q-24 0 -34 22l-306 674q-11 21 0 41l306 674q11 23 34 23h433q26 0 34 -23l306 -674q11 -20 0 -41l-306 -674q-7 -22 -34 -22h-433zM649 304l184 413l-184 413l-185 -413z" />
    <glyph glyph-name="G.ss01" horiz-adv-x="1660" 
d="M1611 780q15 -194 -33.5 -350.5t-149.5 -261t-249 -160.5t-332 -56q-181 0 -332.5 56t-255.5 156.5t-162 242.5t-58 310q0 342 222.5 553t585.5 211q133 0 252.5 -31t221.5 -93.5t172.5 -167.5t93.5 -242h-425q-31 70 -110.5 117t-196.5 47q-171 0 -281 -109t-110 -285
q0 -177 105.5 -285.5t277.5 -108.5q49 0 95 8.5t96.5 30t90 67t57.5 110.5h-360v241h785z" />
    <glyph glyph-name="i.loclTRK" horiz-adv-x="556" 
d="M278 1527q-68 0 -115 44.5t-47 111.5q0 66 47 109.5t115 43.5t115 -43.5t47 -109.5q0 -67 -47 -111.5t-115 -44.5zM65 0v1434h428v-1434h-428z" />
    <glyph glyph-name="g.ss01" horiz-adv-x="1660" 
d="M1611 780q15 -194 -33.5 -350.5t-149.5 -261t-249 -160.5t-332 -56q-181 0 -332.5 56t-255.5 156.5t-162 242.5t-58 310q0 342 222.5 553t585.5 211q133 0 252.5 -31t221.5 -93.5t172.5 -167.5t93.5 -242h-425q-31 70 -110.5 117t-196.5 47q-171 0 -281 -109t-110 -285
q0 -177 105.5 -285.5t277.5 -108.5q49 0 95 8.5t96.5 30t90 67t57.5 110.5h-360v241h785z" />
    </font>
</defs>
</svg>
