<?xml version="1.0" standalone="no"?>
<!DOCTYPE svg PUBLIC "-//W3C//DTD SVG 1.1//EN" "http://www.w3.org/Graphics/SVG/1.1/DTD/svg11.dtd" >
<svg xmlns="http://www.w3.org/2000/svg" xmlns:xlink="http://www.w3.org/1999/xlink" version="1.1">
<metadata>
Created by FontForge 20201107 at Sun Jun 28 23:58:38 2026
 By www-data
(c) 2017 Connary Fagen
</metadata>
<defs>
<font id="IntegralCF-Medium" horiz-adv-x="1665" >
  <font-face 
    font-family="Integral CF Medium"
    font-weight="500"
    font-stretch="normal"
    units-per-em="2048"
    panose-1="0 0 6 0 0 0 0 0 0 0"
    ascent="1638"
    descent="-410"
    x-height="1434"
    cap-height="1434"
    bbox="-425 -744 2637 1859"
    underline-thickness="85"
    underline-position="-170"
    unicode-range="U+0020-25CA"
  />
<missing-glyph horiz-adv-x="896" 
d="M736 1536v-1792h-569v1792h569zM597 1417h-297v-60h118v-67h-119v-58h298v58h-119v67h119v60zM478 1184h-179v-186h298v62h-119v124zM418 1125v-65h-60v65h60zM597 951h-298v-60h119v-67h-119v-58h179v125h119v60zM597 843h-59v-119h-239v-60h298v179zM597 625h-179v-101
h60v41h60v-84h-180v144h-59v-203h298v203zM597 314h-298v-203h298v203zM538 254v-83h-180v83h180zM597 70h-298v-60h126l-126 -83v-60h298v60h-182l124 83h58v60z" />
    <glyph glyph-name=".notdef" horiz-adv-x="896" 
d="M736 1536v-1792h-569v1792h569zM597 1417h-297v-60h118v-67h-119v-58h298v58h-119v67h119v60zM478 1184h-179v-186h298v62h-119v124zM418 1125v-65h-60v65h60zM597 951h-298v-60h119v-67h-119v-58h179v125h119v60zM597 843h-59v-119h-239v-60h298v179zM597 625h-179v-101
h60v41h60v-84h-180v144h-59v-203h298v203zM597 314h-298v-203h298v203zM538 254v-83h-180v83h180zM597 70h-298v-60h126l-126 -83v-60h298v60h-182l124 83h58v60z" />
    <glyph glyph-name=".null" horiz-adv-x="0" 
 />
    <glyph glyph-name="nonmarkingreturn" horiz-adv-x="682" 
 />
    <glyph glyph-name="space" unicode=" " horiz-adv-x="435" 
 />
    <glyph glyph-name="exclam" unicode="!" horiz-adv-x="527" 
d="M140 512l-75 922h398l-74 -922h-249zM265 -27q-82 0 -141 58.5t-59 139.5t59 138.5t141 57.5t140.5 -57.5t58.5 -138.5t-58.5 -139.5t-140.5 -58.5z" />
    <glyph glyph-name="quotedbl" unicode="&#x22;" horiz-adv-x="943" 
d="M113 824l-28 610h340l-27 -610h-285zM546 824l-27 610h339l-27 -610h-285z" />
    <glyph glyph-name="numbersign" unicode="#" horiz-adv-x="1401" 
d="M1341 862h-180v-271h180v-284h-180v-307h-325v307h-271v-307h-323v307h-182v284h182v271h-182v264h182v308h323v-308h271v308h325v-308h180v-264zM836 591v271h-271v-271h271z" />
    <glyph glyph-name="dollar" unicode="$" horiz-adv-x="1302" 
d="M1263 454q0 -173 -145 -271t-401 -111v-104h-138v104q-121 6 -218 33.5t-170 78t-113.5 129t-43.5 180.5h340q9 -139 205 -157v280q-61 11 -99.5 19t-99.5 25t-100 34.5t-84.5 46t-72.5 62.5t-45 81.5t-18 103.5q0 165 141.5 263t377.5 109v113h138v-113
q83 -5 154.5 -21.5t136 -49t110 -79t72.5 -115.5t27 -156h-331q-7 73 -49 112t-120 50v-275q207 -31 303 -66q238 -97 243 -306zM410 983q0 -89 169 -133v253q-75 -8 -122 -38t-47 -82zM717 336q189 16 189 121q0 49 -44 78t-145 54v-253z" />
    <glyph glyph-name="percent" unicode="%" horiz-adv-x="1896" 
d="M568 -51l-170 116l930 1427l170 -116zM449 724q-182 0 -277 103t-95 262t95 262t277 103q181 0 275.5 -103t94.5 -262t-94.5 -262t-275.5 -103zM449 966q60 0 90.5 35t30.5 88q0 54 -30.5 88.5t-90.5 34.5t-90.5 -34.5t-30.5 -88.5q0 -53 30.5 -88t90.5 -35zM1446 -20
q-181 0 -276 103t-95 263q0 159 95 262.5t276 103.5q182 0 277 -103.5t95 -262.5q0 -160 -95 -263t-277 -103zM1446 224q60 0 90.5 34.5t30.5 87.5q0 54 -30.5 88t-90.5 34t-91 -34.5t-31 -87.5q0 -52 31 -87t91 -35z" />
    <glyph glyph-name="ampersand" unicode="&#x26;" horiz-adv-x="1706" 
d="M1655 189l-162 -225l-177 133q-218 -145 -551 -145q-213 0 -374.5 56.5t-250.5 163t-89 248.5q0 133 79 239.5t239 163.5q-122 124 -122 262q0 77 38 146t108.5 123t182 85.5t247.5 31.5q135 0 244 -30.5t190 -92t125 -162.5t43 -235h-336q1 126 -71 179.5t-195 53.5
q-106 0 -163.5 -35t-57.5 -99q0 -54 45.5 -99.5t195.5 -156.5l398 -296q56 113 56 253h340q-5 -266 -125 -454zM800 253q137 0 243 49l-478 358q-130 -60 -130 -180q0 -58 30 -102.5t82 -71t116 -40t137 -13.5z" />
    <glyph glyph-name="quotesingle" unicode="'" horiz-adv-x="510" 
d="M113 824l-28 610h340l-27 -610h-285z" />
    <glyph glyph-name="parenleft" unicode="(" horiz-adv-x="921" 
d="M853 -247q-122 0 -226 21.5t-180.5 57t-138 90t-103 111.5t-72.5 130.5t-47.5 139t-26.5 144.5t-13 139t-3 131q0 93 5 170t24.5 180t52 183.5t94 164t144.5 139t208.5 90.5t281.5 35v-317q-81 0 -146.5 -17t-112.5 -46.5t-81.5 -75.5t-55.5 -97.5t-34 -120.5
t-17.5 -136.5t-4.5 -151.5q0 -121 9.5 -210.5t38.5 -175.5t77.5 -140.5t131 -87.5t195.5 -33v-317z" />
    <glyph glyph-name="parenright" unicode=")" horiz-adv-x="921" 
d="M68 -247v317q113 0 195.5 33t131.5 87.5t78 140.5t38.5 175.5t9.5 210.5q0 84 -4.5 151.5t-17.5 136.5t-34.5 120.5t-56 97.5t-81.5 75.5t-112.5 46.5t-146.5 17v317q122 0 226 -21.5t180.5 -57t138.5 -90t103.5 -111.5t72 -130.5t47.5 -138.5t27 -144t13 -139t3 -130
q0 -71 -3 -131t-13 -139t-27 -144.5t-47.5 -139t-72 -130.5t-103.5 -111.5t-138.5 -90t-180.5 -57t-226 -21.5z" />
    <glyph glyph-name="asterisk" unicode="*" horiz-adv-x="1088" 
d="M1004 1101l-267 -132l267 -131l-117 -201l-245 165l18 -297h-232l21 297l-248 -165l-116 201l268 131l-268 132l116 201l246 -165l-19 297h232l-18 -297l245 165z" />
    <glyph glyph-name="plus" unicode="+" horiz-adv-x="1269" 
d="M1184 870v-305h-389v-389h-321v389h-389v305h389v390h321v-390h389z" />
    <glyph glyph-name="comma" unicode="," horiz-adv-x="593" 
d="M203 -398q30 183 26 398h-169v323h474v-76q0 -234 -27.5 -403t-64.5 -242h-239z" />
    <glyph glyph-name="hyphen" unicode="-" horiz-adv-x="1126" 
d="M68 553v321h990v-321h-990z" />
    <glyph glyph-name="period" unicode="." horiz-adv-x="527" 
d="M265 -27q-82 0 -141 58.5t-59 139.5t59 138.5t141 57.5t140.5 -57.5t58.5 -138.5t-58.5 -139.5t-140.5 -58.5z" />
    <glyph glyph-name="slash" unicode="/" horiz-adv-x="1131" 
d="M17 0l662 1434h435l-662 -1434h-435z" />
    <glyph glyph-name="zero" unicode="0" horiz-adv-x="1479" 
d="M741 -38q-331 0 -514.5 192.5t-183.5 562.5q0 371 183 562.5t515 191.5t514 -191.5t182 -562.5q0 -370 -182.5 -562.5t-513.5 -192.5zM741 288q151 0 234 106t83 323q0 218 -82.5 324t-234.5 106t-235.5 -106t-83.5 -324q0 -217 83.5 -323t235.5 -106z" />
    <glyph glyph-name="one" unicode="1" horiz-adv-x="1216" 
d="M841 295h299v-295h-1063v295h380v765q-72 -62 -157.5 -82.5t-191.5 -20.5v323q187 0 349 154h384v-1139z" />
    <glyph glyph-name="two" unicode="2" horiz-adv-x="1334" 
d="M1283 1024q0 -82 -24.5 -148t-66.5 -111.5t-96.5 -82t-117 -63t-125.5 -51t-123 -50.5t-109 -55.5t-85.5 -72t-49.5 -95.5h789v-295h-1224v186q0 128 47.5 228t123 162t166.5 109.5t182.5 81.5t167 66t123 75.5t47.5 98.5q0 71 -51 113t-164 42t-183.5 -44.5
t-69.5 -144.5h-373q0 243 154 370.5t453 127.5q294 0 451.5 -116.5t157.5 -330.5z" />
    <glyph glyph-name="three" unicode="3" horiz-adv-x="1385" 
d="M674 -38q-317 0 -470.5 120t-152.5 369h347q5 -98 74 -140.5t194 -42.5q134 0 211 43.5t77 123.5q0 33 -15.5 64t-49 59.5t-98.5 45.5t-153 17h-63v227h63q87 0 148.5 16t92 43t43 53.5t12.5 56.5q0 71 -68.5 110t-182.5 39q-256 0 -256 -188h-345q-1 245 154 369
t450 124q286 0 441 -107t155 -285q0 -215 -222 -314v-23q124 -34 199.5 -124t75.5 -225q0 -199 -179 -315t-482 -116z" />
    <glyph glyph-name="four" unicode="4" horiz-adv-x="1476" 
d="M1212 570h205v-295h-205v-275h-384v275h-760v295l693 864h451v-864zM418 570h410v514z" />
    <glyph glyph-name="five" unicode="5" horiz-adv-x="1360" 
d="M666 -38q-303 0 -456.5 122.5t-149.5 359.5h344q10 -90 80.5 -134t177.5 -44q134 0 209.5 65t75.5 166q0 104 -70 163.5t-196 59.5q-172 0 -259 -109h-345l147 823h962v-294h-677l-48 -278q42 35 126 61t201 26q107 0 201 -30.5t165.5 -87.5t113 -148t41.5 -205
q0 -240 -168 -378t-475 -138z" />
    <glyph glyph-name="six" unicode="6" horiz-adv-x="1358" 
d="M754 923q122 0 223.5 -28t179 -83.5t121 -145t43.5 -205.5q0 -229 -164.5 -364t-463.5 -135q-654 0 -654 757q0 166 35 295.5t95.5 214.5t146.5 140t182 78.5t209 23.5q178 0 308.5 -50.5t204 -154.5t74.5 -252h-311q-17 85 -91 126t-185 41q-313 0 -309 -348
q117 90 356 90zM689 251q129 0 206.5 59.5t77.5 158.5t-76 155.5t-208 56.5q-131 0 -204.5 -55.5t-73.5 -156.5q0 -100 75.5 -159t202.5 -59z" />
    <glyph glyph-name="seven" unicode="7" horiz-adv-x="1297" 
d="M51 1434h1203v-313l-710 -1121h-406l715 1121h-802v313z" />
    <glyph glyph-name="eight" unicode="8" horiz-adv-x="1418" 
d="M710 -38q-141 0 -253 23.5t-187 64.5t-125 98.5t-72 123t-22 141.5q0 251 249 375v24q-69 42 -108.5 115t-39.5 162q0 171 141.5 276.5t416.5 105.5t417.5 -105.5t142.5 -276.5q0 -88 -41 -161t-111 -116v-24q249 -124 249 -375q0 -96 -36 -175t-111.5 -142t-205.5 -98.5
t-304 -35.5zM710 887q108 0 163 41.5t55 115.5q0 77 -56 119t-162 42t-163 -42.5t-57 -118.5q0 -74 55.5 -115.5t164.5 -41.5zM710 256q140 0 211.5 55.5t71.5 147.5t-71.5 146.5t-211.5 54.5t-212.5 -54.5t-72.5 -146.5t72 -147.5t213 -55.5z" />
    <glyph glyph-name="nine" unicode="9" horiz-adv-x="1358" 
d="M666 1471q653 0 653 -756q0 -166 -35 -296t-95 -214.5t-146 -140t-182 -79t-209 -23.5q-178 0 -308.5 51t-204 155t-74.5 252h310q17 -85 91.5 -126t185.5 -41q313 0 309 348q-118 -91 -357 -91q-122 0 -223.5 28.5t-179 84t-120.5 145t-43 205.5q0 229 164 363.5
t464 134.5zM669 753q131 0 204.5 55t73.5 156q0 100 -75.5 159.5t-202.5 59.5q-128 0 -205.5 -59.5t-77.5 -159.5q0 -99 75.5 -155t207.5 -56z" />
    <glyph glyph-name="colon" unicode=":" horiz-adv-x="527" 
d="M265 884q-82 0 -141 58.5t-59 139.5t59 138.5t141 57.5t140.5 -57.5t58.5 -138.5t-58.5 -139.5t-140.5 -58.5zM265 138q-82 0 -141 58.5t-59 139.5t59 138.5t141 57.5t140.5 -57.5t58.5 -138.5t-58.5 -139.5t-140.5 -58.5z" />
    <glyph glyph-name="semicolon" unicode=";" horiz-adv-x="602" 
d="M309 884q-82 0 -141 58.5t-59 139.5t59 138.5t141 57.5t141 -57.5t59 -138.5t-59 -139.5t-141 -58.5zM208 -220q30 183 26 397h-169v323h474v-75q0 -234 -27.5 -403t-64.5 -242h-239z" />
    <glyph glyph-name="less" unicode="&#x3c;" horiz-adv-x="1141" 
d="M1056 162l-971 336v432l971 343v-333l-672 -206v-39l672 -207v-326z" />
    <glyph glyph-name="equal" unicode="=" horiz-adv-x="1167" 
d="M85 763v321h997v-321h-997zM85 352v320h997v-320h-997z" />
    <glyph glyph-name="greater" unicode="&#x3e;" horiz-adv-x="1167" 
d="M111 162v326l672 207v39l-672 206v333l971 -343v-432z" />
    <glyph glyph-name="question" unicode="?" horiz-adv-x="1305" 
d="M466 502q-8 65 2 118t32.5 88t54.5 62t68.5 45.5t74 34t72.5 31t62 33t43 43t16 58.5q0 67 -65.5 108t-171.5 41q-55 0 -101 -11t-86 -36t-62.5 -70t-22.5 -107h-348q-9 267 153.5 399t464.5 132q140 0 252 -24.5t195 -74.5t127.5 -130t44.5 -186q0 -78 -24 -136.5
t-63 -93t-85.5 -60.5t-93.5 -48t-86 -48t-63.5 -68t-24.5 -100h-365zM649 -27q-82 0 -141 58.5t-59 139.5t59 138.5t141 57.5t140.5 -57.5t58.5 -138.5t-58.5 -139.5t-140.5 -58.5z" />
    <glyph glyph-name="at" unicode="@" horiz-adv-x="1662" 
d="M1539 360q-77 -181 -266 -294.5t-442 -113.5q-173 0 -320.5 57t-250 157.5t-160 242.5t-57.5 308q0 221 98.5 395t278.5 271.5t411 97.5q172 0 320.5 -57.5t250.5 -157.5t160 -237t58 -292q0 -126 -69 -191.5t-192 -65.5q-108 0 -155 49t-40 135l41 428h-138l-33 -77h-20
q-42 45 -98 73t-148 28q-155 0 -261 -108.5t-106 -295.5t107 -297t269 -110q90 0 156 36t103 99h22q33 -63 99.5 -99t158.5 -36q70 0 128 17.5t90 42.5zM787 944q85 0 136.5 -64t51.5 -172q0 -106 -51.5 -168t-136.5 -62q-87 0 -141 61.5t-54 168.5t54.5 171.5t140.5 64.5z
" />
    <glyph glyph-name="A" unicode="A" 
d="M1251 0l-80 224h-676l-80 -224h-398l546 1434h540l546 -1434h-398zM597 512h471l-199 560h-70z" />
    <glyph glyph-name="B" unicode="B" horiz-adv-x="1515" 
d="M1227 749q237 -106 237 -345q0 -187 -144 -295.5t-451 -108.5h-801v1434h809q122 0 217 -20t156 -54t100.5 -82.5t55.5 -101t16 -114.5q0 -110 -50.5 -178t-144.5 -113v-22zM845 1137h-391v-285h391q103 0 155.5 37.5t52.5 102.5q0 68 -52.5 106.5t-155.5 38.5zM860 299
q103 0 159 46t56 121q0 72 -55.5 114.5t-159.5 42.5h-406v-324h406z" />
    <glyph glyph-name="C" unicode="C" horiz-adv-x="1600" 
d="M835 -48q-174 0 -321.5 56.5t-251 156.5t-161.5 242.5t-58 309.5q0 224 99.5 398t280 270t412.5 96q103 0 195.5 -18t182 -61t158.5 -109t119 -168t68 -231h-367q-40 129 -132 192t-224 63q-176 0 -293 -121t-117 -311t117 -311t293 -121q132 0 224 64t132 194h367
q-18 -129 -68 -231.5t-118.5 -169t-158 -110t-182.5 -62t-196 -18.5z" />
    <glyph glyph-name="D" unicode="D" horiz-adv-x="1573" 
d="M748 1434q207 0 359 -53.5t241.5 -152t131.5 -225.5t42 -286q0 -126 -25.5 -231.5t-84 -196.5t-147 -154.5t-220 -99t-297.5 -35.5h-680v1434h680zM748 324q187 0 288 100t101 293q0 194 -101 294t-288 100h-292l-2 -787h294z" />
    <glyph glyph-name="E" unicode="E" horiz-adv-x="1372" 
d="M68 0v1434h1236v-313h-850v-269h819v-268h-819v-272h850v-312h-1236z" />
    <glyph glyph-name="F" unicode="F" horiz-adv-x="1370" 
d="M68 0v1434h1234v-321h-848v-290h804v-285h-804v-538h-386z" />
    <glyph glyph-name="G" unicode="G" horiz-adv-x="1653" 
d="M1577 770v-770h-227l-5 201q-78 -114 -214 -181.5t-319 -67.5q-161 0 -303 56.5t-244.5 156t-162 243t-59.5 309.5q0 225 99.5 398.5t282 269.5t420.5 96q99 0 191 -18.5t179 -59t155.5 -100t119 -147t70.5 -195.5h-382q-35 85 -121.5 136.5t-204.5 51.5
q-187 0 -307 -120.5t-120 -311.5q0 -190 118.5 -311t297.5 -121q39 0 78.5 6.5t85.5 23.5t84 44t69 72t45 103h-382v236h756z" />
    <glyph glyph-name="H" unicode="H" horiz-adv-x="1566" 
d="M1113 1434h385v-1434h-385v556h-659v-556h-386v1434h386v-557h659v557z" />
    <glyph glyph-name="I" unicode="I" horiz-adv-x="522" 
d="M68 0v1434h386v-1434h-386z" />
    <glyph glyph-name="J" unicode="J" horiz-adv-x="1360" 
d="M662 -48q-111 0 -201.5 18t-169 60t-131 108t-81.5 166t-28 230h384q0 -70 19 -121.5t52.5 -79.5t73.5 -40.5t89 -12.5q48 0 87 13.5t75 44.5t56.5 92.5t20.5 148.5v855h384v-838q0 -175 -42.5 -300.5t-126.5 -200.5t-197 -109t-264 -34z" />
    <glyph glyph-name="K" unicode="K" horiz-adv-x="1541" 
d="M1546 0h-397l-441 565h-25l-231 -241v-324h-384v1434h384v-647h26l607 647h432l-592 -637z" />
    <glyph glyph-name="L" unicode="L" horiz-adv-x="1319" 
d="M68 0v1434h386v-1111h806v-323h-1192z" />
    <glyph glyph-name="M" unicode="M" horiz-adv-x="1773" 
d="M68 0v1434h490l314 -942h29l314 942h490v-1434h-369v787h-32l-270 -787h-295l-270 787h-32v-787h-369z" />
    <glyph glyph-name="N" unicode="N" horiz-adv-x="1594" 
d="M68 0v1434h446l602 -902h34v902h376v-1434h-435l-611 901h-36v-901h-376z" />
    <glyph glyph-name="O" unicode="O" horiz-adv-x="1677" 
d="M840 -48q-236 0 -417.5 96.5t-280.5 270.5t-99 398q0 225 99 398.5t280.5 269.5t417.5 96q356 0 575.5 -211.5t219.5 -552.5q0 -224 -99 -398t-280 -270.5t-416 -96.5zM840 285q178 0 296 119t118 313q0 195 -118 313.5t-296 118.5q-179 0 -297 -118.5t-118 -313.5
q0 -194 118 -313t297 -119z" />
    <glyph glyph-name="P" unicode="P" horiz-adv-x="1491" 
d="M68 0v1434h772q292 0 446 -135t154 -401t-154 -402t-445 -136h-387v-360h-386zM454 681h357q115 0 179.5 55.5t64.5 161.5q0 105 -64.5 160t-178.5 55h-358v-432z" />
    <glyph glyph-name="Q" unicode="Q" horiz-adv-x="1677" 
d="M1635 730q0 -280 -198 -486l191 -193q-88 -113 -215 -220l-220 203q-176 -82 -353 -82q-236 0 -417.5 96.5t-280.5 270.5t-99 398q0 225 99 398.5t280.5 269.5t417.5 96q176 0 324.5 -55.5t252 -154.5t161 -238.5t57.5 -302.5zM425 717q0 -194 118 -313t297 -119
q178 0 296 119t118 313q0 195 -118 313.5t-296 118.5q-179 0 -297 -118.5t-118 -313.5z" />
    <glyph glyph-name="R" unicode="R" horiz-adv-x="1520" 
d="M1483 0h-380l-221 408h-428v-408h-386v1434h777q292 0 445.5 -132.5t153.5 -391.5q0 -144 -62 -252t-170 -172zM454 1113v-413h367q117 0 178 52.5t61 153.5t-61.5 154t-177.5 53h-367z" />
    <glyph glyph-name="S" unicode="S" horiz-adv-x="1455" 
d="M719 -48q-347 0 -518 123t-167 381h348q7 -94 90.5 -147t246.5 -53q152 -1 233.5 43t81.5 119q0 63 -52 100.5t-170 56.5l-179 31q-55 9 -92 16t-88.5 19.5t-87 25t-78.5 31.5t-71.5 41t-58 53t-46.5 67t-28 82t-11 100q0 208 168.5 324t479.5 116q120 0 217.5 -15.5
t180.5 -52t139 -93.5t87.5 -142t31.5 -195h-345q-33 196 -318 196q-134 0 -202.5 -41t-68.5 -114q0 -117 188 -148l155 -28q19 -3 57 -10q76 -13 116.5 -20.5t111.5 -26t111 -37.5t91.5 -52t78.5 -72.5t46.5 -96.5t19.5 -127q0 -223 -177 -339t-521 -115z" />
    <glyph glyph-name="T" unicode="T" horiz-adv-x="1565" 
d="M1505 1434v-321h-530v-1113h-384v1113h-531v321h1445z" />
    <glyph glyph-name="U" unicode="U" horiz-adv-x="1553" 
d="M777 -48q-349 0 -529 162t-180 492v828h388v-818q0 -163 80.5 -251.5t240.5 -88.5q161 0 242.5 89t81.5 251v818h384v-826q0 -656 -708 -656z" />
    <glyph glyph-name="V" unicode="V" 
d="M563 0l-546 1434h398l396 -1070h46l394 1070h398l-546 -1434h-540z" />
    <glyph glyph-name="W" unicode="W" horiz-adv-x="2146" 
d="M345 0l-306 1434h389l203 -1023h35l250 1023h315l250 -1023h35l203 1023h389l-306 -1434h-520l-191 833h-35l-191 -833h-520z" />
    <glyph glyph-name="X" unicode="X" horiz-adv-x="1517" 
d="M9 0l508 717v20l-497 697h419l302 -441h36l303 441h417l-493 -697v-20l505 -717h-422l-310 459h-36l-311 -459h-421z" />
    <glyph glyph-name="Y" unicode="Y" horiz-adv-x="1582" 
d="M1574 1434l-591 -980v-454h-384v456l-590 978h407l357 -608h36l358 608h407z" />
    <glyph glyph-name="Z" unicode="Z" horiz-adv-x="1387" 
d="M43 0v312l807 770v31h-787v321h1282v-311l-814 -771v-29h804v-323h-1292z" />
    <glyph glyph-name="bracketleft" unicode="[" horiz-adv-x="902" 
d="M68 -230v1894h767v-321h-381v-1251h381v-322h-767z" />
    <glyph glyph-name="backslash" unicode="\" horiz-adv-x="1131" 
d="M1114 0h-435l-662 1434h435z" />
    <glyph glyph-name="bracketright" unicode="]" horiz-adv-x="902" 
d="M835 -230h-767v322h381v1251h-381v321h767v-1894z" />
    <glyph glyph-name="asciicircum" unicode="^" horiz-adv-x="1264" 
d="M77 521l336 971h432l343 -971h-333l-206 672h-40l-206 -672h-326z" />
    <glyph glyph-name="underscore" unicode="_" horiz-adv-x="1220" 
d="M85 -323v323h1050v-323h-1050z" />
    <glyph glyph-name="grave" unicode="`" horiz-adv-x="464" 
d="M464 1161h-343l-121 286h343z" />
    <glyph glyph-name="a" unicode="a" 
d="M1251 0l-80 224h-676l-80 -224h-398l546 1434h540l546 -1434h-398zM597 512h471l-199 560h-70z" />
    <glyph glyph-name="b" unicode="b" horiz-adv-x="1515" 
d="M1227 749q237 -106 237 -345q0 -187 -144 -295.5t-451 -108.5h-801v1434h809q122 0 217 -20t156 -54t100.5 -82.5t55.5 -101t16 -114.5q0 -110 -50.5 -178t-144.5 -113v-22zM845 1137h-391v-285h391q103 0 155.5 37.5t52.5 102.5q0 68 -52.5 106.5t-155.5 38.5zM860 299
q103 0 159 46t56 121q0 72 -55.5 114.5t-159.5 42.5h-406v-324h406z" />
    <glyph glyph-name="c" unicode="c" horiz-adv-x="1600" 
d="M835 -48q-174 0 -321.5 56.5t-251 156.5t-161.5 242.5t-58 309.5q0 224 99.5 398t280 270t412.5 96q103 0 195.5 -18t182 -61t158.5 -109t119 -168t68 -231h-367q-40 129 -132 192t-224 63q-176 0 -293 -121t-117 -311t117 -311t293 -121q132 0 224 64t132 194h367
q-18 -129 -68 -231.5t-118.5 -169t-158 -110t-182.5 -62t-196 -18.5z" />
    <glyph glyph-name="d" unicode="d" horiz-adv-x="1573" 
d="M748 1434q207 0 359 -53.5t241.5 -152t131.5 -225.5t42 -286q0 -126 -25.5 -231.5t-84 -196.5t-147 -154.5t-220 -99t-297.5 -35.5h-680v1434h680zM748 324q187 0 288 100t101 293q0 194 -101 294t-288 100h-292l-2 -787h294z" />
    <glyph glyph-name="e" unicode="e" horiz-adv-x="1372" 
d="M68 0v1434h1236v-313h-850v-269h819v-268h-819v-272h850v-312h-1236z" />
    <glyph glyph-name="f" unicode="f" horiz-adv-x="1370" 
d="M68 0v1434h1234v-321h-848v-290h804v-285h-804v-538h-386z" />
    <glyph glyph-name="g" unicode="g" horiz-adv-x="1653" 
d="M1577 770v-770h-227l-5 201q-78 -114 -214 -181.5t-319 -67.5q-161 0 -303 56.5t-244.5 156t-162 243t-59.5 309.5q0 225 99.5 398.5t282 269.5t420.5 96q99 0 191 -18.5t179 -59t155.5 -100t119 -147t70.5 -195.5h-382q-35 85 -121.5 136.5t-204.5 51.5
q-187 0 -307 -120.5t-120 -311.5q0 -190 118.5 -311t297.5 -121q39 0 78.5 6.5t85.5 23.5t84 44t69 72t45 103h-382v236h756z" />
    <glyph glyph-name="h" unicode="h" horiz-adv-x="1566" 
d="M1113 1434h385v-1434h-385v556h-659v-556h-386v1434h386v-557h659v557z" />
    <glyph glyph-name="i" unicode="i" horiz-adv-x="522" 
d="M68 0v1434h386v-1434h-386z" />
    <glyph glyph-name="j" unicode="j" horiz-adv-x="1360" 
d="M662 -48q-111 0 -201.5 18t-169 60t-131 108t-81.5 166t-28 230h384q0 -70 19 -121.5t52.5 -79.5t73.5 -40.5t89 -12.5q48 0 87 13.5t75 44.5t56.5 92.5t20.5 148.5v855h384v-838q0 -175 -42.5 -300.5t-126.5 -200.5t-197 -109t-264 -34z" />
    <glyph glyph-name="k" unicode="k" horiz-adv-x="1541" 
d="M1546 0h-397l-441 565h-25l-231 -241v-324h-384v1434h384v-647h26l607 647h432l-592 -637z" />
    <glyph glyph-name="l" unicode="l" horiz-adv-x="1319" 
d="M68 0v1434h386v-1111h806v-323h-1192z" />
    <glyph glyph-name="m" unicode="m" horiz-adv-x="1773" 
d="M68 0v1434h490l314 -942h29l314 942h490v-1434h-369v787h-32l-270 -787h-295l-270 787h-32v-787h-369z" />
    <glyph glyph-name="n" unicode="n" horiz-adv-x="1594" 
d="M68 0v1434h446l602 -902h34v902h376v-1434h-435l-611 901h-36v-901h-376z" />
    <glyph glyph-name="o" unicode="o" horiz-adv-x="1677" 
d="M840 -48q-236 0 -417.5 96.5t-280.5 270.5t-99 398q0 225 99 398.5t280.5 269.5t417.5 96q356 0 575.5 -211.5t219.5 -552.5q0 -224 -99 -398t-280 -270.5t-416 -96.5zM840 285q178 0 296 119t118 313q0 195 -118 313.5t-296 118.5q-179 0 -297 -118.5t-118 -313.5
q0 -194 118 -313t297 -119z" />
    <glyph glyph-name="p" unicode="p" horiz-adv-x="1491" 
d="M68 0v1434h772q292 0 446 -135t154 -401t-154 -402t-445 -136h-387v-360h-386zM454 681h357q115 0 179.5 55.5t64.5 161.5q0 105 -64.5 160t-178.5 55h-358v-432z" />
    <glyph glyph-name="q" unicode="q" horiz-adv-x="1677" 
d="M1635 730q0 -280 -198 -486l191 -193q-88 -113 -215 -220l-220 203q-176 -82 -353 -82q-236 0 -417.5 96.5t-280.5 270.5t-99 398q0 225 99 398.5t280.5 269.5t417.5 96q176 0 324.5 -55.5t252 -154.5t161 -238.5t57.5 -302.5zM425 717q0 -194 118 -313t297 -119
q178 0 296 119t118 313q0 195 -118 313.5t-296 118.5q-179 0 -297 -118.5t-118 -313.5z" />
    <glyph glyph-name="r" unicode="r" horiz-adv-x="1520" 
d="M1483 0h-380l-221 408h-428v-408h-386v1434h777q292 0 445.5 -132.5t153.5 -391.5q0 -144 -62 -252t-170 -172zM454 1113v-413h367q117 0 178 52.5t61 153.5t-61.5 154t-177.5 53h-367z" />
    <glyph glyph-name="s" unicode="s" horiz-adv-x="1455" 
d="M719 -48q-347 0 -518 123t-167 381h348q7 -94 90.5 -147t246.5 -53q152 -1 233.5 43t81.5 119q0 63 -52 100.5t-170 56.5l-179 31q-55 9 -92 16t-88.5 19.5t-87 25t-78.5 31.5t-71.5 41t-58 53t-46.5 67t-28 82t-11 100q0 208 168.5 324t479.5 116q120 0 217.5 -15.5
t180.5 -52t139 -93.5t87.5 -142t31.5 -195h-345q-33 196 -318 196q-134 0 -202.5 -41t-68.5 -114q0 -117 188 -148l155 -28q19 -3 57 -10q76 -13 116.5 -20.5t111.5 -26t111 -37.5t91.5 -52t78.5 -72.5t46.5 -96.5t19.5 -127q0 -223 -177 -339t-521 -115z" />
    <glyph glyph-name="t" unicode="t" horiz-adv-x="1565" 
d="M1505 1434v-321h-530v-1113h-384v1113h-531v321h1445z" />
    <glyph glyph-name="u" unicode="u" horiz-adv-x="1553" 
d="M777 -48q-349 0 -529 162t-180 492v828h388v-818q0 -163 80.5 -251.5t240.5 -88.5q161 0 242.5 89t81.5 251v818h384v-826q0 -656 -708 -656z" />
    <glyph glyph-name="v" unicode="v" 
d="M563 0l-546 1434h398l396 -1070h46l394 1070h398l-546 -1434h-540z" />
    <glyph glyph-name="w" unicode="w" horiz-adv-x="2146" 
d="M345 0l-306 1434h389l203 -1023h35l250 1023h315l250 -1023h35l203 1023h389l-306 -1434h-520l-191 833h-35l-191 -833h-520z" />
    <glyph glyph-name="x" unicode="x" horiz-adv-x="1517" 
d="M9 0l508 717v20l-497 697h419l302 -441h36l303 441h417l-493 -697v-20l505 -717h-422l-310 459h-36l-311 -459h-421z" />
    <glyph glyph-name="y" unicode="y" horiz-adv-x="1582" 
d="M1574 1434l-591 -980v-454h-384v456l-590 978h407l357 -608h36l358 608h407z" />
    <glyph glyph-name="z" unicode="z" horiz-adv-x="1387" 
d="M43 0v312l807 770v31h-787v321h1282v-311l-814 -771v-29h804v-323h-1292z" />
    <glyph glyph-name="braceleft" unicode="{" horiz-adv-x="1129" 
d="M514 -230q-41 0 -76 9t-71.5 31.5t-58 70.5t-21.5 116v459l-210 242v38l210 244v457q0 68 22 116t59 70.5t72 31.5t74 9h539v-321h-311q-71 0 -71 -61v-313l-191 -233v-38l191 -234v-310q0 -62 71 -62h311v-322h-539z" />
    <glyph glyph-name="bar" unicode="|" horiz-adv-x="522" 
d="M68 -171v1775h386v-1775h-386z" />
    <glyph glyph-name="braceright" unicode="}" horiz-adv-x="1129" 
d="M616 -230h-539v322h310q72 0 72 62v310l191 234v38l-191 233v313q0 61 -72 61h-310v321h539q39 0 74 -9t72 -31.5t59 -70.5t22 -116v-457l210 -244v-38l-210 -242v-459q0 -68 -21.5 -116t-58 -70.5t-71.5 -31.5t-76 -9z" />
    <glyph glyph-name="asciitilde" unicode="~" horiz-adv-x="1162" 
d="M768 538q-59 1 -118.5 23t-100 47.5t-91 46.5t-94.5 21q-56 0 -89 -28t-38 -75h-148q-10 85 11 151t65.5 105.5t103 60t125.5 20.5q58 0 116.5 -21.5t99 -47t91.5 -47.5t96 -23q56 2 89.5 29.5t38.5 73.5h148q10 -84 -11.5 -150t-66.5 -105t-102.5 -59.5t-124.5 -21.5z
" />
    <glyph glyph-name="exclamdown" unicode="&#xa1;" horiz-adv-x="820" 
d="M266 1092q82 0 141 -58.5t59 -139.5t-59 -138.5t-141 -57.5t-140.5 57.5t-58.5 138.5t58.5 139.5t140.5 58.5zM142 553h249l73 -922h-397z" />
    <glyph glyph-name="cent" unicode="&#xa2;" horiz-adv-x="1464" 
d="M765 324q119 0 203 58.5t121 175.5h333q-17 -118 -62 -210.5t-107.5 -153t-144 -100t-166 -56t-177.5 -16.5q-139 0 -258 39l-29 -61h-150l53 114q-158 88 -247.5 245t-89.5 358q0 309 200 501.5t521 192.5q106 0 204 -22l21 45h150l-41 -89q273 -128 323 -468h-333
q-38 117 -125 176l-327 -708q61 -21 128 -21zM391 717q0 -191 128 -304l319 691q-40 5 -73 5q-161 0 -267.5 -110t-106.5 -282z" />
    <glyph glyph-name="sterling" unicode="&#xa3;" horiz-adv-x="1338" 
d="M683 1154q-111 0 -172.5 -49.5t-61.5 -131.5q0 -42 12 -76.5t39 -82.5t36 -66h520v-175h-489q-12 -175 -144 -264v-14h869v-295h-1249v295q90 42 155 122.5t65 155.5h-220v175h152q-2 3 -16.5 26t-17.5 28.5t-16 27.5t-16.5 31.5t-13 30.5t-13 35.5t-9 35t-7 40.5
t-1.5 41q0 193 162.5 310t443.5 117q193 0 332 -55t211.5 -169t57.5 -274h-365q-10 94 -76 137.5t-168 43.5z" />
    <glyph glyph-name="currency" unicode="&#xa4;" horiz-adv-x="1360" 
d="M1149 975q0 -103 -46 -198l87 -88l-178 -175l-77 75q-117 -74 -254 -74q-138 0 -254 76l-79 -77l-177 175l88 89q-44 91 -44 197q0 109 50 204l-94 94l177 176l85 -85q115 70 248 70q130 0 246 -69l85 84l178 -176l-91 -92q50 -98 50 -206zM681 748q51 0 93 16.5t68 42
t44 57t25 59.5t7 52t-7 52t-25 60t-44 58t-68 43t-93 17t-93 -17t-68 -43t-44 -58t-25 -60t-7 -52t7 -52t25 -59.5t44 -57t68 -42t93 -16.5z" />
    <glyph glyph-name="yen" unicode="&#xa5;" horiz-adv-x="1582" 
d="M1574 1434l-501 -832h359v-167h-449v-78h449v-169h-449v-188h-384v188h-440v169h440v78h-440v167h351l-501 832h407l357 -608h36l358 608h407z" />
    <glyph glyph-name="brokenbar" unicode="&#xa6;" horiz-adv-x="522" 
d="M68 797v807h386v-807h-386zM68 -171v809h386v-809h-386z" />
    <glyph glyph-name="section" unicode="&#xa7;" horiz-adv-x="1457" 
d="M1258 317q160 -100 160 -305q0 -223 -176 -339t-522 -115q-347 0 -518.5 123t-167.5 384h350q16 -202 336 -205q152 0 235 44.5t83 119.5q0 127 -226 164l-174 30q-55 9 -89.5 15.5t-87.5 18.5t-87.5 23.5t-79 30t-73 39t-59 50t-47.5 63t-28.5 77.5t-11.5 95
q0 211 198 309q-198 102 -198 329q0 208 168.5 324t480.5 116q120 0 217 -15.5t180 -52.5t138.5 -94t87 -142.5t30.5 -196.5h-343q-33 199 -319 199q-133 0 -202 -41.5t-69 -113.5q0 -119 191 -155l150 -28q25 -5 76 -13q210 -36 303 -72q196 -75 240 -237q14 -52 14 -113
q0 -210 -160 -316zM444 647q0 -57 47.5 -106t146.5 -67l123 -22q131 -13 204 44t73 137q0 63 -56 110t-170 66l-117 20q-56 9 -113 -8.5t-97.5 -63.5t-40.5 -110z" />
    <glyph glyph-name="dieresis" unicode="&#xa8;" horiz-adv-x="788" 
d="M152 1174q-63 0 -107.5 41.5t-44.5 103.5t44.5 103.5t107.5 41.5q64 0 108 -41.5t44 -103.5t-44 -103.5t-108 -41.5zM637 1174q-64 0 -108 41.5t-44 103.5t44 103.5t108 41.5q62 0 106.5 -41.5t44.5 -103.5t-44.5 -103.5t-106.5 -41.5z" />
    <glyph glyph-name="copyright" unicode="&#xa9;" horiz-adv-x="1082" 
d="M539 550q-204 0 -333 129.5t-129 329.5q0 201 129 331.5t333 130.5q206 0 336 -130.5t130 -331.5t-130 -330t-336 -129zM546 737q57 0 106.5 17.5t90 61.5t52.5 109h-119q-41 -85 -135 -85q-68 0 -113.5 44.5t-45.5 124.5t45.5 124.5t113.5 44.5q94 0 135 -82h119
q-18 94 -89 140.5t-160 46.5q-124 0 -202 -76t-78 -198q0 -120 78.5 -196t201.5 -76z" />
    <glyph glyph-name="ordfeminine" unicode="&#xaa;" horiz-adv-x="936" 
d="M674 1434h186v-738h-186l-32 72q-92 -72 -203 -72q-148 0 -255 109.5t-107 264.5t107 264.5t255 109.5q114 0 208 -75zM457 927q63 0 104 41.5t41 101.5t-41.5 102.5t-103.5 42.5t-104 -42.5t-42 -102.5t41.5 -101.5t104.5 -41.5z" />
    <glyph glyph-name="guillemotleft" unicode="&#xab;" horiz-adv-x="1467" 
d="M833 222h-400l-331 495l331 495h400l-331 -495zM1365 222h-399l-331 495l331 495h399l-331 -495z" />
    <glyph glyph-name="logicalnot" unicode="&#xac;" horiz-adv-x="1215" 
d="M802 497v167h-793v273h1121v-440h-328z" />
    <glyph glyph-name="uni00AD" unicode="&#xad;" horiz-adv-x="1126" 
d="M68 553v321h990v-321h-990z" />
    <glyph glyph-name="registered" unicode="&#xae;" horiz-adv-x="1082" 
d="M539 550q-204 0 -333 129.5t-129 329.5q0 201 129 331.5t333 130.5q206 0 336 -130.5t130 -331.5t-130 -330t-336 -129zM319 737h121v164h149l94 -164h131l-113 190q98 47 98 158q0 87 -59.5 136t-167.5 49h-253v-533zM440 1002v167h135q46 0 71.5 -21.5t25.5 -62.5
q0 -39 -26 -61t-71 -22h-135z" />
    <glyph glyph-name="macron" unicode="&#xaf;" horiz-adv-x="716" 
d="M0 1167v284h717v-284h-717z" />
    <glyph glyph-name="degree" unicode="&#xb0;" horiz-adv-x="906" 
d="M454 684q-164 0 -273 108t-109 273q0 164 109 271.5t273 107.5q163 0 272 -107.5t109 -271.5t-109 -272.5t-272 -108.5zM454 934q64 0 97.5 39.5t33.5 91.5q0 51 -33.5 90.5t-97.5 39.5t-97.5 -39.5t-33.5 -90.5q0 -52 33.5 -91.5t97.5 -39.5z" />
    <glyph glyph-name="plusminus" unicode="&#xb1;" horiz-adv-x="1165" 
d="M794 1145h389v-305h-389v-389h-321v389h-389v305h389v389h321v-389zM84 0v323h996v-323h-996z" />
    <glyph glyph-name="acute" unicode="&#xb4;" horiz-adv-x="464" 
d="M0 1161l121 286h343l-121 -286h-343z" />
    <glyph glyph-name="uni00B5" unicode="&#xb5;" horiz-adv-x="1343" 
d="M889 1161h386v-1161h-377l-9 157h-37q-58 -88 -156.5 -135.5t-207.5 -47.5q-24 0 -34 2v-232h-386v1417h386v-673q0 -57 18 -98.5t48.5 -63t65 -31.5t74.5 -10q106 0 167.5 59.5t61.5 119.5v697z" />
    <glyph glyph-name="paragraph" unicode="&#xb6;" horiz-adv-x="2018" 
d="M995 0v370h-309q-311 0 -477 135t-166 398q0 262 166.5 396.5t478.5 134.5h693v-1434h-386zM1565 0v1434h386v-1434h-386z" />
    <glyph glyph-name="periodcentered" unicode="&#xb7;" horiz-adv-x="672" 
d="M338 521q-82 0 -141 58.5t-59 139.5t59 138.5t141 57.5t141 -57.5t59 -138.5t-59 -139.5t-141 -58.5z" />
    <glyph glyph-name="cedilla" unicode="&#xb8;" horiz-adv-x="407" 
d="M217 -63q79 -8 135 -56t56 -135q0 -64 -34 -111t-90.5 -69.5t-130 -28.5t-153.5 12v159q66 -13 108 -9.5t61.5 15t19.5 27.5q0 18 -19.5 31.5t-61.5 17.5t-108 -14v108l142 116h153z" />
    <glyph glyph-name="ordmasculine" unicode="&#xba;" horiz-adv-x="896" 
d="M449 698q-155 0 -263.5 108.5t-108.5 263.5q0 156 108.5 265t263.5 109q154 0 262 -109t108 -265q0 -155 -108 -263.5t-262 -108.5zM449 927q61 0 102 40.5t41 102.5q0 61 -41.5 103t-101.5 42q-61 0 -102.5 -41.5t-41.5 -103.5q0 -63 41 -103t103 -40z" />
    <glyph glyph-name="guillemotright" unicode="&#xbb;" horiz-adv-x="1467" 
d="M102 222l331 495l-331 495h400l331 -495l-331 -495h-400zM635 222l331 495l-331 495h399l331 -495l-331 -495h-399z" />
    <glyph glyph-name="questiondown" unicode="&#xbf;" horiz-adv-x="1351" 
d="M703 1092q82 0 141 -58.5t59 -139.5t-59 -138.5t-141 -57.5t-141 57.5t-59 138.5t59 139.5t141 58.5zM886 563q8 -65 -2 -118t-32.5 -88t-54.5 -62.5t-68.5 -45.5t-74 -34t-72.5 -31.5t-62 -33t-43 -43t-16 -58.5q0 -67 65.5 -107.5t171.5 -40.5q55 0 101 11t85.5 36
t62 70t22.5 107h349q9 -267 -153.5 -399t-464.5 -132q-287 0 -453.5 103.5t-166.5 311.5q0 78 24 136.5t63 93t86 60.5t94 48t86 48t63.5 68t24.5 100h365z" />
    <glyph glyph-name="Agrave" unicode="&#xc0;" 
d="M1007 1519h-343l-121 287h343zM1251 0l-80 224h-676l-80 -224h-398l546 1434h540l546 -1434h-398zM597 512h471l-199 560h-70z" />
    <glyph glyph-name="Aacute" unicode="&#xc1;" 
d="M1125 1806l-121 -287h-344l122 287h343zM1251 0l-80 224h-676l-80 -224h-398l546 1434h540l546 -1434h-398zM597 512h471l-199 560h-70z" />
    <glyph glyph-name="Acircumflex" unicode="&#xc2;" 
d="M787 1621l-92 -102h-328l230 287h470l230 -287h-328l-92 102h-90zM1251 0l-80 224h-676l-80 -224h-398l546 1434h540l546 -1434h-398zM597 512h471l-199 560h-70z" />
    <glyph glyph-name="Atilde" unicode="&#xc3;" 
d="M556 1543h-117q-9 68 8 121t53.5 84t82.5 47t100 16q46 0 93 -17t79.5 -37.5t73 -37.5t76.5 -17q45 0 72 22t31 59h119q15 -132 -57.5 -199.5t-186.5 -67.5q-47 0 -94.5 17t-79.5 37.5t-73 37.5t-77 17q-44 0 -71 -22t-32 -60zM1251 0l-80 224h-676l-80 -224h-398
l546 1434h540l546 -1434h-398zM597 512h471l-199 560h-70z" />
    <glyph glyph-name="Adieresis" unicode="&#xc4;" 
d="M591 1533q-63 0 -107.5 41.5t-44.5 103.5t44.5 103.5t107.5 41.5q64 0 107.5 -41.5t43.5 -103.5t-43.5 -103.5t-107.5 -41.5zM1075 1533q-64 0 -108 41.5t-44 103.5t44 103.5t108 41.5q63 0 107.5 -41.5t44.5 -103.5t-44.5 -103.5t-107.5 -41.5zM1251 0l-80 224h-676
l-80 -224h-398l546 1434h540l546 -1434h-398zM597 512h471l-199 560h-70z" />
    <glyph glyph-name="Aring" unicode="&#xc5;" 
d="M1251 0l-80 224h-676l-80 -224h-398l546 1434h167q-57 29 -90.5 82.5t-33.5 116.5q0 93 66 159.5t161 66.5t159 -66.5t64 -159.5q0 -63 -33 -116.5t-88 -82.5h168l546 -1434h-398zM833 1691q-26 0 -42 -15.5t-16 -40.5q0 -26 16 -41t42 -15q25 0 41.5 15t14.5 41
q-1 27 -16.5 41.5t-39.5 14.5zM597 512h471l-199 560h-70z" />
    <glyph glyph-name="AE" unicode="&#xc6;" horiz-adv-x="2315" 
d="M2248 1121h-850v-269h819v-268h-819v-272h850v-312h-1236v227h-498l-108 -227h-389l678 1434h1553v-313zM650 512h362v601h-77z" />
    <glyph glyph-name="Ccedilla" unicode="&#xc7;" horiz-adv-x="1600" 
d="M835 285q132 0 224 64t132 194h367q-17 -122 -63 -220.5t-108.5 -164.5t-144.5 -111t-168.5 -66.5t-182.5 -26.5l-22 -17q79 -8 135 -56t56 -135q0 -64 -34 -111t-90.5 -69.5t-130 -28.5t-153.5 12v159q66 -13 108 -9.5t61.5 15t19.5 27.5q0 18 -19.5 31.5t-61.5 17.5
t-108 -14v108l89 73q-314 29 -506 236.5t-192 523.5q0 224 99.5 398t280 270t412.5 96q103 0 195.5 -18t182 -61t158.5 -109t119 -168t68 -231h-367q-40 129 -132 192t-224 63q-176 0 -293 -121t-117 -311t117 -311t293 -121z" />
    <glyph glyph-name="Egrave" unicode="&#xc8;" horiz-adv-x="1372" 
d="M850 1519h-343l-121 287h343zM68 0v1434h1236v-313h-850v-269h819v-268h-819v-272h850v-312h-1236z" />
    <glyph glyph-name="Eacute" unicode="&#xc9;" horiz-adv-x="1372" 
d="M503 1519l122 287h343l-121 -287h-344zM68 0v1434h1236v-313h-850v-269h819v-268h-819v-272h850v-312h-1236z" />
    <glyph glyph-name="Ecircumflex" unicode="&#xca;" horiz-adv-x="1372" 
d="M210 1519l230 287h470l230 -287h-328l-92 102h-90l-92 -102h-328zM68 0v1434h1236v-313h-850v-269h819v-268h-819v-272h850v-312h-1236z" />
    <glyph glyph-name="Edieresis" unicode="&#xcb;" horiz-adv-x="1372" 
d="M433 1533q-62 0 -106.5 41.5t-44.5 103.5t44.5 103.5t106.5 41.5q64 0 108 -41.5t44 -103.5t-44 -103.5t-108 -41.5zM918 1533q-64 0 -108 41.5t-44 103.5t44 103.5t108 41.5q63 0 107.5 -41.5t44.5 -103.5t-44.5 -103.5t-107.5 -41.5zM68 0v1434h1236v-313h-850v-269
h819v-268h-819v-272h850v-312h-1236z" />
    <glyph glyph-name="Igrave" unicode="&#xcc;" horiz-adv-x="522" 
d="M435 1519h-343l-121 287h343zM68 0v1434h386v-1434h-386z" />
    <glyph glyph-name="Iacute" unicode="&#xcd;" horiz-adv-x="522" 
d="M89 1519l121 287h343l-121 -287h-343zM68 0v1434h386v-1434h-386z" />
    <glyph glyph-name="Icircumflex" unicode="&#xce;" horiz-adv-x="522" 
d="M-205 1519l231 287h469l230 -287h-327l-93 102h-90l-92 -102h-328zM68 0v1434h386v-1434h-386z" />
    <glyph glyph-name="Idieresis" unicode="&#xcf;" horiz-adv-x="522" 
d="M19 1533q-63 0 -107.5 41.5t-44.5 103.5t44.5 103.5t107.5 41.5q64 0 108 -41.5t44 -103.5t-44 -103.5t-108 -41.5zM503 1533q-64 0 -107.5 41.5t-43.5 103.5t43.5 103.5t107.5 41.5q63 0 107.5 -41.5t44.5 -103.5t-44.5 -103.5t-107.5 -41.5zM68 0v1434h386v-1434h-386z
" />
    <glyph glyph-name="Eth" unicode="&#xd0;" horiz-adv-x="1669" 
d="M843 1434q166 0 297.5 -35.5t220.5 -98.5t147 -154t84 -197t26 -232t-26 -231.5t-84 -196.5t-146.5 -154.5t-220.5 -99t-298 -35.5h-679v575h-155v283h155v576h679zM843 324q187 0 288 100t101 293q0 194 -101 294t-288 100h-292v-253h237v-283h-238v-251h293z" />
    <glyph glyph-name="Ntilde" unicode="&#xd1;" horiz-adv-x="1594" 
d="M947 1516q-47 0 -94.5 17t-79.5 37.5t-73 37.5t-77 17q-44 0 -70.5 -22t-31.5 -60h-118q-9 68 8 121t53.5 84t82.5 47t100 16q46 0 93 -17t79.5 -37.5t73 -37.5t76.5 -17q45 0 72 22t31 59h119q15 -132 -57.5 -199.5t-186.5 -67.5zM68 0v1434h446l602 -902h34v902h376
v-1434h-435l-611 901h-36v-901h-376z" />
    <glyph glyph-name="Ograve" unicode="&#xd2;" horiz-adv-x="1677" 
d="M1014 1526h-343l-121 286h343zM840 -48q-236 0 -417.5 96.5t-280.5 270.5t-99 398q0 225 99 398.5t280.5 269.5t417.5 96q356 0 575.5 -211.5t219.5 -552.5q0 -224 -99 -398t-280 -270.5t-416 -96.5zM840 285q178 0 296 119t118 313q0 195 -118 313.5t-296 118.5
q-179 0 -297 -118.5t-118 -313.5q0 -194 118 -313t297 -119z" />
    <glyph glyph-name="Oacute" unicode="&#xd3;" horiz-adv-x="1677" 
d="M667 1526l121 286h344l-122 -286h-343zM840 -48q-236 0 -417.5 96.5t-280.5 270.5t-99 398q0 225 99 398.5t280.5 269.5t417.5 96q356 0 575.5 -211.5t219.5 -552.5q0 -224 -99 -398t-280 -270.5t-416 -96.5zM840 285q178 0 296 119t118 313q0 195 -118 313.5t-296 118.5
q-179 0 -297 -118.5t-118 -313.5q0 -194 118 -313t297 -119z" />
    <glyph glyph-name="Ocircumflex" unicode="&#xd4;" horiz-adv-x="1677" 
d="M374 1526l230 286h469l231 -286h-328l-92 102h-90l-93 -102h-327zM840 -48q-236 0 -417.5 96.5t-280.5 270.5t-99 398q0 225 99 398.5t280.5 269.5t417.5 96q356 0 575.5 -211.5t219.5 -552.5q0 -224 -99 -398t-280 -270.5t-416 -96.5zM840 285q178 0 296 119t118 313
q0 195 -118 313.5t-296 118.5q-179 0 -297 -118.5t-118 -313.5q0 -194 118 -313t297 -119z" />
    <glyph glyph-name="Otilde" unicode="&#xd5;" horiz-adv-x="1677" 
d="M990 1522q-47 0 -94.5 17t-79.5 38t-73 38t-77 17q-44 0 -71 -22t-32 -60h-118q-9 68 8 121t53.5 84t82.5 47t100 16q58 0 116 -27.5t110.5 -55t96.5 -27.5q45 0 71.5 22t30.5 60h120q15 -132 -57.5 -200t-186.5 -68zM840 -48q-236 0 -417.5 96.5t-280.5 270.5t-99 398
q0 225 99 398.5t280.5 269.5t417.5 96q356 0 575.5 -211.5t219.5 -552.5q0 -224 -99 -398t-280 -270.5t-416 -96.5zM840 285q178 0 296 119t118 313q0 195 -118 313.5t-296 118.5q-179 0 -297 -118.5t-118 -313.5q0 -194 118 -313t297 -119z" />
    <glyph glyph-name="Odieresis" unicode="&#xd6;" horiz-adv-x="1677" 
d="M597 1539q-63 0 -107.5 41.5t-44.5 103.5t45 104t107 42q64 0 108 -42t44 -104t-44 -103.5t-108 -41.5zM1082 1539q-64 0 -108 41.5t-44 103.5t44 104t108 42q62 0 107 -42t45 -104t-44.5 -103.5t-107.5 -41.5zM840 -48q-236 0 -417.5 96.5t-280.5 270.5t-99 398
q0 225 99 398.5t280.5 269.5t417.5 96q356 0 575.5 -211.5t219.5 -552.5q0 -224 -99 -398t-280 -270.5t-416 -96.5zM840 285q178 0 296 119t118 313q0 195 -118 313.5t-296 118.5q-179 0 -297 -118.5t-118 -313.5q0 -194 118 -313t297 -119z" />
    <glyph glyph-name="multiply" unicode="&#xd7;" horiz-adv-x="1163" 
d="M1077 949l-275 -275l275 -275l-215 -216l-275 276l-276 -276l-227 227l276 276l-276 275l216 215l275 -275l275 275z" />
    <glyph glyph-name="Oslash" unicode="&#xd8;" horiz-adv-x="1677" 
d="M1261 1382q177 -95 275.5 -268.5t98.5 -396.5q0 -224 -99 -398t-280 -270.5t-416 -96.5q-119 0 -226 26l-30 -65h-244l66 145q-172 97 -267.5 268.5t-95.5 390.5q0 225 99 398.5t280.5 269.5t417.5 96q108 0 213 -22l29 63h244zM425 717q0 -207 135 -328l348 754
q-44 6 -68 6q-179 0 -297 -118.5t-118 -313.5zM840 285q178 0 296 119t118 313q0 216 -145 338l-351 -763q38 -7 82 -7z" />
    <glyph glyph-name="Ugrave" unicode="&#xd9;" horiz-adv-x="1553" 
d="M951 1519h-343l-122 287h343zM777 -48q-349 0 -529 162t-180 492v828h388v-818q0 -163 80.5 -251.5t240.5 -88.5q161 0 242.5 89t81.5 251v818h384v-826q0 -656 -708 -656z" />
    <glyph glyph-name="Uacute" unicode="&#xda;" horiz-adv-x="1553" 
d="M604 1519l121 287h343l-121 -287h-343zM777 -48q-349 0 -529 162t-180 492v828h388v-818q0 -163 80.5 -251.5t240.5 -88.5q161 0 242.5 89t81.5 251v818h384v-826q0 -656 -708 -656z" />
    <glyph glyph-name="Ucircumflex" unicode="&#xdb;" horiz-adv-x="1553" 
d="M311 1519l230 287h469l231 -287h-328l-92 102h-91l-92 -102h-327zM777 -48q-349 0 -529 162t-180 492v828h388v-818q0 -163 80.5 -251.5t240.5 -88.5q161 0 242.5 89t81.5 251v818h384v-826q0 -656 -708 -656z" />
    <glyph glyph-name="Udieresis" unicode="&#xdc;" horiz-adv-x="1553" 
d="M534 1533q-63 0 -107.5 41.5t-44.5 103.5t44.5 103.5t107.5 41.5q64 0 108 -41.5t44 -103.5t-44 -103.5t-108 -41.5zM1019 1533q-64 0 -108 41.5t-44 103.5t44 103.5t108 41.5q63 0 107.5 -41.5t44.5 -103.5t-44.5 -103.5t-107.5 -41.5zM777 -48q-349 0 -529 162
t-180 492v828h388v-818q0 -163 80.5 -251.5t240.5 -88.5q161 0 242.5 89t81.5 251v818h384v-826q0 -656 -708 -656z" />
    <glyph glyph-name="Yacute" unicode="&#xdd;" horiz-adv-x="1582" 
d="M1084 1806l-121 -287h-343l121 287h343zM1574 1434l-591 -980v-454h-384v456l-590 978h407l357 -608h36l358 608h407z" />
    <glyph glyph-name="Thorn" unicode="&#xde;" horiz-adv-x="1457" 
d="M761 1249q312 0 478.5 -134.5t166.5 -397.5q0 -262 -166 -396.5t-477 -134.5h-309v-186h-386v1434h386v-185h307zM771 507q117 0 183.5 52.5t66.5 157.5q0 104 -67 157.5t-183 53.5h-317v-421h317z" />
    <glyph glyph-name="germandbls" unicode="&#xdf;" horiz-adv-x="1479" 
d="M68 0v981q0 130 48.5 226.5t137 153t201.5 83.5t253 27q137 0 246 -23t178.5 -61.5t115 -91.5t64.5 -109t19 -118q0 -104 -49 -172.5t-127 -105.5v-25q130 -44 201.5 -132.5t71.5 -222.5q0 -89 -33.5 -161t-103.5 -129t-190 -88.5t-282 -31.5h-252v294h247
q116 0 174 46.5t58 125.5q0 76 -58.5 122.5t-173.5 46.5h-247v217h199q102 0 153.5 36t51.5 98q0 73 -60.5 115t-181.5 42q-126 0 -200.5 -43.5t-74.5 -136.5v-963h-386z" />
    <glyph glyph-name="agrave" unicode="&#xe0;" 
d="M1007 1519h-343l-121 287h343zM1251 0l-80 224h-676l-80 -224h-398l546 1434h540l546 -1434h-398zM597 512h471l-199 560h-70z" />
    <glyph glyph-name="aacute" unicode="&#xe1;" 
d="M1125 1806l-121 -287h-344l122 287h343zM1251 0l-80 224h-676l-80 -224h-398l546 1434h540l546 -1434h-398zM597 512h471l-199 560h-70z" />
    <glyph glyph-name="acircumflex" unicode="&#xe2;" 
d="M787 1621l-92 -102h-328l230 287h470l230 -287h-328l-92 102h-90zM1251 0l-80 224h-676l-80 -224h-398l546 1434h540l546 -1434h-398zM597 512h471l-199 560h-70z" />
    <glyph glyph-name="atilde" unicode="&#xe3;" 
d="M556 1543h-117q-9 68 8 121t53.5 84t82.5 47t100 16q46 0 93 -17t79.5 -37.5t73 -37.5t76.5 -17q45 0 72 22t31 59h119q15 -132 -57.5 -199.5t-186.5 -67.5q-47 0 -94.5 17t-79.5 37.5t-73 37.5t-77 17q-44 0 -71 -22t-32 -60zM1251 0l-80 224h-676l-80 -224h-398
l546 1434h540l546 -1434h-398zM597 512h471l-199 560h-70z" />
    <glyph glyph-name="adieresis" unicode="&#xe4;" 
d="M591 1533q-63 0 -107.5 41.5t-44.5 103.5t44.5 103.5t107.5 41.5q64 0 107.5 -41.5t43.5 -103.5t-43.5 -103.5t-107.5 -41.5zM1075 1533q-64 0 -108 41.5t-44 103.5t44 103.5t108 41.5q63 0 107.5 -41.5t44.5 -103.5t-44.5 -103.5t-107.5 -41.5zM1251 0l-80 224h-676
l-80 -224h-398l546 1434h540l546 -1434h-398zM597 512h471l-199 560h-70z" />
    <glyph glyph-name="aring" unicode="&#xe5;" 
d="M1251 0l-80 224h-676l-80 -224h-398l546 1434h167q-57 29 -90.5 82.5t-33.5 116.5q0 93 66 159.5t161 66.5t159 -66.5t64 -159.5q0 -63 -33 -116.5t-88 -82.5h168l546 -1434h-398zM833 1691q-26 0 -42 -15.5t-16 -40.5q0 -26 16 -41t42 -15q25 0 41.5 15t14.5 41
q-1 27 -16.5 41.5t-39.5 14.5zM597 512h471l-199 560h-70z" />
    <glyph glyph-name="ae" unicode="&#xe6;" horiz-adv-x="2315" 
d="M2248 1121h-850v-269h819v-268h-819v-272h850v-312h-1236v227h-498l-108 -227h-389l678 1434h1553v-313zM650 512h362v601h-77z" />
    <glyph glyph-name="ccedilla" unicode="&#xe7;" horiz-adv-x="1600" 
d="M835 285q132 0 224 64t132 194h367q-17 -122 -63 -220.5t-108.5 -164.5t-144.5 -111t-168.5 -66.5t-182.5 -26.5l-22 -17q79 -8 135 -56t56 -135q0 -64 -34 -111t-90.5 -69.5t-130 -28.5t-153.5 12v159q66 -13 108 -9.5t61.5 15t19.5 27.5q0 18 -19.5 31.5t-61.5 17.5
t-108 -14v108l89 73q-314 29 -506 236.5t-192 523.5q0 224 99.5 398t280 270t412.5 96q103 0 195.5 -18t182 -61t158.5 -109t119 -168t68 -231h-367q-40 129 -132 192t-224 63q-176 0 -293 -121t-117 -311t117 -311t293 -121z" />
    <glyph glyph-name="egrave" unicode="&#xe8;" horiz-adv-x="1372" 
d="M850 1519h-343l-121 287h343zM68 0v1434h1236v-313h-850v-269h819v-268h-819v-272h850v-312h-1236z" />
    <glyph glyph-name="eacute" unicode="&#xe9;" horiz-adv-x="1372" 
d="M503 1519l122 287h343l-121 -287h-344zM68 0v1434h1236v-313h-850v-269h819v-268h-819v-272h850v-312h-1236z" />
    <glyph glyph-name="ecircumflex" unicode="&#xea;" horiz-adv-x="1372" 
d="M210 1519l230 287h470l230 -287h-328l-92 102h-90l-92 -102h-328zM68 0v1434h1236v-313h-850v-269h819v-268h-819v-272h850v-312h-1236z" />
    <glyph glyph-name="edieresis" unicode="&#xeb;" horiz-adv-x="1372" 
d="M433 1533q-62 0 -106.5 41.5t-44.5 103.5t44.5 103.5t106.5 41.5q64 0 108 -41.5t44 -103.5t-44 -103.5t-108 -41.5zM918 1533q-64 0 -108 41.5t-44 103.5t44 103.5t108 41.5q63 0 107.5 -41.5t44.5 -103.5t-44.5 -103.5t-107.5 -41.5zM68 0v1434h1236v-313h-850v-269
h819v-268h-819v-272h850v-312h-1236z" />
    <glyph glyph-name="igrave" unicode="&#xec;" horiz-adv-x="522" 
d="M435 1519h-343l-121 287h343zM68 0v1434h386v-1434h-386z" />
    <glyph glyph-name="iacute" unicode="&#xed;" horiz-adv-x="522" 
d="M89 1519l121 287h343l-121 -287h-343zM68 0v1434h386v-1434h-386z" />
    <glyph glyph-name="icircumflex" unicode="&#xee;" horiz-adv-x="522" 
d="M-205 1519l231 287h469l230 -287h-327l-93 102h-90l-92 -102h-328zM68 0v1434h386v-1434h-386z" />
    <glyph glyph-name="idieresis" unicode="&#xef;" horiz-adv-x="522" 
d="M19 1533q-63 0 -107.5 41.5t-44.5 103.5t44.5 103.5t107.5 41.5q64 0 108 -41.5t44 -103.5t-44 -103.5t-108 -41.5zM503 1533q-64 0 -107.5 41.5t-43.5 103.5t43.5 103.5t107.5 41.5q63 0 107.5 -41.5t44.5 -103.5t-44.5 -103.5t-107.5 -41.5zM68 0v1434h386v-1434h-386z
" />
    <glyph glyph-name="eth" unicode="&#xf0;" horiz-adv-x="1669" 
d="M843 1434q166 0 297.5 -35.5t220.5 -98.5t147 -154t84 -197t26 -232t-26 -231.5t-84 -196.5t-146.5 -154.5t-220.5 -99t-298 -35.5h-679v575h-155v283h155v576h679zM843 324q187 0 288 100t101 293q0 194 -101 294t-288 100h-292v-253h237v-283h-238v-251h293z" />
    <glyph glyph-name="ntilde" unicode="&#xf1;" horiz-adv-x="1594" 
d="M947 1516q-47 0 -94.5 17t-79.5 37.5t-73 37.5t-77 17q-44 0 -70.5 -22t-31.5 -60h-118q-9 68 8 121t53.5 84t82.5 47t100 16q46 0 93 -17t79.5 -37.5t73 -37.5t76.5 -17q45 0 72 22t31 59h119q15 -132 -57.5 -199.5t-186.5 -67.5zM68 0v1434h446l602 -902h34v902h376
v-1434h-435l-611 901h-36v-901h-376z" />
    <glyph glyph-name="ograve" unicode="&#xf2;" horiz-adv-x="1677" 
d="M1014 1526h-343l-121 286h343zM840 -48q-236 0 -417.5 96.5t-280.5 270.5t-99 398q0 225 99 398.5t280.5 269.5t417.5 96q356 0 575.5 -211.5t219.5 -552.5q0 -224 -99 -398t-280 -270.5t-416 -96.5zM840 285q178 0 296 119t118 313q0 195 -118 313.5t-296 118.5
q-179 0 -297 -118.5t-118 -313.5q0 -194 118 -313t297 -119z" />
    <glyph glyph-name="oacute" unicode="&#xf3;" horiz-adv-x="1677" 
d="M667 1526l121 286h344l-122 -286h-343zM840 -48q-236 0 -417.5 96.5t-280.5 270.5t-99 398q0 225 99 398.5t280.5 269.5t417.5 96q356 0 575.5 -211.5t219.5 -552.5q0 -224 -99 -398t-280 -270.5t-416 -96.5zM840 285q178 0 296 119t118 313q0 195 -118 313.5t-296 118.5
q-179 0 -297 -118.5t-118 -313.5q0 -194 118 -313t297 -119z" />
    <glyph glyph-name="ocircumflex" unicode="&#xf4;" horiz-adv-x="1677" 
d="M374 1526l230 286h469l231 -286h-328l-92 102h-90l-93 -102h-327zM840 -48q-236 0 -417.5 96.5t-280.5 270.5t-99 398q0 225 99 398.5t280.5 269.5t417.5 96q356 0 575.5 -211.5t219.5 -552.5q0 -224 -99 -398t-280 -270.5t-416 -96.5zM840 285q178 0 296 119t118 313
q0 195 -118 313.5t-296 118.5q-179 0 -297 -118.5t-118 -313.5q0 -194 118 -313t297 -119z" />
    <glyph glyph-name="otilde" unicode="&#xf5;" horiz-adv-x="1677" 
d="M990 1522q-47 0 -94.5 17t-79.5 38t-73 38t-77 17q-44 0 -71 -22t-32 -60h-118q-9 68 8 121t53.5 84t82.5 47t100 16q58 0 116 -27.5t110.5 -55t96.5 -27.5q45 0 71.5 22t30.5 60h120q15 -132 -57.5 -200t-186.5 -68zM840 -48q-236 0 -417.5 96.5t-280.5 270.5t-99 398
q0 225 99 398.5t280.5 269.5t417.5 96q356 0 575.5 -211.5t219.5 -552.5q0 -224 -99 -398t-280 -270.5t-416 -96.5zM840 285q178 0 296 119t118 313q0 195 -118 313.5t-296 118.5q-179 0 -297 -118.5t-118 -313.5q0 -194 118 -313t297 -119z" />
    <glyph glyph-name="odieresis" unicode="&#xf6;" horiz-adv-x="1677" 
d="M597 1539q-63 0 -107.5 41.5t-44.5 103.5t45 104t107 42q64 0 108 -42t44 -104t-44 -103.5t-108 -41.5zM1082 1539q-64 0 -108 41.5t-44 103.5t44 104t108 42q62 0 107 -42t45 -104t-44.5 -103.5t-107.5 -41.5zM840 -48q-236 0 -417.5 96.5t-280.5 270.5t-99 398
q0 225 99 398.5t280.5 269.5t417.5 96q356 0 575.5 -211.5t219.5 -552.5q0 -224 -99 -398t-280 -270.5t-416 -96.5zM840 285q178 0 296 119t118 313q0 195 -118 313.5t-296 118.5q-179 0 -297 -118.5t-118 -313.5q0 -194 118 -313t297 -119z" />
    <glyph glyph-name="divide" unicode="&#xf7;" horiz-adv-x="1167" 
d="M584 975q-72 0 -124 51.5t-52 122.5q0 72 51.5 123t124.5 51t125 -51t52 -123q0 -71 -52 -122.5t-125 -51.5zM85 582v271h997v-271h-997zM584 109q-72 0 -124 51.5t-52 122.5q0 72 51.5 123t124.5 51t125 -51t52 -123q0 -71 -52 -122.5t-125 -51.5z" />
    <glyph glyph-name="oslash" unicode="&#xf8;" horiz-adv-x="1677" 
d="M1261 1382q177 -95 275.5 -268.5t98.5 -396.5q0 -224 -99 -398t-280 -270.5t-416 -96.5q-119 0 -226 26l-30 -65h-244l66 145q-172 97 -267.5 268.5t-95.5 390.5q0 225 99 398.5t280.5 269.5t417.5 96q108 0 213 -22l29 63h244zM425 717q0 -207 135 -328l348 754
q-44 6 -68 6q-179 0 -297 -118.5t-118 -313.5zM840 285q178 0 296 119t118 313q0 216 -145 338l-351 -763q38 -7 82 -7z" />
    <glyph glyph-name="ugrave" unicode="&#xf9;" horiz-adv-x="1553" 
d="M951 1519h-343l-122 287h343zM777 -48q-349 0 -529 162t-180 492v828h388v-818q0 -163 80.5 -251.5t240.5 -88.5q161 0 242.5 89t81.5 251v818h384v-826q0 -656 -708 -656z" />
    <glyph glyph-name="uacute" unicode="&#xfa;" horiz-adv-x="1553" 
d="M604 1519l121 287h343l-121 -287h-343zM777 -48q-349 0 -529 162t-180 492v828h388v-818q0 -163 80.5 -251.5t240.5 -88.5q161 0 242.5 89t81.5 251v818h384v-826q0 -656 -708 -656z" />
    <glyph glyph-name="ucircumflex" unicode="&#xfb;" horiz-adv-x="1553" 
d="M311 1519l230 287h469l231 -287h-328l-92 102h-91l-92 -102h-327zM777 -48q-349 0 -529 162t-180 492v828h388v-818q0 -163 80.5 -251.5t240.5 -88.5q161 0 242.5 89t81.5 251v818h384v-826q0 -656 -708 -656z" />
    <glyph glyph-name="udieresis" unicode="&#xfc;" horiz-adv-x="1553" 
d="M534 1533q-63 0 -107.5 41.5t-44.5 103.5t44.5 103.5t107.5 41.5q64 0 108 -41.5t44 -103.5t-44 -103.5t-108 -41.5zM1019 1533q-64 0 -108 41.5t-44 103.5t44 103.5t108 41.5q63 0 107.5 -41.5t44.5 -103.5t-44.5 -103.5t-107.5 -41.5zM777 -48q-349 0 -529 162
t-180 492v828h388v-818q0 -163 80.5 -251.5t240.5 -88.5q161 0 242.5 89t81.5 251v818h384v-826q0 -656 -708 -656z" />
    <glyph glyph-name="yacute" unicode="&#xfd;" horiz-adv-x="1582" 
d="M1084 1806l-121 -287h-343l121 287h343zM1574 1434l-591 -980v-454h-384v456l-590 978h407l357 -608h36l358 608h407z" />
    <glyph glyph-name="thorn" unicode="&#xfe;" horiz-adv-x="1457" 
d="M761 1249q312 0 478.5 -134.5t166.5 -397.5q0 -262 -166 -396.5t-477 -134.5h-309v-186h-386v1434h386v-185h307zM771 507q117 0 183.5 52.5t66.5 157.5q0 104 -67 157.5t-183 53.5h-317v-421h317z" />
    <glyph glyph-name="ydieresis" unicode="&#xff;" horiz-adv-x="1582" 
d="M550 1533q-63 0 -107.5 41.5t-44.5 103.5t44.5 103.5t107.5 41.5q64 0 107.5 -41.5t43.5 -103.5t-43.5 -103.5t-107.5 -41.5zM1034 1533q-64 0 -108 41.5t-44 103.5t44 103.5t108 41.5q63 0 107.5 -41.5t44.5 -103.5t-44.5 -103.5t-107.5 -41.5zM1574 1434l-591 -980
v-454h-384v456l-590 978h407l357 -608h36l358 608h407z" />
    <glyph glyph-name="Amacron" unicode="&#x100;" 
d="M1191 1809v-283h-717v283h717zM1251 0l-80 224h-676l-80 -224h-398l546 1434h540l546 -1434h-398zM597 512h471l-199 560h-70z" />
    <glyph glyph-name="amacron" unicode="&#x101;" 
d="M1191 1809v-283h-717v283h717zM1251 0l-80 224h-676l-80 -224h-398l546 1434h540l546 -1434h-398zM597 512h471l-199 560h-70z" />
    <glyph glyph-name="Abreve" unicode="&#x102;" 
d="M833 1519q-199 0 -284 66t-83 221h239q0 -56 34 -87t94 -31t94 31t34 87h239q2 -155 -82.5 -221t-284.5 -66zM1251 0l-80 224h-676l-80 -224h-398l546 1434h540l546 -1434h-398zM597 512h471l-199 560h-70z" />
    <glyph glyph-name="abreve" unicode="&#x103;" 
d="M833 1519q-199 0 -284 66t-83 221h239q0 -56 34 -87t94 -31t94 31t34 87h239q2 -155 -82.5 -221t-284.5 -66zM1251 0l-80 224h-676l-80 -224h-398l546 1434h540l546 -1434h-398zM597 512h471l-199 560h-70z" />
    <glyph glyph-name="Aogonek" unicode="&#x104;" 
d="M1251 0q-80 0 -116 -32.5t-36 -75.5q0 -36 25 -62.5t86 -25.5v-217q-48 0 -95 6.5t-98.5 24t-90 44.5t-63.5 73.5t-25 105.5q0 61 26.5 109t65 75.5t92.5 46t98.5 25.5t92.5 9l-42 118h-676l-80 -224h-398l546 1434h540l546 -1434h-398zM597 512h471l-199 560h-70z" />
    <glyph glyph-name="aogonek" unicode="&#x105;" 
d="M1251 0q-80 0 -116 -32.5t-36 -75.5q0 -36 25 -62.5t86 -25.5v-217q-48 0 -95 6.5t-98.5 24t-90 44.5t-63.5 73.5t-25 105.5q0 61 26.5 109t65 75.5t92.5 46t98.5 25.5t92.5 9l-42 118h-676l-80 -224h-398l546 1434h540l546 -1434h-398zM597 512h471l-199 560h-70z" />
    <glyph glyph-name="Cacute" unicode="&#x106;" horiz-adv-x="1600" 
d="M666 1519l121 287h343l-121 -287h-343zM835 -48q-174 0 -321.5 56.5t-251 156.5t-161.5 242.5t-58 309.5q0 224 99.5 398t280 270t412.5 96q103 0 195.5 -18t182 -61t158.5 -109t119 -168t68 -231h-367q-40 129 -132 192t-224 63q-176 0 -293 -121t-117 -311t117 -311
t293 -121q132 0 224 64t132 194h367q-18 -129 -68 -231.5t-118.5 -169t-158 -110t-182.5 -62t-196 -18.5z" />
    <glyph glyph-name="cacute" unicode="&#x107;" horiz-adv-x="1600" 
d="M666 1519l121 287h343l-121 -287h-343zM835 -48q-174 0 -321.5 56.5t-251 156.5t-161.5 242.5t-58 309.5q0 224 99.5 398t280 270t412.5 96q103 0 195.5 -18t182 -61t158.5 -109t119 -168t68 -231h-367q-40 129 -132 192t-224 63q-176 0 -293 -121t-117 -311t117 -311
t293 -121q132 0 224 64t132 194h367q-18 -129 -68 -231.5t-118.5 -169t-158 -110t-182.5 -62t-196 -18.5z" />
    <glyph glyph-name="Cdotaccent" unicode="&#x10a;" horiz-adv-x="1600" 
d="M838 1533q-63 0 -107.5 41.5t-44.5 103.5t44.5 103.5t107.5 41.5q64 0 108 -41.5t44 -103.5t-44 -103.5t-108 -41.5zM835 -48q-174 0 -321.5 56.5t-251 156.5t-161.5 242.5t-58 309.5q0 224 99.5 398t280 270t412.5 96q103 0 195.5 -18t182 -61t158.5 -109t119 -168
t68 -231h-367q-40 129 -132 192t-224 63q-176 0 -293 -121t-117 -311t117 -311t293 -121q132 0 224 64t132 194h367q-18 -129 -68 -231.5t-118.5 -169t-158 -110t-182.5 -62t-196 -18.5z" />
    <glyph glyph-name="cdotaccent" unicode="&#x10b;" horiz-adv-x="1600" 
d="M838 1533q-63 0 -107.5 41.5t-44.5 103.5t44.5 103.5t107.5 41.5q64 0 108 -41.5t44 -103.5t-44 -103.5t-108 -41.5zM835 -48q-174 0 -321.5 56.5t-251 156.5t-161.5 242.5t-58 309.5q0 224 99.5 398t280 270t412.5 96q103 0 195.5 -18t182 -61t158.5 -109t119 -168
t68 -231h-367q-40 129 -132 192t-224 63q-176 0 -293 -121t-117 -311t117 -311t293 -121q132 0 224 64t132 194h367q-18 -129 -68 -231.5t-118.5 -169t-158 -110t-182.5 -62t-196 -18.5z" />
    <glyph glyph-name="Ccaron" unicode="&#x10c;" horiz-adv-x="1600" 
d="M835 285q132 0 224 64t132 194h367q-18 -129 -68 -231.5t-118.5 -169t-158 -110t-182.5 -62t-196 -18.5q-174 0 -321.5 56.5t-251 156.5t-161.5 242.5t-58 309.5q0 325 201.5 534t530.5 229h-171l-230 286h327l93 -102h90l92 102h328l-231 -286h-177q96 -5 181.5 -27
t166.5 -67t143.5 -110.5t108 -163t62.5 -218.5h-367q-40 129 -132 192t-224 63q-176 0 -293 -121t-117 -311t117 -311t293 -121z" />
    <glyph glyph-name="ccaron" unicode="&#x10d;" horiz-adv-x="1600" 
d="M835 285q132 0 224 64t132 194h367q-18 -129 -68 -231.5t-118.5 -169t-158 -110t-182.5 -62t-196 -18.5q-174 0 -321.5 56.5t-251 156.5t-161.5 242.5t-58 309.5q0 325 201.5 534t530.5 229h-171l-230 286h327l93 -102h90l92 102h328l-231 -286h-177q96 -5 181.5 -27
t166.5 -67t143.5 -110.5t108 -163t62.5 -218.5h-367q-40 129 -132 192t-224 63q-176 0 -293 -121t-117 -311t117 -311t293 -121z" />
    <glyph glyph-name="Dcaron" unicode="&#x10e;" horiz-adv-x="1573" 
d="M998 1480h-469l-230 286h327l93 -102h90l92 102h328zM748 1434q207 0 359 -53.5t241.5 -152t131.5 -225.5t42 -286q0 -126 -25.5 -231.5t-84 -196.5t-147 -154.5t-220 -99t-297.5 -35.5h-680v1434h680zM748 324q187 0 288 100t101 293q0 194 -101 294t-288 100h-292
l-2 -787h294z" />
    <glyph glyph-name="dcaron" unicode="&#x10f;" horiz-adv-x="1573" 
d="M998 1480h-469l-230 286h327l93 -102h90l92 102h328zM748 1434q207 0 359 -53.5t241.5 -152t131.5 -225.5t42 -286q0 -126 -25.5 -231.5t-84 -196.5t-147 -154.5t-220 -99t-297.5 -35.5h-680v1434h680zM748 324q187 0 288 100t101 293q0 194 -101 294t-288 100h-292
l-2 -787h294z" />
    <glyph glyph-name="Dcroat" unicode="&#x110;" horiz-adv-x="1669" 
d="M843 1434q166 0 297.5 -35.5t220.5 -98.5t147 -154t84 -197t26 -232t-26 -231.5t-84 -196.5t-146.5 -154.5t-220.5 -99t-298 -35.5h-679v575h-155v283h155v576h679zM843 324q187 0 288 100t101 293q0 194 -101 294t-288 100h-292v-253h237v-283h-238v-251h293z" />
    <glyph glyph-name="dcroat" unicode="&#x111;" horiz-adv-x="1669" 
d="M843 1434q166 0 297.5 -35.5t220.5 -98.5t147 -154t84 -197t26 -232t-26 -231.5t-84 -196.5t-146.5 -154.5t-220.5 -99t-298 -35.5h-679v575h-155v283h155v576h679zM843 324q187 0 288 100t101 293q0 194 -101 294t-288 100h-292v-253h237v-283h-238v-251h293z" />
    <glyph glyph-name="Emacron" unicode="&#x112;" horiz-adv-x="1372" 
d="M317 1526v283h717v-283h-717zM68 0v1434h1236v-313h-850v-269h819v-268h-819v-272h850v-312h-1236z" />
    <glyph glyph-name="emacron" unicode="&#x113;" horiz-adv-x="1372" 
d="M317 1526v283h717v-283h-717zM68 0v1434h1236v-313h-850v-269h819v-268h-819v-272h850v-312h-1236z" />
    <glyph glyph-name="Edotaccent" unicode="&#x116;" horiz-adv-x="1372" 
d="M676 1533q-63 0 -107.5 41.5t-44.5 103.5t44.5 103.5t107.5 41.5q64 0 108 -41.5t44 -103.5t-44 -103.5t-108 -41.5zM68 0v1434h1236v-313h-850v-269h819v-268h-819v-272h850v-312h-1236z" />
    <glyph glyph-name="edotaccent" unicode="&#x117;" horiz-adv-x="1372" 
d="M676 1533q-63 0 -107.5 41.5t-44.5 103.5t44.5 103.5t107.5 41.5q64 0 108 -41.5t44 -103.5t-44 -103.5t-108 -41.5zM68 0v1434h1236v-313h-850v-269h819v-268h-819v-272h850v-312h-1236z" />
    <glyph glyph-name="Eogonek" unicode="&#x118;" horiz-adv-x="1372" 
d="M1304 1121h-850v-269h819v-268h-819v-272h850v-312q-80 0 -116 -32.5t-36 -75.5q0 -36 25 -62.5t86 -25.5v-217q-48 0 -95 6.5t-98.5 24t-90 44.5t-63.5 73.5t-25 105.5q0 96 63 159h-886v1434h1236v-313z" />
    <glyph glyph-name="eogonek" unicode="&#x119;" horiz-adv-x="1372" 
d="M1304 1121h-850v-269h819v-268h-819v-272h850v-312q-80 0 -116 -32.5t-36 -75.5q0 -36 25 -62.5t86 -25.5v-217q-48 0 -95 6.5t-98.5 24t-90 44.5t-63.5 73.5t-25 105.5q0 96 63 159h-886v1434h1236v-313z" />
    <glyph glyph-name="Ecaron" unicode="&#x11a;" horiz-adv-x="1372" 
d="M212 1766h327l92 -102h91l92 102h328l-231 -286h-469zM68 0v1434h1236v-313h-850v-269h819v-268h-819v-272h850v-312h-1236z" />
    <glyph glyph-name="ecaron" unicode="&#x11b;" horiz-adv-x="1372" 
d="M212 1766h327l92 -102h91l92 102h328l-231 -286h-469zM68 0v1434h1236v-313h-850v-269h819v-268h-819v-272h850v-312h-1236z" />
    <glyph glyph-name="Gbreve" unicode="&#x11e;" horiz-adv-x="1653" 
d="M835 1519q-199 0 -284 66t-83 221h239q0 -56 34 -87t94 -31t94 31t34 87h238q2 -155 -82 -221t-284 -66zM1577 770v-770h-227l-5 201q-78 -114 -214 -181.5t-319 -67.5q-161 0 -303 56.5t-244.5 156t-162 243t-59.5 309.5q0 225 99.5 398.5t282 269.5t420.5 96
q99 0 191 -18.5t179 -59t155.5 -100t119 -147t70.5 -195.5h-382q-35 85 -121.5 136.5t-204.5 51.5q-187 0 -307 -120.5t-120 -311.5q0 -190 118.5 -311t297.5 -121q39 0 78.5 6.5t85.5 23.5t84 44t69 72t45 103h-382v236h756z" />
    <glyph glyph-name="gbreve" unicode="&#x11f;" horiz-adv-x="1653" 
d="M835 1519q-199 0 -284 66t-83 221h239q0 -56 34 -87t94 -31t94 31t34 87h238q2 -155 -82 -221t-284 -66zM1577 770v-770h-227l-5 201q-78 -114 -214 -181.5t-319 -67.5q-161 0 -303 56.5t-244.5 156t-162 243t-59.5 309.5q0 225 99.5 398.5t282 269.5t420.5 96
q99 0 191 -18.5t179 -59t155.5 -100t119 -147t70.5 -195.5h-382q-35 85 -121.5 136.5t-204.5 51.5q-187 0 -307 -120.5t-120 -311.5q0 -190 118.5 -311t297.5 -121q39 0 78.5 6.5t85.5 23.5t84 44t69 72t45 103h-382v236h756z" />
    <glyph glyph-name="Gdotaccent" unicode="&#x120;" horiz-adv-x="1653" 
d="M835 1533q-63 0 -107.5 41.5t-44.5 103.5t44.5 103.5t107.5 41.5q64 0 107.5 -41.5t43.5 -103.5t-43.5 -103.5t-107.5 -41.5zM1577 770v-770h-227l-5 201q-78 -114 -214 -181.5t-319 -67.5q-161 0 -303 56.5t-244.5 156t-162 243t-59.5 309.5q0 225 99.5 398.5t282 269.5
t420.5 96q99 0 191 -18.5t179 -59t155.5 -100t119 -147t70.5 -195.5h-382q-35 85 -121.5 136.5t-204.5 51.5q-187 0 -307 -120.5t-120 -311.5q0 -190 118.5 -311t297.5 -121q39 0 78.5 6.5t85.5 23.5t84 44t69 72t45 103h-382v236h756z" />
    <glyph glyph-name="gdotaccent" unicode="&#x121;" horiz-adv-x="1653" 
d="M835 1533q-63 0 -107.5 41.5t-44.5 103.5t44.5 103.5t107.5 41.5q64 0 107.5 -41.5t43.5 -103.5t-43.5 -103.5t-107.5 -41.5zM1577 770v-770h-227l-5 201q-78 -114 -214 -181.5t-319 -67.5q-161 0 -303 56.5t-244.5 156t-162 243t-59.5 309.5q0 225 99.5 398.5t282 269.5
t420.5 96q99 0 191 -18.5t179 -59t155.5 -100t119 -147t70.5 -195.5h-382q-35 85 -121.5 136.5t-204.5 51.5q-187 0 -307 -120.5t-120 -311.5q0 -190 118.5 -311t297.5 -121q39 0 78.5 6.5t85.5 23.5t84 44t69 72t45 103h-382v236h756z" />
    <glyph glyph-name="Gcommaaccent" unicode="&#x122;" horiz-adv-x="1653" 
d="M1577 770v-770h-227l-5 201q-78 -114 -214 -181.5t-319 -67.5q-161 0 -303 56.5t-244.5 156t-162 243t-59.5 309.5q0 225 99.5 398.5t282 269.5t420.5 96q99 0 191 -18.5t179 -59t155.5 -100t119 -147t70.5 -195.5h-382q-35 85 -121.5 136.5t-204.5 51.5
q-187 0 -307 -120.5t-120 -311.5q0 -190 118.5 -311t297.5 -121q39 0 78.5 6.5t85.5 23.5t84 44t69 72t45 103h-382v236h756zM628 -393v285h420v-66q0 -206 -24.5 -355.5t-57.5 -214.5h-212q27 154 23 351h-149z" />
    <glyph glyph-name="gcommaaccent" unicode="&#x123;" horiz-adv-x="1653" 
d="M1577 770v-770h-227l-5 201q-78 -114 -214 -181.5t-319 -67.5q-161 0 -303 56.5t-244.5 156t-162 243t-59.5 309.5q0 225 99.5 398.5t282 269.5t420.5 96q99 0 191 -18.5t179 -59t155.5 -100t119 -147t70.5 -195.5h-382q-35 85 -121.5 136.5t-204.5 51.5
q-187 0 -307 -120.5t-120 -311.5q0 -190 118.5 -311t297.5 -121q39 0 78.5 6.5t85.5 23.5t84 44t69 72t45 103h-382v236h756zM628 -393v285h420v-66q0 -206 -24.5 -355.5t-57.5 -214.5h-212q27 154 23 351h-149z" />
    <glyph glyph-name="Hbar" unicode="&#x126;" horiz-adv-x="1566" 
d="M1113 1434h385v-1434h-385v556h-659v-556h-386v1434h386v-173h659v173zM454 877h659v115h-659v-115z" />
    <glyph glyph-name="hbar" unicode="&#x127;" horiz-adv-x="1566" 
d="M1113 1434h385v-1434h-385v556h-659v-556h-386v1434h386v-173h659v173zM454 877h659v115h-659v-115z" />
    <glyph glyph-name="Imacron" unicode="&#x12a;" horiz-adv-x="522" 
d="M-97 1526v283h717v-283h-717zM68 0v1434h386v-1434h-386z" />
    <glyph glyph-name="imacron" unicode="&#x12b;" horiz-adv-x="522" 
d="M-97 1526v283h717v-283h-717zM68 0v1434h386v-1434h-386z" />
    <glyph glyph-name="Iogonek" unicode="&#x12e;" horiz-adv-x="522" 
d="M68 1434h386v-1434q-80 0 -116 -32.5t-36 -75.5q0 -36 25 -62.5t86 -25.5v-217q-48 0 -95 6.5t-98.5 24t-90 44.5t-63.5 73.5t-25 105.5q0 96 63 159h-36v1434z" />
    <glyph glyph-name="iogonek" unicode="&#x12f;" horiz-adv-x="522" 
d="M68 1434h386v-1434q-80 0 -116 -32.5t-36 -75.5q0 -36 25 -62.5t86 -25.5v-217q-48 0 -95 6.5t-98.5 24t-90 44.5t-63.5 73.5t-25 105.5q0 96 63 159h-36v1434z" />
    <glyph glyph-name="Idotaccent" unicode="&#x130;" horiz-adv-x="522" 
d="M261 1533q-63 0 -107.5 41.5t-44.5 103.5t44.5 103.5t107.5 41.5q64 0 108 -41.5t44 -103.5t-44 -103.5t-108 -41.5zM68 0v1434h386v-1434h-386z" />
    <glyph glyph-name="dotlessi" unicode="&#x131;" horiz-adv-x="522" 
d="M68 0v1434h386v-1434h-386z" />
    <glyph glyph-name="IJ" unicode="&#x132;" horiz-adv-x="1865" 
d="M68 0v1434h386v-1434h-386zM1167 -48q-111 0 -201.5 18t-169 60t-131 108t-81.5 166t-28 230h384q0 -70 19 -121.5t52.5 -79.5t73.5 -40.5t89 -12.5q48 0 87 13.5t75 44.5t56.5 92.5t20.5 148.5v855h384v-838q0 -175 -42.5 -300.5t-126.5 -200.5t-197 -109t-264 -34z" />
    <glyph glyph-name="Kcommaaccent" unicode="&#x136;" horiz-adv-x="1541" 
d="M925 797l621 -797h-397l-441 565h-25l-231 -241v-324h-384v1434h384v-647h26l607 647h432zM579 -393v285h419v-66q0 -206 -24.5 -355.5t-57.5 -214.5h-211q26 149 22 351h-148z" />
    <glyph glyph-name="kcommaaccent" unicode="&#x137;" horiz-adv-x="1541" 
d="M925 797l621 -797h-397l-441 565h-25l-231 -241v-324h-384v1434h384v-647h26l607 647h432zM579 -393v285h419v-66q0 -206 -24.5 -355.5t-57.5 -214.5h-211q26 149 22 351h-148z" />
    <glyph glyph-name="Lacute" unicode="&#x139;" horiz-adv-x="1319" 
d="M68 1502l121 287h343l-121 -287h-343zM68 0v1434h386v-1111h806v-323h-1192z" />
    <glyph glyph-name="lacute" unicode="&#x13a;" horiz-adv-x="1319" 
d="M68 1502l121 287h343l-121 -287h-343zM68 0v1434h386v-1111h806v-323h-1192z" />
    <glyph glyph-name="Lcommaaccent" unicode="&#x13b;" horiz-adv-x="1319" 
d="M68 0v1434h386v-1111h806v-323h-1192zM579 -744q26 149 22 351h-149v285h420v-66q0 -206 -24.5 -355.5t-57.5 -214.5h-211z" />
    <glyph glyph-name="lcommaaccent" unicode="&#x13c;" horiz-adv-x="1319" 
d="M68 0v1434h386v-1111h806v-323h-1192zM579 -744q26 149 22 351h-149v285h420v-66q0 -206 -24.5 -355.5t-57.5 -214.5h-211z" />
    <glyph glyph-name="Lcaron" unicode="&#x13d;" horiz-adv-x="1319" 
d="M759 715q30 183 26 398h-169v322h475v-75q0 -233 -28 -402t-65 -243h-239zM68 0v1434h386v-1111h806v-323h-1192z" />
    <glyph glyph-name="lcaron" unicode="&#x13e;" horiz-adv-x="1319" 
d="M759 715q30 183 26 398h-169v322h475v-75q0 -233 -28 -402t-65 -243h-239zM68 0v1434h386v-1111h806v-323h-1192z" />
    <glyph glyph-name="Ldot" unicode="&#x13f;" horiz-adv-x="1319" 
d="M68 0v1434h386v-1111h806v-323h-1192zM874 703q-82 0 -141 58.5t-59 139.5t59 138.5t141 57.5t140.5 -57.5t58.5 -138.5t-58.5 -139.5t-140.5 -58.5z" />
    <glyph glyph-name="Lslash" unicode="&#x141;" horiz-adv-x="1370" 
d="M505 323h806v-323h-1192v399l-119 -94v287l119 94v748h386v-446l253 198v-287l-253 -198v-378z" />
    <glyph glyph-name="lslash" unicode="&#x142;" horiz-adv-x="1370" 
d="M505 323h806v-323h-1192v399l-119 -94v287l119 94v748h386v-446l253 198v-287l-253 -198v-378z" />
    <glyph glyph-name="Nacute" unicode="&#x143;" horiz-adv-x="1594" 
d="M625 1519l121 287h343l-121 -287h-343zM68 0v1434h446l602 -902h34v902h376v-1434h-435l-611 901h-36v-901h-376z" />
    <glyph glyph-name="nacute" unicode="&#x144;" horiz-adv-x="1594" 
d="M625 1519l121 287h343l-121 -287h-343zM68 0v1434h446l602 -902h34v902h376v-1434h-435l-611 901h-36v-901h-376z" />
    <glyph glyph-name="Ncommaaccent" unicode="&#x145;" horiz-adv-x="1594" 
d="M68 0v1434h446l602 -902h34v902h376v-1434h-435l-611 901h-36v-901h-376zM717 -744q26 149 22 351h-148v285h419v-66q0 -206 -24.5 -355.5t-57.5 -214.5h-211z" />
    <glyph glyph-name="ncommaaccent" unicode="&#x146;" horiz-adv-x="1594" 
d="M68 0v1434h446l602 -902h34v902h376v-1434h-435l-611 901h-36v-901h-376zM717 -744q26 149 22 351h-148v285h419v-66q0 -206 -24.5 -355.5t-57.5 -214.5h-211z" />
    <glyph glyph-name="Ncaron" unicode="&#x147;" horiz-adv-x="1594" 
d="M333 1766h327l93 -102h90l92 102h328l-230 -286h-470zM68 0v1434h446l602 -902h34v902h376v-1434h-435l-611 901h-36v-901h-376z" />
    <glyph glyph-name="ncaron" unicode="&#x148;" horiz-adv-x="1594" 
d="M333 1766h327l93 -102h90l92 102h328l-230 -286h-470zM68 0v1434h446l602 -902h34v902h376v-1434h-435l-611 901h-36v-901h-376z" />
    <glyph glyph-name="Eng" unicode="&#x14a;" horiz-adv-x="1594" 
d="M1150 1434h376v-1434q-1 -259 -162 -383t-456 -124l5 323q237 0 237 181v3h-59l-611 901h-36v-901h-376v1434h446l602 -902h34v902z" />
    <glyph glyph-name="eng" unicode="&#x14b;" horiz-adv-x="1594" 
d="M1150 1434h376v-1434q-1 -259 -162 -383t-456 -124l5 323q237 0 237 181v3h-59l-611 901h-36v-901h-376v1434h446l602 -902h34v902z" />
    <glyph glyph-name="Omacron" unicode="&#x14c;" horiz-adv-x="1677" 
d="M481 1533v283h717v-283h-717zM840 -48q-236 0 -417.5 96.5t-280.5 270.5t-99 398q0 225 99 398.5t280.5 269.5t417.5 96q356 0 575.5 -211.5t219.5 -552.5q0 -224 -99 -398t-280 -270.5t-416 -96.5zM840 285q178 0 296 119t118 313q0 195 -118 313.5t-296 118.5
q-179 0 -297 -118.5t-118 -313.5q0 -194 118 -313t297 -119z" />
    <glyph glyph-name="omacron" unicode="&#x14d;" horiz-adv-x="1677" 
d="M481 1533v283h717v-283h-717zM840 -48q-236 0 -417.5 96.5t-280.5 270.5t-99 398q0 225 99 398.5t280.5 269.5t417.5 96q356 0 575.5 -211.5t219.5 -552.5q0 -224 -99 -398t-280 -270.5t-416 -96.5zM840 285q178 0 296 119t118 313q0 195 -118 313.5t-296 118.5
q-179 0 -297 -118.5t-118 -313.5q0 -194 118 -313t297 -119z" />
    <glyph glyph-name="Ohungarumlaut" unicode="&#x150;" horiz-adv-x="1677" 
d="M404 1536l122 287h343l-121 -287h-344zM847 1536l121 287h343l-121 -287h-343zM840 -48q-236 0 -417.5 96.5t-280.5 270.5t-99 398q0 225 99 398.5t280.5 269.5t417.5 96q356 0 575.5 -211.5t219.5 -552.5q0 -224 -99 -398t-280 -270.5t-416 -96.5zM840 285
q178 0 296 119t118 313q0 195 -118 313.5t-296 118.5q-179 0 -297 -118.5t-118 -313.5q0 -194 118 -313t297 -119z" />
    <glyph glyph-name="ohungarumlaut" unicode="&#x151;" horiz-adv-x="1677" 
d="M404 1536l122 287h343l-121 -287h-344zM847 1536l121 287h343l-121 -287h-343zM840 -48q-236 0 -417.5 96.5t-280.5 270.5t-99 398q0 225 99 398.5t280.5 269.5t417.5 96q356 0 575.5 -211.5t219.5 -552.5q0 -224 -99 -398t-280 -270.5t-416 -96.5zM840 285
q178 0 296 119t118 313q0 195 -118 313.5t-296 118.5q-179 0 -297 -118.5t-118 -313.5q0 -194 118 -313t297 -119z" />
    <glyph glyph-name="OE" unicode="&#x152;" horiz-adv-x="2556" 
d="M2488 1121h-850v-269h820v-268h-820v-272h850v-312h-1235v48q-183 -96 -413 -96q-236 0 -417.5 96.5t-280.5 270.5t-99 398q0 225 99 398.5t280.5 269.5t417.5 96q232 0 413 -95v48h1235v-313zM840 285q167 0 283 106.5t130 282.5v87q-14 176 -130 282t-283 106
q-179 0 -297 -118.5t-118 -313.5q0 -194 118 -313t297 -119z" />
    <glyph glyph-name="oe" unicode="&#x153;" horiz-adv-x="2556" 
d="M2488 1121h-850v-269h820v-268h-820v-272h850v-312h-1235v48q-183 -96 -413 -96q-236 0 -417.5 96.5t-280.5 270.5t-99 398q0 225 99 398.5t280.5 269.5t417.5 96q232 0 413 -95v48h1235v-313zM840 285q167 0 283 106.5t130 282.5v87q-14 176 -130 282t-283 106
q-179 0 -297 -118.5t-118 -313.5q0 -194 118 -313t297 -119z" />
    <glyph glyph-name="Racute" unicode="&#x154;" horiz-adv-x="1520" 
d="M1038 1806l-122 -287h-343l122 287h343zM1483 0h-380l-221 408h-428v-408h-386v1434h777q292 0 445.5 -132.5t153.5 -391.5q0 -144 -62 -252t-170 -172zM454 1113v-413h367q117 0 178 52.5t61 153.5t-61.5 154t-177.5 53h-367z" />
    <glyph glyph-name="racute" unicode="&#x155;" horiz-adv-x="1520" 
d="M1038 1806l-122 -287h-343l122 287h343zM1483 0h-380l-221 408h-428v-408h-386v1434h777q292 0 445.5 -132.5t153.5 -391.5q0 -144 -62 -252t-170 -172zM454 1113v-413h367q117 0 178 52.5t61 153.5t-61.5 154t-177.5 53h-367z" />
    <glyph glyph-name="Rcommaaccent" unicode="&#x156;" horiz-adv-x="1520" 
d="M1212 486l271 -486h-380l-221 408h-428v-408h-386v1434h777q292 0 445.5 -132.5t153.5 -391.5q0 -144 -62 -252t-170 -172zM454 1113v-413h367q117 0 178 52.5t61 153.5t-61.5 154t-177.5 53h-367zM539 -393v285h420v-66q0 -206 -24.5 -355.5t-57.5 -214.5h-211
q26 149 22 351h-149z" />
    <glyph glyph-name="rcommaaccent" unicode="&#x157;" horiz-adv-x="1520" 
d="M1212 486l271 -486h-380l-221 408h-428v-408h-386v1434h777q292 0 445.5 -132.5t153.5 -391.5q0 -144 -62 -252t-170 -172zM454 1113v-413h367q117 0 178 52.5t61 153.5t-61.5 154t-177.5 53h-367zM539 -393v285h420v-66q0 -206 -24.5 -355.5t-57.5 -214.5h-211
q26 149 22 351h-149z" />
    <glyph glyph-name="Rcaron" unicode="&#x158;" horiz-adv-x="1520" 
d="M981 1480h-469l-230 286h327l92 -102h91l92 102h328zM1483 0h-380l-221 408h-428v-408h-386v1434h777q292 0 445.5 -132.5t153.5 -391.5q0 -144 -62 -252t-170 -172zM454 1113v-413h367q117 0 178 52.5t61 153.5t-61.5 154t-177.5 53h-367z" />
    <glyph glyph-name="rcaron" unicode="&#x159;" horiz-adv-x="1520" 
d="M981 1480h-469l-230 286h327l92 -102h91l92 102h328zM1483 0h-380l-221 408h-428v-408h-386v1434h777q292 0 445.5 -132.5t153.5 -391.5q0 -144 -62 -252t-170 -172zM454 1113v-413h367q117 0 178 52.5t61 153.5t-61.5 154t-177.5 53h-367z" />
    <glyph glyph-name="Sacute" unicode="&#x15a;" horiz-adv-x="1455" 
d="M555 1519l121 287h343l-121 -287h-343zM719 -48q-347 0 -518 123t-167 381h348q7 -94 90.5 -147t246.5 -53q152 -1 233.5 43t81.5 119q0 63 -52 100.5t-170 56.5l-179 31q-55 9 -92 16t-88.5 19.5t-87 25t-78.5 31.5t-71.5 41t-58 53t-46.5 67t-28 82t-11 100
q0 208 168.5 324t479.5 116q120 0 217.5 -15.5t180.5 -52t139 -93.5t87.5 -142t31.5 -195h-345q-33 196 -318 196q-134 0 -202.5 -41t-68.5 -114q0 -117 188 -148l155 -28q19 -3 57 -10q76 -13 116.5 -20.5t111.5 -26t111 -37.5t91.5 -52t78.5 -72.5t46.5 -96.5t19.5 -127
q0 -223 -177 -339t-521 -115z" />
    <glyph glyph-name="sacute" unicode="&#x15b;" horiz-adv-x="1455" 
d="M555 1519l121 287h343l-121 -287h-343zM719 -48q-347 0 -518 123t-167 381h348q7 -94 90.5 -147t246.5 -53q152 -1 233.5 43t81.5 119q0 63 -52 100.5t-170 56.5l-179 31q-55 9 -92 16t-88.5 19.5t-87 25t-78.5 31.5t-71.5 41t-58 53t-46.5 67t-28 82t-11 100
q0 208 168.5 324t479.5 116q120 0 217.5 -15.5t180.5 -52t139 -93.5t87.5 -142t31.5 -195h-345q-33 196 -318 196q-134 0 -202.5 -41t-68.5 -114q0 -117 188 -148l155 -28q19 -3 57 -10q76 -13 116.5 -20.5t111.5 -26t111 -37.5t91.5 -52t78.5 -72.5t46.5 -96.5t19.5 -127
q0 -223 -177 -339t-521 -115z" />
    <glyph glyph-name="Scedilla" unicode="&#x15e;" horiz-adv-x="1455" 
d="M1417 406q0 -213 -162 -329t-477 -125l-20 -15q79 -8 135 -56t56 -135q0 -64 -34 -111t-90.5 -69.5t-130.5 -28.5t-153 12v159q66 -13 108 -9.5t61.5 15t19.5 27.5q0 18 -19.5 31.5t-61.5 17.5t-108 -14v108l85 70q-300 15 -448 138t-144 364h348q7 -94 90.5 -147
t246.5 -53q152 -1 233.5 43t81.5 119q0 63 -52 100.5t-170 56.5l-179 31q-55 9 -92 16t-88.5 19.5t-87 25t-78.5 31.5t-71.5 41t-58 53t-46.5 67t-28 82t-11 100q0 208 168.5 324t479.5 116q120 0 217.5 -15.5t180.5 -52t139 -93.5t87.5 -142t31.5 -195h-345
q-33 196 -318 196q-134 0 -202.5 -41t-68.5 -114q0 -117 188 -148l155 -28q19 -3 57 -10q76 -13 116.5 -20.5t111.5 -26t111 -37.5t91.5 -52t78.5 -72.5t46.5 -96.5t19.5 -127z" />
    <glyph glyph-name="scedilla" unicode="&#x15f;" horiz-adv-x="1455" 
d="M1417 406q0 -213 -162 -329t-477 -125l-20 -15q79 -8 135 -56t56 -135q0 -64 -34 -111t-90.5 -69.5t-130.5 -28.5t-153 12v159q66 -13 108 -9.5t61.5 15t19.5 27.5q0 18 -19.5 31.5t-61.5 17.5t-108 -14v108l85 70q-300 15 -448 138t-144 364h348q7 -94 90.5 -147
t246.5 -53q152 -1 233.5 43t81.5 119q0 63 -52 100.5t-170 56.5l-179 31q-55 9 -92 16t-88.5 19.5t-87 25t-78.5 31.5t-71.5 41t-58 53t-46.5 67t-28 82t-11 100q0 208 168.5 324t479.5 116q120 0 217.5 -15.5t180.5 -52t139 -93.5t87.5 -142t31.5 -195h-345
q-33 196 -318 196q-134 0 -202.5 -41t-68.5 -114q0 -117 188 -148l155 -28q19 -3 57 -10q76 -13 116.5 -20.5t111.5 -26t111 -37.5t91.5 -52t78.5 -72.5t46.5 -96.5t19.5 -127z" />
    <glyph glyph-name="Scaron" unicode="&#x160;" horiz-adv-x="1455" 
d="M785 848q19 -3 57 -10q76 -13 116.5 -20.5t111.5 -26t111 -37.5t91.5 -52t78.5 -72.5t46.5 -96.5t19.5 -127q0 -223 -177 -339t-521 -115q-347 0 -518 123t-167 381h348q7 -94 90.5 -147t246.5 -53q152 -1 233.5 43t81.5 119q0 63 -52 100.5t-170 56.5l-179 31
q-55 9 -92 16t-88.5 19.5t-87 25t-78.5 31.5t-71.5 41t-58 53t-46.5 67t-28 82t-11 100q0 195 149.5 310t427.5 129h-156l-230 286h328l92 -102h90l92 102h328l-230 -286h-166q579 -25 579 -497h-345q-33 196 -318 196q-134 0 -202.5 -41t-68.5 -114q0 -117 188 -148z" />
    <glyph glyph-name="scaron" unicode="&#x161;" horiz-adv-x="1455" 
d="M785 848q19 -3 57 -10q76 -13 116.5 -20.5t111.5 -26t111 -37.5t91.5 -52t78.5 -72.5t46.5 -96.5t19.5 -127q0 -223 -177 -339t-521 -115q-347 0 -518 123t-167 381h348q7 -94 90.5 -147t246.5 -53q152 -1 233.5 43t81.5 119q0 63 -52 100.5t-170 56.5l-179 31
q-55 9 -92 16t-88.5 19.5t-87 25t-78.5 31.5t-71.5 41t-58 53t-46.5 67t-28 82t-11 100q0 195 149.5 310t427.5 129h-156l-230 286h328l92 -102h90l92 102h328l-230 -286h-166q579 -25 579 -497h-345q-33 196 -318 196q-134 0 -202.5 -41t-68.5 -114q0 -117 188 -148z" />
    <glyph glyph-name="uni0162" unicode="&#x162;" horiz-adv-x="1565" 
d="M975 0h-82l-79 -63q79 -8 135 -56t56 -135q0 -64 -34 -111t-90.5 -69.5t-130.5 -28.5t-153 12v159q66 -13 108.5 -9.5t62 15t19.5 27.5q0 18 -19.5 31.5t-62 17.5t-108.5 -14v108l142 116h-148v1113h-531v321h1445v-321h-530v-1113z" />
    <glyph glyph-name="uni0163" unicode="&#x163;" horiz-adv-x="1565" 
d="M975 0h-82l-79 -63q79 -8 135 -56t56 -135q0 -64 -34 -111t-90.5 -69.5t-130.5 -28.5t-153 12v159q66 -13 108.5 -9.5t62 15t19.5 27.5q0 18 -19.5 31.5t-62 17.5t-108.5 -14v108l142 116h-148v1113h-531v321h1445v-321h-530v-1113z" />
    <glyph glyph-name="Tcaron" unicode="&#x164;" horiz-adv-x="1565" 
d="M1019 1480h-469l-231 286h328l92 -102h90l93 102h327zM1505 1434v-321h-530v-1113h-384v1113h-531v321h1445z" />
    <glyph glyph-name="tcaron" unicode="&#x165;" horiz-adv-x="1565" 
d="M1019 1480h-469l-231 286h328l92 -102h90l93 102h327zM1505 1434v-321h-530v-1113h-384v1113h-531v321h1445z" />
    <glyph glyph-name="Tbar" unicode="&#x166;" horiz-adv-x="1565" 
d="M1505 1113h-530v-292h366v-283h-366v-538h-384v538h-362v283h362v292h-531v321h1445v-321z" />
    <glyph glyph-name="tbar" unicode="&#x167;" horiz-adv-x="1565" 
d="M1505 1113h-530v-292h366v-283h-366v-538h-384v538h-362v283h362v292h-531v321h1445v-321z" />
    <glyph glyph-name="Umacron" unicode="&#x16a;" horiz-adv-x="1553" 
d="M418 1526v283h717v-283h-717zM777 -48q-349 0 -529 162t-180 492v828h388v-818q0 -163 80.5 -251.5t240.5 -88.5q161 0 242.5 89t81.5 251v818h384v-826q0 -656 -708 -656z" />
    <glyph glyph-name="umacron" unicode="&#x16b;" horiz-adv-x="1553" 
d="M418 1526v283h717v-283h-717zM777 -48q-349 0 -529 162t-180 492v828h388v-818q0 -163 80.5 -251.5t240.5 -88.5q161 0 242.5 89t81.5 251v818h384v-826q0 -656 -708 -656z" />
    <glyph glyph-name="Ubreve" unicode="&#x16c;" horiz-adv-x="1553" 
d="M777 1519q-199 0 -284 66t-83 221h239q0 -56 34 -87t94 -31t94 31t34 87h238q2 -155 -82 -221t-284 -66zM777 -48q-349 0 -529 162t-180 492v828h388v-818q0 -163 80.5 -251.5t240.5 -88.5q161 0 242.5 89t81.5 251v818h384v-826q0 -656 -708 -656z" />
    <glyph glyph-name="ubreve" unicode="&#x16d;" horiz-adv-x="1553" 
d="M777 1519q-199 0 -284 66t-83 221h239q0 -56 34 -87t94 -31t94 31t34 87h238q2 -155 -82 -221t-284 -66zM777 -48q-349 0 -529 162t-180 492v828h388v-818q0 -163 80.5 -251.5t240.5 -88.5q161 0 242.5 89t81.5 251v818h384v-826q0 -656 -708 -656z" />
    <glyph glyph-name="Uring" unicode="&#x16e;" horiz-adv-x="1553" 
d="M777 1410q-95 0 -161 65.5t-66 157.5q0 93 66 159.5t161 66.5t159 -66.5t64 -159.5q0 -92 -64 -157.5t-159 -65.5zM777 1579q25 0 41.5 15t14.5 41q-1 27 -16.5 41.5t-39.5 14.5q-26 0 -42 -15.5t-16 -40.5q0 -26 16 -41t42 -15zM777 -48q-349 0 -529 162t-180 492v828
h388v-818q0 -163 80.5 -251.5t240.5 -88.5q161 0 242.5 89t81.5 251v818h384v-826q0 -656 -708 -656z" />
    <glyph glyph-name="uring" unicode="&#x16f;" horiz-adv-x="1553" 
d="M777 1410q-95 0 -161 65.5t-66 157.5q0 93 66 159.5t161 66.5t159 -66.5t64 -159.5q0 -92 -64 -157.5t-159 -65.5zM777 1579q25 0 41.5 15t14.5 41q-1 27 -16.5 41.5t-39.5 14.5q-26 0 -42 -15.5t-16 -40.5q0 -26 16 -41t42 -15zM777 -48q-349 0 -529 162t-180 492v828
h388v-818q0 -163 80.5 -251.5t240.5 -88.5q161 0 242.5 89t81.5 251v818h384v-826q0 -656 -708 -656z" />
    <glyph glyph-name="Uhungarumlaut" unicode="&#x170;" horiz-adv-x="1553" 
d="M341 1529l122 287h343l-122 -287h-343zM783 1529l122 287h343l-122 -287h-343zM777 -48q-349 0 -529 162t-180 492v828h388v-818q0 -163 80.5 -251.5t240.5 -88.5q161 0 242.5 89t81.5 251v818h384v-826q0 -656 -708 -656z" />
    <glyph glyph-name="uhungarumlaut" unicode="&#x171;" horiz-adv-x="1553" 
d="M341 1529l122 287h343l-122 -287h-343zM783 1529l122 287h343l-122 -287h-343zM777 -48q-349 0 -529 162t-180 492v828h388v-818q0 -163 80.5 -251.5t240.5 -88.5q161 0 242.5 89t81.5 251v818h384v-826q0 -656 -708 -656z" />
    <glyph glyph-name="Uogonek" unicode="&#x172;" horiz-adv-x="1553" 
d="M1101 1434h384v-826q0 -566 -529 -644h-7q-11 -3 -22 -3q-147 -21 -147 -86q0 -27 25.5 -49.5t85.5 -21.5v-217q-61 0 -120.5 11.5t-119 37t-96 76.5t-36.5 121q0 84 56 135q-507 86 -507 638v828h388v-818q0 -163 80.5 -251.5t240.5 -88.5q161 0 242.5 89t81.5 251v818z
" />
    <glyph glyph-name="uogonek" unicode="&#x173;" horiz-adv-x="1553" 
d="M1101 1434h384v-826q0 -566 -529 -644h-7q-11 -3 -22 -3q-147 -21 -147 -86q0 -27 25.5 -49.5t85.5 -21.5v-217q-61 0 -120.5 11.5t-119 37t-96 76.5t-36.5 121q0 84 56 135q-507 86 -507 638v828h388v-818q0 -163 80.5 -251.5t240.5 -88.5q161 0 242.5 89t81.5 251v818z
" />
    <glyph glyph-name="Wcircumflex" unicode="&#x174;" horiz-adv-x="2146" 
d="M609 1519l231 287h469l230 -287h-327l-92 102h-91l-92 -102h-328zM345 0l-306 1434h389l203 -1023h35l250 1023h315l250 -1023h35l203 1023h389l-306 -1434h-520l-191 833h-35l-191 -833h-520z" />
    <glyph glyph-name="wcircumflex" unicode="&#x175;" horiz-adv-x="2146" 
d="M609 1519l231 287h469l230 -287h-327l-92 102h-91l-92 -102h-328zM345 0l-306 1434h389l203 -1023h35l250 1023h315l250 -1023h35l203 1023h389l-306 -1434h-520l-191 833h-35l-191 -833h-520z" />
    <glyph glyph-name="Ycircumflex" unicode="&#x176;" horiz-adv-x="1582" 
d="M746 1621l-92 -102h-328l230 287h470l230 -287h-328l-92 102h-90zM1574 1434l-591 -980v-454h-384v456l-590 978h407l357 -608h36l358 608h407z" />
    <glyph glyph-name="ycircumflex" unicode="&#x177;" horiz-adv-x="1582" 
d="M746 1621l-92 -102h-328l230 287h470l230 -287h-328l-92 102h-90zM1574 1434l-591 -980v-454h-384v456l-590 978h407l357 -608h36l358 608h407z" />
    <glyph glyph-name="Ydieresis" unicode="&#x178;" horiz-adv-x="1582" 
d="M550 1533q-63 0 -107.5 41.5t-44.5 103.5t44.5 103.5t107.5 41.5q64 0 107.5 -41.5t43.5 -103.5t-43.5 -103.5t-107.5 -41.5zM1034 1533q-64 0 -108 41.5t-44 103.5t44 103.5t108 41.5q63 0 107.5 -41.5t44.5 -103.5t-44.5 -103.5t-107.5 -41.5zM1574 1434l-591 -980
v-454h-384v456l-590 978h407l357 -608h36l358 608h407z" />
    <glyph glyph-name="Zacute" unicode="&#x179;" horiz-adv-x="1387" 
d="M521 1519l121 287h343l-121 -287h-343zM43 0v312l807 770v31h-787v321h1282v-311l-814 -771v-29h804v-323h-1292z" />
    <glyph glyph-name="zacute" unicode="&#x17a;" horiz-adv-x="1387" 
d="M521 1519l121 287h343l-121 -287h-343zM43 0v312l807 770v31h-787v321h1282v-311l-814 -771v-29h804v-323h-1292z" />
    <glyph glyph-name="Zdotaccent" unicode="&#x17b;" horiz-adv-x="1387" 
d="M693 1533q-63 0 -107.5 41.5t-44.5 103.5t44.5 103.5t107.5 41.5q64 0 108 -41.5t44 -103.5t-44 -103.5t-108 -41.5zM43 0v312l807 770v31h-787v321h1282v-311l-814 -771v-29h804v-323h-1292z" />
    <glyph glyph-name="zdotaccent" unicode="&#x17c;" horiz-adv-x="1387" 
d="M693 1533q-63 0 -107.5 41.5t-44.5 103.5t44.5 103.5t107.5 41.5q64 0 108 -41.5t44 -103.5t-44 -103.5t-108 -41.5zM43 0v312l807 770v31h-787v321h1282v-311l-814 -771v-29h804v-323h-1292z" />
    <glyph glyph-name="Zcaron" unicode="&#x17d;" horiz-adv-x="1387" 
d="M229 1766h327l93 -102h90l92 102h328l-231 -286h-469zM43 0v312l807 770v31h-787v321h1282v-311l-814 -771v-29h804v-323h-1292z" />
    <glyph glyph-name="zcaron" unicode="&#x17e;" horiz-adv-x="1387" 
d="M229 1766h327l93 -102h90l92 102h328l-231 -286h-469zM43 0v312l807 770v31h-787v321h1282v-311l-814 -771v-29h804v-323h-1292z" />
    <glyph glyph-name="florin" unicode="&#x192;" horiz-adv-x="1305" 
d="M1015 1217q-83 0 -134.5 -43t-51.5 -138v-92h400v-295h-400v-243q0 -114 -36 -199t-99.5 -134.5t-142 -73t-172.5 -23.5q-86 0 -167.5 18t-134.5 50v282q106 -44 213 -44q84 0 135 42.5t51 138.5v186h-399v295h399v147q0 115 36 200t100 134t142.5 72.5t172.5 23.5
q86 0 167.5 -17.5t134.5 -49.5v-282q-115 45 -214 45z" />
    <glyph glyph-name="uni01CD" unicode="&#x1cd;" 
d="M1068 1480h-469l-230 286h327l92 -102h91l92 102h328zM1251 0l-80 224h-676l-80 -224h-398l546 1434h540l546 -1434h-398zM597 512h471l-199 560h-70z" />
    <glyph glyph-name="uni01CE" unicode="&#x1ce;" 
d="M1068 1480h-469l-230 286h327l92 -102h91l92 102h328zM1251 0l-80 224h-676l-80 -224h-398l546 1434h540l546 -1434h-398zM597 512h471l-199 560h-70z" />
    <glyph glyph-name="uni01CF" unicode="&#x1cf;" horiz-adv-x="522" 
d="M-203 1766h328l92 -102h90l92 102h328l-230 -286h-470zM68 0v1434h386v-1434h-386z" />
    <glyph glyph-name="uni01D0" unicode="&#x1d0;" horiz-adv-x="522" 
d="M-203 1766h328l92 -102h90l92 102h328l-230 -286h-470zM68 0v1434h386v-1434h-386z" />
    <glyph glyph-name="uni01D1" unicode="&#x1d1;" horiz-adv-x="1677" 
d="M375 1773h328l92 -102h91l92 102h328l-231 -286h-469zM840 -48q-236 0 -417.5 96.5t-280.5 270.5t-99 398q0 225 99 398.5t280.5 269.5t417.5 96q356 0 575.5 -211.5t219.5 -552.5q0 -224 -99 -398t-280 -270.5t-416 -96.5zM840 285q178 0 296 119t118 313
q0 195 -118 313.5t-296 118.5q-179 0 -297 -118.5t-118 -313.5q0 -194 118 -313t297 -119z" />
    <glyph glyph-name="uni01D2" unicode="&#x1d2;" horiz-adv-x="1677" 
d="M375 1773h328l92 -102h91l92 102h328l-231 -286h-469zM840 -48q-236 0 -417.5 96.5t-280.5 270.5t-99 398q0 225 99 398.5t280.5 269.5t417.5 96q356 0 575.5 -211.5t219.5 -552.5q0 -224 -99 -398t-280 -270.5t-416 -96.5zM840 285q178 0 296 119t118 313
q0 195 -118 313.5t-296 118.5q-179 0 -297 -118.5t-118 -313.5q0 -194 118 -313t297 -119z" />
    <glyph glyph-name="uni01D3" unicode="&#x1d3;" horiz-adv-x="1553" 
d="M312 1766h328l92 -102h91l92 102h327l-230 -286h-469zM777 -48q-349 0 -529 162t-180 492v828h388v-818q0 -163 80.5 -251.5t240.5 -88.5q161 0 242.5 89t81.5 251v818h384v-826q0 -656 -708 -656z" />
    <glyph glyph-name="uni01D4" unicode="&#x1d4;" horiz-adv-x="1553" 
d="M312 1766h328l92 -102h91l92 102h327l-230 -286h-469zM777 -48q-349 0 -529 162t-180 492v828h388v-818q0 -163 80.5 -251.5t240.5 -88.5q161 0 242.5 89t81.5 251v818h384v-826q0 -656 -708 -656z" />
    <glyph glyph-name="uni01EA" unicode="&#x1ea;" horiz-adv-x="1677" 
d="M1635 717q0 -302 -174.5 -505.5t-468.5 -247.5q-28 -28 -28 -68q0 -36 25 -63t86 -26v-217q-48 0 -95 6.5t-98.5 24t-90 45t-63.5 74t-25 105.5q0 63 27 112q-312 33 -499.5 240.5t-187.5 519.5q0 225 99 398.5t280.5 269.5t417.5 96q356 0 575.5 -211.5t219.5 -552.5z
M425 717q0 -194 118 -313t297 -119q178 0 296 119t118 313q0 195 -118 313.5t-296 118.5q-179 0 -297 -118.5t-118 -313.5z" />
    <glyph glyph-name="Scommaaccent" unicode="&#x218;" horiz-adv-x="1455" 
d="M719 -48q-347 0 -518 123t-167 381h348q7 -94 90.5 -147t246.5 -53q152 -1 233.5 43t81.5 119q0 63 -52 100.5t-170 56.5l-179 31q-55 9 -92 16t-88.5 19.5t-87 25t-78.5 31.5t-71.5 41t-58 53t-46.5 67t-28 82t-11 100q0 208 168.5 324t479.5 116q120 0 217.5 -15.5
t180.5 -52t139 -93.5t87.5 -142t31.5 -195h-345q-33 196 -318 196q-134 0 -202.5 -41t-68.5 -114q0 -117 188 -148l155 -28q19 -3 57 -10q76 -13 116.5 -20.5t111.5 -26t111 -37.5t91.5 -52t78.5 -72.5t46.5 -96.5t19.5 -127q0 -223 -177 -339t-521 -115zM647 -744
q26 149 22 351h-148v285h419v-66q0 -206 -24.5 -355.5t-57.5 -214.5h-211z" />
    <glyph glyph-name="scommaaccent" unicode="&#x219;" horiz-adv-x="1455" 
d="M719 -48q-347 0 -518 123t-167 381h348q7 -94 90.5 -147t246.5 -53q152 -1 233.5 43t81.5 119q0 63 -52 100.5t-170 56.5l-179 31q-55 9 -92 16t-88.5 19.5t-87 25t-78.5 31.5t-71.5 41t-58 53t-46.5 67t-28 82t-11 100q0 208 168.5 324t479.5 116q120 0 217.5 -15.5
t180.5 -52t139 -93.5t87.5 -142t31.5 -195h-345q-33 196 -318 196q-134 0 -202.5 -41t-68.5 -114q0 -117 188 -148l155 -28q19 -3 57 -10q76 -13 116.5 -20.5t111.5 -26t111 -37.5t91.5 -52t78.5 -72.5t46.5 -96.5t19.5 -127q0 -223 -177 -339t-521 -115zM647 -744
q26 149 22 351h-148v285h419v-66q0 -206 -24.5 -355.5t-57.5 -214.5h-211z" />
    <glyph glyph-name="uni021A" unicode="&#x21a;" horiz-adv-x="1565" 
d="M60 1434h1445v-321h-530v-1113h-384v1113h-531v321zM577 -393v285h420v-66q0 -206 -24.5 -355.5t-57.5 -214.5h-212q26 149 22 351h-148z" />
    <glyph glyph-name="uni021B" unicode="&#x21b;" horiz-adv-x="1565" 
d="M60 1434h1445v-321h-530v-1113h-384v1113h-531v321zM577 -393v285h420v-66q0 -206 -24.5 -355.5t-57.5 -214.5h-212q26 149 22 351h-148z" />
    <glyph glyph-name="circumflex" unicode="&#x2c6;" horiz-adv-x="930" 
d="M0 1161l230 286h470l230 -286h-328l-92 102h-90l-92 -102h-328z" />
    <glyph glyph-name="caron" unicode="&#x2c7;" horiz-adv-x="930" 
d="M0 1408h328l92 -102h90l92 102h328l-230 -287h-470z" />
    <glyph glyph-name="breve" unicode="&#x2d8;" horiz-adv-x="733" 
d="M367 1161q-199 0 -284 65.5t-83 220.5h239q0 -56 34 -87t94 -31t94 31t34 87h239q2 -155 -82.5 -220.5t-284.5 -65.5z" />
    <glyph glyph-name="dotaccent" unicode="&#x2d9;" horiz-adv-x="303" 
d="M152 1174q-63 0 -107.5 41.5t-44.5 103.5t44.5 103.5t107.5 41.5q64 0 108 -41.5t44 -103.5t-44 -103.5t-108 -41.5z" />
    <glyph glyph-name="ring" unicode="&#x2da;" horiz-adv-x="450" 
d="M227 1051q-95 0 -161 66t-66 158q0 93 66 159t161 66t159.5 -66t64.5 -159q0 -92 -64.5 -158t-159.5 -66zM227 1220q25 0 41.5 15.5t14.5 41.5q-1 27 -16.5 41.5t-39.5 14.5q-26 0 -42 -15.5t-16 -40.5q0 -27 16 -42t42 -15z" />
    <glyph glyph-name="ogonek" unicode="&#x2db;" horiz-adv-x="413" 
d="M372 -413q-48 0 -95 6.5t-98.5 24t-90 44.5t-63.5 73.5t-25 105.5q0 56 21.5 101t58.5 73t79 47t91.5 28t87.5 12.5t75 3.5v-106q-80 0 -116 -32.5t-36 -75.5q0 -36 25 -62.5t86 -25.5v-217z" />
    <glyph glyph-name="tilde" unicode="&#x2dc;" horiz-adv-x="793" 
d="M548 1157q-47 0 -94.5 17t-79.5 37.5t-73 37.5t-77 17q-44 0 -71 -22t-32 -60h-118q-9 68 8 121t53.5 84t82.5 47t100 16q46 0 93 -17t79.5 -37.5t73.5 -37.5t77 -17q45 0 71.5 22t30.5 60h120q15 -132 -57.5 -200t-186.5 -68z" />
    <glyph glyph-name="hungarumlaut" unicode="&#x2dd;" horiz-adv-x="870" 
d="M0 1161l121 286h343l-121 -286h-343zM442 1161l121 286h343l-121 -286h-343z" />
    <glyph glyph-name="uni0326" unicode="&#x326;" horiz-adv-x="0" 
d="M-299 -744q27 154 23 351h-149v285h420v-66q0 -206 -24.5 -355.5t-57.5 -214.5h-212z" />
    <glyph glyph-name="uni0394" unicode="&#x394;" 
d="M1103 1434l546 -1434h-1632l546 1434h540zM529 311h608l-280 759h-46z" />
    <glyph glyph-name="uni03A9" unicode="&#x3a9;" horiz-adv-x="1634" 
d="M43 0v299h208v56q-92 91 -143.5 212t-51.5 257t54 256.5t151 209t241 140t315 51.5q172 0 316 -51.5t241 -140t151 -209t54 -256.5t-50.5 -257.5t-142.5 -211.5v-56h206v-299h-611v442q92 45 153.5 127.5t61.5 208.5q0 152 -104.5 261.5t-274.5 109.5q-168 0 -273 -109.5
t-105 -261.5q0 -126 61.5 -208.5t153.5 -127.5v-442h-611z" />
    <glyph glyph-name="uni03BC" unicode="&#x3bc;" horiz-adv-x="1343" 
d="M889 1161h386v-1161h-377l-9 157h-37q-58 -88 -156.5 -135.5t-207.5 -47.5q-24 0 -34 2v-232h-386v1417h386v-673q0 -57 18 -98.5t48.5 -63t65 -31.5t74.5 -10q106 0 167.5 59.5t61.5 119.5v697z" />
    <glyph glyph-name="pi" unicode="&#x3c0;" horiz-adv-x="1612" 
d="M1449 309q23 0 55 7.5t41 7.5v-266q-64 -72 -238 -72q-75 0 -133 16.5t-103.5 54t-70 103.5t-24.5 159v562h-372v-881h-386v881h-150v280h1442v-280h-150v-490q0 -42 24 -62t65 -20z" />
    <glyph glyph-name="Wgrave" unicode="&#x1e80;" horiz-adv-x="2146" 
d="M1249 1519h-343l-121 287h343zM345 0l-306 1434h389l203 -1023h35l250 1023h315l250 -1023h35l203 1023h389l-306 -1434h-520l-191 833h-35l-191 -833h-520z" />
    <glyph glyph-name="wgrave" unicode="&#x1e81;" horiz-adv-x="2146" 
d="M1249 1519h-343l-121 287h343zM345 0l-306 1434h389l203 -1023h35l250 1023h315l250 -1023h35l203 1023h389l-306 -1434h-520l-191 833h-35l-191 -833h-520z" />
    <glyph glyph-name="Wacute" unicode="&#x1e82;" horiz-adv-x="2146" 
d="M903 1519l121 287h343l-121 -287h-343zM345 0l-306 1434h389l203 -1023h35l250 1023h315l250 -1023h35l203 1023h389l-306 -1434h-520l-191 833h-35l-191 -833h-520z" />
    <glyph glyph-name="wacute" unicode="&#x1e83;" horiz-adv-x="2146" 
d="M903 1519l121 287h343l-121 -287h-343zM345 0l-306 1434h389l203 -1023h35l250 1023h315l250 -1023h35l203 1023h389l-306 -1434h-520l-191 833h-35l-191 -833h-520z" />
    <glyph glyph-name="Wdieresis" unicode="&#x1e84;" horiz-adv-x="2146" 
d="M833 1533q-63 0 -107.5 41.5t-44.5 103.5t44.5 103.5t107.5 41.5q64 0 108 -41.5t44 -103.5t-44 -103.5t-108 -41.5zM1318 1533q-64 0 -108 41.5t-44 103.5t44 103.5t108 41.5q62 0 106.5 -41.5t44.5 -103.5t-44.5 -103.5t-106.5 -41.5zM345 0l-306 1434h389l203 -1023
h35l250 1023h315l250 -1023h35l203 1023h389l-306 -1434h-520l-191 833h-35l-191 -833h-520z" />
    <glyph glyph-name="wdieresis" unicode="&#x1e85;" horiz-adv-x="2146" 
d="M833 1533q-63 0 -107.5 41.5t-44.5 103.5t44.5 103.5t107.5 41.5q64 0 108 -41.5t44 -103.5t-44 -103.5t-108 -41.5zM1318 1533q-64 0 -108 41.5t-44 103.5t44 103.5t108 41.5q62 0 106.5 -41.5t44.5 -103.5t-44.5 -103.5t-106.5 -41.5zM345 0l-306 1434h389l203 -1023
h35l250 1023h315l250 -1023h35l203 1023h389l-306 -1434h-520l-191 833h-35l-191 -833h-520z" />
    <glyph glyph-name="uni1E9E" unicode="&#x1e9e;" horiz-adv-x="1626" 
d="M1123 848q107 7 196.5 -28.5t146 -99.5t87.5 -145t31 -169q0 -207 -139 -325.5t-382 -118.5q-515 0 -515 437h319q5 -78 59 -126.5t132 -48.5q89 0 142 49.5t53 132.5q0 84 -57.5 137t-137.5 53q-78 0 -131 -46h-318l348 563h-317q-181 0 -181 -200v-913h-391v985
q0 127 31.5 214.5t96.5 139t155 73.5t217 22h941z" />
    <glyph glyph-name="Ygrave" unicode="&#x1ef2;" horiz-adv-x="1582" 
d="M966 1519h-343l-121 287h343zM1574 1434l-591 -980v-454h-384v456l-590 978h407l357 -608h36l358 608h407z" />
    <glyph glyph-name="ygrave" unicode="&#x1ef3;" horiz-adv-x="1582" 
d="M966 1519h-343l-121 287h343zM1574 1434l-591 -980v-454h-384v456l-590 978h407l357 -608h36l358 608h407z" />
    <glyph glyph-name="endash" unicode="&#x2013;" horiz-adv-x="1536" 
d="M68 534v323h1400v-323h-1400z" />
    <glyph glyph-name="emdash" unicode="&#x2014;" horiz-adv-x="1672" 
d="M68 534v323h1536v-323h-1536z" />
    <glyph glyph-name="quoteleft" unicode="&#x2018;" horiz-adv-x="593" 
d="M391 1434q-30 -183 -26 -398h169v-323h-474v75q0 234 27.5 403.5t64.5 242.5h239z" />
    <glyph glyph-name="quoteright" unicode="&#x2019;" horiz-adv-x="593" 
d="M203 715q30 183 26 398h-169v322h474v-75q0 -234 -27.5 -403t-64.5 -242h-239z" />
    <glyph glyph-name="quotesinglbase" unicode="&#x201a;" horiz-adv-x="593" 
d="M203 -398q30 183 26 398h-169v323h474v-76q0 -234 -27.5 -403t-64.5 -242h-239z" />
    <glyph glyph-name="quotedblleft" unicode="&#x201c;" horiz-adv-x="1054" 
d="M360 1434q-26 -168 -22 -398h152v-323h-427v75q0 233 24.5 403t57.5 243h215zM865 1434q-26 -168 -22 -398h152v-323h-427v75q0 233 24.5 403t57.5 243h215z" />
    <glyph glyph-name="quotedblright" unicode="&#x201d;" horiz-adv-x="1054" 
d="M189 715q27 174 23 398h-152v322h426v-75q0 -233 -24.5 -402.5t-57.5 -242.5h-215zM695 715q26 168 22 398h-152v322h427v-75q0 -233 -24.5 -402.5t-57.5 -242.5h-215z" />
    <glyph glyph-name="quotedblbase" unicode="&#x201e;" horiz-adv-x="1054" 
d="M189 -435q27 174 23 397h-152v323h426v-75q0 -233 -24.5 -402.5t-57.5 -242.5h-215zM695 -435q26 168 22 397h-152v323h427v-75q0 -233 -24.5 -402.5t-57.5 -242.5h-215z" />
    <glyph glyph-name="dagger" unicode="&#x2020;" horiz-adv-x="1269" 
d="M1184 1193v-306h-389v-389h-321v389h-389v306h389v389h321v-389h389z" />
    <glyph glyph-name="daggerdbl" unicode="&#x2021;" horiz-adv-x="1269" 
d="M795 393h389v-306h-389v-389h-321v389h-389v306h389v494h-389v306h389v389h321v-389h389v-306h-389v-494z" />
    <glyph glyph-name="bullet" unicode="&#x2022;" horiz-adv-x="972" 
d="M486 401q-129 0 -222 93.5t-93 222.5q0 130 93 223.5t222 93.5t222.5 -93.5t93.5 -223.5q0 -129 -93.5 -222.5t-222.5 -93.5z" />
    <glyph glyph-name="ellipsis" unicode="&#x2026;" horiz-adv-x="1605" 
d="M265 -27q-82 0 -141 58.5t-59 139.5t59 138.5t141 57.5t140.5 -57.5t58.5 -138.5t-58.5 -139.5t-140.5 -58.5zM804 -27q-82 0 -141 58.5t-59 139.5t59 138.5t141 57.5t141 -57.5t59 -138.5t-59 -139.5t-141 -58.5zM1343 -27q-82 0 -141 58.5t-59 139.5t59 138.5t141 57.5
t141 -57.5t59 -138.5t-59 -139.5t-141 -58.5z" />
    <glyph glyph-name="perthousand" unicode="&#x2030;" horiz-adv-x="2715" 
d="M568 -51l-170 116l930 1427l170 -116zM449 724q-182 0 -277 103t-95 262t95 262t277 103q181 0 275.5 -103t94.5 -262t-94.5 -262t-275.5 -103zM449 966q60 0 90.5 35t30.5 88q0 54 -30.5 88.5t-90.5 34.5t-90.5 -34.5t-30.5 -88.5q0 -53 30.5 -88t90.5 -35zM1446 -20
q-181 0 -276 103t-95 263q0 159 95 262.5t276 103.5q182 0 277 -103.5t95 -262.5q0 -160 -95 -263t-277 -103zM2265 -20q-181 0 -276 103t-95 263q0 159 95 262.5t276 103.5q182 0 277 -103.5t95 -262.5q0 -160 -95 -263t-277 -103zM1446 224q60 0 90.5 34.5t30.5 87.5
q0 54 -30.5 88t-90.5 34t-91 -34.5t-31 -87.5q0 -52 31 -87t91 -35zM2265 224q60 0 90.5 34.5t30.5 87.5q0 54 -30.5 88t-90.5 34t-90.5 -34t-30.5 -88q0 -53 30.5 -87.5t90.5 -34.5z" />
    <glyph glyph-name="guilsinglleft" unicode="&#x2039;" horiz-adv-x="935" 
d="M833 222h-400l-331 495l331 495h400l-331 -495z" />
    <glyph glyph-name="guilsinglright" unicode="&#x203a;" horiz-adv-x="935" 
d="M102 222l331 495l-331 495h400l331 -495l-331 -495h-400z" />
    <glyph glyph-name="Euro" unicode="&#x20ac;" horiz-adv-x="1633" 
d="M901 285q125 0 213 64t127 194h350q-18 -129 -65.5 -231.5t-113 -169t-151 -110t-174 -62t-186.5 -18.5q-284 0 -481 156t-254 419h-123v140h105q-1 9 -1 50v25h-104v140h117q51 273 250.5 436t490.5 163q98 0 186 -18t173.5 -61t151.5 -109t113.5 -168t65.5 -231h-350
q-39 129 -127 192t-213 63q-128 0 -225.5 -72t-139.5 -195h314v-140h-340v-25q0 -35 2 -50h338v-140h-304q45 -112 139.5 -177t215.5 -65z" />
    <glyph glyph-name="uni2116" unicode="&#x2116;" horiz-adv-x="1923" 
d="M1510 708q-158 0 -264 107t-106 262t105.5 261t264.5 106q160 0 265.5 -106t105.5 -261t-105.5 -262t-265.5 -107zM68 0v1434h319l294 -755h34v755h340v-1434h-319l-294 756h-34v-756h-340zM1510 954q54 0 88.5 35t34.5 88q0 51 -34.5 86t-88.5 35q-52 0 -86.5 -35
t-34.5 -86q0 -53 34.5 -88t86.5 -35zM1172 268v307h676v-307h-676z" />
    <glyph glyph-name="trademark" unicode="&#x2122;" horiz-adv-x="1438" 
d="M1120 1434h259v-639h-179v384h-19l-67 -384h-187l-67 384h-20v-384h-178v476h-186v-476h-194v476h-222v163h862l85 -449h26z" />
    <glyph glyph-name="partialdiff" unicode="&#x2202;" horiz-adv-x="1358" 
d="M652 1471q113 0 209 -23.5t182 -78.5t146 -140t95 -214.5t35 -295.5q0 -757 -653 -757q-299 0 -463.5 135t-164.5 364q0 116 43 205.5t120.5 145t179 83.5t223.5 28q240 0 357 -90q4 348 -309 348q-111 0 -185.5 -41t-91.5 -126h-310q1 148 74.5 252t204 154.5
t308.5 50.5zM669 251q127 0 202.5 59t75.5 159q0 101 -73.5 156.5t-204.5 55.5q-132 0 -207.5 -56t-75.5 -156t77 -159t206 -59z" />
    <glyph glyph-name="product" unicode="&#x220f;" horiz-adv-x="1223" 
d="M68 1536h1087v-1792h-385v1471h-316v-1471h-386v1792z" />
    <glyph glyph-name="summation" unicode="&#x2211;" horiz-adv-x="1215" 
d="M68 -256v323l550 558l-550 590v321h1079v-321h-659l533 -566v-47l-533 -535h659v-323h-1079z" />
    <glyph glyph-name="minus" unicode="&#x2212;" horiz-adv-x="1167" 
d="M85 556v323h997v-323h-997z" />
    <glyph glyph-name="radical" unicode="&#x221a;" horiz-adv-x="1411" 
d="M510 -256l-206 737h-219v321h441l191 -688h22l276 1422h311l-362 -1792h-454z" />
    <glyph glyph-name="infinity" unicode="&#x221e;" horiz-adv-x="1440" 
d="M1046 1077q154 0 231.5 -100t77.5 -258q0 -163 -77.5 -262.5t-231.5 -99.5q-56 0 -103 15t-86.5 46.5t-69 65t-65.5 83.5q-49 -68 -89 -109t-101.5 -71t-135.5 -30q-156 0 -233.5 99.5t-77.5 262.5q0 158 78 258t233 100q56 0 103.5 -15.5t87 -47t69.5 -65t66 -84.5
q36 51 65.5 84.5t69 65t86.5 47t103 15.5zM433 587q43 0 82.5 29.5t100.5 103.5q-63 72 -102 101t-81 29q-59 0 -85.5 -38t-26.5 -92q0 -59 26.5 -96t85.5 -37zM1009 587q59 0 85.5 37t26.5 96q0 54 -26.5 92t-85.5 38q-43 0 -81 -28.5t-102 -101.5q62 -75 100.5 -104
t82.5 -29z" />
    <glyph glyph-name="integral" unicode="&#x222b;" horiz-adv-x="1356" 
d="M404 -256q-86 0 -167.5 17.5t-134.5 49.5v281q113 -44 214 -44q83 0 134.5 43t51.5 138v862q0 115 36 200t99.5 134t142 72.5t172.5 23.5q86 0 167.5 -17.5t134.5 -49.5v-282q-115 45 -213 45q-83 0 -134.5 -43t-51.5 -138v-862q0 -115 -36 -200t-100 -134t-142.5 -72.5
t-172.5 -23.5z" />
    <glyph glyph-name="approxequal" unicode="&#x2248;" horiz-adv-x="1162" 
d="M768 737q-59 1 -118.5 23t-100 47.5t-91 47t-94.5 21.5q-56 0 -89 -28t-38 -75h-148q-10 85 11 151t65.5 105.5t103 59.5t125.5 20q58 0 116.5 -21t99 -46.5t91.5 -47.5t96 -23q56 2 89.5 29t38.5 73h148q10 -84 -11.5 -150t-66.5 -105t-102.5 -59.5t-124.5 -21.5z
M768 323q-59 1 -118.5 23t-100 47.5t-91 46.5t-94.5 21q-56 0 -89 -28t-38 -75h-148q-10 85 11 151t65.5 105.5t103 60t125.5 20.5q58 0 116.5 -21.5t99 -47t91.5 -47.5t96 -23q56 2 89.5 29.5t38.5 73.5h148q10 -84 -11.5 -150t-66.5 -105t-102.5 -59.5t-124.5 -21.5z" />
    <glyph glyph-name="notequal" unicode="&#x2260;" horiz-adv-x="1167" 
d="M1082 763h-292l-41 -91h333v-320h-476l-120 -267h-392l119 267h-128v320h272l41 91h-313v321h456l140 314h392l-139 -314h148v-321z" />
    <glyph glyph-name="lessequal" unicode="&#x2264;" horiz-adv-x="1167" 
d="M1070 449l-985 336v432l985 343v-333l-683 -206v-40l683 -206v-326zM85 0v323h997v-323h-997z" />
    <glyph glyph-name="greaterequal" unicode="&#x2265;" horiz-adv-x="1201" 
d="M131 449v326l683 206v40l-683 206v333l985 -343v-432zM1116 0h-997v323h997v-323z" />
    <glyph glyph-name="lozenge" unicode="&#x25ca;" horiz-adv-x="1262" 
d="M439 0q-28 0 -35 22l-312 674q-11 21 0 41l312 674q8 23 35 23h387q23 0 34 -23l311 -674q11 -20 0 -41l-311 -674q-10 -22 -34 -22h-387zM631 278l202 439l-202 440l-201 -440z" />
    <glyph glyph-name="G.ss01" horiz-adv-x="1653" 
d="M1599 770q13 -191 -35.5 -345.5t-148.5 -258t-246.5 -159t-327.5 -55.5q-178 0 -327 56.5t-252.5 156.5t-161 242.5t-57.5 309.5q0 225 100 398.5t282 269.5t416 96q131 0 248 -30t218 -91t171.5 -163t95.5 -236h-383q-37 84 -125 136t-218 52q-183 0 -303 -121
t-120 -311q0 -192 115.5 -312t300.5 -120q57 0 111 11.5t108.5 38t96.5 77.5t60 122h-396v236h778z" />
    <glyph glyph-name="i.loclTRK" horiz-adv-x="522" 
d="M261 1533q-63 0 -107.5 41.5t-44.5 103.5t44.5 103.5t107.5 41.5q64 0 108 -41.5t44 -103.5t-44 -103.5t-108 -41.5zM68 0v1434h386v-1434h-386z" />
    <glyph glyph-name="g.ss01" horiz-adv-x="1653" 
d="M1599 770q13 -191 -35.5 -345.5t-148.5 -258t-246.5 -159t-327.5 -55.5q-178 0 -327 56.5t-252.5 156.5t-161 242.5t-57.5 309.5q0 225 100 398.5t282 269.5t416 96q131 0 248 -30t218 -91t171.5 -163t95.5 -236h-383q-37 84 -125 136t-218 52q-183 0 -303 -121
t-120 -311q0 -192 115.5 -312t300.5 -120q57 0 111 11.5t108.5 38t96.5 77.5t60 122h-396v236h778z" />
    </font>
</defs>
</svg>
