<?xml version="1.0" standalone="no"?>
<!DOCTYPE svg PUBLIC "-//W3C//DTD SVG 1.1//EN" "http://www.w3.org/Graphics/SVG/1.1/DTD/svg11.dtd" >
<svg xmlns="http://www.w3.org/2000/svg" xmlns:xlink="http://www.w3.org/1999/xlink" version="1.1">
<metadata>
Created by FontForge 20201107 at Sun Jun 28 23:58:37 2026
 By www-data
(c) 2017 Connary Fagen
</metadata>
<defs>
<font id="IntegralCF-Bold" horiz-adv-x="1733" >
  <font-face 
    font-family="Integral CF Bold"
    font-weight="700"
    font-stretch="normal"
    units-per-em="2048"
    panose-1="0 0 8 0 0 0 0 0 0 0"
    ascent="1638"
    descent="-410"
    x-height="1434"
    cap-height="1434"
    bbox="-493 -802 2756 1893"
    underline-thickness="85"
    underline-position="-170"
    unicode-range="U+0020-25CA"
  />
<missing-glyph horiz-adv-x="896" 
d="M736 1536v-1792h-569v1792h569zM597 1417h-297v-60h118v-67h-119v-58h298v58h-119v67h119v60zM478 1184h-179v-186h298v62h-119v124zM418 1125v-65h-60v65h60zM597 951h-298v-60h119v-67h-119v-58h179v125h119v60zM597 843h-59v-119h-239v-60h298v179zM597 625h-179v-101
h60v41h60v-84h-180v144h-59v-203h298v203zM597 314h-298v-203h298v203zM538 254v-83h-180v83h180zM597 70h-298v-60h126l-126 -83v-60h298v60h-182l124 83h58v60z" />
    <glyph glyph-name=".notdef" horiz-adv-x="896" 
d="M736 1536v-1792h-569v1792h569zM597 1417h-297v-60h118v-67h-119v-58h298v58h-119v67h119v60zM478 1184h-179v-186h298v62h-119v124zM418 1125v-65h-60v65h60zM597 951h-298v-60h119v-67h-119v-58h179v125h119v60zM597 843h-59v-119h-239v-60h298v179zM597 625h-179v-101
h60v41h60v-84h-180v144h-59v-203h298v203zM597 314h-298v-203h298v203zM538 254v-83h-180v83h180zM597 70h-298v-60h126l-126 -83v-60h298v60h-182l124 83h58v60z" />
    <glyph glyph-name=".null" horiz-adv-x="0" 
 />
    <glyph glyph-name="nonmarkingreturn" horiz-adv-x="682" 
 />
    <glyph glyph-name="space" unicode=" " horiz-adv-x="443" 
 />
    <glyph glyph-name="exclam" unicode="!" horiz-adv-x="590" 
d="M143 543l-92 891h488l-92 -891h-304zM295 -27q-96 0 -165.5 68.5t-69.5 163.5t69.5 163.5t165.5 68.5t166 -69t70 -163t-70 -163t-166 -69z" />
    <glyph glyph-name="quotedbl" unicode="&#x22;" horiz-adv-x="1066" 
d="M118 795l-33 639h410l-32 -639h-345zM604 795l-32 639h409l-32 -639h-345z" />
    <glyph glyph-name="numbersign" unicode="#" horiz-adv-x="1447" 
d="M1396 829h-183v-201h183v-343h-183v-285h-390v285h-198v-285h-391v285h-183v343h183v201h-183v320h183v285h391v-285h198v285h390v-285h183v-320zM823 628v201h-198v-201h198z" />
    <glyph glyph-name="dollar" unicode="$" horiz-adv-x="1343" 
d="M1312 466q0 -183 -150 -282t-421 -112v-103h-147v103q-129 6 -230.5 34t-178 80.5t-117.5 135.5t-42 193h416q2 -61 42.5 -88.5t109.5 -35.5v198q-189 31 -271 57q-250 81 -276 275q-3 23 -3 48q0 174 147.5 277t402.5 114v113h147v-114q88 -5 162.5 -21t144 -49t117 -82
t75 -124t25.5 -170h-407q-2 61 -31 91.5t-86 39.5v-199q205 -22 302 -53q269 -85 269 -326zM474 963q0 -64 120 -94v179q-120 -17 -120 -85zM741 391q135 11 135 82q0 30 -30 49.5t-105 37.5v-169z" />
    <glyph glyph-name="percent" unicode="%" horiz-adv-x="1989" 
d="M631 -49l-198 133l926 1408l197 -133zM466 691q-99 0 -175.5 30t-122 83.5t-68.5 121t-23 147.5q0 79 23 146.5t68.5 120.5t122 83.5t175.5 30.5t175.5 -30.5t122 -83.5t68.5 -120.5t23 -146.5q0 -80 -23 -147.5t-68.5 -121t-122 -83.5t-175.5 -30zM466 981q46 0 69 27
t23 65t-22.5 64.5t-69.5 26.5t-69.5 -26.5t-22.5 -64.5t23 -65t69 -27zM1522 -20q-99 0 -175.5 30t-122 83.5t-68.5 121t-23 147.5q0 79 23 146t68.5 120.5t122 83.5t175.5 30t175.5 -30t122 -83.5t68.5 -120.5t23 -146q0 -80 -23 -147.5t-68.5 -121t-122 -83.5t-175.5 -30z
M1522 270q47 0 70 27.5t23 64.5q0 38 -23 64t-70 26t-69.5 -26t-22.5 -64t23 -65t69 -27z" />
    <glyph glyph-name="ampersand" unicode="&#x26;" horiz-adv-x="1751" 
d="M1708 232l-192 -271l-175 124q-224 -133 -556 -133q-342 0 -542 128t-200 348q0 129 73.5 232.5t228.5 163.5q-109 117 -109 251q0 77 39.5 147t113.5 126t193 89.5t265 33.5q144 0 259 -31t202 -95t133.5 -171t45.5 -251h-412q1 58 -16.5 99t-51 62t-72 30t-88.5 9
q-87 0 -132.5 -25.5t-45.5 -71.5q0 -37 40 -73.5t185 -140.5l348 -247q43 94 40 196h414q-4 -253 -116 -438zM833 317q81 0 157 23l-403 290q-72 -47 -72 -127q0 -64 46.5 -107.5t115.5 -61t156 -17.5z" />
    <glyph glyph-name="quotesingle" unicode="'" horiz-adv-x="580" 
d="M118 795l-33 639h410l-32 -639h-345z" />
    <glyph glyph-name="parenleft" unicode="(" horiz-adv-x="955" 
d="M896 -247q-134 0 -246.5 23t-194.5 60t-148.5 94t-109.5 115t-74.5 134.5t-48 140t-26.5 143t-12 133.5t-2 121q0 66 2 120t12 133t26.5 142.5t48 139.5t74.5 134t109.5 115t148.5 94t194.5 60t246.5 23v-388q-79 0 -141.5 -15t-106.5 -40.5t-76 -67t-51.5 -86.5
t-30.5 -107t-15 -121.5t-4 -135.5q0 -77 4 -136.5t15 -122t30.5 -108t51.5 -87t76 -67.5t106.5 -41t141.5 -15v-387z" />
    <glyph glyph-name="parenright" unicode=")" horiz-adv-x="955" 
d="M60 -247v387q79 0 141.5 15t106.5 41t76 67.5t51.5 87t30.5 108t15 122t4 136.5q0 76 -4 135.5t-15 121.5t-30.5 107t-51.5 86.5t-76 67t-106.5 40.5t-141.5 15v388q134 0 246.5 -23t194.5 -60t148.5 -94t109.5 -115t74.5 -134t48 -139.5t26.5 -142.5t12 -133t2 -120
q0 -67 -2 -121t-12 -133.5t-26.5 -143t-48 -140t-74.5 -134.5t-109.5 -115t-148.5 -94t-194.5 -60t-246.5 -23z" />
    <glyph glyph-name="asterisk" unicode="*" horiz-adv-x="1122" 
d="M1038 1079l-248 -118l248 -118l-137 -237l-223 155l20 -273h-273l20 273l-223 -155l-137 237l248 118l-248 118l137 237l223 -154l-20 272h273l-20 -272l223 154z" />
    <glyph glyph-name="plus" unicode="+" horiz-adv-x="1378" 
d="M1294 905v-374h-408v-406h-394v406h-407v374h407v407h394v-407h408z" />
    <glyph glyph-name="comma" unicode="," horiz-adv-x="658" 
d="M215 -406q26 179 22 406h-186v394h557v-87q0 -268 -32 -454t-71 -259h-290z" />
    <glyph glyph-name="hyphen" unicode="-" horiz-adv-x="1126" 
d="M68 512v394h990v-394h-990z" />
    <glyph glyph-name="period" unicode="." horiz-adv-x="590" 
d="M295 -27q-96 0 -165.5 68.5t-69.5 163.5t69.5 163.5t165.5 68.5t166 -69t70 -163t-70 -163t-166 -69z" />
    <glyph glyph-name="slash" unicode="/" horiz-adv-x="1235" 
d="M17 0l662 1434h540l-663 -1434h-539z" />
    <glyph glyph-name="zero" unicode="0" horiz-adv-x="1525" 
d="M763 -38q-350 0 -539.5 194.5t-189.5 560.5t189.5 560t539.5 194t539.5 -194t189.5 -560t-189.5 -560.5t-539.5 -194.5zM763 360q130 0 196.5 91t66.5 266t-66.5 265.5t-196.5 90.5t-196.5 -90.5t-66.5 -265.5t66.5 -266t196.5 -91z" />
    <glyph glyph-name="one" unicode="1" horiz-adv-x="1305" 
d="M934 358h303v-358h-1169v358h393v623q-116 -97 -359 -97v396q197 0 359 154h473v-1076z" />
    <glyph glyph-name="two" unicode="2" horiz-adv-x="1392" 
d="M1350 1005q0 -101 -34.5 -178t-92.5 -125t-128.5 -83.5t-147.5 -62t-144.5 -52t-124 -62.5t-82.5 -84h749v-358h-1302v213q0 98 29 180t78 138.5t112.5 103t133.5 78t140 57.5t133.5 48.5t112.5 45.5t78 52.5t29 64.5q0 115 -167 115q-29 0 -54 -3t-54.5 -12.5t-50 -26
t-34 -46t-12.5 -68.5h-461q0 261 162.5 396t482.5 135q311 0 480 -119t169 -347z" />
    <glyph glyph-name="three" unicode="3" horiz-adv-x="1445" 
d="M705 -38q-341 0 -502.5 123.5t-159.5 394.5h423q5 -82 62 -113.5t167 -31.5q116 0 178 30.5t62 88.5q0 15 -4 30t-19 36t-40 36.5t-72.5 26.5t-111.5 11h-79v266h79q63 0 109.5 9.5t71 23t39.5 32t18.5 32t3.5 28.5q0 58 -58 86t-157 28q-220 0 -220 -150h-420
q-2 267 161 394.5t483 127.5q312 0 475 -108t163 -296q0 -204 -205 -304v-24q113 -34 182 -122.5t69 -220.5q0 -204 -186 -319t-512 -115z" />
    <glyph glyph-name="four" unicode="4" horiz-adv-x="1561" 
d="M1294 601h216v-359h-216v-242h-473v242h-761v359l679 833h555v-833zM469 601h352v432z" />
    <glyph glyph-name="five" unicode="5" horiz-adv-x="1408" 
d="M689 -38q-327 0 -485 126.5t-153 380.5h420q24 -138 215 -138q119 0 178 51.5t59 127.5q0 78 -55.5 125.5t-166.5 47.5q-141 0 -220 -92h-416l162 843h1017v-357h-667l-41 -195q104 70 304 70q108 0 201.5 -29t166.5 -85.5t115 -147t42 -205.5q0 -247 -173 -385
t-503 -138z" />
    <glyph glyph-name="six" unicode="6" horiz-adv-x="1402" 
d="M795 918q97 0 181.5 -16.5t157 -52t124.5 -88t81.5 -129t29.5 -171.5q0 -230 -167.5 -364.5t-486.5 -134.5q-158 0 -278.5 40.5t-195.5 109t-122.5 168t-66 207t-18.5 237.5q0 163 37 292t100 213.5t153 139.5t190.5 78.5t217.5 23.5q141 0 253.5 -29.5t193 -87.5
t122.5 -150t39 -211h-376q-13 66 -77.5 96.5t-154.5 30.5q-50 0 -92 -10.5t-82 -37t-61.5 -80.5t-18.5 -132q107 58 317 58zM710 311q111 0 172.5 45.5t61.5 116.5q0 73 -61 115.5t-173 42.5t-170.5 -40.5t-58.5 -117.5q0 -72 59.5 -117t169.5 -45z" />
    <glyph glyph-name="seven" unicode="7" horiz-adv-x="1329" 
d="M43 1434h1252v-381l-693 -1053h-498l696 1053h-757v381z" />
    <glyph glyph-name="eight" unicode="8" horiz-adv-x="1464" 
d="M732 -38q-152 0 -272 25t-197 67t-127.5 101.5t-71.5 123.5t-21 137q0 245 245 372v28q-64 40 -102.5 111.5t-38.5 154.5q0 175 147.5 282t437.5 107q291 0 440 -107t149 -282q0 -82 -40 -153.5t-105 -112.5v-28q246 -128 246 -372q0 -73 -21 -137t-71.5 -123.5
t-127.5 -101.5t-197.5 -67t-272.5 -25zM732 905q88 0 130.5 32t42.5 89q0 60 -45 92t-128 32t-127.5 -32t-44.5 -92q0 -121 172 -121zM732 317q122 0 176.5 43.5t54.5 115.5q0 70 -55 114.5t-176 44.5t-175.5 -44t-54.5 -115q0 -72 54 -115.5t176 -43.5z" />
    <glyph glyph-name="nine" unicode="9" horiz-adv-x="1402" 
d="M688 1471q158 0 278.5 -40.5t195.5 -108.5t122.5 -167.5t66 -207t18.5 -237.5q0 -163 -37 -292t-100 -213.5t-153 -140t-190.5 -79t-217.5 -23.5q-141 0 -253.5 29.5t-193 87.5t-122.5 150t-39 211h376q9 -45 45 -74t82.5 -40.5t104.5 -11.5q39 0 73 6t70 23t60.5 44.5
t39 75t11.5 110.5q-107 -58 -317 -58q-97 0 -181.5 16.5t-157 52t-124.5 88.5t-81.5 129.5t-29.5 171.5q0 230 167.5 364t486.5 134zM693 802q112 0 170.5 41t58.5 118q0 72 -59.5 117t-169.5 45q-111 0 -172.5 -45.5t-61.5 -116.5q0 -73 61 -116t173 -43z" />
    <glyph glyph-name="colon" unicode=":" horiz-adv-x="590" 
d="M295 840q-96 0 -165.5 68.5t-69.5 163.5t69.5 163.5t165.5 68.5t166 -69t70 -163t-70 -163t-166 -69zM295 113q-96 0 -165.5 68.5t-69.5 163.5t69.5 163.5t165.5 68.5t166 -69t70 -163t-70 -163t-166 -69z" />
    <glyph glyph-name="semicolon" unicode=";" horiz-adv-x="675" 
d="M346 840q-96 0 -165.5 68.5t-69.5 163.5t69.5 163.5t165.5 68.5t166 -69t70 -163t-70 -163t-166 -69zM224 -253q26 179 22 407h-186v394h556v-87q0 -268 -31.5 -454.5t-70.5 -259.5h-290z" />
    <glyph glyph-name="less" unicode="&#x3c;" horiz-adv-x="1208" 
d="M1123 116l-1038 328v539l1038 335v-405l-686 -177v-45l686 -177v-398z" />
    <glyph glyph-name="equal" unicode="=" horiz-adv-x="1242" 
d="M85 763v394h1072v-394h-1072zM85 278v394h1072v-394h-1072z" />
    <glyph glyph-name="greater" unicode="&#x3e;" horiz-adv-x="1242" 
d="M119 116v398l687 177v45l-687 177v405l1038 -335v-539z" />
    <glyph glyph-name="question" unicode="?" horiz-adv-x="1365" 
d="M463 529q-11 80 5.5 139t52 92.5t80.5 57.5t92 39t86.5 30.5t65 40.5t25.5 60q0 48 -52.5 78t-136.5 30q-33 0 -61.5 -4t-60.5 -16t-54.5 -31.5t-37.5 -54t-15 -80.5h-426q-12 281 158 421t494 140q202 0 347.5 -44t230 -141t84.5 -243q0 -79 -23 -137t-60.5 -92
t-82.5 -58.5t-90 -44t-82.5 -41t-61 -57t-24.5 -84.5h-453zM688 -27q-96 0 -166 69t-70 163t70 163t166 69t165.5 -68.5t69.5 -163.5t-69.5 -163.5t-165.5 -68.5z" />
    <glyph glyph-name="at" unicode="@" horiz-adv-x="1662" 
d="M1541 350q-72 -174 -262 -286t-448 -112q-235 0 -417 97.5t-281 271.5t-99 396t99 395.5t280.5 271t417.5 97.5q176 0 325.5 -57.5t252.5 -157.5t161 -236.5t58 -292.5q0 -249 -259 -249q-112 0 -158.5 48.5t-39.5 135.5l39 424h-145l-32 -75h-23q-26 28 -48 45.5
t-75.5 35.5t-121.5 18q-154 0 -261.5 -110.5t-107.5 -297.5q0 -189 108 -300.5t271 -111.5q91 0 158.5 36.5t104.5 98.5h22q33 -62 100.5 -98.5t160.5 -36.5q69 0 128.5 16.5t88.5 36.5zM787 935q82 0 131.5 -61.5t49.5 -165.5q0 -103 -49.5 -163t-131.5 -60
q-85 0 -136.5 59.5t-51.5 163.5t52 165.5t136 61.5z" />
    <glyph glyph-name="A" unicode="A" 
d="M1237 0l-63 189h-614l-63 -189h-488l527 1434h662l527 -1434h-488zM676 539h382l-150 451h-82z" />
    <glyph glyph-name="B" unicode="B" horiz-adv-x="1576" 
d="M1312 739q109 -55 165.5 -136t56.5 -199q0 -89 -33 -160.5t-103.5 -127t-190.5 -86t-284 -30.5h-863v1434h887q126 0 223.5 -22t158 -57.5t99.5 -86t54 -103t15 -112.5q0 -111 -48 -175t-137 -112v-27zM898 1072h-366v-215h366q77 0 111.5 31t34.5 75q0 47 -34.5 78
t-111.5 31zM908 362q76 0 112 37t36 84q0 48 -35.5 82t-112.5 34h-376v-237h376z" />
    <glyph glyph-name="C" unicode="C" horiz-adv-x="1629" 
d="M840 -48q-362 0 -584 210.5t-222 554.5q0 227 100.5 400.5t283.5 268.5t422 95q110 0 209 -19.5t194 -66t167 -118t122 -182.5t64 -252h-451q-29 115 -107.5 172.5t-197.5 57.5q-144 0 -240.5 -98t-96.5 -258t96.5 -258.5t240.5 -98.5q119 0 197.5 58t107.5 176h451
q-12 -119 -48 -217t-91.5 -167t-124 -120t-150.5 -80.5t-166 -43.5t-176 -14z" />
    <glyph glyph-name="D" unicode="D" horiz-adv-x="1611" 
d="M780 1434q171 0 305.5 -35.5t224.5 -98t148.5 -153.5t84 -196.5t25.5 -233.5q0 -127 -25.5 -233t-84 -197t-148.5 -153.5t-224.5 -98t-305.5 -35.5h-720v1434h720zM780 396q146 0 230 78t84 243t-84 243t-230 78h-246v-642h246z" />
    <glyph glyph-name="E" unicode="E" horiz-adv-x="1411" 
d="M60 0v1434h1292v-379h-820v-183h789v-311h-789v-182h820v-379h-1292z" />
    <glyph glyph-name="F" unicode="F" horiz-adv-x="1408" 
d="M60 0v1434h1288v-395h-816v-194h780v-342h-780v-503h-472z" />
    <glyph glyph-name="G" unicode="G" horiz-adv-x="1670" 
d="M1603 792v-792h-253l-7 189q-78 -108 -213.5 -172.5t-317.5 -64.5q-164 0 -307 55.5t-247 154.5t-164 242.5t-60 312.5q0 345 223.5 554.5t595.5 209.5q104 0 202.5 -19.5t190 -63t163 -106.5t121.5 -155.5t66 -204.5h-470q-24 59 -93.5 100t-168.5 41
q-160 0 -260.5 -97.5t-100.5 -258.5q0 -160 99 -258.5t248 -98.5q34 0 70.5 6.5t84.5 23.5t86.5 57.5t55.5 98.5h-316v246h772z" />
    <glyph glyph-name="H" unicode="H" horiz-adv-x="1621" 
d="M1089 1434h473v-1434h-473v519h-557v-519h-472v1434h472v-519h557v519z" />
    <glyph glyph-name="I" unicode="I" horiz-adv-x="592" 
d="M60 0v1434h472v-1434h-472z" />
    <glyph glyph-name="J" unicode="J" horiz-adv-x="1416" 
d="M688 -48q-118 0 -213 17t-178.5 60t-138.5 111t-86 174t-29 246h471q-2 -207 184 -207t186 248v833h473v-809q0 -188 -45 -319.5t-134 -208.5t-208.5 -111t-281.5 -34z" />
    <glyph glyph-name="K" unicode="K" horiz-adv-x="1614" 
d="M1623 0h-483l-382 510h-31l-196 -210v-300h-471v1434h471v-569h30l518 569h525l-582 -639z" />
    <glyph glyph-name="L" unicode="L" horiz-adv-x="1356" 
d="M60 0v1434h472v-1040h765v-394h-1237z" />
    <glyph glyph-name="M" unicode="M" horiz-adv-x="1812" 
d="M60 0v1434h595l234 -818h34l234 818h596v-1434h-451v635h-37l-183 -635h-352l-182 635h-38v-635h-450z" />
    <glyph glyph-name="N" unicode="N" horiz-adv-x="1641" 
d="M60 0v1434h542l477 -775h42v775h461v-1434h-531l-488 775h-42v-775h-461z" />
    <glyph glyph-name="O" unicode="O" horiz-adv-x="1693" 
d="M847 -48q-244 0 -428.5 95t-284.5 268.5t-100 401.5q0 345 222 554.5t591 209.5t590.5 -209.5t221.5 -554.5q0 -171 -58 -313t-163 -241.5t-256.5 -155t-334.5 -55.5zM847 360q147 0 245 96t98 261t-98 260.5t-245 95.5t-245.5 -95.5t-98.5 -260.5t98.5 -261t245.5 -96z
" />
    <glyph glyph-name="P" unicode="P" horiz-adv-x="1539" 
d="M60 0v1434h814q301 0 462 -138.5t161 -421.5t-161 -421.5t-460 -138.5h-344v-314h-472zM532 707h301q88 0 138 42.5t50 124.5t-49.5 124.5t-136.5 42.5h-303v-334z" />
    <glyph glyph-name="Q" unicode="Q" horiz-adv-x="1693" 
d="M1659 734q0 -274 -198 -475l188 -191q-108 -140 -263 -268l-234 214q-155 -62 -305 -62q-244 0 -428.5 95t-284.5 268.5t-100 401.5q0 345 222 554.5t591 209.5q243 0 428 -94.5t284.5 -263.5t99.5 -389zM503 717q0 -165 98.5 -261t245.5 -96t245 96t98 261t-98 260.5
t-245 95.5t-245.5 -95.5t-98.5 -260.5z" />
    <glyph glyph-name="R" unicode="R" horiz-adv-x="1583" 
d="M1550 0h-465l-194 370h-359v-370h-472v1434h821q621 0 621 -548q0 -138 -56 -242.5t-152 -172.5zM532 1041v-317h316q89 0 135 41t46 117t-46 117.5t-135 41.5h-316z" />
    <glyph glyph-name="S" unicode="S" horiz-adv-x="1506" 
d="M742 -48q-376 2 -550.5 127t-165.5 401h425q8 -156 291 -159q130 -1 197.5 31t67.5 85q0 41 -35 70.5t-131 43.5l-184 29q-199 32 -266 51q-209 57 -283 188q-48 84 -48 205q0 216 175 336.5t511 120.5q129 0 231 -15t191 -51.5t147.5 -95.5t90.5 -150.5t29 -211.5h-421
q-28 156 -278 156q-113 0 -167.5 -30.5t-54.5 -82.5q0 -86 135 -107l151 -26q31 -5 87.5 -13.5t93 -14t90.5 -16.5t90.5 -22t82.5 -29.5t76.5 -39.5t62.5 -52.5t50.5 -68.5t30.5 -86t12 -107q0 -469 -734 -466z" />
    <glyph glyph-name="T" unicode="T" horiz-adv-x="1605" 
d="M1555 1434v-395h-516v-1039h-472v1039h-516v395h1504z" />
    <glyph glyph-name="U" unicode="U" horiz-adv-x="1604" 
d="M802 -48q-373 0 -557.5 164.5t-184.5 508.5v809h476v-797q0 -289 266 -289q137 0 203.5 76t66.5 213v797h473v-806q0 -346 -185 -511t-558 -165z" />
    <glyph glyph-name="V" unicode="V" 
d="M536 0l-527 1434h488l344 -990h52l344 990h488l-527 -1434h-662z" />
    <glyph glyph-name="W" unicode="W" horiz-adv-x="2201" 
d="M312 0l-278 1434h480l153 -929h41l205 929h376l204 -929h41l154 929h479l-278 -1434h-638l-130 689h-41l-129 -689h-639z" />
    <glyph glyph-name="X" unicode="X" horiz-adv-x="1587" 
d="M0 0l497 715v24l-485 695h509l250 -384h45l251 384h508l-481 -695v-24l493 -715h-514l-257 403h-45l-257 -403h-514z" />
    <glyph glyph-name="Y" unicode="Y" horiz-adv-x="1645" 
d="M1645 1434l-587 -989v-445h-473v447l-585 987h497l307 -540h37l308 540h496z" />
    <glyph glyph-name="Z" unicode="Z" horiz-adv-x="1416" 
d="M34 0v381l734 623v35h-717v395h1331v-381l-744 -623v-36h734v-394h-1338z" />
    <glyph glyph-name="bracketleft" unicode="[" horiz-adv-x="952" 
d="M60 -230v1894h833v-394h-361v-1106h361v-394h-833z" />
    <glyph glyph-name="backslash" unicode="\" horiz-adv-x="1235" 
d="M1219 0h-540l-662 1434h539z" />
    <glyph glyph-name="bracketright" unicode="]" horiz-adv-x="952" 
d="M893 -230h-833v394h360v1106h-360v394h833v-1894z" />
    <glyph glyph-name="asciicircum" unicode="^" horiz-adv-x="1338" 
d="M68 454l328 1038h539l335 -1038h-405l-177 686h-45l-177 -686h-398z" />
    <glyph glyph-name="underscore" unicode="_" horiz-adv-x="1228" 
d="M85 -394v394h1058v-394h-1058z" />
    <glyph glyph-name="grave" unicode="`" horiz-adv-x="541" 
d="M541 1161h-418l-123 298h418z" />
    <glyph glyph-name="a" unicode="a" 
d="M1237 0l-63 189h-614l-63 -189h-488l527 1434h662l527 -1434h-488zM676 539h382l-150 451h-82z" />
    <glyph glyph-name="b" unicode="b" horiz-adv-x="1576" 
d="M1312 739q109 -55 165.5 -136t56.5 -199q0 -89 -33 -160.5t-103.5 -127t-190.5 -86t-284 -30.5h-863v1434h887q126 0 223.5 -22t158 -57.5t99.5 -86t54 -103t15 -112.5q0 -111 -48 -175t-137 -112v-27zM898 1072h-366v-215h366q77 0 111.5 31t34.5 75q0 47 -34.5 78
t-111.5 31zM908 362q76 0 112 37t36 84q0 48 -35.5 82t-112.5 34h-376v-237h376z" />
    <glyph glyph-name="c" unicode="c" horiz-adv-x="1629" 
d="M840 -48q-362 0 -584 210.5t-222 554.5q0 227 100.5 400.5t283.5 268.5t422 95q110 0 209 -19.5t194 -66t167 -118t122 -182.5t64 -252h-451q-29 115 -107.5 172.5t-197.5 57.5q-144 0 -240.5 -98t-96.5 -258t96.5 -258.5t240.5 -98.5q119 0 197.5 58t107.5 176h451
q-12 -119 -48 -217t-91.5 -167t-124 -120t-150.5 -80.5t-166 -43.5t-176 -14z" />
    <glyph glyph-name="d" unicode="d" horiz-adv-x="1611" 
d="M780 1434q171 0 305.5 -35.5t224.5 -98t148.5 -153.5t84 -196.5t25.5 -233.5q0 -127 -25.5 -233t-84 -197t-148.5 -153.5t-224.5 -98t-305.5 -35.5h-720v1434h720zM780 396q146 0 230 78t84 243t-84 243t-230 78h-246v-642h246z" />
    <glyph glyph-name="e" unicode="e" horiz-adv-x="1411" 
d="M60 0v1434h1292v-379h-820v-183h789v-311h-789v-182h820v-379h-1292z" />
    <glyph glyph-name="f" unicode="f" horiz-adv-x="1408" 
d="M60 0v1434h1288v-395h-816v-194h780v-342h-780v-503h-472z" />
    <glyph glyph-name="g" unicode="g" horiz-adv-x="1670" 
d="M1603 792v-792h-253l-7 189q-78 -108 -213.5 -172.5t-317.5 -64.5q-164 0 -307 55.5t-247 154.5t-164 242.5t-60 312.5q0 345 223.5 554.5t595.5 209.5q104 0 202.5 -19.5t190 -63t163 -106.5t121.5 -155.5t66 -204.5h-470q-24 59 -93.5 100t-168.5 41
q-160 0 -260.5 -97.5t-100.5 -258.5q0 -160 99 -258.5t248 -98.5q34 0 70.5 6.5t84.5 23.5t86.5 57.5t55.5 98.5h-316v246h772z" />
    <glyph glyph-name="h" unicode="h" horiz-adv-x="1621" 
d="M1089 1434h473v-1434h-473v519h-557v-519h-472v1434h472v-519h557v519z" />
    <glyph glyph-name="i" unicode="i" horiz-adv-x="592" 
d="M60 0v1434h472v-1434h-472z" />
    <glyph glyph-name="j" unicode="j" horiz-adv-x="1416" 
d="M688 -48q-118 0 -213 17t-178.5 60t-138.5 111t-86 174t-29 246h471q-2 -207 184 -207t186 248v833h473v-809q0 -188 -45 -319.5t-134 -208.5t-208.5 -111t-281.5 -34z" />
    <glyph glyph-name="k" unicode="k" horiz-adv-x="1614" 
d="M1623 0h-483l-382 510h-31l-196 -210v-300h-471v1434h471v-569h30l518 569h525l-582 -639z" />
    <glyph glyph-name="l" unicode="l" horiz-adv-x="1356" 
d="M60 0v1434h472v-1040h765v-394h-1237z" />
    <glyph glyph-name="m" unicode="m" horiz-adv-x="1812" 
d="M60 0v1434h595l234 -818h34l234 818h596v-1434h-451v635h-37l-183 -635h-352l-182 635h-38v-635h-450z" />
    <glyph glyph-name="n" unicode="n" horiz-adv-x="1641" 
d="M60 0v1434h542l477 -775h42v775h461v-1434h-531l-488 775h-42v-775h-461z" />
    <glyph glyph-name="o" unicode="o" horiz-adv-x="1693" 
d="M847 -48q-244 0 -428.5 95t-284.5 268.5t-100 401.5q0 345 222 554.5t591 209.5t590.5 -209.5t221.5 -554.5q0 -171 -58 -313t-163 -241.5t-256.5 -155t-334.5 -55.5zM847 360q147 0 245 96t98 261t-98 260.5t-245 95.5t-245.5 -95.5t-98.5 -260.5t98.5 -261t245.5 -96z
" />
    <glyph glyph-name="p" unicode="p" horiz-adv-x="1539" 
d="M60 0v1434h814q301 0 462 -138.5t161 -421.5t-161 -421.5t-460 -138.5h-344v-314h-472zM532 707h301q88 0 138 42.5t50 124.5t-49.5 124.5t-136.5 42.5h-303v-334z" />
    <glyph glyph-name="q" unicode="q" horiz-adv-x="1693" 
d="M1659 734q0 -274 -198 -475l188 -191q-108 -140 -263 -268l-234 214q-155 -62 -305 -62q-244 0 -428.5 95t-284.5 268.5t-100 401.5q0 345 222 554.5t591 209.5q243 0 428 -94.5t284.5 -263.5t99.5 -389zM503 717q0 -165 98.5 -261t245.5 -96t245 96t98 261t-98 260.5
t-245 95.5t-245.5 -95.5t-98.5 -260.5z" />
    <glyph glyph-name="r" unicode="r" horiz-adv-x="1583" 
d="M1550 0h-465l-194 370h-359v-370h-472v1434h821q621 0 621 -548q0 -138 -56 -242.5t-152 -172.5zM532 1041v-317h316q89 0 135 41t46 117t-46 117.5t-135 41.5h-316z" />
    <glyph glyph-name="s" unicode="s" horiz-adv-x="1506" 
d="M742 -48q-376 2 -550.5 127t-165.5 401h425q8 -156 291 -159q130 -1 197.5 31t67.5 85q0 41 -35 70.5t-131 43.5l-184 29q-199 32 -266 51q-209 57 -283 188q-48 84 -48 205q0 216 175 336.5t511 120.5q129 0 231 -15t191 -51.5t147.5 -95.5t90.5 -150.5t29 -211.5h-421
q-28 156 -278 156q-113 0 -167.5 -30.5t-54.5 -82.5q0 -86 135 -107l151 -26q31 -5 87.5 -13.5t93 -14t90.5 -16.5t90.5 -22t82.5 -29.5t76.5 -39.5t62.5 -52.5t50.5 -68.5t30.5 -86t12 -107q0 -469 -734 -466z" />
    <glyph glyph-name="t" unicode="t" horiz-adv-x="1605" 
d="M1555 1434v-395h-516v-1039h-472v1039h-516v395h1504z" />
    <glyph glyph-name="u" unicode="u" horiz-adv-x="1604" 
d="M802 -48q-373 0 -557.5 164.5t-184.5 508.5v809h476v-797q0 -289 266 -289q137 0 203.5 76t66.5 213v797h473v-806q0 -346 -185 -511t-558 -165z" />
    <glyph glyph-name="v" unicode="v" 
d="M536 0l-527 1434h488l344 -990h52l344 990h488l-527 -1434h-662z" />
    <glyph glyph-name="w" unicode="w" horiz-adv-x="2201" 
d="M312 0l-278 1434h480l153 -929h41l205 929h376l204 -929h41l154 929h479l-278 -1434h-638l-130 689h-41l-129 -689h-639z" />
    <glyph glyph-name="x" unicode="x" horiz-adv-x="1587" 
d="M0 0l497 715v24l-485 695h509l250 -384h45l251 384h508l-481 -695v-24l493 -715h-514l-257 403h-45l-257 -403h-514z" />
    <glyph glyph-name="y" unicode="y" horiz-adv-x="1645" 
d="M1645 1434l-587 -989v-445h-473v447l-585 987h497l307 -540h37l308 540h496z" />
    <glyph glyph-name="z" unicode="z" horiz-adv-x="1416" 
d="M34 0v381l734 623v35h-717v395h1331v-381l-744 -623v-36h734v-394h-1338z" />
    <glyph glyph-name="braceleft" unicode="{" horiz-adv-x="1206" 
d="M538 -230q-253 0 -253 252v434l-208 240v41l208 241v433q0 65 18 113t44 74t63 42t66 20t62 4h592v-394h-301q-71 0 -71 -58v-237l-193 -238v-41l193 -237v-237q0 -58 71 -58h301v-394h-592z" />
    <glyph glyph-name="bar" unicode="|" horiz-adv-x="592" 
d="M60 -171v1775h472v-1775h-472z" />
    <glyph glyph-name="braceright" unicode="}" horiz-adv-x="1206" 
d="M669 -230h-592v394h300q72 0 72 58v237l193 237v41l-193 238v237q0 58 -72 58h-300v394h592q33 0 62 -4t66 -20t63 -42t44 -74t18 -113v-433l208 -241v-41l-208 -240v-434q0 -252 -253 -252z" />
    <glyph glyph-name="asciitilde" unicode="~" horiz-adv-x="1218" 
d="M799 527q-58 1 -119.5 21t-104.5 43t-96.5 42t-99.5 19q-57 0 -91.5 -27t-38.5 -75h-160q-12 76 0.5 139t44 105.5t77.5 72t98.5 43t110.5 13.5q57 0 117 -19t103 -42t96.5 -42.5t99.5 -20.5q58 2 93 28.5t40 73.5h161q12 -76 -1 -138.5t-45 -105t-78 -72.5t-98 -43.5
t-109 -14.5z" />
    <glyph glyph-name="exclamdown" unicode="&#xa1;" horiz-adv-x="889" 
d="M297 1092q96 0 165.5 -68.5t69.5 -163.5t-69.5 -163.5t-165.5 -68.5t-166 69t-70 163t70 163t166 69zM145 522h304l92 -891h-488z" />
    <glyph glyph-name="cent" unicode="&#xa2;" horiz-adv-x="1488" 
d="M766 393q226 0 278 211h410q-12 -129 -57.5 -230.5t-110.5 -166.5t-152 -107.5t-177 -60t-191 -17.5q-121 0 -245 33l-26 -55h-160l49 108q-166 86 -258 243.5t-92 365.5q0 312 201.5 503t530.5 191q110 0 210 -22l21 45h160l-43 -91q303 -137 340 -512h-410
q-25 99 -93 155l-270 -583q39 -10 85 -10zM461 717q0 -150 94 -241l259 562q-22 3 -48 3q-131 0 -218 -89.5t-87 -234.5z" />
    <glyph glyph-name="sterling" unicode="&#xa3;" horiz-adv-x="1378" 
d="M700 1084q-80 0 -129.5 -39t-49.5 -105q0 -35 9 -62t34 -68t30 -51h519v-196h-499q-21 -124 -133 -191v-14h860v-358h-1307v358q80 35 137 93t75 112h-212v196h145q-25 38 -37.5 58.5t-31 58.5t-27 77t-8.5 83q0 198 174 316.5t461 118.5q201 0 349 -59.5t225 -181
t57 -290.5h-448q-6 43 -26 73t-49.5 44.5t-57.5 20.5t-60 6z" />
    <glyph glyph-name="currency" unicode="&#xa4;" horiz-adv-x="1392" 
d="M1167 975q0 -86 -32 -168l87 -87l-210 -208l-70 70q-112 -67 -244 -67q-130 0 -246 69l-71 -72l-210 208l88 89q-30 77 -30 166q0 88 36 175l-94 96l210 208l83 -82q108 62 234 62q125 0 232 -60l82 80l210 -208l-92 -92q37 -85 37 -179zM698 792q49 0 86.5 16.5
t57.5 38.5t32 50t15.5 46.5t3.5 31.5t-3.5 31.5t-15.5 47t-32 51.5t-57.5 39.5t-86.5 16.5t-87 -16.5t-57.5 -39.5t-32 -51.5t-16 -47t-3.5 -31.5t3.5 -31.5t16 -46.5t32 -50t57.5 -38.5t87 -16.5z" />
    <glyph glyph-name="yen" unicode="&#xa5;" horiz-adv-x="1645" 
d="M1645 1434l-490 -825h354v-186h-451v-68h451v-188h-451v-167h-473v167h-445v188h445v68h-445v186h350l-490 825h497l307 -540h37l308 540h496z" />
    <glyph glyph-name="brokenbar" unicode="&#xa6;" horiz-adv-x="592" 
d="M60 780v824h472v-824h-472zM60 -171v825h472v-825h-472z" />
    <glyph glyph-name="section" unicode="&#xa7;" horiz-adv-x="1510" 
d="M1353 335q127 -101 127 -291q0 -469 -734 -466q-377 2 -553 128t-167 403h428q4 -78 73.5 -119.5t218.5 -42.5q130 -1 197 31t67 85q0 94 -169 118l-177 29q-200 31 -266 49q-223 57 -295 192q-40 73 -40 174q0 192 169 286q-169 104 -169 325q0 216 175 336.5t511 120.5
q129 0 231 -15t191.5 -52t147.5 -96t90.5 -151t29.5 -213h-422q-27 158 -278 158q-113 0 -167.5 -30.5t-54.5 -81.5q0 -87 138 -111l145 -26q34 -6 88 -14t92.5 -14t91.5 -16.5t91 -21t83 -28.5t77 -39t63.5 -52t50.5 -67.5t31 -85.5t12 -107q0 -193 -127 -295zM659 515
l121 -22q61 -6 107.5 4.5t72 33t38 48t12.5 52.5q0 43 -38 82.5t-131 52.5l-141 24q-41 2 -81 -10.5t-71 -47t-31 -85.5q0 -14 6 -31.5t20 -38.5t44 -38t72 -24z" />
    <glyph glyph-name="dieresis" unicode="&#xa8;" horiz-adv-x="865" 
d="M172 1166q-72 0 -122 46t-50 117t50 117.5t122 46.5t122.5 -46.5t50.5 -117.5t-50.5 -117t-122.5 -46zM693 1166q-72 0 -122 46t-50 117t50 117.5t122 46.5t122 -46.5t50 -117.5t-50 -117t-122 -46z" />
    <glyph glyph-name="copyright" unicode="&#xa9;" horiz-adv-x="1071" 
d="M534 551q-206 0 -336 128t-130 330t130 332t336 130q209 0 339.5 -130t130.5 -332t-130.5 -330t-339.5 -128zM541 742q59 0 109.5 18.5t92 64.5t51.5 115l-135 -1q-12 -25 -24 -41t-39 -30.5t-64 -14.5q-59 0 -99 40.5t-40 115.5q0 74 40 113.5t99 39.5q53 0 80.5 -22
t46.5 -58h135q-10 67 -51 113.5t-92.5 65.5t-109.5 19q-124 0 -201 -74.5t-77 -196.5q0 -121 77 -194t201 -73z" />
    <glyph glyph-name="ordfeminine" unicode="&#xaa;" horiz-adv-x="935" 
d="M652 1434h215v-739h-215l-36 63q-85 -63 -189 -63q-146 0 -252.5 109t-106.5 264q0 156 106.5 266t252.5 110q108 0 196 -68zM451 968q45 0 74.5 29t29.5 71q0 43 -29.5 74.5t-74.5 31.5t-75.5 -31.5t-30.5 -74.5q0 -42 30.5 -71t75.5 -29z" />
    <glyph glyph-name="guillemotleft" unicode="&#xab;" horiz-adv-x="1648" 
d="M922 205h-489l-331 512l331 512h489l-331 -512zM1546 205h-488l-331 512l331 512h488l-331 -512z" />
    <glyph glyph-name="logicalnot" unicode="&#xac;" horiz-adv-x="1232" 
d="M754 468v177h-771v321h1164v-498h-393z" />
    <glyph glyph-name="uni00AD" unicode="&#xad;" horiz-adv-x="1126" 
d="M68 512v394h990v-394h-990z" />
    <glyph glyph-name="registered" unicode="&#xae;" horiz-adv-x="1071" 
d="M534 551q-206 0 -336 128t-130 330t130 332t336 130q209 0 339.5 -130t130.5 -332t-130.5 -330t-339.5 -128zM312 737h135v164h125l92 -164h147l-115 191q99 50 99 159q0 88 -59.5 136t-168.5 48h-255v-534zM447 1012v149h123q37 0 59.5 -19t22.5 -55q0 -34 -23 -54.5
t-59 -20.5h-123z" />
    <glyph glyph-name="macron" unicode="&#xaf;" horiz-adv-x="785" 
d="M0 1167v343h785v-343h-785z" />
    <glyph glyph-name="degree" unicode="&#xb0;" horiz-adv-x="904" 
d="M452 666q-168 0 -279.5 110.5t-111.5 278.5t111.5 278.5t279.5 110.5t279.5 -110.5t111.5 -278.5t-111.5 -278.5t-279.5 -110.5zM452 963q51 0 73.5 30t22.5 62t-22.5 62t-73.5 30t-73 -30t-22 -62t22 -62t73 -30z" />
    <glyph glyph-name="plusminus" unicode="&#xb1;" horiz-adv-x="1240" 
d="M884 1251h408v-374h-408v-406h-394v406h-406v374h406v408h394v-408zM84 0v394h1071v-394h-1071z" />
    <glyph glyph-name="acute" unicode="&#xb4;" horiz-adv-x="541" 
d="M0 1161l123 298h418l-123 -298h-418z" />
    <glyph glyph-name="uni00B5" unicode="&#xb5;" horiz-adv-x="1413" 
d="M881 1161h472v-1161h-464l-8 152h-45q-53 -80 -135 -124t-169 -52v-232h-472v1417h472v-640q0 -53 18 -89.5t48 -52t55.5 -21t54.5 -5.5q79 0 126 44.5t47 104.5v659z" />
    <glyph glyph-name="paragraph" unicode="&#xb6;" horiz-adv-x="2176" 
d="M964 0v328h-251q-326 0 -502.5 136.5t-176.5 416.5t177 416.5t504 136.5h722v-1434h-473zM1644 0v1434h472v-1434h-472z" />
    <glyph glyph-name="periodcentered" unicode="&#xb7;" horiz-adv-x="744" 
d="M372 485q-96 0 -165.5 68.5t-69.5 163.5t69.5 163.5t165.5 68.5t166 -69t70 -163t-70 -163t-166 -69z" />
    <glyph glyph-name="cedilla" unicode="&#xb8;" horiz-adv-x="440" 
d="M242 -58q80 -6 139 -56t59 -140q0 -66 -36 -114.5t-96.5 -72t-140 -29.5t-167.5 14v180q68 -15 110 -13t60.5 10t18.5 18q0 12 -18.5 23t-60.5 15t-110 -13v113l160 123h159z" />
    <glyph glyph-name="ordmasculine" unicode="&#xba;" horiz-adv-x="877" 
d="M439 698q-154 0 -262.5 108t-108.5 262q0 157 108.5 266.5t262.5 109.5t262 -109.5t108 -266.5q0 -154 -108 -262t-262 -108zM439 968q44 0 73 27.5t29 72.5q0 46 -29 76t-73 30t-73.5 -30t-29.5 -76q0 -45 29.5 -72.5t73.5 -27.5z" />
    <glyph glyph-name="guillemotright" unicode="&#xbb;" horiz-adv-x="1648" 
d="M102 205l331 512l-331 512h489l331 -512l-331 -512h-489zM727 205l331 512l-331 512h488l331 -512l-331 -512h-488z" />
    <glyph glyph-name="questiondown" unicode="&#xbf;" horiz-adv-x="1382" 
d="M695 1092q96 0 165.5 -68.5t69.5 -163.5t-69.5 -163.5t-165.5 -68.5t-166 69t-70 163t70 163t166 69zM920 536q11 -80 -5.5 -139t-52 -92.5t-80.5 -57.5t-92.5 -39t-87 -30.5t-65 -40.5t-25.5 -60q0 -48 52.5 -78t136.5 -30q33 0 61.5 4t60.5 16t54.5 31.5t37.5 54
t15 80.5h427q12 -281 -158 -421t-494 -140q-202 0 -347.5 44t-230 141t-84.5 243q0 79 23 137t60.5 92t82 58.5t89.5 44t82.5 41t61 57t24.5 84.5h454z" />
    <glyph glyph-name="Agrave" unicode="&#xc0;" 
d="M1080 1519h-418l-123 299h418zM1237 0l-63 189h-614l-63 -189h-488l527 1434h662l527 -1434h-488zM676 539h382l-150 451h-82z" />
    <glyph glyph-name="Aacute" unicode="&#xc1;" 
d="M1196 1818l-123 -299h-418l123 299h418zM1237 0l-63 189h-614l-63 -189h-488l527 1434h662l527 -1434h-488zM676 539h382l-150 451h-82z" />
    <glyph glyph-name="Acircumflex" unicode="&#xc2;" 
d="M819 1603l-71 -84h-391l225 299h570l225 -299h-391l-71 84h-96zM1237 0l-63 189h-614l-63 -189h-488l527 1434h662l527 -1434h-488zM676 539h382l-150 451h-82z" />
    <glyph glyph-name="Atilde" unicode="&#xc3;" 
d="M577 1533h-128q-12 76 6.5 135t58.5 93.5t90.5 52t108.5 17.5q46 0 94.5 -15.5t83 -34t77.5 -34t80 -15.5q46 0 74 22t32 60h128q12 -76 -6.5 -135t-58.5 -93.5t-91 -52t-109 -17.5t-118.5 25t-115.5 49.5t-100 24.5q-46 0 -74 -22t-32 -60zM1237 0l-63 189h-614
l-63 -189h-488l527 1434h662l527 -1434h-488zM676 539h382l-150 451h-82z" />
    <glyph glyph-name="Adieresis" unicode="&#xc4;" 
d="M606 1524q-72 0 -122.5 46.5t-50.5 117.5t50.5 117.5t122.5 46.5t122 -46.5t50 -117.5t-50 -117.5t-122 -46.5zM1126 1524q-72 0 -122 46.5t-50 117.5t50 117.5t122 46.5t122.5 -46.5t50.5 -117.5t-50.5 -117.5t-122.5 -46.5zM1237 0l-63 189h-614l-63 -189h-488
l527 1434h662l527 -1434h-488zM676 539h382l-150 451h-82z" />
    <glyph glyph-name="Aring" unicode="&#xc5;" 
d="M1237 0l-63 189h-614l-63 -189h-488l527 1434h220q-61 30 -97 87.5t-36 127.5q0 102 70.5 173t173.5 71t172 -71t69 -173q0 -70 -36 -128t-96 -87h222l527 -1434h-488zM867 1703q-23 0 -37 -14t-14 -37q0 -51 51 -51q24 0 38.5 13t12.5 38q-4 51 -51 51zM676 539h382
l-150 451h-82z" />
    <glyph glyph-name="AE" unicode="&#xc6;" horiz-adv-x="2384" 
d="M2324 1055h-819v-183h789v-311h-789v-182h819v-379h-1291v193h-461l-87 -193h-476l645 1434h1670v-379zM727 539h306v500h-82z" />
    <glyph glyph-name="Ccedilla" unicode="&#xc7;" horiz-adv-x="1629" 
d="M840 360q119 0 197.5 58t107.5 176h451q-13 -134 -58 -241t-110 -178t-152 -120t-179.5 -72.5t-195.5 -28.5l-15 -12q80 -6 139 -56t59 -140q0 -66 -36 -114.5t-97 -72t-140.5 -29.5t-167.5 14v180q68 -15 110.5 -13t61 10t18.5 18q0 12 -18.5 23t-61 15t-110.5 -13v113
l103 79q-324 29 -518 235t-194 526q0 227 100.5 400.5t283.5 268.5t422 95q110 0 209 -19.5t194 -66t167 -118t122 -182.5t64 -252h-451q-29 115 -107.5 172.5t-197.5 57.5q-144 0 -240.5 -98t-96.5 -258t96.5 -258.5t240.5 -98.5z" />
    <glyph glyph-name="Egrave" unicode="&#xc8;" horiz-adv-x="1411" 
d="M906 1519h-418l-123 299h418zM60 0v1434h1292v-379h-820v-183h789v-311h-789v-182h820v-379h-1292z" />
    <glyph glyph-name="Eacute" unicode="&#xc9;" horiz-adv-x="1411" 
d="M481 1519l123 299h418l-123 -299h-418zM60 0v1434h1292v-379h-820v-183h789v-311h-789v-182h820v-379h-1292z" />
    <glyph glyph-name="Ecircumflex" unicode="&#xca;" horiz-adv-x="1411" 
d="M183 1519l225 299h570l225 -299h-391l-71 84h-96l-72 -84h-390zM60 0v1434h1292v-379h-820v-183h789v-311h-789v-182h820v-379h-1292z" />
    <glyph glyph-name="Edieresis" unicode="&#xcb;" horiz-adv-x="1411" 
d="M432 1524q-72 0 -122.5 46.5t-50.5 117.5t50.5 117.5t122.5 46.5t122 -46.5t50 -117.5t-50 -117.5t-122 -46.5zM952 1524q-72 0 -122 46.5t-50 117.5t50 117.5t122 46.5t122.5 -46.5t50.5 -117.5t-50.5 -117.5t-122.5 -46.5zM60 0v1434h1292v-379h-820v-183h789v-311
h-789v-182h820v-379h-1292z" />
    <glyph glyph-name="Igrave" unicode="&#xcc;" horiz-adv-x="592" 
d="M509 1519h-419l-122 299h418zM60 0v1434h472v-1434h-472z" />
    <glyph glyph-name="Iacute" unicode="&#xcd;" horiz-adv-x="592" 
d="M84 1519l123 299h418l-123 -299h-418zM60 0v1434h472v-1434h-472z" />
    <glyph glyph-name="Icircumflex" unicode="&#xce;" horiz-adv-x="592" 
d="M-215 1519l225 299h570l226 -299h-391l-72 84h-96l-71 -84h-391zM60 0v1434h472v-1434h-472z" />
    <glyph glyph-name="Idieresis" unicode="&#xcf;" horiz-adv-x="592" 
d="M34 1524q-72 0 -122 46.5t-50 117.5t50 117.5t122 46.5t122.5 -46.5t50.5 -117.5t-50.5 -117.5t-122.5 -46.5zM555 1524q-72 0 -122.5 46.5t-50.5 117.5t50.5 117.5t122.5 46.5t122 -46.5t50 -117.5t-50 -117.5t-122 -46.5zM60 0v1434h472v-1434h-472z" />
    <glyph glyph-name="Eth" unicode="&#xd0;" horiz-adv-x="1710" 
d="M879 1434q171 0 305.5 -35.5t224.5 -98t148.5 -153.5t84 -196.5t25.5 -233.5q0 -127 -25.5 -233t-84 -197t-148.5 -153.5t-224.5 -98t-305.5 -35.5h-720v541h-150v343h150v550h720zM879 396q146 0 230 78t84 243t-84 243t-230 78h-246v-154h241v-343h-241v-145h246z" />
    <glyph glyph-name="Ntilde" unicode="&#xd1;" horiz-adv-x="1641" 
d="M971 1516q-58 0 -118.5 25t-115.5 49.5t-100 24.5q-46 0 -74 -22t-32 -60h-128q-12 76 6.5 135t58.5 93.5t90.5 52t108.5 17.5q46 0 94.5 -15.5t83 -34t77.5 -34t80 -15.5q46 0 74 22t32 60h128q12 -76 -6.5 -135t-58.5 -93.5t-91 -52t-109 -17.5zM60 0v1434h542
l477 -775h42v775h461v-1434h-531l-488 775h-42v-775h-461z" />
    <glyph glyph-name="Ograve" unicode="&#xd2;" horiz-adv-x="1693" 
d="M1060 1526h-418l-123 298h418zM847 -48q-244 0 -428.5 95t-284.5 268.5t-100 401.5q0 345 222 554.5t591 209.5t590.5 -209.5t221.5 -554.5q0 -171 -58 -313t-163 -241.5t-256.5 -155t-334.5 -55.5zM847 360q147 0 245 96t98 261t-98 260.5t-245 95.5t-245.5 -95.5
t-98.5 -260.5t98.5 -261t245.5 -96z" />
    <glyph glyph-name="Oacute" unicode="&#xd3;" horiz-adv-x="1693" 
d="M635 1526l123 298h418l-123 -298h-418zM847 -48q-244 0 -428.5 95t-284.5 268.5t-100 401.5q0 345 222 554.5t591 209.5t590.5 -209.5t221.5 -554.5q0 -171 -58 -313t-163 -241.5t-256.5 -155t-334.5 -55.5zM847 360q147 0 245 96t98 261t-98 260.5t-245 95.5
t-245.5 -95.5t-98.5 -260.5t98.5 -261t245.5 -96z" />
    <glyph glyph-name="Ocircumflex" unicode="&#xd4;" horiz-adv-x="1693" 
d="M336 1526l225 298h571l225 -298h-391l-72 83h-95l-72 -83h-391zM847 -48q-244 0 -428.5 95t-284.5 268.5t-100 401.5q0 345 222 554.5t591 209.5t590.5 -209.5t221.5 -554.5q0 -171 -58 -313t-163 -241.5t-256.5 -155t-334.5 -55.5zM847 360q147 0 245 96t98 261
t-98 260.5t-245 95.5t-245.5 -95.5t-98.5 -260.5t98.5 -261t245.5 -96z" />
    <glyph glyph-name="Otilde" unicode="&#xd5;" horiz-adv-x="1693" 
d="M997 1522q-46 0 -94.5 15.5t-83 34t-77.5 34t-80 15.5q-46 0 -74 -22t-32 -60h-128q-12 76 6.5 135t58.5 94t91 52.5t109 17.5t118 -25t115 -49.5t101 -24.5t74 22t32 60h128q22 -146 -59 -222.5t-205 -76.5zM847 -48q-244 0 -428.5 95t-284.5 268.5t-100 401.5
q0 345 222 554.5t591 209.5t590.5 -209.5t221.5 -554.5q0 -171 -58 -313t-163 -241.5t-256.5 -155t-334.5 -55.5zM847 360q147 0 245 96t98 261t-98 260.5t-245 95.5t-245.5 -95.5t-98.5 -260.5t98.5 -261t245.5 -96z" />
    <glyph glyph-name="Odieresis" unicode="&#xd6;" horiz-adv-x="1693" 
d="M585 1531q-72 0 -122 46.5t-50 117.5t50 117.5t122 46.5t122.5 -46.5t50.5 -117.5t-50.5 -117.5t-122.5 -46.5zM1106 1531q-72 0 -122 46.5t-50 117.5t50 117.5t122 46.5t122 -46.5t50 -117.5t-50 -117.5t-122 -46.5zM847 -48q-244 0 -428.5 95t-284.5 268.5t-100 401.5
q0 345 222 554.5t591 209.5t590.5 -209.5t221.5 -554.5q0 -171 -58 -313t-163 -241.5t-256.5 -155t-334.5 -55.5zM847 360q147 0 245 96t98 261t-98 260.5t-245 95.5t-245.5 -95.5t-98.5 -260.5t98.5 -261t245.5 -96z" />
    <glyph glyph-name="multiply" unicode="&#xd7;" horiz-adv-x="1288" 
d="M1203 949l-288 -289l288 -288l-264 -264l-289 288l-286 -287l-280 278l288 289l-288 287l264 262l287 -286l288 288z" />
    <glyph glyph-name="Oslash" unicode="&#xd8;" horiz-adv-x="1693" 
d="M1287 1381q177 -95 274.5 -267t97.5 -397q0 -171 -58 -313t-163 -241.5t-256.5 -155t-334.5 -55.5q-109 0 -210 21l-28 -60h-285l69 148q-170 97 -264.5 267t-94.5 389q0 345 222 554.5t591 209.5q107 0 192 -17l28 58h285zM503 717q0 -142 81 -241l276 597h-13
q-147 0 -245.5 -95.5t-98.5 -260.5zM847 360q147 0 245 96t98 261q0 154 -93 254l-281 -609q10 -2 31 -2z" />
    <glyph glyph-name="Ugrave" unicode="&#xd9;" horiz-adv-x="1604" 
d="M1015 1519h-418l-123 299h419zM802 -48q-373 0 -557.5 164.5t-184.5 508.5v809h476v-797q0 -289 266 -289q137 0 203.5 76t66.5 213v797h473v-806q0 -346 -185 -511t-558 -165z" />
    <glyph glyph-name="Uacute" unicode="&#xda;" horiz-adv-x="1604" 
d="M591 1519l122 299h419l-123 -299h-418zM802 -48q-373 0 -557.5 164.5t-184.5 508.5v809h476v-797q0 -289 266 -289q137 0 203.5 76t66.5 213v797h473v-806q0 -346 -185 -511t-558 -165z" />
    <glyph glyph-name="Ucircumflex" unicode="&#xdb;" horiz-adv-x="1604" 
d="M292 1519l225 299h570l225 -299h-390l-72 84h-96l-71 -84h-391zM802 -48q-373 0 -557.5 164.5t-184.5 508.5v809h476v-797q0 -289 266 -289q137 0 203.5 76t66.5 213v797h473v-806q0 -346 -185 -511t-558 -165z" />
    <glyph glyph-name="Udieresis" unicode="&#xdc;" horiz-adv-x="1604" 
d="M541 1524q-72 0 -122 46.5t-50 117.5t50 117.5t122 46.5t122 -46.5t50 -117.5t-50 -117.5t-122 -46.5zM1062 1524q-72 0 -122.5 46.5t-50.5 117.5t50.5 117.5t122.5 46.5t122 -46.5t50 -117.5t-50 -117.5t-122 -46.5zM802 -48q-373 0 -557.5 164.5t-184.5 508.5v809h476
v-797q0 -289 266 -289q137 0 203.5 76t66.5 213v797h473v-806q0 -346 -185 -511t-558 -165z" />
    <glyph glyph-name="Yacute" unicode="&#xdd;" horiz-adv-x="1645" 
d="M1152 1818l-123 -299h-418l123 299h418zM1645 1434l-587 -989v-445h-473v447l-585 987h497l307 -540h37l308 540h496z" />
    <glyph glyph-name="Thorn" unicode="&#xde;" horiz-adv-x="1505" 
d="M782 1270q327 0 504 -136.5t177 -416.5t-177 -416.5t-503 -136.5h-251v-164h-472v1434h472v-164h250zM792 556q90 0 142 39.5t52 121.5q0 80 -51.5 120t-140.5 40h-262v-321h260z" />
    <glyph glyph-name="germandbls" unicode="&#xdf;" horiz-adv-x="1518" 
d="M60 0v956q0 117 37 208t98.5 148t149 93.5t180.5 51t202 14.5q145 0 260 -24.5t187 -64t119.5 -93.5t66.5 -110t19 -117q0 -181 -162 -272v-31q259 -95 259 -348q0 -88 -33.5 -159.5t-105 -129.5t-196 -90t-293.5 -32h-222v357h210q93 0 133 36.5t40 89.5
q0 50 -40.5 87.5t-132.5 37.5h-210v254h169q75 0 108.5 29.5t33.5 65.5q0 51 -43 82t-140 31q-222 0 -222 -138v-932h-472z" />
    <glyph glyph-name="agrave" unicode="&#xe0;" 
d="M1080 1519h-418l-123 299h418zM1237 0l-63 189h-614l-63 -189h-488l527 1434h662l527 -1434h-488zM676 539h382l-150 451h-82z" />
    <glyph glyph-name="aacute" unicode="&#xe1;" 
d="M1196 1818l-123 -299h-418l123 299h418zM1237 0l-63 189h-614l-63 -189h-488l527 1434h662l527 -1434h-488zM676 539h382l-150 451h-82z" />
    <glyph glyph-name="acircumflex" unicode="&#xe2;" 
d="M819 1603l-71 -84h-391l225 299h570l225 -299h-391l-71 84h-96zM1237 0l-63 189h-614l-63 -189h-488l527 1434h662l527 -1434h-488zM676 539h382l-150 451h-82z" />
    <glyph glyph-name="atilde" unicode="&#xe3;" 
d="M577 1533h-128q-12 76 6.5 135t58.5 93.5t90.5 52t108.5 17.5q46 0 94.5 -15.5t83 -34t77.5 -34t80 -15.5q46 0 74 22t32 60h128q12 -76 -6.5 -135t-58.5 -93.5t-91 -52t-109 -17.5t-118.5 25t-115.5 49.5t-100 24.5q-46 0 -74 -22t-32 -60zM1237 0l-63 189h-614
l-63 -189h-488l527 1434h662l527 -1434h-488zM676 539h382l-150 451h-82z" />
    <glyph glyph-name="adieresis" unicode="&#xe4;" 
d="M606 1524q-72 0 -122.5 46.5t-50.5 117.5t50.5 117.5t122.5 46.5t122 -46.5t50 -117.5t-50 -117.5t-122 -46.5zM1126 1524q-72 0 -122 46.5t-50 117.5t50 117.5t122 46.5t122.5 -46.5t50.5 -117.5t-50.5 -117.5t-122.5 -46.5zM1237 0l-63 189h-614l-63 -189h-488
l527 1434h662l527 -1434h-488zM676 539h382l-150 451h-82z" />
    <glyph glyph-name="aring" unicode="&#xe5;" 
d="M1237 0l-63 189h-614l-63 -189h-488l527 1434h220q-61 30 -97 87.5t-36 127.5q0 102 70.5 173t173.5 71t172 -71t69 -173q0 -70 -36 -128t-96 -87h222l527 -1434h-488zM867 1703q-23 0 -37 -14t-14 -37q0 -51 51 -51q24 0 38.5 13t12.5 38q-4 51 -51 51zM676 539h382
l-150 451h-82z" />
    <glyph glyph-name="ae" unicode="&#xe6;" horiz-adv-x="2384" 
d="M2324 1055h-819v-183h789v-311h-789v-182h819v-379h-1291v193h-461l-87 -193h-476l645 1434h1670v-379zM727 539h306v500h-82z" />
    <glyph glyph-name="ccedilla" unicode="&#xe7;" horiz-adv-x="1629" 
d="M840 360q119 0 197.5 58t107.5 176h451q-13 -134 -58 -241t-110 -178t-152 -120t-179.5 -72.5t-195.5 -28.5l-15 -12q80 -6 139 -56t59 -140q0 -66 -36 -114.5t-97 -72t-140.5 -29.5t-167.5 14v180q68 -15 110.5 -13t61 10t18.5 18q0 12 -18.5 23t-61 15t-110.5 -13v113
l103 79q-324 29 -518 235t-194 526q0 227 100.5 400.5t283.5 268.5t422 95q110 0 209 -19.5t194 -66t167 -118t122 -182.5t64 -252h-451q-29 115 -107.5 172.5t-197.5 57.5q-144 0 -240.5 -98t-96.5 -258t96.5 -258.5t240.5 -98.5z" />
    <glyph glyph-name="egrave" unicode="&#xe8;" horiz-adv-x="1411" 
d="M906 1519h-418l-123 299h418zM60 0v1434h1292v-379h-820v-183h789v-311h-789v-182h820v-379h-1292z" />
    <glyph glyph-name="eacute" unicode="&#xe9;" horiz-adv-x="1411" 
d="M481 1519l123 299h418l-123 -299h-418zM60 0v1434h1292v-379h-820v-183h789v-311h-789v-182h820v-379h-1292z" />
    <glyph glyph-name="ecircumflex" unicode="&#xea;" horiz-adv-x="1411" 
d="M183 1519l225 299h570l225 -299h-391l-71 84h-96l-72 -84h-390zM60 0v1434h1292v-379h-820v-183h789v-311h-789v-182h820v-379h-1292z" />
    <glyph glyph-name="edieresis" unicode="&#xeb;" horiz-adv-x="1411" 
d="M432 1524q-72 0 -122.5 46.5t-50.5 117.5t50.5 117.5t122.5 46.5t122 -46.5t50 -117.5t-50 -117.5t-122 -46.5zM952 1524q-72 0 -122 46.5t-50 117.5t50 117.5t122 46.5t122.5 -46.5t50.5 -117.5t-50.5 -117.5t-122.5 -46.5zM60 0v1434h1292v-379h-820v-183h789v-311
h-789v-182h820v-379h-1292z" />
    <glyph glyph-name="igrave" unicode="&#xec;" horiz-adv-x="592" 
d="M509 1519h-419l-122 299h418zM60 0v1434h472v-1434h-472z" />
    <glyph glyph-name="iacute" unicode="&#xed;" horiz-adv-x="592" 
d="M84 1519l123 299h418l-123 -299h-418zM60 0v1434h472v-1434h-472z" />
    <glyph glyph-name="icircumflex" unicode="&#xee;" horiz-adv-x="592" 
d="M-215 1519l225 299h570l226 -299h-391l-72 84h-96l-71 -84h-391zM60 0v1434h472v-1434h-472z" />
    <glyph glyph-name="idieresis" unicode="&#xef;" horiz-adv-x="592" 
d="M34 1524q-72 0 -122 46.5t-50 117.5t50 117.5t122 46.5t122.5 -46.5t50.5 -117.5t-50.5 -117.5t-122.5 -46.5zM555 1524q-72 0 -122.5 46.5t-50.5 117.5t50.5 117.5t122.5 46.5t122 -46.5t50 -117.5t-50 -117.5t-122 -46.5zM60 0v1434h472v-1434h-472z" />
    <glyph glyph-name="eth" unicode="&#xf0;" horiz-adv-x="1710" 
d="M879 1434q171 0 305.5 -35.5t224.5 -98t148.5 -153.5t84 -196.5t25.5 -233.5q0 -127 -25.5 -233t-84 -197t-148.5 -153.5t-224.5 -98t-305.5 -35.5h-720v541h-150v343h150v550h720zM879 396q146 0 230 78t84 243t-84 243t-230 78h-246v-154h241v-343h-241v-145h246z" />
    <glyph glyph-name="ntilde" unicode="&#xf1;" horiz-adv-x="1641" 
d="M971 1516q-58 0 -118.5 25t-115.5 49.5t-100 24.5q-46 0 -74 -22t-32 -60h-128q-12 76 6.5 135t58.5 93.5t90.5 52t108.5 17.5q46 0 94.5 -15.5t83 -34t77.5 -34t80 -15.5q46 0 74 22t32 60h128q12 -76 -6.5 -135t-58.5 -93.5t-91 -52t-109 -17.5zM60 0v1434h542
l477 -775h42v775h461v-1434h-531l-488 775h-42v-775h-461z" />
    <glyph glyph-name="ograve" unicode="&#xf2;" horiz-adv-x="1693" 
d="M1060 1526h-418l-123 298h418zM847 -48q-244 0 -428.5 95t-284.5 268.5t-100 401.5q0 345 222 554.5t591 209.5t590.5 -209.5t221.5 -554.5q0 -171 -58 -313t-163 -241.5t-256.5 -155t-334.5 -55.5zM847 360q147 0 245 96t98 261t-98 260.5t-245 95.5t-245.5 -95.5
t-98.5 -260.5t98.5 -261t245.5 -96z" />
    <glyph glyph-name="oacute" unicode="&#xf3;" horiz-adv-x="1693" 
d="M635 1526l123 298h418l-123 -298h-418zM847 -48q-244 0 -428.5 95t-284.5 268.5t-100 401.5q0 345 222 554.5t591 209.5t590.5 -209.5t221.5 -554.5q0 -171 -58 -313t-163 -241.5t-256.5 -155t-334.5 -55.5zM847 360q147 0 245 96t98 261t-98 260.5t-245 95.5
t-245.5 -95.5t-98.5 -260.5t98.5 -261t245.5 -96z" />
    <glyph glyph-name="ocircumflex" unicode="&#xf4;" horiz-adv-x="1693" 
d="M336 1526l225 298h571l225 -298h-391l-72 83h-95l-72 -83h-391zM847 -48q-244 0 -428.5 95t-284.5 268.5t-100 401.5q0 345 222 554.5t591 209.5t590.5 -209.5t221.5 -554.5q0 -171 -58 -313t-163 -241.5t-256.5 -155t-334.5 -55.5zM847 360q147 0 245 96t98 261
t-98 260.5t-245 95.5t-245.5 -95.5t-98.5 -260.5t98.5 -261t245.5 -96z" />
    <glyph glyph-name="otilde" unicode="&#xf5;" horiz-adv-x="1693" 
d="M997 1522q-46 0 -94.5 15.5t-83 34t-77.5 34t-80 15.5q-46 0 -74 -22t-32 -60h-128q-12 76 6.5 135t58.5 94t91 52.5t109 17.5t118 -25t115 -49.5t101 -24.5t74 22t32 60h128q22 -146 -59 -222.5t-205 -76.5zM847 -48q-244 0 -428.5 95t-284.5 268.5t-100 401.5
q0 345 222 554.5t591 209.5t590.5 -209.5t221.5 -554.5q0 -171 -58 -313t-163 -241.5t-256.5 -155t-334.5 -55.5zM847 360q147 0 245 96t98 261t-98 260.5t-245 95.5t-245.5 -95.5t-98.5 -260.5t98.5 -261t245.5 -96z" />
    <glyph glyph-name="odieresis" unicode="&#xf6;" horiz-adv-x="1693" 
d="M585 1531q-72 0 -122 46.5t-50 117.5t50 117.5t122 46.5t122.5 -46.5t50.5 -117.5t-50.5 -117.5t-122.5 -46.5zM1106 1531q-72 0 -122 46.5t-50 117.5t50 117.5t122 46.5t122 -46.5t50 -117.5t-50 -117.5t-122 -46.5zM847 -48q-244 0 -428.5 95t-284.5 268.5t-100 401.5
q0 345 222 554.5t591 209.5t590.5 -209.5t221.5 -554.5q0 -171 -58 -313t-163 -241.5t-256.5 -155t-334.5 -55.5zM847 360q147 0 245 96t98 261t-98 260.5t-245 95.5t-245.5 -95.5t-98.5 -260.5t98.5 -261t245.5 -96z" />
    <glyph glyph-name="divide" unicode="&#xf7;" horiz-adv-x="1242" 
d="M616 992q-83 0 -143 59t-60 140q0 82 60 142t143 60t143 -60t60 -142q0 -81 -60 -140t-143 -59zM85 555v326h1072v-326h-1072zM616 32q-83 0 -143 59.5t-60 140.5q0 82 60 141.5t143 59.5t143 -59.5t60 -141.5q0 -81 -60 -140.5t-143 -59.5z" />
    <glyph glyph-name="oslash" unicode="&#xf8;" horiz-adv-x="1693" 
d="M1287 1381q177 -95 274.5 -267t97.5 -397q0 -171 -58 -313t-163 -241.5t-256.5 -155t-334.5 -55.5q-109 0 -210 21l-28 -60h-285l69 148q-170 97 -264.5 267t-94.5 389q0 345 222 554.5t591 209.5q107 0 192 -17l28 58h285zM503 717q0 -142 81 -241l276 597h-13
q-147 0 -245.5 -95.5t-98.5 -260.5zM847 360q147 0 245 96t98 261q0 154 -93 254l-281 -609q10 -2 31 -2z" />
    <glyph glyph-name="ugrave" unicode="&#xf9;" horiz-adv-x="1604" 
d="M1015 1519h-418l-123 299h419zM802 -48q-373 0 -557.5 164.5t-184.5 508.5v809h476v-797q0 -289 266 -289q137 0 203.5 76t66.5 213v797h473v-806q0 -346 -185 -511t-558 -165z" />
    <glyph glyph-name="uacute" unicode="&#xfa;" horiz-adv-x="1604" 
d="M591 1519l122 299h419l-123 -299h-418zM802 -48q-373 0 -557.5 164.5t-184.5 508.5v809h476v-797q0 -289 266 -289q137 0 203.5 76t66.5 213v797h473v-806q0 -346 -185 -511t-558 -165z" />
    <glyph glyph-name="ucircumflex" unicode="&#xfb;" horiz-adv-x="1604" 
d="M292 1519l225 299h570l225 -299h-390l-72 84h-96l-71 -84h-391zM802 -48q-373 0 -557.5 164.5t-184.5 508.5v809h476v-797q0 -289 266 -289q137 0 203.5 76t66.5 213v797h473v-806q0 -346 -185 -511t-558 -165z" />
    <glyph glyph-name="udieresis" unicode="&#xfc;" horiz-adv-x="1604" 
d="M541 1524q-72 0 -122 46.5t-50 117.5t50 117.5t122 46.5t122 -46.5t50 -117.5t-50 -117.5t-122 -46.5zM1062 1524q-72 0 -122.5 46.5t-50.5 117.5t50.5 117.5t122.5 46.5t122 -46.5t50 -117.5t-50 -117.5t-122 -46.5zM802 -48q-373 0 -557.5 164.5t-184.5 508.5v809h476
v-797q0 -289 266 -289q137 0 203.5 76t66.5 213v797h473v-806q0 -346 -185 -511t-558 -165z" />
    <glyph glyph-name="yacute" unicode="&#xfd;" horiz-adv-x="1645" 
d="M1152 1818l-123 -299h-418l123 299h418zM1645 1434l-587 -989v-445h-473v447l-585 987h497l307 -540h37l308 540h496z" />
    <glyph glyph-name="thorn" unicode="&#xfe;" horiz-adv-x="1505" 
d="M782 1270q327 0 504 -136.5t177 -416.5t-177 -416.5t-503 -136.5h-251v-164h-472v1434h472v-164h250zM792 556q90 0 142 39.5t52 121.5q0 80 -51.5 120t-140.5 40h-262v-321h260z" />
    <glyph glyph-name="ydieresis" unicode="&#xff;" horiz-adv-x="1645" 
d="M561 1524q-72 0 -122 46.5t-50 117.5t50 117.5t122 46.5t122.5 -46.5t50.5 -117.5t-50.5 -117.5t-122.5 -46.5zM1082 1524q-72 0 -122 46.5t-50 117.5t50 117.5t122 46.5t122 -46.5t50 -117.5t-50 -117.5t-122 -46.5zM1645 1434l-587 -989v-445h-473v447l-585 987h497
l307 -540h37l308 540h496z" />
    <glyph glyph-name="Amacron" unicode="&#x100;" 
d="M1260 1869v-343h-786v343h786zM1237 0l-63 189h-614l-63 -189h-488l527 1434h662l527 -1434h-488zM676 539h382l-150 451h-82z" />
    <glyph glyph-name="amacron" unicode="&#x101;" 
d="M1260 1869v-343h-786v343h786zM1237 0l-63 189h-614l-63 -189h-488l527 1434h662l527 -1434h-488zM676 539h382l-150 451h-82z" />
    <glyph glyph-name="Abreve" unicode="&#x102;" 
d="M867 1519q-225 0 -312.5 65.5t-83.5 233.5h283q-2 -53 28 -80.5t85 -27.5t85 27.5t28 80.5h283q4 -168 -83.5 -233.5t-312.5 -65.5zM1237 0l-63 189h-614l-63 -189h-488l527 1434h662l527 -1434h-488zM676 539h382l-150 451h-82z" />
    <glyph glyph-name="abreve" unicode="&#x103;" 
d="M867 1519q-225 0 -312.5 65.5t-83.5 233.5h283q-2 -53 28 -80.5t85 -27.5t85 27.5t28 80.5h283q4 -168 -83.5 -233.5t-312.5 -65.5zM1237 0l-63 189h-614l-63 -189h-488l527 1434h662l527 -1434h-488zM676 539h382l-150 451h-82z" />
    <glyph glyph-name="Aogonek" unicode="&#x104;" 
d="M1237 0q-74 0 -103.5 -26t-29.5 -59q0 -76 87 -74v-256q-66 0 -130 12t-128 39t-103.5 82t-39.5 130q0 55 19.5 99t55 72t75.5 48t89.5 30t88 15t80.5 6l-24 71h-614l-63 -189h-488l527 1434h662l527 -1434h-488zM676 539h382l-150 451h-82z" />
    <glyph glyph-name="aogonek" unicode="&#x105;" 
d="M1237 0q-74 0 -103.5 -26t-29.5 -59q0 -76 87 -74v-256q-66 0 -130 12t-128 39t-103.5 82t-39.5 130q0 55 19.5 99t55 72t75.5 48t89.5 30t88 15t80.5 6l-24 71h-614l-63 -189h-488l527 1434h662l527 -1434h-488zM676 539h382l-150 451h-82z" />
    <glyph glyph-name="Cacute" unicode="&#x106;" horiz-adv-x="1629" 
d="M631 1519l123 299h418l-122 -299h-419zM840 -48q-362 0 -584 210.5t-222 554.5q0 227 100.5 400.5t283.5 268.5t422 95q110 0 209 -19.5t194 -66t167 -118t122 -182.5t64 -252h-451q-29 115 -107.5 172.5t-197.5 57.5q-144 0 -240.5 -98t-96.5 -258t96.5 -258.5
t240.5 -98.5q119 0 197.5 58t107.5 176h451q-12 -119 -48 -217t-91.5 -167t-124 -120t-150.5 -80.5t-166 -43.5t-176 -14z" />
    <glyph glyph-name="cacute" unicode="&#x107;" horiz-adv-x="1629" 
d="M631 1519l123 299h418l-122 -299h-419zM840 -48q-362 0 -584 210.5t-222 554.5q0 227 100.5 400.5t283.5 268.5t422 95q110 0 209 -19.5t194 -66t167 -118t122 -182.5t64 -252h-451q-29 115 -107.5 172.5t-197.5 57.5q-144 0 -240.5 -98t-96.5 -258t96.5 -258.5
t240.5 -98.5q119 0 197.5 58t107.5 176h451q-12 -119 -48 -217t-91.5 -167t-124 -120t-150.5 -80.5t-166 -43.5t-176 -14z" />
    <glyph glyph-name="Cdotaccent" unicode="&#x10a;" horiz-adv-x="1629" 
d="M843 1524q-72 0 -122 46.5t-50 117.5t50 117.5t122 46.5t122 -46.5t50 -117.5t-50 -117.5t-122 -46.5zM840 -48q-362 0 -584 210.5t-222 554.5q0 227 100.5 400.5t283.5 268.5t422 95q110 0 209 -19.5t194 -66t167 -118t122 -182.5t64 -252h-451q-29 115 -107.5 172.5
t-197.5 57.5q-144 0 -240.5 -98t-96.5 -258t96.5 -258.5t240.5 -98.5q119 0 197.5 58t107.5 176h451q-12 -119 -48 -217t-91.5 -167t-124 -120t-150.5 -80.5t-166 -43.5t-176 -14z" />
    <glyph glyph-name="cdotaccent" unicode="&#x10b;" horiz-adv-x="1629" 
d="M843 1524q-72 0 -122 46.5t-50 117.5t50 117.5t122 46.5t122 -46.5t50 -117.5t-50 -117.5t-122 -46.5zM840 -48q-362 0 -584 210.5t-222 554.5q0 227 100.5 400.5t283.5 268.5t422 95q110 0 209 -19.5t194 -66t167 -118t122 -182.5t64 -252h-451q-29 115 -107.5 172.5
t-197.5 57.5q-144 0 -240.5 -98t-96.5 -258t96.5 -258.5t240.5 -98.5q119 0 197.5 58t107.5 176h451q-12 -119 -48 -217t-91.5 -167t-124 -120t-150.5 -80.5t-166 -43.5t-176 -14z" />
    <glyph glyph-name="Ccaron" unicode="&#x10c;" horiz-adv-x="1629" 
d="M840 360q119 0 197.5 58t107.5 176h451q-12 -119 -48 -217t-91.5 -167t-124 -120t-150.5 -80.5t-166 -43.5t-176 -14q-362 0 -584 210.5t-222 554.5q0 300 171.5 501t463.5 250h-108l-225 298h391l72 -83h95l72 83h391l-225 -298h-118q89 -14 167 -43.5t150 -80.5
t126 -119.5t91 -166t48 -215.5h-451q-29 115 -107.5 172.5t-197.5 57.5q-144 0 -240.5 -98t-96.5 -258t96.5 -258.5t240.5 -98.5z" />
    <glyph glyph-name="ccaron" unicode="&#x10d;" horiz-adv-x="1629" 
d="M840 360q119 0 197.5 58t107.5 176h451q-12 -119 -48 -217t-91.5 -167t-124 -120t-150.5 -80.5t-166 -43.5t-176 -14q-362 0 -584 210.5t-222 554.5q0 300 171.5 501t463.5 250h-108l-225 298h391l72 -83h95l72 83h391l-225 -298h-118q89 -14 167 -43.5t150 -80.5
t126 -119.5t91 -166t48 -215.5h-451q-29 115 -107.5 172.5t-197.5 57.5q-144 0 -240.5 -98t-96.5 -258t96.5 -258.5t240.5 -98.5z" />
    <glyph glyph-name="Dcaron" unicode="&#x10e;" horiz-adv-x="1611" 
d="M1080 1468h-570l-225 298h391l72 -83h95l72 83h391zM780 1434q171 0 305.5 -35.5t224.5 -98t148.5 -153.5t84 -196.5t25.5 -233.5q0 -127 -25.5 -233t-84 -197t-148.5 -153.5t-224.5 -98t-305.5 -35.5h-720v1434h720zM780 396q146 0 230 78t84 243t-84 243t-230 78h-246
v-642h246z" />
    <glyph glyph-name="dcaron" unicode="&#x10f;" horiz-adv-x="1611" 
d="M1080 1468h-570l-225 298h391l72 -83h95l72 83h391zM780 1434q171 0 305.5 -35.5t224.5 -98t148.5 -153.5t84 -196.5t25.5 -233.5q0 -127 -25.5 -233t-84 -197t-148.5 -153.5t-224.5 -98t-305.5 -35.5h-720v1434h720zM780 396q146 0 230 78t84 243t-84 243t-230 78h-246
v-642h246z" />
    <glyph glyph-name="Dcroat" unicode="&#x110;" horiz-adv-x="1710" 
d="M879 1434q171 0 305.5 -35.5t224.5 -98t148.5 -153.5t84 -196.5t25.5 -233.5q0 -127 -25.5 -233t-84 -197t-148.5 -153.5t-224.5 -98t-305.5 -35.5h-720v541h-150v343h150v550h720zM879 396q146 0 230 78t84 243t-84 243t-230 78h-246v-154h241v-343h-241v-145h246z" />
    <glyph glyph-name="dcroat" unicode="&#x111;" horiz-adv-x="1710" 
d="M879 1434q171 0 305.5 -35.5t224.5 -98t148.5 -153.5t84 -196.5t25.5 -233.5q0 -127 -25.5 -233t-84 -197t-148.5 -153.5t-224.5 -98t-305.5 -35.5h-720v541h-150v343h150v550h720zM879 396q146 0 230 78t84 243t-84 243t-230 78h-246v-154h241v-343h-241v-145h246z" />
    <glyph glyph-name="Emacron" unicode="&#x112;" horiz-adv-x="1411" 
d="M300 1526v343h785v-343h-785zM60 0v1434h1292v-379h-820v-183h789v-311h-789v-182h820v-379h-1292z" />
    <glyph glyph-name="emacron" unicode="&#x113;" horiz-adv-x="1411" 
d="M300 1526v343h785v-343h-785zM60 0v1434h1292v-379h-820v-183h789v-311h-789v-182h820v-379h-1292z" />
    <glyph glyph-name="Edotaccent" unicode="&#x116;" horiz-adv-x="1411" 
d="M693 1524q-72 0 -122 46.5t-50 117.5t50 117.5t122 46.5t122 -46.5t50 -117.5t-50 -117.5t-122 -46.5zM60 0v1434h1292v-379h-820v-183h789v-311h-789v-182h820v-379h-1292z" />
    <glyph glyph-name="edotaccent" unicode="&#x117;" horiz-adv-x="1411" 
d="M693 1524q-72 0 -122 46.5t-50 117.5t50 117.5t122 46.5t122 -46.5t50 -117.5t-50 -117.5t-122 -46.5zM60 0v1434h1292v-379h-820v-183h789v-311h-789v-182h820v-379h-1292z" />
    <glyph glyph-name="Eogonek" unicode="&#x118;" horiz-adv-x="1411" 
d="M1352 1055h-820v-183h789v-311h-789v-182h820v-379q-74 0 -103.5 -26t-29.5 -59q0 -76 87 -74v-256q-66 0 -130 12t-128 39t-103.5 82t-39.5 130q0 92 54 152h-899v1434h1292v-379z" />
    <glyph glyph-name="eogonek" unicode="&#x119;" horiz-adv-x="1411" 
d="M1352 1055h-820v-183h789v-311h-789v-182h820v-379q-74 0 -103.5 -26t-29.5 -59q0 -76 87 -74v-256q-66 0 -130 12t-128 39t-103.5 82t-39.5 130q0 92 54 152h-899v1434h1292v-379z" />
    <glyph glyph-name="Ecaron" unicode="&#x11a;" horiz-adv-x="1411" 
d="M186 1766h391l72 -83h95l72 83h391l-226 -298h-570zM60 0v1434h1292v-379h-820v-183h789v-311h-789v-182h820v-379h-1292z" />
    <glyph glyph-name="ecaron" unicode="&#x11b;" horiz-adv-x="1411" 
d="M186 1766h391l72 -83h95l72 83h391l-226 -298h-570zM60 0v1434h1292v-379h-820v-183h789v-311h-789v-182h820v-379h-1292z" />
    <glyph glyph-name="Gbreve" unicode="&#x11e;" horiz-adv-x="1670" 
d="M843 1519q-225 0 -312.5 65.5t-83.5 233.5h283q-2 -53 28 -80.5t85 -27.5t85 27.5t28 80.5h283q4 -168 -83.5 -233.5t-312.5 -65.5zM1603 792v-792h-253l-7 189q-78 -108 -213.5 -172.5t-317.5 -64.5q-164 0 -307 55.5t-247 154.5t-164 242.5t-60 312.5
q0 345 223.5 554.5t595.5 209.5q104 0 202.5 -19.5t190 -63t163 -106.5t121.5 -155.5t66 -204.5h-470q-24 59 -93.5 100t-168.5 41q-160 0 -260.5 -97.5t-100.5 -258.5q0 -160 99 -258.5t248 -98.5q34 0 70.5 6.5t84.5 23.5t86.5 57.5t55.5 98.5h-316v246h772z" />
    <glyph glyph-name="gbreve" unicode="&#x11f;" horiz-adv-x="1670" 
d="M843 1519q-225 0 -312.5 65.5t-83.5 233.5h283q-2 -53 28 -80.5t85 -27.5t85 27.5t28 80.5h283q4 -168 -83.5 -233.5t-312.5 -65.5zM1603 792v-792h-253l-7 189q-78 -108 -213.5 -172.5t-317.5 -64.5q-164 0 -307 55.5t-247 154.5t-164 242.5t-60 312.5
q0 345 223.5 554.5t595.5 209.5q104 0 202.5 -19.5t190 -63t163 -106.5t121.5 -155.5t66 -204.5h-470q-24 59 -93.5 100t-168.5 41q-160 0 -260.5 -97.5t-100.5 -258.5q0 -160 99 -258.5t248 -98.5q34 0 70.5 6.5t84.5 23.5t86.5 57.5t55.5 98.5h-316v246h772z" />
    <glyph glyph-name="Gdotaccent" unicode="&#x120;" horiz-adv-x="1670" 
d="M843 1524q-72 0 -122 46.5t-50 117.5t50 117.5t122 46.5t122 -46.5t50 -117.5t-50 -117.5t-122 -46.5zM1603 792v-792h-253l-7 189q-78 -108 -213.5 -172.5t-317.5 -64.5q-164 0 -307 55.5t-247 154.5t-164 242.5t-60 312.5q0 345 223.5 554.5t595.5 209.5
q104 0 202.5 -19.5t190 -63t163 -106.5t121.5 -155.5t66 -204.5h-470q-24 59 -93.5 100t-168.5 41q-160 0 -260.5 -97.5t-100.5 -258.5q0 -160 99 -258.5t248 -98.5q34 0 70.5 6.5t84.5 23.5t86.5 57.5t55.5 98.5h-316v246h772z" />
    <glyph glyph-name="gdotaccent" unicode="&#x121;" horiz-adv-x="1670" 
d="M843 1524q-72 0 -122 46.5t-50 117.5t50 117.5t122 46.5t122 -46.5t50 -117.5t-50 -117.5t-122 -46.5zM1603 792v-792h-253l-7 189q-78 -108 -213.5 -172.5t-317.5 -64.5q-164 0 -307 55.5t-247 154.5t-164 242.5t-60 312.5q0 345 223.5 554.5t595.5 209.5
q104 0 202.5 -19.5t190 -63t163 -106.5t121.5 -155.5t66 -204.5h-470q-24 59 -93.5 100t-168.5 41q-160 0 -260.5 -97.5t-100.5 -258.5q0 -160 99 -258.5t248 -98.5q34 0 70.5 6.5t84.5 23.5t86.5 57.5t55.5 98.5h-316v246h772z" />
    <glyph glyph-name="Gcommaaccent" unicode="&#x122;" horiz-adv-x="1670" 
d="M1603 792v-792h-253l-7 189q-78 -108 -213.5 -172.5t-317.5 -64.5q-164 0 -307 55.5t-247 154.5t-164 242.5t-60 312.5q0 345 223.5 554.5t595.5 209.5q104 0 202.5 -19.5t190 -63t163 -106.5t121.5 -155.5t66 -204.5h-470q-24 59 -93.5 100t-168.5 41
q-160 0 -260.5 -97.5t-100.5 -258.5q0 -160 99 -258.5t248 -98.5q34 0 70.5 6.5t84.5 23.5t86.5 57.5t55.5 98.5h-316v246h772zM606 -452v339h479v-75q0 -232 -27 -392.5t-61 -221.5h-249q22 164 18 350h-160z" />
    <glyph glyph-name="gcommaaccent" unicode="&#x123;" horiz-adv-x="1670" 
d="M1603 792v-792h-253l-7 189q-78 -108 -213.5 -172.5t-317.5 -64.5q-164 0 -307 55.5t-247 154.5t-164 242.5t-60 312.5q0 345 223.5 554.5t595.5 209.5q104 0 202.5 -19.5t190 -63t163 -106.5t121.5 -155.5t66 -204.5h-470q-24 59 -93.5 100t-168.5 41
q-160 0 -260.5 -97.5t-100.5 -258.5q0 -160 99 -258.5t248 -98.5q34 0 70.5 6.5t84.5 23.5t86.5 57.5t55.5 98.5h-316v246h772zM606 -452v339h479v-75q0 -232 -27 -392.5t-61 -221.5h-249q22 164 18 350h-160z" />
    <glyph glyph-name="Hbar" unicode="&#x126;" horiz-adv-x="1621" 
d="M1089 1434h473v-1434h-473v519h-557v-519h-472v1434h472v-122h550v-324h-550v-73h557v519z" />
    <glyph glyph-name="hbar" unicode="&#x127;" horiz-adv-x="1621" 
d="M1089 1434h473v-1434h-473v519h-557v-519h-472v1434h472v-122h550v-324h-550v-73h557v519z" />
    <glyph glyph-name="Imacron" unicode="&#x12a;" horiz-adv-x="592" 
d="M-97 1526v343h785v-343h-785zM60 0v1434h472v-1434h-472z" />
    <glyph glyph-name="imacron" unicode="&#x12b;" horiz-adv-x="592" 
d="M-97 1526v343h785v-343h-785zM60 0v1434h472v-1434h-472z" />
    <glyph glyph-name="Iogonek" unicode="&#x12e;" horiz-adv-x="592" 
d="M60 1434h472v-1434q-74 0 -103.5 -26t-29.5 -59q0 -76 87 -74v-256q-66 0 -130 12t-128 39t-103.5 82t-39.5 130q0 91 55 152h-80v1434z" />
    <glyph glyph-name="iogonek" unicode="&#x12f;" horiz-adv-x="592" 
d="M60 1434h472v-1434q-74 0 -103.5 -26t-29.5 -59q0 -76 87 -74v-256q-66 0 -130 12t-128 39t-103.5 82t-39.5 130q0 91 55 152h-80v1434z" />
    <glyph glyph-name="Idotaccent" unicode="&#x130;" horiz-adv-x="592" 
d="M295 1524q-72 0 -122 46.5t-50 117.5t50 117.5t122 46.5t122.5 -46.5t50.5 -117.5t-50.5 -117.5t-122.5 -46.5zM60 0v1434h472v-1434h-472z" />
    <glyph glyph-name="dotlessi" unicode="&#x131;" horiz-adv-x="592" 
d="M60 0v1434h472v-1434h-472z" />
    <glyph glyph-name="IJ" unicode="&#x132;" horiz-adv-x="2003" 
d="M60 0v1434h472v-1434h-472zM1275 -48q-118 0 -213 17t-178.5 60t-138.5 111t-86 174t-29 246h471q-2 -207 184 -207t186 248v833h473v-809q0 -188 -45 -319.5t-134 -208.5t-208.5 -111t-281.5 -34z" />
    <glyph glyph-name="Kcommaaccent" unicode="&#x136;" horiz-adv-x="1614" 
d="M1022 795l601 -795h-483l-382 510h-31l-196 -210v-300h-471v1434h471v-569h30l518 569h525zM582 -452v339h480v-75q0 -232 -27.5 -392.5t-61.5 -221.5h-249q22 164 18 350h-160z" />
    <glyph glyph-name="kcommaaccent" unicode="&#x137;" horiz-adv-x="1614" 
d="M1022 795l601 -795h-483l-382 510h-31l-196 -210v-300h-471v1434h471v-569h30l518 569h525zM582 -452v339h480v-75q0 -232 -27.5 -392.5t-61.5 -221.5h-249q22 164 18 350h-160z" />
    <glyph glyph-name="Lacute" unicode="&#x139;" horiz-adv-x="1356" 
d="M60 1502l123 299h418l-123 -299h-418zM60 0v1434h472v-1040h765v-394h-1237z" />
    <glyph glyph-name="lacute" unicode="&#x13a;" horiz-adv-x="1356" 
d="M60 1502l123 299h418l-123 -299h-418zM60 0v1434h472v-1040h765v-394h-1237z" />
    <glyph glyph-name="Lcommaaccent" unicode="&#x13b;" horiz-adv-x="1356" 
d="M60 0v1434h472v-1040h765v-394h-1237zM582 -802q23 170 19 350h-161v339h480v-75q0 -232 -27.5 -392.5t-61.5 -221.5h-249z" />
    <glyph glyph-name="lcommaaccent" unicode="&#x13c;" horiz-adv-x="1356" 
d="M60 0v1434h472v-1040h765v-394h-1237zM582 -802q23 170 19 350h-161v339h480v-75q0 -232 -27.5 -392.5t-61.5 -221.5h-249z" />
    <glyph glyph-name="Lcaron" unicode="&#x13d;" horiz-adv-x="1356" 
d="M60 0v1434h472v-1040h765v-394h-1237zM853 633q27 185 23 406h-187v395h557v-87q0 -268 -32 -454.5t-71 -259.5h-290z" />
    <glyph glyph-name="lcaron" unicode="&#x13e;" horiz-adv-x="1356" 
d="M60 0v1434h472v-1040h765v-394h-1237zM853 633q27 185 23 406h-187v395h557v-87q0 -268 -32 -454.5t-71 -259.5h-290z" />
    <glyph glyph-name="Ldot" unicode="&#x13f;" horiz-adv-x="1356" 
d="M60 0v1434h472v-1040h765v-394h-1237zM942 669q-96 0 -165.5 68.5t-69.5 163.5t69.5 163.5t165.5 68.5t166 -69t70 -163t-70 -163t-166 -69z" />
    <glyph glyph-name="Lslash" unicode="&#x141;" horiz-adv-x="1418" 
d="M594 394h765v-394h-1238v357l-121 -92v337l121 93v739h473v-378l239 183v-338l-239 -182v-325z" />
    <glyph glyph-name="lslash" unicode="&#x142;" horiz-adv-x="1418" 
d="M594 394h765v-394h-1238v357l-121 -92v337l121 93v739h473v-378l239 183v-338l-239 -182v-325z" />
    <glyph glyph-name="Nacute" unicode="&#x143;" horiz-adv-x="1641" 
d="M609 1519l123 299h418l-123 -299h-418zM60 0v1434h542l477 -775h42v775h461v-1434h-531l-488 775h-42v-775h-461z" />
    <glyph glyph-name="nacute" unicode="&#x144;" horiz-adv-x="1641" 
d="M609 1519l123 299h418l-123 -299h-418zM60 0v1434h542l477 -775h42v775h461v-1434h-531l-488 775h-42v-775h-461z" />
    <glyph glyph-name="Ncommaaccent" unicode="&#x145;" horiz-adv-x="1641" 
d="M60 0v1434h542l477 -775h42v775h461v-1434h-531l-488 775h-42v-775h-461zM725 -802q23 170 19 350h-160v339h479v-75q0 -232 -27 -392.5t-61 -221.5h-250z" />
    <glyph glyph-name="ncommaaccent" unicode="&#x146;" horiz-adv-x="1641" 
d="M60 0v1434h542l477 -775h42v775h461v-1434h-531l-488 775h-42v-775h-461zM725 -802q23 170 19 350h-160v339h479v-75q0 -232 -27 -392.5t-61 -221.5h-250z" />
    <glyph glyph-name="Ncaron" unicode="&#x147;" horiz-adv-x="1641" 
d="M314 1766h391l72 -83h95l72 83h391l-226 -298h-570zM60 0v1434h542l477 -775h42v775h461v-1434h-531l-488 775h-42v-775h-461z" />
    <glyph glyph-name="ncaron" unicode="&#x148;" horiz-adv-x="1641" 
d="M314 1766h391l72 -83h95l72 83h391l-226 -298h-570zM60 0v1434h542l477 -775h42v775h461v-1434h-531l-488 775h-42v-775h-461z" />
    <glyph glyph-name="Eng" unicode="&#x14a;" horiz-adv-x="1641" 
d="M1121 1434h461v-1434q-1 -131 -46 -228.5t-130 -158.5t-204 -90.5t-272 -29.5l7 396q27 0 38 0.5t38.5 3t41.5 9t32 18t26 31t8 46.5v3h-70l-488 775h-42v-775h-461v1434h542l477 -775h42v775z" />
    <glyph glyph-name="eng" unicode="&#x14b;" horiz-adv-x="1641" 
d="M1121 1434h461v-1434q-1 -131 -46 -228.5t-130 -158.5t-204 -90.5t-272 -29.5l7 396q27 0 38 0.5t38.5 3t41.5 9t32 18t26 31t8 46.5v3h-70l-488 775h-42v-775h-461v1434h542l477 -775h42v775z" />
    <glyph glyph-name="Omacron" unicode="&#x14c;" horiz-adv-x="1693" 
d="M454 1533v343h785v-343h-785zM847 -48q-244 0 -428.5 95t-284.5 268.5t-100 401.5q0 345 222 554.5t591 209.5t590.5 -209.5t221.5 -554.5q0 -171 -58 -313t-163 -241.5t-256.5 -155t-334.5 -55.5zM847 360q147 0 245 96t98 261t-98 260.5t-245 95.5t-245.5 -95.5
t-98.5 -260.5t98.5 -261t245.5 -96z" />
    <glyph glyph-name="omacron" unicode="&#x14d;" horiz-adv-x="1693" 
d="M454 1533v343h785v-343h-785zM847 -48q-244 0 -428.5 95t-284.5 268.5t-100 401.5q0 345 222 554.5t591 209.5t590.5 -209.5t221.5 -554.5q0 -171 -58 -313t-163 -241.5t-256.5 -155t-334.5 -55.5zM847 360q147 0 245 96t98 261t-98 260.5t-245 95.5t-245.5 -95.5
t-98.5 -260.5t98.5 -261t245.5 -96z" />
    <glyph glyph-name="Ohungarumlaut" unicode="&#x150;" horiz-adv-x="1693" 
d="M352 1536l122 299h419l-123 -299h-418zM841 1536l123 299h418l-122 -299h-419zM847 -48q-244 0 -428.5 95t-284.5 268.5t-100 401.5q0 345 222 554.5t591 209.5t590.5 -209.5t221.5 -554.5q0 -171 -58 -313t-163 -241.5t-256.5 -155t-334.5 -55.5zM847 360q147 0 245 96
t98 261t-98 260.5t-245 95.5t-245.5 -95.5t-98.5 -260.5t98.5 -261t245.5 -96z" />
    <glyph glyph-name="ohungarumlaut" unicode="&#x151;" horiz-adv-x="1693" 
d="M352 1536l122 299h419l-123 -299h-418zM841 1536l123 299h418l-122 -299h-419zM847 -48q-244 0 -428.5 95t-284.5 268.5t-100 401.5q0 345 222 554.5t591 209.5t590.5 -209.5t221.5 -554.5q0 -171 -58 -313t-163 -241.5t-256.5 -155t-334.5 -55.5zM847 360q147 0 245 96
t98 261t-98 260.5t-245 95.5t-245.5 -95.5t-98.5 -260.5t98.5 -261t245.5 -96z" />
    <glyph glyph-name="OE" unicode="&#x152;" horiz-adv-x="2539" 
d="M2480 1055h-819v-183h788v-311h-788v-182h819v-379h-1292v10q-154 -58 -341 -58q-244 0 -428.5 95t-284.5 268.5t-100 401.5q0 345 222 554.5t591 209.5q187 0 341 -58v11h1292v-379zM847 360q136 0 232.5 84.5t108.5 231.5v82q-12 146 -108 230.5t-233 84.5
q-147 0 -245.5 -95.5t-98.5 -260.5t98.5 -261t245.5 -96z" />
    <glyph glyph-name="oe" unicode="&#x153;" horiz-adv-x="2539" 
d="M2480 1055h-819v-183h788v-311h-788v-182h819v-379h-1292v10q-154 -58 -341 -58q-244 0 -428.5 95t-284.5 268.5t-100 401.5q0 345 222 554.5t591 209.5q187 0 341 -58v11h1292v-379zM847 360q136 0 232.5 84.5t108.5 231.5v82q-12 146 -108 230.5t-233 84.5
q-147 0 -245.5 -95.5t-98.5 -260.5t98.5 -261t245.5 -96z" />
    <glyph glyph-name="Racute" unicode="&#x154;" horiz-adv-x="1583" 
d="M1106 1818l-123 -299h-418l123 299h418zM1550 0h-465l-194 370h-359v-370h-472v1434h821q621 0 621 -548q0 -138 -56 -242.5t-152 -172.5zM532 1041v-317h316q89 0 135 41t46 117t-46 117.5t-135 41.5h-316z" />
    <glyph glyph-name="racute" unicode="&#x155;" horiz-adv-x="1583" 
d="M1106 1818l-123 -299h-418l123 299h418zM1550 0h-465l-194 370h-359v-370h-472v1434h821q621 0 621 -548q0 -138 -56 -242.5t-152 -172.5zM532 1041v-317h316q89 0 135 41t46 117t-46 117.5t-135 41.5h-316z" />
    <glyph glyph-name="Rcommaaccent" unicode="&#x156;" horiz-adv-x="1583" 
d="M1294 471l256 -471h-465l-194 370h-359v-370h-472v1434h821q621 0 621 -548q0 -138 -56 -242.5t-152 -172.5zM532 1041v-317h316q89 0 135 41t46 117t-46 117.5t-135 41.5h-316zM539 -452v339h480v-75q0 -232 -27.5 -392.5t-61.5 -221.5h-249q23 170 19 350h-161z" />
    <glyph glyph-name="rcommaaccent" unicode="&#x157;" horiz-adv-x="1583" 
d="M1294 471l256 -471h-465l-194 370h-359v-370h-472v1434h821q621 0 621 -548q0 -138 -56 -242.5t-152 -172.5zM532 1041v-317h316q89 0 135 41t46 117t-46 117.5t-135 41.5h-316zM539 -452v339h480v-75q0 -232 -27.5 -392.5t-61.5 -221.5h-249q23 170 19 350h-161z" />
    <glyph glyph-name="Rcaron" unicode="&#x158;" horiz-adv-x="1583" 
d="M1065 1468h-570l-225 298h390l72 -83h96l71 83h391zM1550 0h-465l-194 370h-359v-370h-472v1434h821q621 0 621 -548q0 -138 -56 -242.5t-152 -172.5zM532 1041v-317h316q89 0 135 41t46 117t-46 117.5t-135 41.5h-316z" />
    <glyph glyph-name="rcaron" unicode="&#x159;" horiz-adv-x="1583" 
d="M1065 1468h-570l-225 298h390l72 -83h96l71 83h391zM1550 0h-465l-194 370h-359v-370h-472v1434h821q621 0 621 -548q0 -138 -56 -242.5t-152 -172.5zM532 1041v-317h316q89 0 135 41t46 117t-46 117.5t-135 41.5h-316z" />
    <glyph glyph-name="Sacute" unicode="&#x15a;" horiz-adv-x="1506" 
d="M546 1519l123 299h418l-123 -299h-418zM742 -48q-376 2 -550.5 127t-165.5 401h425q8 -156 291 -159q130 -1 197.5 31t67.5 85q0 41 -35 70.5t-131 43.5l-184 29q-199 32 -266 51q-209 57 -283 188q-48 84 -48 205q0 216 175 336.5t511 120.5q129 0 231 -15t191 -51.5
t147.5 -95.5t90.5 -150.5t29 -211.5h-421q-28 156 -278 156q-113 0 -167.5 -30.5t-54.5 -82.5q0 -86 135 -107l151 -26q31 -5 87.5 -13.5t93 -14t90.5 -16.5t90.5 -22t82.5 -29.5t76.5 -39.5t62.5 -52.5t50.5 -68.5t30.5 -86t12 -107q0 -469 -734 -466z" />
    <glyph glyph-name="sacute" unicode="&#x15b;" horiz-adv-x="1506" 
d="M546 1519l123 299h418l-123 -299h-418zM742 -48q-376 2 -550.5 127t-165.5 401h425q8 -156 291 -159q130 -1 197.5 31t67.5 85q0 41 -35 70.5t-131 43.5l-184 29q-199 32 -266 51q-209 57 -283 188q-48 84 -48 205q0 216 175 336.5t511 120.5q129 0 231 -15t191 -51.5
t147.5 -95.5t90.5 -150.5t29 -211.5h-421q-28 156 -278 156q-113 0 -167.5 -30.5t-54.5 -82.5q0 -86 135 -107l151 -26q31 -5 87.5 -13.5t93 -14t90.5 -16.5t90.5 -22t82.5 -29.5t76.5 -39.5t62.5 -52.5t50.5 -68.5t30.5 -86t12 -107q0 -469 -734 -466z" />
    <glyph glyph-name="Scedilla" unicode="&#x15e;" horiz-adv-x="1506" 
d="M1476 418q0 -446 -662 -464l-14 -12q80 -6 139 -56t59 -140q0 -66 -36 -114.5t-96.5 -72t-140 -29.5t-167.5 14v180q68 -15 110.5 -13t61 10t18.5 18q0 12 -18.5 23t-61 15t-110.5 -13v113l101 77q-332 14 -487 140t-146 386h425q8 -156 291 -159q130 -1 197.5 31
t67.5 85q0 41 -35 70.5t-131 43.5l-184 29q-199 32 -266 51q-209 57 -283 188q-48 84 -48 205q0 216 175 336.5t511 120.5q129 0 231 -15t191 -51.5t147.5 -95.5t90.5 -150.5t29 -211.5h-421q-28 156 -278 156q-113 0 -167.5 -30.5t-54.5 -82.5q0 -86 135 -107l151 -26
q31 -5 87.5 -13.5t93 -14t90.5 -16.5t90.5 -22t82.5 -29.5t76.5 -39.5t62.5 -52.5t50.5 -68.5t30.5 -86t12 -107z" />
    <glyph glyph-name="scedilla" unicode="&#x15f;" horiz-adv-x="1506" 
d="M1476 418q0 -446 -662 -464l-14 -12q80 -6 139 -56t59 -140q0 -66 -36 -114.5t-96.5 -72t-140 -29.5t-167.5 14v180q68 -15 110.5 -13t61 10t18.5 18q0 12 -18.5 23t-61 15t-110.5 -13v113l101 77q-332 14 -487 140t-146 386h425q8 -156 291 -159q130 -1 197.5 31
t67.5 85q0 41 -35 70.5t-131 43.5l-184 29q-199 32 -266 51q-209 57 -283 188q-48 84 -48 205q0 216 175 336.5t511 120.5q129 0 231 -15t191 -51.5t147.5 -95.5t90.5 -150.5t29 -211.5h-421q-28 156 -278 156q-113 0 -167.5 -30.5t-54.5 -82.5q0 -86 135 -107l151 -26
q31 -5 87.5 -13.5t93 -14t90.5 -16.5t90.5 -22t82.5 -29.5t76.5 -39.5t62.5 -52.5t50.5 -68.5t30.5 -86t12 -107z" />
    <glyph glyph-name="Scaron" unicode="&#x160;" horiz-adv-x="1506" 
d="M800 867q31 -5 87.5 -13.5t93 -14t90.5 -16.5t90.5 -22t82.5 -29.5t76.5 -39.5t62.5 -52.5t50.5 -68.5t30.5 -86t12 -107q0 -469 -734 -466q-376 2 -550.5 127t-165.5 401h425q8 -156 291 -159q130 -1 197.5 31t67.5 85q0 41 -35 70.5t-131 43.5l-184 29q-199 32 -266 51
q-209 57 -283 188q-48 84 -48 205q0 180 121.5 295t359.5 149h-65l-225 298h391l71 -83h96l72 83h390l-225 -298h-80q113 -16 197.5 -51t148 -95t95 -151.5t28.5 -213.5h-421q-28 156 -278 156q-113 0 -167.5 -30.5t-54.5 -82.5q0 -86 135 -107z" />
    <glyph glyph-name="scaron" unicode="&#x161;" horiz-adv-x="1506" 
d="M800 867q31 -5 87.5 -13.5t93 -14t90.5 -16.5t90.5 -22t82.5 -29.5t76.5 -39.5t62.5 -52.5t50.5 -68.5t30.5 -86t12 -107q0 -469 -734 -466q-376 2 -550.5 127t-165.5 401h425q8 -156 291 -159q130 -1 197.5 31t67.5 85q0 41 -35 70.5t-131 43.5l-184 29q-199 32 -266 51
q-209 57 -283 188q-48 84 -48 205q0 180 121.5 295t359.5 149h-65l-225 298h391l71 -83h96l72 83h390l-225 -298h-80q113 -16 197.5 -51t148 -95t95 -151.5t28.5 -213.5h-421q-28 156 -278 156q-113 0 -167.5 -30.5t-54.5 -82.5q0 -86 135 -107z" />
    <glyph glyph-name="uni0162" unicode="&#x162;" horiz-adv-x="1605" 
d="M1039 0h-116l-76 -58q80 -6 138.5 -56t58.5 -140q0 -66 -36 -114.5t-96.5 -72t-140 -29.5t-167.5 14v180q68 -15 110.5 -13t61 10t18.5 18q0 12 -18.5 23t-61 15t-110.5 -13v113l161 123h-198v1039h-516v395h1504v-395h-516v-1039z" />
    <glyph glyph-name="uni0163" unicode="&#x163;" horiz-adv-x="1605" 
d="M1039 0h-116l-76 -58q80 -6 138.5 -56t58.5 -140q0 -66 -36 -114.5t-96.5 -72t-140 -29.5t-167.5 14v180q68 -15 110.5 -13t61 10t18.5 18q0 12 -18.5 23t-61 15t-110.5 -13v113l161 123h-198v1039h-516v395h1504v-395h-516v-1039z" />
    <glyph glyph-name="Tcaron" unicode="&#x164;" horiz-adv-x="1605" 
d="M1092 1468h-570l-225 298h391l71 -83h96l72 83h391zM1555 1434v-395h-516v-1039h-472v1039h-516v395h1504z" />
    <glyph glyph-name="tcaron" unicode="&#x165;" horiz-adv-x="1605" 
d="M1092 1468h-570l-225 298h391l71 -83h96l72 83h391zM1555 1434v-395h-516v-1039h-472v1039h-516v395h1504z" />
    <glyph glyph-name="Tbar" unicode="&#x166;" horiz-adv-x="1605" 
d="M1555 1039h-516v-225h376v-343h-376v-471h-472v471h-371v343h371v225h-516v395h1504v-395z" />
    <glyph glyph-name="tbar" unicode="&#x167;" horiz-adv-x="1605" 
d="M1555 1039h-516v-225h376v-343h-376v-471h-472v471h-371v343h371v225h-516v395h1504v-395z" />
    <glyph glyph-name="Umacron" unicode="&#x16a;" horiz-adv-x="1604" 
d="M410 1526v343h785v-343h-785zM802 -48q-373 0 -557.5 164.5t-184.5 508.5v809h476v-797q0 -289 266 -289q137 0 203.5 76t66.5 213v797h473v-806q0 -346 -185 -511t-558 -165z" />
    <glyph glyph-name="umacron" unicode="&#x16b;" horiz-adv-x="1604" 
d="M410 1526v343h785v-343h-785zM802 -48q-373 0 -557.5 164.5t-184.5 508.5v809h476v-797q0 -289 266 -289q137 0 203.5 76t66.5 213v797h473v-806q0 -346 -185 -511t-558 -165z" />
    <glyph glyph-name="Ubreve" unicode="&#x16c;" horiz-adv-x="1604" 
d="M802 1519q-225 0 -312.5 65.5t-83.5 233.5h283q-2 -53 28 -80.5t85 -27.5t85 27.5t28 80.5h283q4 -168 -83.5 -233.5t-312.5 -65.5zM802 -48q-373 0 -557.5 164.5t-184.5 508.5v809h476v-797q0 -289 266 -289q137 0 203.5 76t66.5 213v797h473v-806q0 -346 -185 -511
t-558 -165z" />
    <glyph glyph-name="ubreve" unicode="&#x16d;" horiz-adv-x="1604" 
d="M802 1519q-225 0 -312.5 65.5t-83.5 233.5h283q-2 -53 28 -80.5t85 -27.5t85 27.5t28 80.5h283q4 -168 -83.5 -233.5t-312.5 -65.5zM802 -48q-373 0 -557.5 164.5t-184.5 508.5v809h476v-797q0 -289 266 -289q137 0 203.5 76t66.5 213v797h473v-806q0 -346 -185 -511
t-558 -165z" />
    <glyph glyph-name="Uring" unicode="&#x16e;" horiz-adv-x="1604" 
d="M802 1408q-103 0 -173.5 71t-70.5 170q0 102 70.5 173t173.5 71t172 -71t69 -173q0 -99 -69.5 -170t-171.5 -71zM802 1601q24 0 38.5 13t12.5 38q-5 51 -51 51q-23 0 -37 -14t-14 -37q0 -51 51 -51zM802 -48q-373 0 -557.5 164.5t-184.5 508.5v809h476v-797
q0 -289 266 -289q137 0 203.5 76t66.5 213v797h473v-806q0 -346 -185 -511t-558 -165z" />
    <glyph glyph-name="uring" unicode="&#x16f;" horiz-adv-x="1604" 
d="M802 1408q-103 0 -173.5 71t-70.5 170q0 102 70.5 173t173.5 71t172 -71t69 -173q0 -99 -69.5 -170t-171.5 -71zM802 1601q24 0 38.5 13t12.5 38q-5 51 -51 51q-23 0 -37 -14t-14 -37q0 -51 51 -51zM802 -48q-373 0 -557.5 164.5t-184.5 508.5v809h476v-797
q0 -289 266 -289q137 0 203.5 76t66.5 213v797h473v-806q0 -346 -185 -511t-558 -165z" />
    <glyph glyph-name="Uhungarumlaut" unicode="&#x170;" horiz-adv-x="1604" 
d="M307 1529l123 299h418l-123 -299h-418zM797 1529l123 299h418l-123 -299h-418zM802 -48q-373 0 -557.5 164.5t-184.5 508.5v809h476v-797q0 -289 266 -289q137 0 203.5 76t66.5 213v797h473v-806q0 -346 -185 -511t-558 -165z" />
    <glyph glyph-name="uhungarumlaut" unicode="&#x171;" horiz-adv-x="1604" 
d="M307 1529l123 299h418l-123 -299h-418zM797 1529l123 299h418l-123 -299h-418zM802 -48q-373 0 -557.5 164.5t-184.5 508.5v809h476v-797q0 -289 266 -289q137 0 203.5 76t66.5 213v797h473v-806q0 -346 -185 -511t-558 -165z" />
    <glyph glyph-name="Uogonek" unicode="&#x172;" horiz-adv-x="1604" 
d="M1072 1434h473v-806q0 -301 -139.5 -465t-420.5 -201q-90 -7 -128 -22.5t-38 -41.5q0 -7 2 -14t9.5 -18.5t27 -18.5t48.5 -6v-256q-66 0 -130 12t-128 38.5t-103.5 80t-39.5 127.5q0 81 51 130q-248 49 -372 210t-124 442v809h476v-797q0 -289 266 -289q137 0 203.5 76
t66.5 213v797z" />
    <glyph glyph-name="uogonek" unicode="&#x173;" horiz-adv-x="1604" 
d="M1072 1434h473v-806q0 -301 -139.5 -465t-420.5 -201q-90 -7 -128 -22.5t-38 -41.5q0 -7 2 -14t9.5 -18.5t27 -18.5t48.5 -6v-256q-66 0 -130 12t-128 38.5t-103.5 80t-39.5 127.5q0 81 51 130q-248 49 -372 210t-124 442v809h476v-797q0 -289 266 -289q137 0 203.5 76
t66.5 213v797z" />
    <glyph glyph-name="Wcircumflex" unicode="&#x174;" horiz-adv-x="2201" 
d="M592 1519l225 299h571l225 -299h-391l-72 84h-95l-72 -84h-391zM312 0l-278 1434h480l153 -929h41l205 929h376l204 -929h41l154 929h479l-278 -1434h-638l-130 689h-41l-129 -689h-639z" />
    <glyph glyph-name="wcircumflex" unicode="&#x175;" horiz-adv-x="2201" 
d="M592 1519l225 299h571l225 -299h-391l-72 84h-95l-72 -84h-391zM312 0l-278 1434h480l153 -929h41l205 929h376l204 -929h41l154 929h479l-278 -1434h-638l-130 689h-41l-129 -689h-639z" />
    <glyph glyph-name="Ycircumflex" unicode="&#x176;" horiz-adv-x="1645" 
d="M775 1603l-72 -84h-391l226 299h570l225 -299h-391l-72 84h-95zM1645 1434l-587 -989v-445h-473v447l-585 987h497l307 -540h37l308 540h496z" />
    <glyph glyph-name="ycircumflex" unicode="&#x177;" horiz-adv-x="1645" 
d="M775 1603l-72 -84h-391l226 299h570l225 -299h-391l-72 84h-95zM1645 1434l-587 -989v-445h-473v447l-585 987h497l307 -540h37l308 540h496z" />
    <glyph glyph-name="Ydieresis" unicode="&#x178;" horiz-adv-x="1645" 
d="M561 1524q-72 0 -122 46.5t-50 117.5t50 117.5t122 46.5t122.5 -46.5t50.5 -117.5t-50.5 -117.5t-122.5 -46.5zM1082 1524q-72 0 -122 46.5t-50 117.5t50 117.5t122 46.5t122 -46.5t50 -117.5t-50 -117.5t-122 -46.5zM1645 1434l-587 -989v-445h-473v447l-585 987h497
l307 -540h37l308 540h496z" />
    <glyph glyph-name="Zacute" unicode="&#x179;" horiz-adv-x="1416" 
d="M495 1519l123 299h418l-123 -299h-418zM34 0v381l734 623v35h-717v395h1331v-381l-744 -623v-36h734v-394h-1338z" />
    <glyph glyph-name="zacute" unicode="&#x17a;" horiz-adv-x="1416" 
d="M495 1519l123 299h418l-123 -299h-418zM34 0v381l734 623v35h-717v395h1331v-381l-744 -623v-36h734v-394h-1338z" />
    <glyph glyph-name="Zdotaccent" unicode="&#x17b;" horiz-adv-x="1416" 
d="M707 1524q-72 0 -122.5 46.5t-50.5 117.5t50.5 117.5t122.5 46.5t122 -46.5t50 -117.5t-50 -117.5t-122 -46.5zM34 0v381l734 623v35h-717v395h1331v-381l-744 -623v-36h734v-394h-1338z" />
    <glyph glyph-name="zdotaccent" unicode="&#x17c;" horiz-adv-x="1416" 
d="M707 1524q-72 0 -122.5 46.5t-50.5 117.5t50.5 117.5t122.5 46.5t122 -46.5t50 -117.5t-50 -117.5t-122 -46.5zM34 0v381l734 623v35h-717v395h1331v-381l-744 -623v-36h734v-394h-1338z" />
    <glyph glyph-name="Zcaron" unicode="&#x17d;" horiz-adv-x="1416" 
d="M200 1766h391l71 -83h96l71 83h391l-225 -298h-570zM34 0v381l734 623v35h-717v395h1331v-381l-744 -623v-36h734v-394h-1338z" />
    <glyph glyph-name="zcaron" unicode="&#x17e;" horiz-adv-x="1416" 
d="M200 1766h391l71 -83h96l71 83h391l-225 -298h-570zM34 0v381l734 623v35h-717v395h1331v-381l-744 -623v-36h734v-394h-1338z" />
    <glyph glyph-name="florin" unicode="&#x192;" horiz-adv-x="1309" 
d="M1036 1154q-72 0 -119 -35t-47 -109v-58h371v-360h-371v-179q0 -114 -38 -200t-105 -137.5t-153 -77t-188 -25.5q-206 0 -318 65v341q94 -36 205 -36q72 0 119 34.5t47 108.5v106h-371v360h371v132q0 114 38 200t105 137.5t153 77t188 25.5q206 0 318 -65v-341
q-94 36 -205 36z" />
    <glyph glyph-name="uni01CD" unicode="&#x1cd;" 
d="M1155 1468h-570l-225 298h391l72 -83h95l72 83h391zM1237 0l-63 189h-614l-63 -189h-488l527 1434h662l527 -1434h-488zM676 539h382l-150 451h-82z" />
    <glyph glyph-name="uni01CE" unicode="&#x1ce;" 
d="M1155 1468h-570l-225 298h391l72 -83h95l72 83h391zM1237 0l-63 189h-614l-63 -189h-488l527 1434h662l527 -1434h-488zM676 539h382l-150 451h-82z" />
    <glyph glyph-name="uni01CF" unicode="&#x1cf;" horiz-adv-x="592" 
d="M-212 1766h391l72 -83h95l72 83h391l-225 -298h-570zM60 0v1434h472v-1434h-472z" />
    <glyph glyph-name="uni01D0" unicode="&#x1d0;" horiz-adv-x="592" 
d="M-212 1766h391l72 -83h95l72 83h391l-225 -298h-570zM60 0v1434h472v-1434h-472z" />
    <glyph glyph-name="uni01D1" unicode="&#x1d1;" horiz-adv-x="1693" 
d="M971 1475q317 -36 502.5 -240t185.5 -518q0 -171 -58 -313t-163 -241.5t-256.5 -155t-334.5 -55.5q-244 0 -428.5 95t-284.5 268.5t-100 401.5q0 314 185.5 518t502.5 240h-157l-225 298h390l72 -83h96l71 83h391l-225 -298h-164zM847 360q147 0 245 96t98 261t-98 260.5
t-245 95.5t-245.5 -95.5t-98.5 -260.5t98.5 -261t245.5 -96z" />
    <glyph glyph-name="uni01D2" unicode="&#x1d2;" horiz-adv-x="1693" 
d="M971 1475q317 -36 502.5 -240t185.5 -518q0 -171 -58 -313t-163 -241.5t-256.5 -155t-334.5 -55.5q-244 0 -428.5 95t-284.5 268.5t-100 401.5q0 314 185.5 518t502.5 240h-157l-225 298h390l72 -83h96l71 83h391l-225 -298h-164zM847 360q147 0 245 96t98 261t-98 260.5
t-245 95.5t-245.5 -95.5t-98.5 -260.5t98.5 -261t245.5 -96z" />
    <glyph glyph-name="uni01D3" unicode="&#x1d3;" horiz-adv-x="1604" 
d="M295 1766h391l72 -83h95l72 83h391l-225 -298h-570zM802 -48q-373 0 -557.5 164.5t-184.5 508.5v809h476v-797q0 -289 266 -289q137 0 203.5 76t66.5 213v797h473v-806q0 -346 -185 -511t-558 -165z" />
    <glyph glyph-name="uni01D4" unicode="&#x1d4;" horiz-adv-x="1604" 
d="M295 1766h391l72 -83h95l72 83h391l-225 -298h-570zM802 -48q-373 0 -557.5 164.5t-184.5 508.5v809h476v-797q0 -289 266 -289q137 0 203.5 76t66.5 213v797h473v-806q0 -346 -185 -511t-558 -165z" />
    <glyph glyph-name="uni01EA" unicode="&#x1ea;" horiz-adv-x="1693" 
d="M1659 717q0 -302 -173 -504t-471 -249q-17 -17 -17 -46q0 -75 87 -73v-256q-66 0 -130 12t-128 39t-103.5 82t-39.5 130q0 62 26 109q-312 38 -494 241.5t-182 514.5q0 345 222 554.5t591 209.5t590.5 -209.5t221.5 -554.5zM503 717q0 -165 98.5 -261t245.5 -96t245 96
t98 261t-98 260.5t-245 95.5t-245.5 -95.5t-98.5 -260.5z" />
    <glyph glyph-name="Scommaaccent" unicode="&#x218;" horiz-adv-x="1506" 
d="M742 -48q-376 2 -550.5 127t-165.5 401h425q8 -156 291 -159q130 -1 197.5 31t67.5 85q0 41 -35 70.5t-131 43.5l-184 29q-199 32 -266 51q-209 57 -283 188q-48 84 -48 205q0 216 175 336.5t511 120.5q129 0 231 -15t191 -51.5t147.5 -95.5t90.5 -150.5t29 -211.5h-421
q-28 156 -278 156q-113 0 -167.5 -30.5t-54.5 -82.5q0 -86 135 -107l151 -26q31 -5 87.5 -13.5t93 -14t90.5 -16.5t90.5 -22t82.5 -29.5t76.5 -39.5t62.5 -52.5t50.5 -68.5t30.5 -86t12 -107q0 -469 -734 -466zM662 -802q23 170 19 350h-160v339h479v-75
q0 -232 -27.5 -392.5t-61.5 -221.5h-249z" />
    <glyph glyph-name="scommaaccent" unicode="&#x219;" horiz-adv-x="1506" 
d="M742 -48q-376 2 -550.5 127t-165.5 401h425q8 -156 291 -159q130 -1 197.5 31t67.5 85q0 41 -35 70.5t-131 43.5l-184 29q-199 32 -266 51q-209 57 -283 188q-48 84 -48 205q0 216 175 336.5t511 120.5q129 0 231 -15t191 -51.5t147.5 -95.5t90.5 -150.5t29 -211.5h-421
q-28 156 -278 156q-113 0 -167.5 -30.5t-54.5 -82.5q0 -86 135 -107l151 -26q31 -5 87.5 -13.5t93 -14t90.5 -16.5t90.5 -22t82.5 -29.5t76.5 -39.5t62.5 -52.5t50.5 -68.5t30.5 -86t12 -107q0 -469 -734 -466zM662 -802q23 170 19 350h-160v339h479v-75
q0 -232 -27.5 -392.5t-61.5 -221.5h-249z" />
    <glyph glyph-name="uni021A" unicode="&#x21a;" horiz-adv-x="1605" 
d="M51 1434h1504v-395h-516v-1039h-472v1039h-516v395zM567 -452v339h479v-75q0 -232 -27.5 -392.5t-61.5 -221.5h-249q23 170 19 350h-160z" />
    <glyph glyph-name="uni021B" unicode="&#x21b;" horiz-adv-x="1605" 
d="M51 1434h1504v-395h-516v-1039h-472v1039h-516v395zM567 -452v339h479v-75q0 -232 -27.5 -392.5t-61.5 -221.5h-249q23 170 19 350h-160z" />
    <glyph glyph-name="circumflex" unicode="&#x2c6;" horiz-adv-x="1020" 
d="M0 1161l225 298h570l226 -298h-391l-72 83h-95l-72 -83h-391z" />
    <glyph glyph-name="caron" unicode="&#x2c7;" horiz-adv-x="1020" 
d="M0 1408h391l72 -84h95l72 84h391l-226 -299h-570z" />
    <glyph glyph-name="breve" unicode="&#x2d8;" horiz-adv-x="791" 
d="M396 1161q-225 0 -312.5 65.5t-83.5 232.5h283q-2 -53 28 -80t85 -27t85 27t28 80h283q4 -167 -83.5 -232.5t-312.5 -65.5z" />
    <glyph glyph-name="dotaccent" unicode="&#x2d9;" horiz-adv-x="344" 
d="M172 1166q-72 0 -122 46t-50 117t50 117.5t122 46.5t122.5 -46.5t50.5 -117.5t-50.5 -117t-122.5 -46z" />
    <glyph glyph-name="ring" unicode="&#x2da;" horiz-adv-x="484" 
d="M244 1050q-103 0 -173.5 70.5t-70.5 169.5q0 102 70.5 173t173.5 71t172 -71t69 -173q0 -99 -69.5 -169.5t-171.5 -70.5zM244 1242q24 0 38.5 13.5t12.5 38.5q-5 51 -51 51q-23 0 -37 -14t-14 -37q0 -25 13.5 -38.5t37.5 -13.5z" />
    <glyph glyph-name="ogonek" unicode="&#x2db;" horiz-adv-x="447" 
d="M401 -415q-66 0 -130 12t-128 39t-103.5 82t-39.5 130q0 52 19 94.5t48 70t71 48t81 31t86 17t78 8t64 1.5v-118q-74 0 -103.5 -26t-29.5 -59q0 -76 87 -74v-256z" />
    <glyph glyph-name="tilde" unicode="&#x2dc;" horiz-adv-x="839" 
d="M572 1157q-46 0 -94.5 15.5t-83 34t-77.5 34t-80 15.5q-46 0 -74 -22t-32 -60h-128q-12 76 6.5 135t58.5 94t91 52.5t109 17.5t118 -24.5t115 -49.5t101 -25t74 22t32 60h128q22 -146 -59 -222.5t-205 -76.5z" />
    <glyph glyph-name="hungarumlaut" unicode="&#x2dd;" horiz-adv-x="989" 
d="M0 1161l123 298h418l-123 -298h-418zM490 1161l123 298h418l-123 -298h-418z" />
    <glyph glyph-name="uni0326" unicode="&#x326;" horiz-adv-x="0" 
d="M-352 -802q23 170 19 350h-160v339h479v-75q0 -232 -27 -392.5t-61 -221.5h-250z" />
    <glyph glyph-name="uni0394" unicode="&#x394;" 
d="M1198 1434l527 -1434h-1716l527 1434h662zM628 379h478l-213 611h-52z" />
    <glyph glyph-name="uni03A9" unicode="&#x3a9;" horiz-adv-x="1628" 
d="M34 0v364h196v44q-84 78 -133 195t-49 250q0 131 53 245t149.5 199.5t242 134.5t321.5 49t321.5 -49t242 -134.5t149.5 -199.5t53 -245q0 -133 -49 -250t-133 -195v-44h196v-364h-700v507q40 12 75 32.5t68 53.5t52.5 84.5t19.5 114.5q0 113 -80.5 197t-214.5 84
t-214.5 -84t-80.5 -197q0 -63 19.5 -114.5t52.5 -84.5t68 -53.5t75 -32.5v-507h-700z" />
    <glyph glyph-name="uni03BC" unicode="&#x3bc;" horiz-adv-x="1413" 
d="M881 1161h472v-1161h-464l-8 152h-45q-53 -80 -135 -124t-169 -52v-232h-472v1417h472v-640q0 -53 18 -89.5t48 -52t55.5 -21t54.5 -5.5q79 0 126 44.5t47 104.5v659z" />
    <glyph glyph-name="pi" unicode="&#x3c0;" horiz-adv-x="1689" 
d="M1539 382q21 0 50.5 7t40.5 4v-323q-68 -84 -273 -84q-84 0 -150 18.5t-119.5 60t-82.5 117t-29 182.5v462h-300v-826h-473v826h-143v335h1531v-335h-142v-369q0 -75 90 -75z" />
    <glyph glyph-name="Wgrave" unicode="&#x1e80;" horiz-adv-x="2201" 
d="M1316 1519h-418l-123 299h418zM312 0l-278 1434h480l153 -929h41l205 929h376l204 -929h41l154 929h479l-278 -1434h-638l-130 689h-41l-129 -689h-639z" />
    <glyph glyph-name="wgrave" unicode="&#x1e81;" horiz-adv-x="2201" 
d="M1316 1519h-418l-123 299h418zM312 0l-278 1434h480l153 -929h41l205 929h376l204 -929h41l154 929h479l-278 -1434h-638l-130 689h-41l-129 -689h-639z" />
    <glyph glyph-name="Wacute" unicode="&#x1e82;" horiz-adv-x="2201" 
d="M891 1519l123 299h418l-123 -299h-418zM312 0l-278 1434h480l153 -929h41l205 929h376l204 -929h41l154 929h479l-278 -1434h-638l-130 689h-41l-129 -689h-639z" />
    <glyph glyph-name="wacute" unicode="&#x1e83;" horiz-adv-x="2201" 
d="M891 1519l123 299h418l-123 -299h-418zM312 0l-278 1434h480l153 -929h41l205 929h376l204 -929h41l154 929h479l-278 -1434h-638l-130 689h-41l-129 -689h-639z" />
    <glyph glyph-name="Wdieresis" unicode="&#x1e84;" horiz-adv-x="2201" 
d="M841 1524q-72 0 -122 46.5t-50 117.5t50 117.5t122 46.5t122.5 -46.5t50.5 -117.5t-50.5 -117.5t-122.5 -46.5zM1362 1524q-72 0 -122 46.5t-50 117.5t50 117.5t122 46.5t122 -46.5t50 -117.5t-50 -117.5t-122 -46.5zM312 0l-278 1434h480l153 -929h41l205 929h376
l204 -929h41l154 929h479l-278 -1434h-638l-130 689h-41l-129 -689h-639z" />
    <glyph glyph-name="wdieresis" unicode="&#x1e85;" horiz-adv-x="2201" 
d="M841 1524q-72 0 -122 46.5t-50 117.5t50 117.5t122 46.5t122.5 -46.5t50.5 -117.5t-50.5 -117.5t-122.5 -46.5zM1362 1524q-72 0 -122 46.5t-50 117.5t50 117.5t122 46.5t122 -46.5t50 -117.5t-50 -117.5t-122 -46.5zM312 0l-278 1434h480l153 -929h41l205 929h376
l204 -929h41l154 929h479l-278 -1434h-638l-130 689h-41l-129 -689h-639z" />
    <glyph glyph-name="uni1E9E" unicode="&#x1e9e;" horiz-adv-x="1722" 
d="M1251 858q103 2 188 -36t138 -102.5t82 -144t29 -164.5q0 -216 -142 -332.5t-397 -116.5q-149 0 -254 29.5t-166 87t-88.5 134t-27.5 178.5h385q6 -59 52 -88.5t92 -29.5q58 0 100.5 35t42.5 103q0 62 -42 102t-101 40q-68 0 -111 -43h-382l307 529h-260
q-157 0 -157 -175v-864h-479v966q0 140 33.5 232.5t104.5 144t165 71.5t233 20h1020z" />
    <glyph glyph-name="Ygrave" unicode="&#x1ef2;" horiz-adv-x="1645" 
d="M1036 1519h-418l-123 299h418zM1645 1434l-587 -989v-445h-473v447l-585 987h497l307 -540h37l308 540h496z" />
    <glyph glyph-name="ygrave" unicode="&#x1ef3;" horiz-adv-x="1645" 
d="M1036 1519h-418l-123 299h418zM1645 1434l-587 -989v-445h-473v447l-585 987h497l307 -540h37l308 540h496z" />
    <glyph glyph-name="endash" unicode="&#x2013;" horiz-adv-x="1536" 
d="M68 488v394h1400v-394h-1400z" />
    <glyph glyph-name="emdash" unicode="&#x2014;" horiz-adv-x="1672" 
d="M68 488v394h1536v-394h-1536z" />
    <glyph glyph-name="quoteleft" unicode="&#x2018;" horiz-adv-x="658" 
d="M444 1434q-26 -179 -22 -407h186v-394h-557v87q0 268 32 454.5t71 259.5h290z" />
    <glyph glyph-name="quoteright" unicode="&#x2019;" horiz-adv-x="658" 
d="M215 633q26 179 22 406h-186v395h557v-87q0 -268 -32 -454.5t-71 -259.5h-290z" />
    <glyph glyph-name="quotesinglbase" unicode="&#x201a;" horiz-adv-x="658" 
d="M215 -406q26 179 22 406h-186v394h557v-87q0 -268 -32 -454t-71 -259h-290z" />
    <glyph glyph-name="quotedblleft" unicode="&#x201c;" horiz-adv-x="1177" 
d="M406 1434q-20 -154 -20 -407h165v-394h-493v87q0 268 28 455t62 259h258zM980 1434q-21 -162 -21 -407h166v-394h-494v87q0 268 28 454.5t63 259.5h258z" />
    <glyph glyph-name="quotedblright" unicode="&#x201d;" horiz-adv-x="1177" 
d="M198 633q20 154 20 406h-165v395h493v-87q0 -268 -28 -455t-62 -259h-258zM771 633q21 162 21 406h-166v395h494v-87q0 -268 -28 -454.5t-63 -259.5h-258z" />
    <glyph glyph-name="quotedblbase" unicode="&#x201e;" horiz-adv-x="1177" 
d="M198 -469q20 154 20 406h-165v394h493v-87q0 -268 -28 -454t-62 -259h-258zM771 -469q21 162 21 406h-166v394h494v-87q0 -268 -28 -454t-63 -259h-258z" />
    <glyph glyph-name="dagger" unicode="&#x2020;" horiz-adv-x="1378" 
d="M1294 1190v-374h-408v-406h-394v406h-407v374h407v407h394v-407h408z" />
    <glyph glyph-name="daggerdbl" unicode="&#x2021;" horiz-adv-x="1378" 
d="M1294 816h-408v-353h408v-374h-408v-406h-394v406h-407v374h407v353h-407v374h407v407h394v-407h408v-374z" />
    <glyph glyph-name="bullet" unicode="&#x2022;" horiz-adv-x="1058" 
d="M529 357q-147 0 -252.5 106.5t-105.5 253.5t105.5 253.5t252.5 106.5t252.5 -106.5t105.5 -253.5t-105.5 -253.5t-252.5 -106.5z" />
    <glyph glyph-name="ellipsis" unicode="&#x2026;" horiz-adv-x="1815" 
d="M295 -27q-96 0 -165.5 68.5t-69.5 163.5t69.5 163.5t165.5 68.5t166 -69t70 -163t-70 -163t-166 -69zM908 -27q-96 0 -166 69t-70 163t70 163t166 69t165.5 -68.5t69.5 -163.5t-69.5 -163.5t-165.5 -68.5zM1521 -27q-96 0 -166 69t-70 163t70 163t166 69t165.5 -68.5
t69.5 -163.5t-69.5 -163.5t-165.5 -68.5z" />
    <glyph glyph-name="perthousand" unicode="&#x2030;" horiz-adv-x="2834" 
d="M631 -49l-198 133l926 1408l197 -133zM466 691q-99 0 -175.5 30t-122 83.5t-68.5 121t-23 147.5q0 79 23 146.5t68.5 120.5t122 83.5t175.5 30.5t175.5 -30.5t122 -83.5t68.5 -120.5t23 -146.5q0 -80 -23 -147.5t-68.5 -121t-122 -83.5t-175.5 -30zM466 981q46 0 69 27
t23 65t-22.5 64.5t-69.5 26.5t-69.5 -26.5t-22.5 -64.5t23 -65t69 -27zM1522 -20q-99 0 -175.5 30t-122 83.5t-68.5 121t-23 147.5q0 79 23 146t68.5 120.5t122 83.5t175.5 30t175.5 -30t122 -83.5t68.5 -120.5t23 -146q0 -80 -23 -147.5t-68.5 -121t-122 -83.5t-175.5 -30z
M2367 -20q-99 0 -175.5 30t-122 83.5t-68.5 121t-23 147.5q0 79 23 146t68.5 120.5t122 83.5t175.5 30t175.5 -30t122 -83.5t68.5 -120.5t23 -146q0 -80 -23 -147.5t-68.5 -121t-122 -83.5t-175.5 -30zM1522 270q47 0 70 27.5t23 64.5q0 38 -23 64t-70 26t-69.5 -26
t-22.5 -64t23 -65t69 -27zM2367 270q46 0 69 27t23 65t-22.5 64t-69.5 26t-69.5 -26t-22.5 -64t23 -65t69 -27z" />
    <glyph glyph-name="guilsinglleft" unicode="&#x2039;" horiz-adv-x="1024" 
d="M922 205h-489l-331 512l331 512h489l-331 -512z" />
    <glyph glyph-name="guilsinglright" unicode="&#x203a;" horiz-adv-x="1024" 
d="M102 205l331 512l-331 512h489l331 -512l-331 -512h-489z" />
    <glyph glyph-name="Euro" unicode="&#x20ac;" horiz-adv-x="1658" 
d="M905 360q234 0 290 234h428q-13 -142 -60 -254t-115 -183.5t-158.5 -118.5t-185 -66.5t-199.5 -19.5q-291 0 -490.5 153t-257.5 414h-123v153h104q-1 8 -1 45v20h-103v152h118q51 273 252.5 432.5t500.5 159.5q105 0 199 -19.5t184.5 -66t159 -118t115.5 -182.5t60 -252
h-428q-56 230 -290 230q-95 0 -170 -48.5t-115 -135.5h279v-152h-315v-20q0 -38 1 -45h314v-153h-268q42 -75 114.5 -117t159.5 -42z" />
    <glyph glyph-name="uni2116" unicode="&#x2116;" horiz-adv-x="2066" 
d="M1632 647q-174 0 -287.5 115.5t-113.5 283.5t113.5 283t287.5 115t287.5 -115t113.5 -283t-113.5 -283.5t-287.5 -115.5zM60 0v1434h368l261 -623h41v623h413v-1434h-368l-261 623h-41v-623h-413zM1632 939q47 0 77 30.5t30 76.5q0 45 -30 75.5t-77 30.5t-77.5 -30.5
t-30.5 -75.5q0 -46 30.5 -76.5t77.5 -30.5zM1263 133v374h737v-374h-737z" />
    <glyph glyph-name="trademark" unicode="&#x2122;" horiz-adv-x="1467" 
d="M1126 1434h291v-649h-200v367h-24l-53 -367h-201l-53 367h-24v-367h-200v466h-176v-466h-220v466h-215v183h901l72 -437h31z" />
    <glyph glyph-name="partialdiff" unicode="&#x2202;" horiz-adv-x="1402" 
d="M671 1471q117 0 217.5 -23.5t190.5 -78.5t153 -139.5t100 -213.5t37 -292q0 -130 -18.5 -237.5t-66 -207t-122.5 -168t-195.5 -109t-278.5 -40.5q-319 0 -486.5 134.5t-167.5 364.5q0 95 29.5 171.5t81.5 129t124.5 88t157 52t181.5 16.5q210 0 317 -58q3 78 -18.5 132
t-61.5 80.5t-82 37t-92 10.5q-90 0 -154.5 -30.5t-77.5 -96.5h-376q-3 119 39 211t122.5 150t193 87.5t253.5 29.5zM693 311q110 0 169.5 45t59.5 117q0 77 -58.5 117.5t-170.5 40.5t-173 -42.5t-61 -115.5q0 -71 61.5 -116.5t172.5 -45.5z" />
    <glyph glyph-name="product" unicode="&#x220f;" horiz-adv-x="1250" 
d="M60 1536h1131v-1792h-472v1398h-187v-1398h-472v1792z" />
    <glyph glyph-name="summation" unicode="&#x2211;" horiz-adv-x="1225" 
d="M60 -256v394l539 487l-539 517v394h1106v-394h-587l518 -493v-48l-518 -463h587v-394h-1106z" />
    <glyph glyph-name="minus" unicode="&#x2212;" horiz-adv-x="1242" 
d="M85 521v394h1072v-394h-1072z" />
    <glyph glyph-name="radical" unicode="&#x221a;" horiz-adv-x="1460" 
d="M486 -256l-189 705h-212v394h478l176 -657h27l234 1350h376l-335 -1792h-555z" />
    <glyph glyph-name="infinity" unicode="&#x221e;" horiz-adv-x="1474" 
d="M1065 1084q83 0 147 -29.5t101.5 -81t56.5 -115.5t19 -139q0 -78 -18.5 -143.5t-56.5 -117t-101.5 -81t-147.5 -29.5q-108 0 -182.5 50t-145.5 146q-71 -96 -145 -146t-181 -50q-84 0 -148 29.5t-102 81t-57 117t-19 143.5q0 75 19 139t56.5 115.5t102 81t148.5 29.5
q74 0 136 -28t103 -67.5t87 -102.5q34 46 64.5 78.5t70.5 61.5t88 43.5t105 14.5zM456 620q38 0 72.5 19.5t89.5 80.5q-57 58 -91.5 77.5t-70.5 19.5q-49 0 -71.5 -30t-22.5 -67q0 -42 22 -71t72 -29zM1019 620q50 0 72 29t22 71q0 37 -22.5 67t-71.5 30q-36 0 -69.5 -19.5
t-89.5 -77.5q54 -61 87.5 -80.5t71.5 -19.5z" />
    <glyph glyph-name="integral" unicode="&#x222b;" horiz-adv-x="1377" 
d="M420 -256q-206 0 -318 65v341q94 -36 205 -36q72 0 119 35t47 109v826q0 114 38 200t105 137.5t153 77t188 25.5q206 0 318 -65v-341q-94 36 -205 36q-72 0 -118.5 -35t-46.5 -109v-826q0 -113 -38 -199.5t-105.5 -138t-153.5 -77t-188 -25.5z" />
    <glyph glyph-name="approxequal" unicode="&#x2248;" horiz-adv-x="1218" 
d="M799 736q-58 1 -119.5 20.5t-104.5 42.5t-96.5 42t-99.5 19q-57 0 -91.5 -27t-38.5 -75h-160q-15 94 7.5 168t72.5 117.5t114 66t137 22.5q57 0 117 -19t103 -42t96.5 -43t99.5 -21q58 2 93 28.5t40 73.5h161q12 -76 -1 -138.5t-44.5 -105t-78 -72t-98.5 -43t-109 -14.5z
M799 299q-58 1 -119.5 20.5t-104.5 42.5t-96.5 42t-99.5 19q-57 0 -91.5 -27t-38.5 -75h-160q-15 94 7.5 168t72.5 117.5t114 66t137 22.5q57 0 117 -19t103 -42t96.5 -43t99.5 -21q58 2 93 28.5t40 73.5h161q12 -76 -1 -138.5t-44.5 -105t-78 -72t-98.5 -43t-109 -14.5z
" />
    <glyph glyph-name="notequal" unicode="&#x2260;" horiz-adv-x="1242" 
d="M1167 1432l-121 -275h111v-394h-287l-39 -91h326v-394h-502l-92 -208h-488l92 208h-82v394h258l39 91h-297v394h473l121 275h488z" />
    <glyph glyph-name="lessequal" unicode="&#x2264;" horiz-adv-x="1242" 
d="M1152 502l-1068 327v540l1068 334v-404l-705 -178v-44l705 -178v-397zM85 0v394h1072v-394h-1072z" />
    <glyph glyph-name="greaterequal" unicode="&#x2265;" horiz-adv-x="1309" 
d="M157 502v397l705 178v44l-705 178v404l1068 -334v-540zM1224 0h-1072v394h1072v-394z" />
    <glyph glyph-name="lozenge" unicode="&#x25ca;" horiz-adv-x="1331" 
d="M427 0q-27 0 -34 22l-301 674q-11 21 0 41l301 674q8 23 34 23h478q26 0 34 -23l300 -674q11 -20 0 -41l-300 -674q-7 -22 -34 -22h-478zM666 331l167 386l-167 386l-168 -386z" />
    <glyph glyph-name="G.ss01" horiz-adv-x="1667" 
d="M1621 792q18 -198 -30 -357.5t-150 -265t-252.5 -161.5t-338.5 -56q-371 0 -593.5 210.5t-222.5 554.5q0 227 101 400.5t286.5 268.5t428.5 95q107 0 207.5 -19.5t193 -63t164.5 -106.5t122 -155t66 -205h-470q-25 56 -96 98.5t-177 42.5q-156 0 -256.5 -97.5
t-100.5 -258.5q0 -162 95 -259.5t252 -97.5q42 0 80.5 6.5t86 24t84.5 57t54 98.5h-324v246h790z" />
    <glyph glyph-name="i.loclTRK" horiz-adv-x="592" 
d="M295 1524q-72 0 -122 46.5t-50 117.5t50 117.5t122 46.5t122.5 -46.5t50.5 -117.5t-50.5 -117.5t-122.5 -46.5zM60 0v1434h472v-1434h-472z" />
    <glyph glyph-name="g.ss01" horiz-adv-x="1667" 
d="M1621 792q18 -198 -30 -357.5t-150 -265t-252.5 -161.5t-338.5 -56q-371 0 -593.5 210.5t-222.5 554.5q0 227 101 400.5t286.5 268.5t428.5 95q107 0 207.5 -19.5t193 -63t164.5 -106.5t122 -155t66 -205h-470q-25 56 -96 98.5t-177 42.5q-156 0 -256.5 -97.5
t-100.5 -258.5q0 -162 95 -259.5t252 -97.5q42 0 80.5 6.5t86 24t84.5 57t54 98.5h-324v246h790z" />
    </font>
</defs>
</svg>
